<svg xmlns="http://www.w3.org/2000/svg" viewBox="0 0 182.93 277.15"><defs><style>.cls-1{fill:#c4c3c6;}.cls-2{fill:#fff;}</style></defs><title>membership</title><g id="Warstwa_2" data-name="Warstwa 2"><g id="Warstwa_8" data-name="Warstwa 8"><path d="M54.48,183.92c-7.94-1.55-13.92-6-18.94-12.06-3.15-3.77-6.49-7.3-11.23-9.14A12.38,12.38,0,0,1,21.52,161c-8.14-6.11-12.93-14.45-15.65-24.07-.94-3.35-1.48-6.82-2.21-10.23V115.3c1-3.74,2-7.47,2.9-11.24,1-4.56,2.45-9,3.26-13.63,1-6.09.15-12.11-.6-18.09C8,62.86,10.63,54.46,15.86,46.76a21.25,21.25,0,0,1,8.63-7.63c3.1-1.46,6.19-2.91,9.4-4.11,5.63-2.09,9.55-5.78,11-11.77a19,19,0,0,1,6.72-10.88A41.82,41.82,0,0,1,67.33,5.16c1-.26,2.12-.2,3-.85h7.46c2.54.77,5.2.87,7.77,1.54a125.25,125.25,0,0,0,19.1,3.86,36.67,36.67,0,0,1,17.77,6.72,69.64,69.64,0,0,0,6.39,4.21,59.45,59.45,0,0,1,9.88,7,77.71,77.71,0,0,0,14,9.91,32.8,32.8,0,0,1,16.76,21.31,136.58,136.58,0,0,0,5.86,18.43,47.23,47.23,0,0,1,4.23,18.9,7.1,7.1,0,0,0,1.3,4.25v12.72c-.13.15-.36.28-.38.44-.91,8-3.84,14.84-10.11,20.13-3.32,2.82-4.12,6.54-3.2,10.75a22.28,22.28,0,0,1-3,17c-4.3,7-11.32,10.09-18.51,12.92q-6.63,2.61-13.47,4.65c-.88.26-1.36.51-.94,1.75,2.06,6.18,3.91,12.43,5.91,18.63q9.93,30.73,19.9,61.46a1.07,1.07,0,0,0-.36.2l-27-22.87a7.68,7.68,0,0,0-.45,1c-1.66,7-3.38,14.07-5,21.13-.92,4.16-2.33,8.22-2.68,12.51h-.44L93.43,187.05l-28,85.79c-2.85-12-5.55-23.3-8.26-34.69a38.62,38.62,0,0,0-4.06,3c-5.25,5.12-11.25,9.39-16.54,14.45-1.38,1.31-3.34,1.82-4.38,3.46-.34.54-.61,1.09-1.28.83-.85-.32-.59-1.07-.4-1.69.68-2.2,1.39-4.39,2.1-6.58"/><path d="M52.44,185.38c-8.19-1.61-14.36-6.25-19.54-12.45-3.25-3.89-6.7-7.54-11.59-9.44a12.57,12.57,0,0,1-2.88-1.76C10,155.42,5.08,146.82,2.28,136.89c-1-3.46-1.53-7-2.28-10.56V114.56c1-3.87,2.11-7.71,3-11.61,1.07-4.7,2.54-9.3,3.37-14.07,1.09-6.28.16-12.49-.61-18.67-1.23-9.78,1.45-18.45,6.84-26.4a22,22,0,0,1,8.91-7.87c3.21-1.51,6.39-3,9.7-4.24,5.81-2.16,9.86-6,11.37-12.15A19.6,19.6,0,0,1,49.5,8.32C54.31,4.55,59.86,2.39,65.71.88c1-.27,2.18-.21,3.12-.88h7.69c2.62.79,5.37.9,8,1.59a128.54,128.54,0,0,0,19.72,4,37.81,37.81,0,0,1,18.34,6.93,71.2,71.2,0,0,0,6.59,4.34A62.33,62.33,0,0,1,139.39,24a80.5,80.5,0,0,0,14.49,10.23c9,4.75,14.66,12.25,17.29,22,1.74,6.43,3.42,12.86,6.05,19a48.61,48.61,0,0,1,4.37,19.5,7.3,7.3,0,0,0,1.34,4.38v13.13c-.13.16-.37.3-.39.46-.94,8.2-4,15.31-10.43,20.78-3.43,2.9-4.26,6.74-3.31,11.09a23,23,0,0,1-3.1,17.52c-4.44,7.19-11.68,10.41-19.1,13.34-4.57,1.79-9.2,3.4-13.91,4.79-.9.27-1.4.54-1,1.82,2.12,6.37,4,12.82,6.1,19.22q10.25,31.73,20.54,63.43a1.41,1.41,0,0,0-.38.21l-27.83-23.61a8.65,8.65,0,0,0-.46,1.06c-1.72,7.27-3.49,14.52-5.12,21.81-.95,4.29-2.4,8.48-2.77,12.9h-.45c-9.53-29.37-19-58.74-28.71-88.5-2.75,8.45-12.26,37.62-28.85,88.54-2.95-12.37-5.72-24-8.52-35.8a40.25,40.25,0,0,0-4.2,3.12c-5.42,5.29-11.6,9.69-17.07,14.91-1.42,1.36-3.45,1.88-4.52,3.58-.35.55-.62,1.13-1.32.86-.87-.33-.61-1.11-.41-1.75.7-2.27,1.43-4.53,2.17-6.79"/><path class="cls-1" d="M98.81,161.25c.68-1.11,2-.5,2.89-1.85-4.26,1.38-8.25,1.18-12.22,1.15a58.7,58.7,0,0,1-27.42-7.23,59.82,59.82,0,0,1-24.65-23.9c-8.65-15.5-10.73-31.94-5.88-49.07A61.13,61.13,0,0,1,55.74,46.23c5.14-3.65,11-5.84,16.65-8.57,6.45-3.14,13-3.47,19.77-3.39a61,61,0,0,1,36.77,12.87A62.12,62.12,0,0,1,145.4,65.53c5.88,10.17,9.19,20.91,8.94,32.85-.4,19-7.48,34.78-21.41,47.46a61.89,61.89,0,0,1-32.22,15.39,7.88,7.88,0,0,1-1.09.09A6.11,6.11,0,0,1,98.81,161.25ZM64.21,144.7a3.8,3.8,0,0,0,2,1.58c14,6.54,28.31,7.44,42.88,2.27a43.53,43.53,0,0,0,17-10.38c2.65-1.65,4.55-4.07,6.47-6.44a54.12,54.12,0,0,0,4.17-61.86c-1.71-2.82-3.22-5.9-6.24-7.7,0-1-.72-1.56-1.34-2.16C114.68,46,97.54,41,77.88,45.27A46.74,46.74,0,0,0,54.94,57.34a4.15,4.15,0,0,0-1.75,1.27,45.66,45.66,0,0,0-8,9.77c-11.55,19-11.67,38.31-.86,57.7.8,1.42,1.58,3,3.17,3.77A4.89,4.89,0,0,0,49,132.66c1.41,1.57,3,3,4.38,4.57A31.73,31.73,0,0,0,64.21,144.7Z"/><path class="cls-2" d="M149.74,248.37c-2.65-1.57-4.67-3.89-6.89-5.94-5.34-4.93-10.57-10-16.22-15.35-1.93,10.44-3.78,20.46-5.64,30.49l-.42,0c-.61-1.74-1.24-3.46-1.81-5.21-3.48-10.73-11.88-36.23-15.33-47-.26-.83-1.11-1.77-.22-2.63s1.44.25,2.17.4a4.46,4.46,0,0,0,1.31.1c4-.38,9,.47,13.06,0,3.71-.46,4-6.49,7.83-6.27a3.49,3.49,0,0,1,2.62.91c1.09,1.28,1.15,0,1.5-.81,1.63,2.71,9.49,24.48,10.34,27.17,1.63,5.2,3.69,10.25,5.18,15.48.82,2.88,1.7,5.73,2.55,8.59Z"/><path class="cls-1" d="M81.28,210.41c1.16-1.15.66-2.62,1.18-3.95.84.58.62,1.33.46,1.95-2.2,8.63-11.47,37.61-14.51,46-.64,1.77-1,3.63-1.54,5.45-.15.53-.12,1.2-1.09,1.34-.46-4.92-2-9.61-2.9-14.43s-2.14-9.52-3.21-14.28c-.3-1.38-.46-2.25-2-.71-7.14,7-14.4,13.79-21.63,20.66a3.4,3.4,0,0,1-.76.34c4-12.5,14.78-45.23,19.24-57.34,1.09.35.93.86.83,1.24-.23.89-.05,1.24.95,1a6.2,6.2,0,0,1,5.79,1.76c1.38,1.32,3.6.7,5,2.05,2.56,2.51,6.27,3.3,8.76,5.93a2.9,2.9,0,0,0,1.71.88A4.84,4.84,0,0,1,81.28,210.41Z"/><path class="cls-1" d="M38.34,169.71a64.75,64.75,0,0,0-3.75-10.33c-.59-1.24.46-4.85,1.52-5.41a4,4,0,0,1,5,.77,101.43,101.43,0,0,1,10.29,11.72,34.32,34.32,0,0,0,6.11,6.23c1.82,1.43,3.17,3.4,5.38,4.42,1.11.52.8,1.39-.27,1.91a2.69,2.69,0,0,1-2.13.19,7.49,7.49,0,0,0-3.25-.27,15.27,15.27,0,0,1-8.65-1.81,8,8,0,0,0-4-.8c-2.17,0-3-2-4.3-3.33a17.18,17.18,0,0,1-2-3.31Z"/><path class="cls-2" d="M39.15,161.54A22.3,22.3,0,0,0,38,156.23c-.25-.68,1.08-1.9,2-1.84a5,5,0,0,1,3.59,1.69,66.35,66.35,0,0,1,5.8,7.67A25.74,25.74,0,0,0,52.86,168a25.7,25.7,0,0,0,3.3,3.3c.74.52.38.79-.49.72a3.53,3.53,0,0,1-1.6-.5,10.66,10.66,0,0,0-2.36-1,20.1,20.1,0,0,1-6.11-3.1A10.45,10.45,0,0,0,42.79,166c-1.61-.56-1.92-1.67-2.66-2.55a8.41,8.41,0,0,1-1-1.93Z"/><path class="cls-1" d="M141.87,173.21c-1.7.29-3.39.67-5.1.84a18.56,18.56,0,0,0-5.7,1.72,51.28,51.28,0,0,1-8.85,2.8c-6.33,1.49-12.75.73-19.08,1.39-6.7.7-13.39,1.59-20.11,2a13,13,0,0,1-7.33-1.64c-1.57-.9-1.69-1.73-.34-3,2.08-1.91,4.69-2.35,7.31-2.31,5,.07,9.73-1.37,14.59-2.07,3.22-.47,6.56-.18,9.85-.19s6.14-1.3,8.91-3c2.52-1.54,5.29-2.68,7.8-4.25s5.14-2.77,6.89-5.3c1.24-1.78,3.53-1.57,5.32-2.19a6.59,6.59,0,0,0,4.29-4.86c1-3.62,3.35-6.51,4.92-9.82,1.16-2.43,3.18-4.43,3.83-7.09a27.74,27.74,0,0,1,1.46-4.87,8.68,8.68,0,0,1,3.93-4.42c4.48-2.37,6.92-6.22,8.56-10.81.55-1.53-.25-2.88-.1-4.31a41.39,41.39,0,0,0-1.56-15.11c-1.12-4.1-1.29-8.42-3-12.38-.71-1.63-.66-3.57-1.12-5.32-1.37-5.25-2.63-10.52-3.61-15.85-.3-1.63-1.59-2.71-2.47-4A31.69,31.69,0,0,0,146.32,53c-6.1-5.48-11.23-12.06-18.77-15.86-6.33-3.2-12.29-7.19-19.25-9a24.88,24.88,0,0,0-6.09-.39c-5.16-.05-10.31-.41-15.48-.36-4.58.05-9.18-.2-13.77-.28a17.12,17.12,0,0,0-11.5,3.79,16.39,16.39,0,0,1-4.06,2c-3.87,1.64-7.06,4.19-10.31,6.74-5,3.88-9.39,8.4-14.6,12-1.49,1-1.87,3.06-2.48,4.73-1.1,3-3.38,5.23-5.26,7.67-2.92,3.78-5.46,7.55-5.36,12.63.06,3.09.54,6.24-.74,9.28-.57,1.37.69,2.94.27,4.31-.79,2.52-1.21,5.12-2.26,7.61-1.19,2.83-2.27,5.7-.69,9.18a35.58,35.58,0,0,1,3.19,10.3c.28,2.3,2.17,4,2.24,6.3.11,4,1.82,7.76,1.18,11.85-.52,3.28-3.1,5.16-4.62,7.75-.51.87-1.44.56-2.05-.14-4.22-4.84-8.82-9.61-8.57-16.61a72.53,72.53,0,0,1,.55-10.09c.08-.49.26-1.17,0-1.49-2.31-3.08-.16-5.92.49-8.79a49.15,49.15,0,0,0,1.41-5.46c.28-2.55,1.56-4.78,2-7.3a40.16,40.16,0,0,0-.25-17.66A30,30,0,0,1,13.07,57a39.3,39.3,0,0,1,3.62-7.58c1.43-2.14,3.7-3.27,5.2-5.2,2.38-3.05,5.76-3,9-3,4.12,0,7-2.34,9.61-5s5.57-4.46,7.88-7.22c2-2.44,4-4.87,4.42-8.18.19-1.51,1.48-2.36,2.45-3.24,4.1-3.7,8.18-7.44,13.26-9.84a3.18,3.18,0,0,1,1.24-.33,28.51,28.51,0,0,1,13.37,3.36c2.6,1.29,5.13,2.76,7.8,3.87A7.8,7.8,0,0,1,94.27,17c1.62,2.16,4,3.09,6.15,4.41a2.14,2.14,0,0,0,1.67.3c2.57-.62,5,0,7.44.78,1.41.45,2.88.28,4.32.54a43,43,0,0,1,10.73,4.06,77.52,77.52,0,0,1,13.88,8.17c2.11,1.62,4.85,2.21,6.89,4,4.75,4.16,9.6,8.26,13.75,13,3.14,3.59,4.7,8.26,6.78,12.54,2.48,5.08,5.65,9.78,8.33,14.74a32.72,32.72,0,0,1,3.61,12.61c.65,6.93.21,13.81-2.29,20.36-1.06,2.76-2.24,5.56-3.12,8.3-1.3,4.08-3.68,7.06-6.44,10-1.48,1.57-3.19,2.94-3.87,5.17a8.58,8.58,0,0,0-.48,2.53c0,3.73-.08,7.46,0,11.19a18.3,18.3,0,0,1-7.23,15.48,74.82,74.82,0,0,1-9.11,6.79,8.21,8.21,0,0,1-3.46,1.25l-.11-.09Z"/><path class="cls-2" d="M176.92,90.59a32.36,32.36,0,0,0-3.59-12.53c-2.66-4.93-5.81-9.59-8.27-14.64-2.07-4.26-3.62-8.9-6.74-12.47-4.12-4.71-8.94-8.78-13.66-12.91-2-1.78-4.75-2.36-6.85-4A77.72,77.72,0,0,0,124,25.94c-3.41-1.64-6.84-3.32-10.66-4-1.43-.26-2.89-.08-4.29-.54-2.41-.78-4.84-1.39-7.4-.78A2.09,2.09,0,0,1,100,20.3c-2.14-1.31-4.49-2.23-6.1-4.38a7.86,7.86,0,0,0-3.32-2.35c-2.66-1.1-5.17-2.55-7.76-3.84A28.25,28.25,0,0,0,69.55,6.39a3.13,3.13,0,0,0-1.23.33c-5,2.38-9.11,6.1-13.18,9.78-1,.87-2.24,1.71-2.43,3.21-.41,3.29-2.36,5.71-4.4,8.14C46,30.58,43,32.48,40.48,35S35,39.93,30.94,40c-3.24,0-6.59,0-9,3-1.5,1.92-3.75,3.05-5.18,5.18a39.07,39.07,0,0,0-3.59,7.53,29.77,29.77,0,0,0-1.44,18.61A40,40,0,0,1,12,91.82c-.49,2.5-1.76,4.72-2,7.25-.05.38-.12.76-.2,1.13C10.87,98.48,11.93,96.74,13,95a20.35,20.35,0,0,1,2.15-3,37.21,37.21,0,0,0-.49-15.12A28.21,28.21,0,0,1,16,59.22a37.18,37.18,0,0,1,3.4-7.12c1.35-2,3.48-3.08,4.9-4.9,2.23-2.86,5.4-2.8,8.47-2.82,3.87,0,6.58-2.2,9-4.68s5.24-4.19,7.41-6.78c1.93-2.29,3.77-4.58,4.16-7.7.18-1.41,1.39-2.21,2.3-3,3.85-3.47,7.7-7,12.46-9.24a3.05,3.05,0,0,1,1.17-.32,26.78,26.78,0,0,1,12.57,3.16c2.44,1.22,4.82,2.59,7.34,3.64a7.42,7.42,0,0,1,3.14,2.21c1.52,2,3.75,2.91,5.77,4.15a2,2,0,0,0,1.57.28,12.39,12.39,0,0,1,6.79.67,10.8,10.8,0,0,1,1.4.26l.32.09c.85.08,1.7.07,2.55.23a40.07,40.07,0,0,1,10.08,3.81,72.53,72.53,0,0,1,13,7.68c2,1.53,4.56,2.08,6.48,3.76a134.54,134.54,0,0,1,12.92,12.22c2.95,3.37,4.42,7.76,6.38,11.79,2.33,4.78,5.31,9.19,7.83,13.85a30.8,30.8,0,0,1,3.39,11.86c.15,1.64.24,3.29.25,4.92a10.38,10.38,0,0,0,.43,1c.46.78.95,1.6,1.15,2q1.7,3.15,3.35,6.25A47.76,47.76,0,0,0,176.92,90.59Z"/><path class="cls-2" d="M126.31,51.29c4.59,2.61,8.3,5,11.2,9.6a20.36,20.36,0,0,1,9.32,7.78c-4.53-11.58-13.64-19.38-23.51-25.62-5.21-3.29-10.58-6.77-16.24-9.12s-11.65-2.54-17.64-1.71C83.25,33.07,76.68,34.12,71,37A102.19,102.19,0,0,0,54.7,46.87c-3.76,2.87-6.9,6.68-9.9,10.5l-.09.09-.13.18c-.71.91-1.41,1.81-2.12,2.7a87.1,87.1,0,0,0-9.13,13.73,20.13,20.13,0,0,1,6.46-4.66c1.26-1.9,2.6-3.75,4-5.56l2.94-3.79c2.37-1.13,3.69-3.12,5.22-5.18A84.27,84.27,0,0,1,66.16,45.3a73.23,73.23,0,0,1,29.89-6.06,32.93,32.93,0,0,1,16.4,4.18C117.09,46,121.69,48.67,126.31,51.29ZM104.87,36.83c-.24-.15-.49-.29-.74-.43.29.09.58.18.86.29s.79.31,1.18.47C105.74,37,105.3,36.93,104.87,36.83Z"/><path class="cls-2" d="M122.57,138.24c4.33-2.61,7.82-5,10.55-9.59a19.5,19.5,0,0,0,8.78-7.79c-4.26,11.58-12.85,19.38-22.14,25.62-4.91,3.29-10,6.78-15.3,9.12s-11,2.55-16.62,1.72c-5.83-.86-12-1.9-17.4-4.74a96.41,96.41,0,0,1-15.34-9.91c-3.54-2.87-6.5-6.69-9.33-10.51l-.08-.09-.12-.18c-.67-.9-1.33-1.81-2-2.69A88.79,88.79,0,0,1,35,115.47a19.29,19.29,0,0,0,6.08,4.66c1.19,1.9,2.46,3.75,3.78,5.56.91,1.24,1.83,2.52,2.77,3.78,2.23,1.14,3.47,3.13,4.92,5.19a79.53,79.53,0,0,0,13.38,9.58,65.71,65.71,0,0,0,28.17,6,29.59,29.59,0,0,0,15.44-4.18C113.89,143.55,118.22,140.87,122.57,138.24Zm-20.2,14.47c-.23.15-.46.28-.69.42.27-.09.54-.18.81-.29s.74-.31,1.11-.47C103.19,152.5,102.78,152.6,102.37,152.71Z"/><path class="cls-2" d="M147.23,159.37a32.12,32.12,0,0,1,2.66-7.26c.47-.91-1.17-2.87-2.41-3a7.25,7.25,0,0,0-5.37,1.7,96.33,96.33,0,0,0-9.6,9.71,35.67,35.67,0,0,1-5.8,5.32c-1.79,1.32-3,2.86-5.26,4-1.14.59-.68,1.05.56,1.11a5.09,5.09,0,0,0,2.34-.41,14.86,14.86,0,0,1,3.51-1,28.49,28.49,0,0,0,9.18-3.22,15,15,0,0,1,4.22-1.47c2.38-.49,3-2,4.23-3.09a11.89,11.89,0,0,0,1.76-2.53Z"/><path d="M116,71.17l-8.15-3.71L70,71.2l-1.2,1.2c.1,2.12.19,4.25.27,6.37l.71.7,16.9.6c.31,12.81,1.71,22,1.86,28.33q1.4,6.66-2.68,8.42a27.91,27.91,0,0,1-8.37,2.7c0,3,17.68,2.68,12.54,3.11L78,123.26l-1.14,5.42L83,133.37l18.38-.64c6.17-.32,11.3-2,13.92-4.84a7.53,7.53,0,0,0,2.26-5.72Z"/><path class="cls-1" d="M108.26,66.44l-39.77.13c.15,2.81.29,5.63.41,8.44l21.37.44.34,37.07c0,3-3.29,5.09-8.3,5.54l-11.73.69,4.94,10.12,17.88-.73c6-.35,11-2.09,13.55-4.92a7.73,7.73,0,0,0,2.21-5.75Z"/><path class="cls-2" d="M109.39,65.26l-41,.3c0,.66.07,1.31.11,2l37,.74,0,50.78c0,4.06-4.7,7-11.75,7.58l-16.53,1L78,129.1l15.42-.63c6.33-.37,11.62-2.17,14.35-5.06a7.94,7.94,0,0,0,2.42-5.88Z"/></g></g></svg>