<svg xmlns="http://www.w3.org/2000/svg" viewBox="0 0 232.21 276.52"><defs><style>.cls-1,.cls-6{fill:#c4c3c6;}.cls-1,.cls-2,.cls-3,.cls-4{fill-rule:evenodd;}.cls-2{fill:#d8d8d8;}.cls-3,.cls-7{fill:#fff;}.cls-5{fill:#fefdfd;}</style></defs><title>Monere</title><g id="Warstwa_2" data-name="Warstwa 2"><g id="Warstwa_1-2" data-name="Warstwa 1"><g id="Group-2"><path id="Path" d="M160,4.75c35.1,10.36,53.22,65.69,41.19,118.11-5.68,24.78-17.13,46.38-32,60.89a46.26,46.26,0,0,1-19.92,11.88A38,38,0,0,1,136.61,197q-18.39,1.48-28.88-.51-10.86-2.07-23.26-11c-24.25-19-34.67-62.31-24.6-106.18C71.89,27,109.08-8.56,144.19,1.8,148.62,3.11,154.91,3.25,160,4.75Z"/><path class="cls-1" d="M136.35,186.17c9.93-2.5,31.52-23.32,41.75-52.15,9.48-26.75,8.25-61,2.13-78.57C173,34.78,166.6,22.53,146.69,14.2c4.27-.33,9.32,1.07,13.53,2.3,29.53,8.63,44.07,56.06,33.12,103.39-5.4,23.32-16.1,42.76-29.11,55.46-11.49,11.22-16.6,11.28-20.26,11.14C139.65,186.33,137.11,186.23,136.35,186.17Z"/><path id="Oval" class="cls-2" d="M174.94,115c10.62-46.9-4.51-92-33.81-100.8S79.48,36.36,68.86,83.26s4.51,92,33.8,100.8S164.32,161.92,174.94,115Z"/><path id="Oval-Copy" class="cls-1" d="M174.94,115c10.62-46.9-4.51-92-33.81-100.8S79.48,36.36,68.86,83.26s4.51,92,33.8,100.8S164.32,161.92,174.94,115Z"/><path class="cls-3" d="M130.55,24C108.41,25.8,87.36,51.87,81,87.64c-7.22,40.76,7.4,78.67,32.66,84.68a30.49,30.49,0,0,0,4.19.69,29.75,29.75,0,0,1-9.28-.71c-25.25-6-39.88-43.92-32.66-84.68,6.82-38.5,30.7-65.77,54.62-63.6Z"/><path class="cls-3" d="M109.93,185c25.42-.64,51.09-29.62,60.52-70.84,10.74-47-3.68-92-32.19-100.64a35.06,35.06,0,0,0-4.76-1.07,33.26,33.26,0,0,1,10.57,1.43c28.52,8.62,42.93,53.68,32.19,100.64C166.11,158.84,137.15,189,109.93,185Z"/><path class="cls-4" d="M138.94,160.51c10.39-11.73,18.29-29.35,21.2-50,5.78-41-10.21-78.36-35.69-83.54a30.1,30.1,0,0,0-12.75.18c7.6-3.55,15.59-4.41,23.36-2,25,7.82,38.19,46.75,29.46,87-4.51,20.8-14,37.87-25.58,48.42Z"/></g><path d="M84.07,137.86c3.66-1.68,7.36-3.39,11.12-5.09.36-.17.44-.36.41-1-1-18.35-4.21-37.5-5.16-55.86,0-.25,2.26.3,2.24,0,.18,0,.27.17.38.28l28.39,30c.41.43.41.43.75-.37,8.53-19.69,17.4-42.44,21.38-61.21.06-.28,5.29-.43,5.4-.71l.12,0,0,.8,3.18,60.91c.05,1,8-6.87,8.7-7.17,4.68-2.13,1.34,3.49,6.17,1.28a121.85,121.85,0,0,1-2.73,13.32c-.32,1.23-.69,2.44-1,3.67a1.15,1.15,0,0,1-.68.9q-9.92,4.26-19.41,8.39c-.42.18-5.61-1.58-5.64-2.24-.64-12.34,3.78-23,3.14-35.37l-.05-1c-.17.37-.28.6-.38.84q-8.77,19.86-17.18,38.89c-.24.54-4.29-1.78-4.58-2.09-6.47-7.08-8.9-11.61-15.11-18.38-.11-.12-.2-.26-.3-.39l-.09.11,0,.72,1.8,34.6c0,.83,0,.83-.45,1q-8.07,3.48-15.82,6.84c-.28.13-.45,0-.62-.32a70.2,70.2,0,0,1-4-11.23A1.43,1.43,0,0,1,84.07,137.86Z"/><path class="cls-5" d="M82,135.06c3.48-1.62,7-3.27,10.59-4.91.34-.15.41-.34.38-.92q-1.4-26.52-2.76-53l0-.77c.17,0,.25.16.35.26l27.05,28.9c.39.42.39.42.72-.35L143.44,45.4c.11-.26.2-.53.29-.79h.12l0,.77L147,104.06c.05,1,0,.9.59.61l13.56-6.28a114.71,114.71,0,0,1-2.59,12.83c-.3,1.19-.65,2.35-.95,3.53a1.08,1.08,0,0,1-.64.87q-9.45,4.11-18.48,8.07c-.4.18-.52.07-.55-.57Q137,105.29,136,87.47l0-1-.36.81q-8.35,19.14-16.34,37.44c-.23.53-.35.59-.62.29q-9.26-10.25-18.14-20c-.1-.11-.19-.25-.28-.37l-.09.1,0,.7q.85,16.67,1.73,33.33c0,.79,0,.79-.43,1l-15,6.58c-.28.12-.44,0-.6-.31A67.93,67.93,0,0,1,82,135.27,1.55,1.55,0,0,1,82,135.06Z"/><path d="M227.45,164.69c-4.23-3.9-9.73-5.64-16.33-5.16l-.84.08c-5.38.61-9.1,3.16-12.09,5.2l-.69.47a27.16,27.16,0,0,1-5.93,2.52c-1.09.38-2.21.77-3.34,1.21-4,1.53-7.87,3.26-11.65,4.94-6.51,2.88-12.74,5.64-19,7.38a19.53,19.53,0,0,0-8.08-5.84c-5.55-2.23-11.77-2.91-19-2.09a114.45,114.45,0,0,0-11.83,2.15c-1.23.27-2.45.54-3.66.79-2.42.5-4.92,1-7.29,1.28a22,22,0,0,1-5.23.06,22.75,22.75,0,0,1-4.15-1l-.29-.09c-7.76-2.39-13.82-4.38-17.07-5.45l-2.37-.77a39,39,0,0,0-16.2-1.4c-11.37,1.29-21.52,6.67-28,10.95C30.74,182.27,22.71,188,20,193.23c-.52.77-1.81,2.65-2.5,3.61C14.74,199.3,9.31,205.13,0,215.63l36.06,59.11a3.72,3.72,0,0,0,6.44-.17l0-.05c7.89-14.29,15.24-22.45,21.87-24.24a23.41,23.41,0,0,1,2.71-.51c1-.15,2.14-.29,3.23-.41a185.15,185.15,0,0,1,26.41-.66c1.79.05,3.61.17,5.54.3A82.25,82.25,0,0,0,117,249a34.56,34.56,0,0,0,12.74-3.83,97.45,97.45,0,0,0,9-5.7c2.52-1.73,4.91-3.36,7.34-4.69,5.1-2.77,10.33-5.2,15.88-7.76l1.85-.85a301,301,0,0,0,50.72-30.39c7-4.65,15.55-9.7,17.38-18.69C232.94,172.31,231,168,227.45,164.69Z"/><path class="cls-6" d="M221.88,170.75c-2.85-2.62-6.45-3.27-10.16-3-3.92.28-6.48,2.24-9.59,4.34s-7.29,3.19-10.92,4.6c-12.12,4.69-23.88,11.39-36.72,13.8-.82.16-1.36.13-1.69-.87a10.46,10.46,0,0,0-6.41-6.48c-9.66-3.89-20.1-.72-29.8,1.27-4.9,1-10.21,2.09-15.23,1.45a31.75,31.75,0,0,1-5.81-1.4c-10.42-3.2-17.82-5.7-19.49-6.23-21.76-6.83-47.67,15.21-48.84,19-.07.22-3.49,5.17-3.7,5.33-1.76,1.34-7.08,7.06-13.83,14.61l10.4,17.05a28,28,0,0,0,37.25,10.16,21.81,21.81,0,0,1,4.9-2,30.8,30.8,0,0,1,3.69-.71c10.29-1.5,20.7-1.47,31.07-1.15,9.7.29,19.93,2.28,28.87-2.52,5.66-3,10.64-7.27,16.32-10.36,5.93-3.23,12.08-6,18.2-8.86,8-3.69,16-7.46,23.32-12.36,4.85-3.24,9.44-6.87,14.19-10.26C203.13,192.37,231.17,179.31,221.88,170.75Z"/><path class="cls-7" d="M221.88,170.75c-2.85-2.62-6.45-3.27-10.16-3-3.92.28-6.48,2.24-9.59,4.34s-7.29,3.19-10.92,4.6c-12.12,4.69-23.88,11.39-36.72,13.8-.82.16-1.36.13-1.69-.87a10.46,10.46,0,0,0-6.41-6.48c-9.66-3.89-20.1-.72-29.8,1.27-4.9,1-10.21,2.09-15.23,1.45a31.75,31.75,0,0,1-5.81-1.4c-10.42-3.2-17.82-5.7-19.49-6.23-21.76-6.83-47.67,15.21-48.84,19-.07.22-3.49,5.17-3.7,5.33-1.76,1.34-7.08,7.06-13.83,14.61l10.7,17.54c7.58-.84,13.16-1.14,10.92-4.94-8.21-14,5-27,5.22-27.12,14.81-8.31,17.06-22.84,38.82-16,1.67.53,3.23.23,13.65,3.43,1.81.56,12.68,1.05,15,.79,4.09-.47,9.64-2.3,14.55-3.31,9.69-2,21.63-6.6,32.48,1.29,2.65,1.93,1.34,3.36,2.4,6.55.33,1,.87,1,1.69.87,12.84-2.41,24.6-9.11,36.72-13.8,3.63-1.41,7.74-2.43,10.92-4.6s5.67-4.06,9.59-4.34c3.71-.27,7.31.38,10.15,3a8.4,8.4,0,0,1,.67.66C224.63,174.57,224.23,172.91,221.88,170.75Z"/><path d="M155.14,188.34c3.48-2.33,8.89-3.31,10.64-1.21,1.95,2.33-1.14,7.78-1.52,8.47-4.71,8.32-13,7.47-26.45,15.43-14.08,8.33-14.41,12.41-21,12.33-7.06-.09-9.09-4.82-24.22-8.86-5-1.34-8.49-1.82-8.45-2.41.1-1.3,18.7,3.95,37.55-4.21,8.34-3.6,11.77-7.53,19.63-9.69,3.82-1,8.53-3.41,10.82-7A8.77,8.77,0,0,1,155.14,188.34Z"/></g></g></svg>