<?xml version="1.0" encoding="UTF-8"?>
<svg width="303px" height="162px" viewBox="0 0 303 162" version="1.1" xmlns="http://www.w3.org/2000/svg" xmlns:xlink="http://www.w3.org/1999/xlink">
    <!-- Generator: Sketch 53.1 (72631) - https://sketchapp.com -->
    <title>Group 6</title>
    <desc>Created with Sketch.</desc>
    <g id="Blog-Illustrations" stroke="none" stroke-width="1" fill="none" fill-rule="evenodd">
        <g id="Blog_illustrations-Copy-2" transform="translate(-903.000000, -316.000000)">
            <g id="Group-6" transform="translate(903.000000, 316.240000)">
                <path d="M17.4243489,100.789509 C12.9630663,98.6900815 9.23854307,95.3086399 5.98129722,90.8059765 C2.16799025,85.5346404 0.3,79.2309635 0.3,72.36 C0.3,69.4552524 0.395385041,66.9778281 0.601724776,64.8456508 C0.843910652,62.3430634 1.23915526,60.08705 1.83485486,58.0021014 C2.65996341,55.1142215 3.93165545,52.4470388 5.66931757,50.0774996 C6.54565948,48.8824879 7.54268324,47.6636116 8.69784819,46.3644453 L8.7737153,46.2799295 C13.3713312,41.2066982 18.6101522,37.4689227 24.4552535,35.2548692 C24.5083337,35.234763 24.5614549,35.2147146 24.6146171,35.1947239 C25.3399603,29.7346474 28.4166497,25.1854835 32.9345698,21.9583977 C36.8547549,19.1582655 41.4832208,17.76 46.35,17.76 C55.4232986,17.76 62.7051448,24.1092737 64.1061798,32.7184621 C64.4561238,32.8108664 64.8054312,32.9062399 65.1540927,33.0045803 C68.0747056,33.828343 70.7639543,34.8444163 73.2290243,36.0769513 C80.0408597,39.482869 84.6,45.3861072 84.6,53.31 C84.6,56.2957263 84.0131579,59.2368834 82.9190476,62.1089229 C82.0826967,64.3043441 81.0175185,66.3795203 79.7288299,68.3125532 C78.3101371,70.4405924 76.6673461,72.3269153 74.7880577,73.9377339 C72.8098218,75.6333647 70.6093628,76.9441414 68.2233562,77.7768797 C71.57575,79.3128412 74.5777706,81.4340334 77.1352835,84.0899122 C79.544916,86.5922228 81.5579702,89.4017381 83.1430802,92.4787163 C84.6406105,95.3856869 85.7496386,98.4471317 86.4570865,101.630647 C87.1123463,104.579317 87.45,107.472709 87.45,110.31 C87.45,113.249755 86.8801122,116.174177 85.8238346,119.439035 C84.9960864,121.997529 83.9505616,124.50029 82.6930802,126.941284 C81.5443411,129.171189 80.3074702,131.26607 78.9783503,133.224773 C76.839042,136.377438 74.513577,138.856244 71.640151,140.678365 C68.1450459,142.953569 64.4882459,144.745312 60.6891737,146.029774 L60.6397395,146.21965 C60.6159506,146.311023 60.5910841,146.402112 60.5651451,146.492899 C59.6055455,149.851497 57.8291982,152.803837 55.4124119,155.393251 C51.5590963,159.521804 46.2796093,161.76 40.65,161.76 C32.0625323,161.76 25.4643303,155.773067 23.9025839,148.049153 C19.3698804,147.022953 15.7241695,145.904539 12.7289828,144.556705 C12.6545809,144.523224 12.5805224,144.488985 12.5068188,144.453994 L12.3409987,144.375269 C12.2672951,144.340278 12.1939503,144.304536 12.1209757,144.268049 C8.44360995,142.429366 5.74677664,139.585382 3.84722685,136.057647 C3.02615587,134.532801 2.33628945,132.89645 1.74672558,131.127758 C1.17599297,129.41556 0.742148896,127.678475 0.449500257,125.922583 C0.156772614,124.166217 3.69482223e-13,122.546542 3.69482223e-13,120.96 C3.69482223e-13,116.989428 1.17119712,113.157406 3.37117014,109.857447 C6.87640366,104.599596 12.6543949,101.61 18.9,101.61 C18.9826034,101.61 19.0650793,101.610521 19.1474299,101.61156 L17.4243489,100.789509 Z" id="Path" fill="#000000" fill-rule="nonzero"></path>
                <path d="M44.6,124.16 C48.1000175,123.059995 50.8749898,122.010005 52.925,121.01 C54.9750103,120.009995 56.5249948,118.935006 57.575,117.785 C58.6250053,116.634994 59.2999985,115.360007 59.6,113.96 C59.9000015,112.559993 60.05,110.91001 60.05,109.01 C60.05,105.809984 58.650014,103.21001 55.85,101.21 C53.049986,99.20999 49.4000225,97.2600095 44.9,95.36 L44.6,124.16 Z M39.8,53.51 C38.2999925,53.51 36.6750088,53.9849953 34.925,54.935 C33.1749913,55.8850048 31.5750073,57.0849928 30.125,58.535 C28.6749928,59.9850073 27.4750048,61.5599915 26.525,63.26 C25.5749953,64.9600085 25.1,66.609992 25.1,68.21 C25.1,70.3100105 26.5499855,72.6099875 29.45,75.11 C32.3500145,77.6100125 35.899979,80.059988 40.1,82.46 L39.8,53.51 Z M39.8,92.66 L23.45,84.86 C21.7499915,84.059996 20.0500085,82.4850118 18.35,80.135 C16.6499915,77.7849883 15.8,74.8600175 15.8,71.36 C15.8,68.959988 15.8749993,66.9850078 16.025,65.435 C16.1750008,63.8849923 16.3999985,62.5850053 16.7,61.535 C17.0000015,60.4849948 17.4249973,59.5850038 17.975,58.835 C18.5250028,58.0849963 19.199996,57.2600045 20,56.36 C22.9000145,53.159984 25.9999835,50.9350063 29.3,49.685 C32.6000165,48.4349938 36.149981,47.4600035 39.95,46.76 L39.95,36.71 C39.95,35.909996 40.4749948,35.1350038 41.525,34.385 C42.5750053,33.6349963 43.8499925,33.26 45.35,33.26 C46.350005,33.26 46.85,33.759995 46.85,34.76 C46.85,35.560004 46.7250013,36.9099905 46.475,38.81 C46.2249988,40.7100095 46.1,43.159985 46.1,46.16 L49.1,46.16 C50.2000055,46.16 51.74999,46.3099985 53.75,46.61 C55.75001,46.9100015 57.7249903,47.3349973 59.675,47.885 C61.6250098,48.4350028 63.3499925,49.0849963 64.85,49.835 C66.3500075,50.5850038 67.1,51.4099955 67.1,52.31 C67.1,53.2100045 66.900002,54.1849948 66.5,55.235 C66.099998,56.2850053 65.600003,57.2599955 65,58.16 C64.399997,59.0600045 63.7500035,59.809997 63.05,60.41 C62.3499965,61.010003 61.700003,61.31 61.1,61.31 C60.299996,61.31 59.5500035,60.9350038 58.85,60.185 C58.1499965,59.4349963 57.000008,57.960011 55.4,55.76 C54.599996,54.6599945 53.300009,53.9350018 51.5,53.585 C49.699991,53.2349983 48.000008,53.06 46.4,53.06 C46.199999,53.5600025 46.0750003,54.209996 46.025,55.01 C45.9749998,55.810004 45.95,56.609996 45.95,57.41 L45.65,85.31 C47.65001,86.4100055 49.6749898,87.4099955 51.725,88.31 C53.7750103,89.2100045 56.399984,90.259994 59.6,91.46 C61.400009,92.1600035 62.9499935,93.1849933 64.25,94.535 C65.5500065,95.8850068 66.6249958,97.3849918 67.475,99.035 C68.3250043,100.685008 68.949998,102.409991 69.35,104.21 C69.750002,106.010009 69.95,107.709992 69.95,109.31 C69.95,110.310005 69.6750028,111.659992 69.125,113.36 C68.5749973,115.060009 67.8750043,116.734992 67.025,118.385 C66.1749958,120.035008 65.2750048,121.559993 64.325,122.96 C63.3749953,124.360007 62.500004,125.309998 61.7,125.81 C59.099987,127.510009 56.4250138,128.784996 53.675,129.635 C50.9249863,130.485004 47.950016,131.209997 44.75,131.81 C44.75,132.510004 44.6750008,133.784991 44.525,135.635 C44.3749993,137.485009 44.100002,139.259992 43.7,140.96 C43.499999,141.660004 43.0500035,142.384996 42.35,143.135 C41.6499965,143.885004 40.7500055,144.26 39.65,144.26 C39.249998,144.26 39.05,144.010003 39.05,143.51 C39.05,143.009998 39.0999995,141.985008 39.2,140.435 C39.3000005,138.884992 39.35,136.210019 39.35,132.41 C35.2499795,132.41 31.2500195,131.985004 27.35,131.135 C23.4499805,130.284996 20.50001,129.410005 18.5,128.51 C18.099998,128.309999 17.7250018,127.885003 17.375,127.235 C17.0249983,126.584997 16.7000015,125.810005 16.4,124.91 C16.0999985,124.009996 15.8750008,123.110005 15.725,122.21 C15.5749993,121.309996 15.5,120.560003 15.5,119.96 C15.5,119.259997 15.699998,118.610003 16.1,118.01 C16.500002,117.409997 17.099996,117.11 17.9,117.11 C18.4000025,117.11 18.9999965,117.259999 19.7,117.56 C20.4000035,117.860002 21.849989,118.609994 24.05,119.81 C26.3500115,121.110007 28.8249868,122.259995 31.475,123.26 C34.1250133,124.260005 36.0999935,124.76 37.4,124.76 C37.800002,124.76 38.499995,124.660001 39.5,124.46 L39.8,92.66 Z" id="$" fill="#FFFFFF" fill-rule="nonzero"></path>
                <path d="M47.6,126.16 C51.1000175,125.059995 53.8749898,124.010005 55.925,123.01 C57.9750103,122.009995 59.5249948,120.935006 60.575,119.785 C61.6250053,118.634994 62.2999985,117.360007 62.6,115.96 C62.9000015,114.559993 63.05,112.91001 63.05,111.01 C63.05,107.809984 61.650014,105.21001 58.85,103.21 C56.049986,101.20999 52.4000225,99.2600095 47.9,97.36 L47.6,126.16 Z M42.8,55.51 C41.2999925,55.51 39.6750088,55.9849953 37.925,56.935 C36.1749913,57.8850048 34.5750073,59.0849928 33.125,60.535 C31.6749928,61.9850073 30.4750048,63.5599915 29.525,65.26 C28.5749953,66.9600085 28.1,68.609992 28.1,70.21 C28.1,72.3100105 29.5499855,74.6099875 32.45,77.11 C35.3500145,79.6100125 38.899979,82.059988 43.1,84.46 L42.8,55.51 Z M42.8,94.66 L26.45,86.86 C24.7499915,86.059996 23.0500085,84.4850118 21.35,82.135 C19.6499915,79.7849883 18.8,76.8600175 18.8,73.36 C18.8,70.959988 18.8749993,68.9850078 19.025,67.435 C19.1750008,65.8849923 19.3999985,64.5850053 19.7,63.535 C20.0000015,62.4849948 20.4249973,61.5850038 20.975,60.835 C21.5250028,60.0849963 22.199996,59.2600045 23,58.36 C25.9000145,55.159984 28.9999835,52.9350063 32.3,51.685 C35.6000165,50.4349938 39.149981,49.4600035 42.95,48.76 L42.95,38.71 C42.95,37.909996 43.4749948,37.1350038 44.525,36.385 C45.5750053,35.6349963 46.8499925,35.26 48.35,35.26 C49.350005,35.26 49.85,35.759995 49.85,36.76 C49.85,37.560004 49.7250013,38.9099905 49.475,40.81 C49.2249988,42.7100095 49.1,45.159985 49.1,48.16 L52.1,48.16 C53.2000055,48.16 54.74999,48.3099985 56.75,48.61 C58.75001,48.9100015 60.7249903,49.3349973 62.675,49.885 C64.6250098,50.4350028 66.3499925,51.0849963 67.85,51.835 C69.3500075,52.5850038 70.1,53.4099955 70.1,54.31 C70.1,55.2100045 69.900002,56.1849948 69.5,57.235 C69.099998,58.2850053 68.600003,59.2599955 68,60.16 C67.399997,61.0600045 66.7500035,61.809997 66.05,62.41 C65.3499965,63.010003 64.700003,63.31 64.1,63.31 C63.299996,63.31 62.5500035,62.9350038 61.85,62.185 C61.1499965,61.4349963 60.000008,59.960011 58.4,57.76 C57.599996,56.6599945 56.300009,55.9350018 54.5,55.585 C52.699991,55.2349983 51.000008,55.06 49.4,55.06 C49.199999,55.5600025 49.0750003,56.209996 49.025,57.01 C48.9749998,57.810004 48.95,58.609996 48.95,59.41 L48.65,87.31 C50.65001,88.4100055 52.6749898,89.4099955 54.725,90.31 C56.7750103,91.2100045 59.399984,92.259994 62.6,93.46 C64.400009,94.1600035 65.9499935,95.1849933 67.25,96.535 C68.5500065,97.8850068 69.6249958,99.3849918 70.475,101.035 C71.3250043,102.685008 71.949998,104.409991 72.35,106.21 C72.750002,108.010009 72.95,109.709992 72.95,111.31 C72.95,112.310005 72.6750028,113.659992 72.125,115.36 C71.5749973,117.060009 70.8750043,118.734992 70.025,120.385 C69.1749958,122.035008 68.2750048,123.559993 67.325,124.96 C66.3749953,126.360007 65.500004,127.309998 64.7,127.81 C62.099987,129.510009 59.4250138,130.784996 56.675,131.635 C53.9249863,132.485004 50.950016,133.209997 47.75,133.81 C47.75,134.510004 47.6750008,135.784991 47.525,137.635 C47.3749993,139.485009 47.100002,141.259992 46.7,142.96 C46.499999,143.660004 46.0500035,144.384996 45.35,145.135 C44.6499965,145.885004 43.7500055,146.26 42.65,146.26 C42.249998,146.26 42.05,146.010003 42.05,145.51 C42.05,145.009998 42.0999995,143.985008 42.2,142.435 C42.3000005,140.884992 42.35,138.210019 42.35,134.41 C38.2499795,134.41 34.2500195,133.985004 30.35,133.135 C26.4499805,132.284996 23.50001,131.410005 21.5,130.51 C21.099998,130.309999 20.7250018,129.885003 20.375,129.235 C20.0249983,128.584997 19.7000015,127.810005 19.4,126.91 C19.0999985,126.009996 18.8750008,125.110005 18.725,124.21 C18.5749993,123.309996 18.5,122.560003 18.5,121.96 C18.5,121.259997 18.699998,120.610003 19.1,120.01 C19.500002,119.409997 20.099996,119.11 20.9,119.11 C21.4000025,119.11 21.9999965,119.259999 22.7,119.56 C23.4000035,119.860002 24.849989,120.609994 27.05,121.81 C29.3500115,123.110007 31.8249868,124.259995 34.475,125.26 C37.1250133,126.260005 39.0999935,126.76 40.4,126.76 C40.800002,126.76 41.499995,126.660001 42.5,126.46 L42.8,94.66 Z" id="$" fill="#C4C3C6" fill-rule="nonzero"></path>
                <path d="M32.7534884,115.326722 C35.219504,115.326722 38.5683412,114.815412 42.8,113.792792 C36.2269898,112.058339 32.3820285,110.985426 31.2651163,110.574054 C30.1607372,110.167297 29.913613,108.16 28.4440104,108.16 C24.744987,108.16 28.4440104,113.451846 28.4440104,115.326722 C28.4440104,117.201598 29.0544649,115.326722 32.7534884,115.326722 Z" id="Oval-Copy-5" fill="#000000"></path>
                <path d="M35.7534884,117.384938 C38.219504,117.384938 41.5683412,116.873628 45.8,115.851008 C39.2269898,114.116555 35.3820285,113.043642 34.2651163,112.63227 C33.1607372,112.225513 32.913613,110.218216 31.4440104,110.218216 C27.744987,110.218216 31.4440104,115.510062 31.4440104,117.384938 C31.4440104,119.259814 32.0544649,117.384938 35.7534884,117.384938 Z" id="Oval-Copy-6" fill="#000000"></path>
                <path d="M69.7534884,113.326722 C72.219504,113.326722 75.5683412,112.815412 79.8,111.792792 C73.2269898,110.058339 69.3820285,108.985426 68.2651163,108.574054 C67.1607372,108.167297 66.913613,106.16 65.4440104,106.16 C61.744987,106.16 65.4440104,111.451846 65.4440104,113.326722 C65.4440104,115.201598 66.0544649,113.326722 69.7534884,113.326722 Z" id="Oval-Copy-7" fill="#000000" transform="translate(71.800000, 110.160000) rotate(-180.000000) translate(-71.800000, -110.160000) "></path>
                <path d="M71.7534884,110.326722 C74.219504,110.326722 77.5683412,109.815412 81.8,108.792792 C75.2269898,107.058339 71.3820285,105.985426 70.2651163,105.574054 C69.1607372,105.167297 68.913613,103.16 67.4440104,103.16 C63.744987,103.16 67.4440104,108.451846 67.4440104,110.326722 C67.4440104,112.201598 68.0544649,110.326722 71.7534884,110.326722 Z" id="Oval-Copy-8" fill="#000000" transform="translate(73.800000, 107.160000) rotate(-180.000000) translate(-73.800000, -107.160000) "></path>
                <path d="M120.5,120.2 C120.63764,120.2 120.862234,120.216497 121.171245,120.269066 C121.661915,120.352538 122.181429,120.50289 122.693312,120.722268 C125.45321,121.905081 127.46,124.766786 127.46,128.04 C127.46,129.242071 127.096287,130.698774 126.3581,131.974965 C126.221083,132.211843 126.085963,132.416885 125.956693,132.592969 C125.881005,132.696068 125.823258,132.768082 125.784268,132.813375 C125.835478,132.753886 125.996073,132.584742 126.290408,132.290408 L117.451573,123.451573 L126.137586,132.440631 L126.236209,132.345334 L117.550196,123.356275 L126.08078,132.492967 L139.435068,120.024571 C133.20246,120.141516 126.890802,120.2 120.5,120.2 Z M146.240246,119.872841 C154.773288,119.652159 163.452566,119.468277 172.278353,119.32118 L172.488388,119.319445 C175.708437,119.319891 178.18872,119.10835 179.843577,118.74635 C181.859276,118.305416 183.362772,117.890985 184.331504,117.534084 C184.955985,117.304012 185.381881,117.114208 185.614988,116.984089 L205.759655,105.739492 L204.178098,128.75573 C204.117267,129.640986 204.007435,130.764322 203.853976,132.094305 C203.590158,134.380726 203.155886,136.722854 202.556211,139.121553 C201.935159,141.605761 201.15976,143.870302 200.203045,145.916395 L195.790758,155.352798 L185.713475,152.714168 C184.313382,152.347568 182.450668,151.726623 180.39404,150.943146 L180.195211,150.865451 C180.057409,150.810242 179.633275,150.690988 179.003013,150.564936 C178.335877,150.431509 177.067529,150.285537 175.245182,150.159858 C173.347475,150.028981 170.711979,149.96 167.36,149.96 L154.16,149.96 C146.425129,149.96 140.271503,149.996444 135.704904,150.068929 C131.113494,150.141809 127.515511,150.214515 124.91602,150.286723 C122.750892,150.346865 121.352037,150.48341 120.796834,150.614046 C120.041622,150.791743 119.395344,150.998129 118.852703,151.22545 L118.436108,151.399969 L118.008003,151.543966 C117.32649,151.773199 116.715874,151.996431 116.176821,152.212052 C114.615002,152.836779 113.002631,153.163825 111.370539,153.237539 L108.303032,153.376085 L105.520474,152.077559 C104.280561,151.498933 103.178852,150.782986 102.081505,149.929494 C101.282626,149.308144 100.543889,148.629895 99.8572743,147.834388 L96.82,144.315422 L96.82,128.04 C96.82,126.161073 97.1351336,124.295215 97.8679481,122.463179 C98.7652522,120.219919 99.9014288,118.809657 101.890388,116.7037 C103.279818,115.232539 105.226473,113.32562 107.750259,110.954791 C110.227817,108.627388 113.610749,105.541956 117.905867,101.69116 L117.996133,101.611015 C126.243243,94.3594829 132.889302,87.8878405 137.907021,82.2429074 C142.860983,76.6696995 146.603947,71.7081017 149.152125,67.3958008 C151.638681,63.1877814 153.213224,59.6007073 153.943789,56.6784472 C154.73867,53.4989239 155.12,50.6666955 155.12,48.18 C155.12,44.9447074 154.095979,42.209664 151.886319,39.6317267 C150.172364,37.6321123 147.026374,36.44 141.62,36.44 C136.509109,36.44 132.805865,37.0662169 130.471518,38.114291 C128.956844,38.7943491 127.914804,39.8861064 127.111367,41.7835724 L125.514174,45.555642 L121.994266,47.650824 C121.670626,47.8434671 121.339546,48.0235159 121.001316,48.1926311 C119.215255,49.0856613 117.962178,49.3475045 116.037713,49.5969723 C114.765691,49.7618639 113.361753,49.8426071 111.793934,49.8575003 L105.012868,49.9219157 L101.261718,44.2725011 C101.208853,44.1925581 101.208853,44.1925581 101.153654,44.1076359 C99.8837965,42.1451293 98.9064764,39.9575453 98.178272,37.5648737 C97.5368222,35.457253 97.0710871,33.364848 96.7879436,31.2884622 C96.6256248,30.0981249 96.509175,29.0615239 96.4444022,28.1949356 L95.9331549,21.3550103 L101.427838,17.2495979 C102.758315,16.2555173 104.258868,15.4481727 105.955305,14.7271872 C109.410463,13.2587447 113.349488,12.0460995 117.776091,11.06241 C121.99103,10.1257569 126.244848,9.38427113 130.536839,8.83801775 C134.868454,8.2867213 138.316104,8 140.96,8 C143.5045,8 145.876203,8.0801347 148.077909,8.24322409 C150.672823,8.4354399 153.251252,8.91362373 155.804751,9.67021604 C158.34021,10.4214633 160.955503,11.506486 163.668465,12.9067244 C166.323189,14.2769047 169.242268,16.0880153 172.433575,18.3219618 C178.259424,22.3824158 182.553084,26.768241 185.12877,31.7135574 C187.699563,36.6494815 188.84,42.66112 188.84,49.72 C188.84,52.5382562 188.482773,55.6723089 187.80267,59.1578381 C187.104602,62.735439 185.98769,66.3815005 184.467149,70.0983792 C182.94076,73.8295525 180.972707,77.5536553 178.574854,81.2744613 C176.0465,85.1977693 172.907283,88.8551617 169.182426,92.2505865 L139.435068,120.024571 C141.714028,119.98181 143.982419,119.931233 146.240246,119.872841 Z M113.616105,36.0693234 L114.680025,35.3628923 L109.818367,27.1953043 L108.909631,27.2632275 L114.868085,35.2380219 L122.088678,30.4436274 C122.115581,30.484311 122.115581,30.484311 122.142908,30.5263539 C122.192687,30.6032862 122.220801,30.6529696 122.231389,30.6732089 C122.19367,30.584705 122.147549,30.4581028 122.095119,30.2858333 C121.833686,29.4268404 121.657538,28.6354587 121.558698,27.9106321 C121.459518,27.1833174 121.396789,26.6249211 121.374859,26.3315193 L111.57741,27.0638255 L111.655068,35.2389688 L113.616105,36.0693234 Z M109.818367,27.1953043 L111.57741,27.0638255 L111.55896,25.1215901 C111.164751,25.2404685 111.131226,25.2552249 109.820976,25.8319513 C109.628376,25.9282512 109.424795,26.0389633 109.207174,26.1684994 L109.818367,27.1953043 Z M111.59079,25.111998 C111.922828,25.0105888 111.922828,25.0105888 112.117963,24.9580987 C112.293983,24.9114421 112.43886,24.8776247 112.566148,24.8510266 C112.693805,24.8243512 112.774727,24.810779 112.823862,24.8044096 C112.652305,24.8266485 112.203049,24.8524861 111.556462,24.8586282 L111.55896,25.1215901 C111.569311,25.1184685 111.579911,25.1152752 111.59079,25.111998 Z M172.694962,144.317709 L172.486657,131.819445 L172.484926,144.319444 C172.521186,144.319449 172.557407,144.319435 172.593591,144.3194 C172.627379,144.318836 172.661169,144.318272 172.694962,144.317709 Z M179.236911,127.041901 C179.206432,127.485455 179.131684,128.249961 179.018753,129.228702 C178.882677,130.408026 178.645799,131.685561 178.302649,133.058162 C178.050885,134.065217 177.789291,134.8292 177.556412,135.327249 L188.879729,140.621822 L192.045982,128.529475 C191.682759,128.434369 190.842813,128.157798 189.788785,127.766971 L179.236911,127.041901 Z M189.293923,127.580952 L184.843981,139.262049 L189.492752,127.658647 C189.452382,127.642473 189.411916,127.626388 189.371356,127.61039 C189.345642,127.600634 189.319829,127.590822 189.293923,127.580952 Z M124.221843,125.296362 C120.506964,125.399553 117.601563,125.683155 115.070851,126.278617 C113.008022,126.763988 111.0484,127.389784 109.193119,128.166993 L114.022911,139.696222 L110.03782,127.848478 C108.928259,128.221688 107.881196,128.604478 106.892054,129.000135 C108.037823,128.541827 109.174693,128.31123 110.242546,128.263 L110.806543,140.750269 L116.092611,129.42298 C116.539075,129.63133 116.878333,129.824547 117.161825,130.008774 C117.291244,130.092878 117.376326,130.153926 117.43002,130.195688 C117.842934,130.516844 118.284313,130.922081 118.782726,131.49954 L109.32,139.666964 L121.82,139.666964 L121.82,128.04 C121.82,129.173226 121.608244,130.426999 121.079865,131.747946 C120.75767,132.553435 120.468243,133.085775 120.136221,133.620427 C120.011234,133.821693 119.903068,133.982765 119.801617,134.125909 C119.715451,134.247488 119.664411,134.314344 119.634558,134.351398 C119.706191,134.262485 119.859424,134.087717 120.065717,133.869288 C121.049713,132.82741 122.675459,131.23485 124.867145,129.175993 C126.06155,128.053976 127.505714,126.721021 129.196237,125.180407 C127.277825,125.218886 125.620542,125.257509 124.221843,125.296362 Z M134.594493,120.305396 L126.25018,110.998278 L134.504227,120.385541 C134.519494,120.372117 134.534757,120.358694 134.550015,120.345274 C134.564829,120.331991 134.579655,120.318698 134.594493,120.305396 Z M172.627523,136.318277 L172.572826,133.024138 C172.522076,133.022732 172.471134,133.021349 172.42,133.01999 L172.42,136.32 C172.4559,136.32 172.491753,136.31998 172.52756,136.319939 C172.560878,136.319384 172.594199,136.318831 172.627523,136.318277 Z M186.083622,134.91881 C186.099531,134.854678 186.115261,134.790672 186.13081,134.726792 C186.017946,134.755726 185.904106,134.784573 185.789286,134.813336 C185.887989,134.847822 185.986094,134.882972 186.083622,134.91881 Z M185.458631,137.903422 L186.576821,135.107948 C186.535311,135.091344 186.493698,135.074877 186.451981,135.058545 C186.430085,135.05022 186.408102,135.041851 186.386031,135.03344 L185.183741,138.188111 C185.264675,138.096082 185.356085,138.000837 185.458631,137.903422 Z M112.091686,135.627267 L111.93876,135.692807 L112.620052,137.282487 L113.82,137.273971 L113.82,134.957725 C113.230208,135.163314 112.654068,135.386246 112.091686,135.627267 Z M112.909904,135.323579 L112.752064,135.376192 C111.72292,135.71924 110.760565,136.068994 109.863179,136.427948 C110.159792,136.309303 110.426462,136.26 110.6,136.26 C111.386755,136.26 112.095136,136.414689 112.629106,136.642555 C112.738087,136.689061 112.807165,136.724117 112.838604,136.742093 C112.756029,136.688563 112.653495,136.615506 112.518495,136.510506 C112.65673,136.618022 112.897862,136.888264 113.160028,137.356872 C113.577067,138.102306 113.82,139.01424 113.82,139.92 L113.82,138.053866 L112.909904,135.323579 Z M113.82,128.04 C113.82,128.213538 113.770697,128.480208 113.652052,128.776821 C113.501673,129.152769 113.379597,129.365774 113.332299,129.43097 C113.430201,129.296021 113.591124,129.099783 113.82,128.843182 L113.82,128.04 Z M129.282669,114.323505 L125.34048,109.926163 L125.294148,109.969423 L129.192856,114.403248 C129.208047,114.389889 129.223234,114.376534 129.238416,114.36318 C129.253156,114.349965 129.267907,114.33674 129.282669,114.323505 Z M113.776864,29.8998011 C113.820021,30.1368522 113.867697,30.3761061 113.919942,30.617581 C114.165496,30.2585853 114.419696,29.9077581 114.68247,29.5652751 C114.373619,29.6752247 114.07175,29.7867445 113.776864,29.8998011 Z M112.481003,32.9989072 C112.688599,33.0464077 112.89042,33.105081 113.085194,33.1733425 C113.192928,33.0998424 113.298051,33.0376856 113.398684,32.9873689 C113.674491,32.8494655 113.907181,32.7604552 114.086196,32.7089959 C114.116968,32.7001502 114.07379,32.7092402 113.956316,32.7266637 C113.620559,32.7764623 113.159456,32.8150179 112.567478,32.8375795 C112.538488,32.8912081 112.509662,32.9449841 112.481003,32.9989072 Z M172.212477,111.321723 L172.42,111.32 C175.113305,111.32 177.093726,111.15871 178.134001,110.93115 C179.781303,110.570802 180.977848,110.243975 181.565862,110.027339 C181.620558,110.007187 181.670446,109.988391 181.715115,109.971238 C184.986637,107.86748 188.724452,106.7 192.66,106.7 C198.299067,106.7 203.331697,109.170241 207.014353,113.262082 C210.480171,117.11299 212.24,122.00606 212.24,127.16 C212.24,128.680178 212.09446,130.470124 211.801247,133.011298 C211.49754,135.643433 211.001242,138.326274 210.317351,141.061838 C209.546783,144.144112 208.564263,146.967069 207.337199,149.543904 C203.996648,156.559061 197.595056,161.26 189.58,161.26 C186.000858,161.26 182.672061,160.364667 177.634984,158.452248 C177.582641,158.440306 177.515138,158.425792 177.434084,158.409581 C177.378222,158.398409 177.123994,158.361269 176.732203,158.317446 C176.189734,158.256769 175.503115,158.196649 174.694765,158.1409 C172.995998,158.023744 170.521545,157.96 167.36,157.96 L154.16,157.96 C146.469313,157.96 140.352837,157.99616 135.831872,158.067922 C131.273939,158.14027 127.703166,158.212388 125.138157,158.283638 C124.205222,158.309553 123.428466,158.351903 122.849849,158.404012 C122.683541,158.418989 122.54779,158.43352 122.447592,158.446101 C122.203668,158.509076 122.033649,158.565615 121.939668,158.605893 L121.308849,158.876244 L120.657758,159.093274 C120.074997,159.287528 119.569507,159.471241 119.147946,159.639865 C116.43081,160.72672 113.546405,161.26 110.6,161.26 C105.574578,161.26 101.241078,159.410721 97.1699799,156.244312 C92.0063935,152.228189 88.82,146.532685 88.82,139.92 L88.82,128.04 C88.82,125.093595 89.3532802,122.20919 90.4401346,119.492054 C91.6472957,116.474151 93.4496877,113.989695 96.074283,111.210712 C97.5819639,109.614344 99.6247331,107.611636 102.272855,105.124007 C104.8025,102.747674 108.227686,99.6236818 112.594643,95.7087324 L112.684457,95.6289898 C120.708964,88.5729577 127.13669,82.3179352 131.927746,76.9279967 C136.537877,71.7415995 139.992547,67.1711694 142.264712,63.3259663 C144.358238,59.7830762 145.652016,56.8606939 146.182649,54.7381622 C146.820713,52.1859059 147.12,49.9909242 147.12,48.18 C147.12,46.935397 146.820248,46.0705708 145.96458,45.0202007 C145.914205,44.998289 145.844513,44.9705757 145.752678,44.9381487 C144.913015,44.6416631 143.539589,44.44 141.62,44.44 C139.449604,44.44 137.605744,44.5707232 136.121575,44.809382 C135.392964,44.9265447 134.802739,45.0607026 134.35778,45.1936064 C132.433538,49.7510427 128.962289,53.1564163 124.579024,55.3480487 C120.751718,57.2617018 116.717825,57.86 111.26,57.86 C104.24864,57.86 98.1858911,54.2472441 94.4370924,48.4536461 C92.7672231,45.8729389 91.4733699,43.0106302 90.524881,39.8941667 C89.7589685,37.377597 89.2020896,34.8684754 88.8613022,32.3693679 C88.5434785,30.0386605 88.38,28.2451856 88.38,26.62 C88.38,17.2611577 94.1435243,11.0546683 102.826179,7.36453985 C106.738032,5.70200264 111.133977,4.34328475 116.040647,3.25291351 C120.495345,2.26298081 124.991222,1.47929041 129.526804,0.902034457 C134.217793,0.304999547 137.954485,1.13686838e-13 140.96,1.13686838e-13 C143.701655,1.13686838e-13 146.268367,0.0872660999 148.668883,0.265082051 C151.8334,0.499490719 154.97541,1.08070602 158.077457,1.99983114 C161.098004,2.89480784 164.174278,4.16507274 167.337608,5.79775916 C170.318502,7.33628518 173.531396,9.325159 177.014579,11.7634302 C183.925965,16.5804572 189.043698,21.9117445 192.224082,28.0180821 C195.397626,34.111286 196.84,41.3369228 196.84,49.72 C196.84,53.061328 196.434989,56.6904014 195.654595,60.6899209 C194.856061,64.7824046 193.589921,68.9269184 191.871525,73.127442 C190.158093,77.3158314 187.963407,81.4743024 185.299422,85.608072 C182.397112,90.1116566 178.809455,94.3011248 174.602289,98.134663 L160.239363,111.544946 C164.195651,111.462972 168.184683,111.388601 172.212477,111.321723 Z M177.292054,158.319865 C177.33723,158.337936 177.37905,158.354239 177.417716,158.36894 L177.292054,158.319865 Z M219.537334,81.4 C219.537334,81.9180896 219.605489,83.5714317 219.745585,86.2332499 C219.871267,88.6212133 220.228188,91.4516255 220.827485,94.7144621 C221.424057,97.9624693 222.295924,101.451765 223.448256,105.179897 C224.472362,108.493179 225.876034,111.538415 227.662172,114.336699 C229.252606,116.828379 231.162406,118.813915 233.425697,120.357068 C235.158338,121.538414 237.437984,122.18 240.517334,122.18 C244.348981,122.18 247.183083,121.23322 249.400587,119.399515 C252.206412,117.079313 254.478125,114.073612 256.233052,110.280706 C258.157251,106.121954 259.550057,101.350095 260.387334,95.94 C261.274887,90.2050371 261.717334,84.5528999 261.717334,78.98 C261.717334,75.9549434 261.235934,71.9146662 260.232398,66.8969871 C259.265636,62.0631802 257.717224,57.3525423 255.579239,52.7526355 C253.628086,48.5546996 251.071882,45.0424607 247.889615,42.1494906 C245.445316,39.9274009 242.615359,38.86 238.977334,38.86 C236.771728,38.86 234.804537,39.5448193 232.815987,41.0679642 C230.361786,42.9477781 228.14622,45.6202881 226.190239,49.1870772 C224.124373,52.9542439 222.491632,57.5592785 221.332925,63.0309488 C220.140501,68.6618385 219.537334,74.7823065 219.537334,81.4 Z M204.269929,37.1662619 C207.832887,30.6691029 212.275746,25.3099357 217.614065,21.2210106 C223.910094,16.3985207 231.202171,13.86 238.977334,13.86 C248.762773,13.86 257.604934,17.1950788 264.706435,23.6509888 C270.381825,28.8104343 274.913844,35.0374559 278.250106,42.2154722 C281.219242,48.6036145 283.389011,55.2045658 284.746915,61.9940838 C286.048857,68.503793 286.717334,74.1141644 286.717334,78.98 C286.717334,85.844523 286.174866,92.7744043 285.093216,99.7635294 C283.910033,107.408709 281.862585,114.423421 278.922115,120.77863 C275.630491,127.892786 271.081774,133.911188 265.332196,138.665647 C258.46612,144.343363 249.9749,147.18 240.517334,147.18 C232.611253,147.18 225.418579,145.155685 219.342276,141.012751 C214.255243,137.54432 209.979175,133.098676 206.589117,127.787585 C203.588785,123.087064 201.243661,117.99937 199.56319,112.562553 C198.12952,107.92421 197.019919,103.48348 196.238805,99.2307501 C195.455843,94.9679541 194.966441,91.0869556 194.780139,87.5472207 C194.614993,84.4094343 194.537334,82.5255585 194.537334,81.4 C194.537334,73.0897265 195.311091,65.2382437 196.875303,57.8516877 C198.518191,50.0936058 200.964654,43.1935272 204.269929,37.1662619 Z M202.537334,81.4 C202.537334,73.6457307 203.253782,66.3466428 204.701742,59.5090512 C206.181982,52.5190318 208.35996,46.3457764 211.284428,41.0129228 C214.309544,35.4965354 218.026628,30.982118 222.47868,27.5720358 C227.37316,23.8230727 232.955094,21.86 238.977334,21.86 C246.76819,21.86 253.693586,24.4509946 259.325052,29.5705094 C264.211983,34.0131741 268.10785,39.3746958 270.995428,45.5873645 C273.697264,51.4004049 275.668921,57.3962709 276.902269,63.5630129 C278.098029,69.5418099 278.717334,74.662087 278.717334,78.98 C278.717334,85.4341262 278.206413,91.9551789 277.187334,98.54 C276.118467,105.446523 274.285997,111.747244 271.661615,117.419294 C268.872807,123.446719 265.061346,128.508707 260.234081,132.500485 C254.797448,136.996162 248.098809,139.18 240.517334,139.18 C234.23922,139.18 228.604265,137.645178 223.848971,134.402932 C219.655317,131.543623 216.139938,127.881629 213.332495,123.483301 C210.717957,119.387192 208.675312,114.95243 207.206411,110.200103 C205.865669,105.862407 204.830833,101.725409 204.107183,97.7855379 C203.386847,93.8637111 202.936918,90.3156347 202.769082,87.1267501 C202.615303,84.2049431 202.537334,82.3547956 202.537334,81.4 Z M228.695862,93.2692499 C229.234533,96.2020164 230.031543,99.3882469 231.091477,102.817447 C231.904691,105.448431 233.006522,107.840605 234.40555,110.032415 C235.417655,111.618046 236.569706,112.818145 237.932391,113.747249 C238.03596,113.817864 238.191423,113.888591 238.464884,113.963075 C238.955171,114.096617 239.631583,114.18 240.517334,114.18 C242.526402,114.18 243.570552,113.839594 244.302472,113.234353 C246.173035,111.687541 247.714571,109.640231 248.972552,106.92137 C250.576827,103.454065 251.757447,99.3946511 252.481451,94.7164706 C253.30652,89.3852587 253.717334,84.1419018 253.717334,78.98 C253.717334,76.5224525 253.286267,72.9584904 252.387752,68.4659162 C251.545745,64.2558772 250.195653,60.150208 248.324562,56.1245278 C246.819511,52.8863884 244.897009,50.2406264 242.508233,48.0690112 C241.552441,47.2001102 240.64337,46.86 238.977334,46.86 C238.554089,46.86 238.288409,46.9534353 237.680602,47.4189894 C236.138903,48.5998656 234.63377,50.427856 233.204738,53.0337381 C231.527089,56.0929803 230.157474,59.9750135 229.159364,64.6883123 C228.083943,69.766691 227.537334,75.3354774 227.537334,81.4 C227.537334,81.735076 227.607327,83.3959601 227.734528,85.8127793 C227.841371,87.8427939 228.158493,90.3435744 228.695862,93.2692499 Z M186.697334,90.64 C186.697334,74.9830696 188.461791,61.9504753 192.128452,51.520862 C195.732737,41.2686733 200.157017,32.9259932 205.518842,26.5428673 C210.969004,20.0545801 216.992591,15.3977246 223.648954,12.7726801 C229.717307,10.3795266 235.156474,9.1 240.077334,9.1 C248.612761,9.1 256.466586,11.1811329 263.466603,15.3629617 C270.158128,19.3604961 275.871054,24.7320182 280.574028,31.40169 C285.199538,37.9615053 288.685265,45.5668213 291.060581,54.1671032 C293.39798,62.6300995 294.557334,71.6408091 294.557334,81.18 C294.557334,84.6631058 294.140935,88.7519892 293.337811,93.49042 C292.523703,98.2936612 291.233112,103.250619 289.47567,108.363178 C287.690313,113.556943 285.350638,118.718488 282.465726,123.847221 C279.421147,129.259805 275.684698,134.100984 271.268758,138.347081 C266.778037,142.665082 261.608293,146.196049 255.796608,148.930959 C249.607025,151.843704 242.650961,153.26 235.017334,153.26 C227.719453,153.26 220.85418,150.889752 214.617874,146.354257 C208.969761,142.246538 204.043445,137.103601 199.844579,130.973257 C195.708641,124.934788 192.487943,118.326371 190.186059,111.174088 C187.878983,104.005672 186.697334,97.1592947 186.697334,90.64 Z M211.697334,90.64 C211.697334,94.4194943 212.438275,98.7124488 213.983925,103.515005 C215.552518,108.388847 217.710437,112.816591 220.470328,116.846031 C223.091016,120.672236 226.033466,123.744072 229.322167,126.135855 C231.405652,127.651116 233.169244,128.26 235.017334,128.26 C239.118316,128.26 242.450832,127.58148 245.151683,126.310491 C248.527003,124.722105 251.434938,122.735968 253.94104,120.326254 C256.587633,117.781453 258.823707,114.884254 260.676337,111.59069 C262.835137,107.752823 264.550487,103.968599 265.833505,100.236184 C267.161787,96.3720898 268.110346,92.7288236 268.689347,89.3127142 C269.276585,85.8480099 269.557334,83.0911631 269.557334,81.18 C269.557334,73.8358396 268.685565,67.0602987 266.962795,60.8226821 C265.328943,54.9070104 263.046115,49.9262325 260.142574,45.8084841 C257.421569,41.9496037 254.281431,38.9971197 250.645222,36.8248391 C247.599646,35.0054043 244.182812,34.1 240.077334,34.1 C238.730801,34.1 236.209123,34.6932075 232.820659,36.0295034 C230.339535,37.0079748 227.596391,39.128708 224.661464,42.6226694 C221.429441,46.4703151 218.387219,52.2069072 215.713398,59.8124444 C213.096231,67.2568289 211.697334,77.5893336 211.697334,90.64 Z M203.697334,90.64 C203.697334,95.2745769 204.570553,100.379099 206.368608,105.965912 C208.17315,111.572882 210.672146,116.697748 213.870088,121.366743 C217.002888,125.940631 220.582039,129.671376 224.616793,132.605743 C228.048801,135.101749 231.444406,136.26 235.017334,136.26 C240.28094,136.26 244.762745,135.335071 248.558059,133.549041 C252.718245,131.591306 256.348629,129.109535 259.48591,126.092919 C262.69712,123.005216 265.413788,119.486386 267.648942,115.512779 C270.043561,111.255677 271.957293,107.030873 273.398998,102.836822 C274.867816,98.563895 275.92402,94.5013121 276.576856,90.64958 C277.239839,86.7379782 277.557334,83.5718435 277.557334,81.18 C277.557334,73.1207198 276.590554,65.6318311 274.674087,58.6928968 C272.797096,51.8968954 270.12472,46.0826421 266.680639,41.19831 C263.318813,36.4306291 259.353106,32.7081021 254.748064,29.9570383 C250.448706,27.3885905 245.615816,26.1 240.077334,26.1 C237.628877,26.1 234.218187,26.8787388 229.885713,28.5873199 C226.104799,30.0783846 222.315568,32.9774385 218.535825,37.4771327 C214.649163,42.1041114 211.159725,48.6442647 208.166215,57.159138 C205.229538,65.512352 203.697334,76.6742674 203.697334,90.64 Z M178.697334,90.64 C178.697334,74.0609472 180.601849,60.186796 184.581269,48.8675556 C188.509314,37.6944523 193.393978,28.5392658 199.393203,21.3973306 C205.707522,13.8802844 212.806685,8.44887785 220.714008,5.33049665 C227.746955,2.5569401 234.128006,1.1 240.077334,1.1 C250.058087,1.1 259.327792,3.57157568 267.569445,8.49516092 C275.223379,13.0676407 281.764495,19.2076499 287.112093,26.7915159 C292.272291,34.1096156 296.151359,42.549252 298.771872,52.0373179 C301.301933,61.1978835 302.557334,70.9224947 302.557334,81.18 C302.557334,85.1269502 302.105138,89.6363563 301.22532,94.8272858 C300.337924,100.062919 298.939969,105.440016 297.041162,110.963816 C295.097883,116.616992 292.56004,122.219604 289.43833,127.76931 C286.010639,133.862983 281.793288,139.32561 276.813627,144.113746 C271.69434,149.036137 265.802554,153.063829 259.202985,156.169509 C251.942372,159.586268 243.83219,161.26 235.017334,161.26 C226.030123,161.26 217.520776,158.357436 209.912501,152.824145 C203.524035,148.177989 197.958698,142.376933 193.244339,135.493969 C188.671376,128.817442 185.109096,121.512025 182.570742,113.624995 C180.008247,105.662957 178.697334,97.9998405 178.697334,90.64 Z" id="20" fill="#000000" fill-rule="nonzero"></path>
                <path d="M104.32,127.04 C104.32,126.159996 104.466665,125.353337 104.76,124.62 C105.053335,123.886663 105.823327,122.860007 107.07,121.54 C108.316673,120.219993 110.149988,118.423345 112.57,116.15 C114.990012,113.876655 118.326645,110.833352 122.58,107.02 C131.086709,99.5399626 137.979974,92.8300297 143.26,86.89 C148.540026,80.9499703 152.609986,75.5600242 155.47,70.72 C158.330014,65.8799758 160.236662,61.5533524 161.19,57.74 C162.143338,53.9266476 162.62,50.4066828 162.62,47.18 C162.62,41.8999736 160.860018,37.2066872 157.34,33.1 C153.819982,28.9933128 148.246705,26.94 140.62,26.94 C134.459969,26.94 129.583351,27.7466586 125.99,29.36 C122.396649,30.9733414 119.793341,33.7599802 118.18,37.72 C117.886665,38.453337 117.226672,39.0766641 116.2,39.59 C115.173328,40.1033359 113.193348,40.36 110.26,40.36 C109.086661,40.36 108.096671,39.7366729 107.29,38.49 C106.483329,37.2433271 105.823336,35.7766751 105.31,34.09 C104.796664,32.4033249 104.430001,30.7533414 104.21,29.14 C103.989999,27.5266586 103.88,26.353337 103.88,25.62 C103.88,24.153326 105.346652,22.7966729 108.28,21.55 C111.213348,20.3033271 114.65998,19.2400044 118.62,18.36 C122.58002,17.4799956 126.576647,16.7833359 130.61,16.27 C134.643354,15.7566641 137.759989,15.5 139.96,15.5 C142.306678,15.5 144.46999,15.5733326 146.45,15.72 C148.43001,15.8666674 150.40999,16.2333304 152.39,16.82 C154.37001,17.4066696 156.496655,18.2866608 158.77,19.46 C161.043345,20.6333392 163.646652,22.2466564 166.58,24.3 C171.420024,27.6733502 174.756658,31.1199824 176.59,34.64 C178.423343,38.1600176 179.34,42.853304 179.34,48.72 C179.34,50.920011 179.04667,53.5233183 178.46,56.53 C177.87333,59.5366817 176.920007,62.6533172 175.6,65.88 C174.279993,69.1066828 172.556677,72.3699835 170.43,75.67 C168.303323,78.9700165 165.626683,82.086652 162.4,85.02 L119.28,125.28 C118.399996,126.160004 117.96,126.746665 117.96,127.04 C117.96,127.480002 118.473328,127.7 119.5,127.7 C128.300044,127.7 136.953291,127.590001 145.46,127.37 C153.966709,127.149999 162.619956,126.966667 171.42,126.82 C175.233352,126.82 178.313322,126.563336 180.66,126.05 C183.006678,125.536664 184.87666,125.023336 186.27,124.51 C187.66334,123.996664 188.726663,123.483336 189.46,122.97 C190.193337,122.456664 190.926663,122.2 191.66,122.2 C192.393337,122.2 193.089997,122.566663 193.75,123.3 C194.410003,124.033337 194.74,124.986661 194.74,126.16 C194.74,126.893337 194.630001,128.213324 194.41,130.12 C194.189999,132.026676 193.823336,134.006656 193.31,136.06 C192.796664,138.113344 192.173337,139.909992 191.44,141.45 C190.706663,142.990008 189.753339,143.76 188.58,143.76 C187.553328,143.76 185.500015,143.173339 182.42,142 C181.686663,141.706665 180.770006,141.450001 179.67,141.23 C178.569995,141.009999 176.956677,140.826667 174.83,140.68 C172.703323,140.533333 169.880018,140.46 166.36,140.46 L153.16,140.46 C145.386628,140.46 139.190023,140.496666 134.57,140.57 C129.949977,140.643334 126.320013,140.716666 123.68,140.79 C121.039987,140.863334 119.096673,141.046665 117.85,141.34 C116.603327,141.633335 115.466672,141.999998 114.44,142.44 C113.559996,142.733335 112.753337,143.026665 112.02,143.32 C111.286663,143.613335 110.480004,143.76 109.6,143.76 C108.719996,143.76 107.620007,143.246672 106.3,142.22 C104.979993,141.193328 104.32,140.093339 104.32,138.92 L104.32,127.04 Z M210.037334,80.4 C210.037334,81.133337 210.110666,82.8933194 210.257334,85.68 C210.404001,88.4666806 210.80733,91.6566487 211.467334,95.25 C212.127337,98.8433513 213.080661,102.656647 214.327334,106.69 C215.574007,110.723354 217.297323,114.463316 219.497334,117.91 C221.697345,121.356684 224.410651,124.179989 227.637334,126.38 C230.864016,128.580011 234.823977,129.68 239.517334,129.68 C245.237362,129.68 250.003981,128.103349 253.817334,124.95 C257.630686,121.796651 260.673989,117.763358 262.947334,112.85 C265.220678,107.936642 266.833996,102.400031 267.787334,96.24 C268.740672,90.0799692 269.217334,83.9933634 269.217334,77.98 C269.217334,74.313315 268.667339,69.7300275 267.567334,64.23 C266.467328,58.7299725 264.707346,53.3766927 262.287334,48.17 C259.867322,42.9633073 256.640687,38.526685 252.607334,34.86 C248.57398,31.193315 243.697362,29.36 237.977334,29.36 C233.870646,29.36 230.094018,30.6799868 226.647334,33.32 C223.20065,35.9600132 220.230679,39.5533106 217.737334,44.1 C215.243988,48.6466894 213.33734,54.0366355 212.017334,60.27 C210.697327,66.5033645 210.037334,73.2132974 210.037334,80.4 Z M194.197334,89.64 C194.197334,74.8265926 195.847317,62.7267136 199.147334,53.34 C202.44735,43.9532864 206.407311,36.5100275 211.027334,31.01 C215.647357,25.5099725 220.560641,21.7333436 225.767334,19.68 C230.974026,17.6266564 235.410649,16.6 239.077334,16.6 C246.117369,16.6 252.460639,18.2866498 258.107334,21.66 C263.754029,25.0333502 268.59398,29.5799714 272.627334,35.3 C276.660687,41.0200286 279.740656,47.7299615 281.867334,55.43 C283.994011,63.1300385 285.057334,71.379956 285.057334,80.18 C285.057334,83.113348 284.690671,86.7433117 283.957334,91.07 C283.223997,95.3966883 282.050675,99.9066432 280.437334,104.6 C278.823992,109.293357 276.697347,113.986643 274.057334,118.68 C271.41732,123.373357 268.190686,127.553315 264.377334,131.22 C260.563981,134.886685 256.164025,137.893322 251.177334,140.24 C246.190642,142.586678 240.470699,143.76 234.017334,143.76 C228.59064,143.76 223.457358,142.000018 218.617334,138.48 C213.777309,134.959982 209.524019,130.52336 205.857334,125.17 C202.190649,119.81664 199.330677,113.950032 197.277334,107.57 C195.22399,101.189968 194.197334,95.2133612 194.197334,89.64 Z" id="20" fill="#FFFFFF" fill-rule="nonzero"></path>
                <path d="M108.32,130.04 C108.32,129.159996 108.466665,128.353337 108.76,127.62 C109.053335,126.886663 109.823327,125.860007 111.07,124.54 C112.316673,123.219993 114.149988,121.423345 116.57,119.15 C118.990012,116.876655 122.326645,113.833352 126.58,110.02 C135.086709,102.539963 141.979974,95.8300297 147.26,89.89 C152.540026,83.9499703 156.609986,78.5600242 159.47,73.72 C162.330014,68.8799758 164.236662,64.5533524 165.19,60.74 C166.143338,56.9266476 166.62,53.4066828 166.62,50.18 C166.62,44.8999736 164.860018,40.2066872 161.34,36.1 C157.819982,31.9933128 152.246705,29.94 144.62,29.94 C138.459969,29.94 133.583351,30.7466586 129.99,32.36 C126.396649,33.9733414 123.793341,36.7599802 122.18,40.72 C121.886665,41.453337 121.226672,42.0766641 120.2,42.59 C119.173328,43.1033359 117.193348,43.36 114.26,43.36 C113.086661,43.36 112.096671,42.7366729 111.29,41.49 C110.483329,40.2433271 109.823336,38.7766751 109.31,37.09 C108.796664,35.4033249 108.430001,33.7533414 108.21,32.14 C107.989999,30.5266586 107.88,29.353337 107.88,28.62 C107.88,27.153326 109.346652,25.7966729 112.28,24.55 C115.213348,23.3033271 118.65998,22.2400044 122.62,21.36 C126.58002,20.4799956 130.576647,19.7833359 134.61,19.27 C138.643354,18.7566641 141.759989,18.5 143.96,18.5 C146.306678,18.5 148.46999,18.5733326 150.45,18.72 C152.43001,18.8666674 154.40999,19.2333304 156.39,19.82 C158.37001,20.4066696 160.496655,21.2866608 162.77,22.46 C165.043345,23.6333392 167.646652,25.2466564 170.58,27.3 C175.420024,30.6733502 178.756658,34.1199824 180.59,37.64 C182.423343,41.1600176 183.34,45.853304 183.34,51.72 C183.34,53.920011 183.04667,56.5233183 182.46,59.53 C181.87333,62.5366817 180.920007,65.6533172 179.6,68.88 C178.279993,72.1066828 176.556677,75.3699835 174.43,78.67 C172.303323,81.9700165 169.626683,85.086652 166.4,88.02 L123.28,128.28 C122.399996,129.160004 121.96,129.746665 121.96,130.04 C121.96,130.480002 122.473328,130.7 123.5,130.7 C132.300044,130.7 140.953291,130.590001 149.46,130.37 C157.966709,130.149999 166.619956,129.966667 175.42,129.82 C179.233352,129.82 182.313322,129.563336 184.66,129.05 C187.006678,128.536664 188.87666,128.023336 190.27,127.51 C191.66334,126.996664 192.726663,126.483336 193.46,125.97 C194.193337,125.456664 194.926663,125.2 195.66,125.2 C196.393337,125.2 197.089997,125.566663 197.75,126.3 C198.410003,127.033337 198.74,127.986661 198.74,129.16 C198.74,129.893337 198.630001,131.213324 198.41,133.12 C198.189999,135.026676 197.823336,137.006656 197.31,139.06 C196.796664,141.113344 196.173337,142.909992 195.44,144.45 C194.706663,145.990008 193.753339,146.76 192.58,146.76 C191.553328,146.76 189.500015,146.173339 186.42,145 C185.686663,144.706665 184.770006,144.450001 183.67,144.23 C182.569995,144.009999 180.956677,143.826667 178.83,143.68 C176.703323,143.533333 173.880018,143.46 170.36,143.46 L157.16,143.46 C149.386628,143.46 143.190023,143.496666 138.57,143.57 C133.949977,143.643334 130.320013,143.716666 127.68,143.79 C125.039987,143.863334 123.096673,144.046665 121.85,144.34 C120.603327,144.633335 119.466672,144.999998 118.44,145.44 C117.559996,145.733335 116.753337,146.026665 116.02,146.32 C115.286663,146.613335 114.480004,146.76 113.6,146.76 C112.719996,146.76 111.620007,146.246672 110.3,145.22 C108.979993,144.193328 108.32,143.093339 108.32,141.92 L108.32,130.04 Z M214.037334,83.4 C214.037334,84.133337 214.110666,85.8933194 214.257334,88.68 C214.404001,91.4666806 214.80733,94.6566487 215.467334,98.25 C216.127337,101.843351 217.080661,105.656647 218.327334,109.69 C219.574007,113.723354 221.297323,117.463316 223.497334,120.91 C225.697345,124.356684 228.410651,127.179989 231.637334,129.38 C234.864016,131.580011 238.823977,132.68 243.517334,132.68 C249.237362,132.68 254.003981,131.103349 257.817334,127.95 C261.630686,124.796651 264.673989,120.763358 266.947334,115.85 C269.220678,110.936642 270.833996,105.400031 271.787334,99.24 C272.740672,93.0799692 273.217334,86.9933634 273.217334,80.98 C273.217334,77.313315 272.667339,72.7300275 271.567334,67.23 C270.467328,61.7299725 268.707346,56.3766927 266.287334,51.17 C263.867322,45.9633073 260.640687,41.526685 256.607334,37.86 C252.57398,34.193315 247.697362,32.36 241.977334,32.36 C237.870646,32.36 234.094018,33.6799868 230.647334,36.32 C227.20065,38.9600132 224.230679,42.5533106 221.737334,47.1 C219.243988,51.6466894 217.33734,57.0366355 216.017334,63.27 C214.697327,69.5033645 214.037334,76.2132974 214.037334,83.4 Z M198.197334,92.64 C198.197334,77.8265926 199.847317,65.7267136 203.147334,56.34 C206.44735,46.9532864 210.407311,39.5100275 215.027334,34.01 C219.647357,28.5099725 224.560641,24.7333436 229.767334,22.68 C234.974026,20.6266564 239.410649,19.6 243.077334,19.6 C250.117369,19.6 256.460639,21.2866498 262.107334,24.66 C267.754029,28.0333502 272.59398,32.5799714 276.627334,38.3 C280.660687,44.0200286 283.740656,50.7299615 285.867334,58.43 C287.994011,66.1300385 289.057334,74.379956 289.057334,83.18 C289.057334,86.113348 288.690671,89.7433117 287.957334,94.07 C287.223997,98.3966883 286.050675,102.906643 284.437334,107.6 C282.823992,112.293357 280.697347,116.986643 278.057334,121.68 C275.41732,126.373357 272.190686,130.553315 268.377334,134.22 C264.563981,137.886685 260.164025,140.893322 255.177334,143.24 C250.190642,145.586678 244.470699,146.76 238.017334,146.76 C232.59064,146.76 227.457358,145.000018 222.617334,141.48 C217.777309,137.959982 213.524019,133.52336 209.857334,128.17 C206.190649,122.81664 203.330677,116.950032 201.277334,110.57 C199.22399,104.189968 198.197334,98.2133612 198.197334,92.64 Z" id="20" fill="#C4C3C6" fill-rule="nonzero"></path>
                <path d="M161.53685,123.584561 C171.020406,120.780142 182.992915,119.106683 196.007711,119.106683 C209.022506,119.106683 220.995015,120.780142 230.478571,123.584561 C220.995015,126.38898 209.022506,128.06244 196.007711,128.06244 C182.992915,128.06244 171.020406,126.38898 161.53685,123.584561 Z" id="Combined-Shape" fill="#000000" transform="translate(196.007711, 123.584561) scale(-1, 1) rotate(-315.000000) translate(-196.007711, -123.584561) "></path>
                <path d="M169.456689,115.413731 C176.265114,113.452969 184.655922,112.295714 193.732112,112.295714 C202.808302,112.295714 211.19911,113.452969 218.007536,115.413731 C211.19911,117.374494 202.808302,118.531748 193.732112,118.531748 C184.655922,118.531748 176.265114,117.374494 169.456689,115.413731 Z" id="Combined-Shape-Copy" fill="#000000" transform="translate(193.732112, 115.413731) scale(-1, 1) rotate(-315.000000) translate(-193.732112, -115.413731) "></path>
            </g>
        </g>
    </g>
</svg>