<svg xmlns="http://www.w3.org/2000/svg" viewBox="0 0 331.43 250.79"><title>Asset 3</title><g id="Layer_2" data-name="Layer 2"><g id="Layer_1-2" data-name="Layer 1"><g id="Storage"><g id="Group-33-Copy-2"><g id="Group-32"><g id="Group-34"><g id="Group-30-Copy"><path id="Path" d="M141.38,110.5c-4.56,1.62-6.66,1.67-7.31,6.14l2.72,7.3c-.45,3-3.42,7.48-1.51,10,.77,1,.39,4.45.39,5.49-4.78,3.08,1.9,16.28.25,19.31q-1.65,3,.61,8.67l-.82,7.47a11.42,11.42,0,0,0,0,2.48q.09.79,11.82,10.77c1,0,1.69,0,2.18,0l93-6.5c6.53-.46,11.78-5.26,12.32-11.3l3.19-66.87c.6-6.72-4.81-12.56-12.08-13a15.86,15.86,0,0,0-2,0L169,92.9a13.6,13.6,0,0,0-10.43,5.91l-4.77,7.26Z"/><path d="M165.18,122a5.06,5.06,0,0,0,2.58-2l5.34-8.09a5.27,5.27,0,0,1,4.05-2.3l58.1-4.06q4-.28,10.52,3.21c.26,0,5.26,8.48,5,11.09l-3.54,50c-.21,2.34-5-1.13-7.58-.95q-14.22,6.52-22.72,7.12c-6.75.47-7.66-1.45-17.61-.75-3.6.25-14.83,3-18.84,3.29L153,180.52a6,6,0,0,1-.85,0,4.79,4.79,0,0,1-4.59-5.14l.87-8a4.27,4.27,0,0,0-.12-1.59l-2.66-10.05a4.51,4.51,0,0,1,1-4.16q4.84-5.44,5-8.56a11.66,11.66,0,0,0-2.57-7.86,4.44,4.44,0,0,1-.89-3.34l.18-1.2a4.88,4.88,0,0,1,3.29-3.84Z" fill="#c4c3c6"/><path d="M187.78,112.33a18.59,18.59,0,0,1,1.71-2.16c1.73-1.88,6-2,10.47-2.34l-3.52,2.87a2.86,2.86,0,0,0,1.18-.38,43.91,43.91,0,0,0,4.71-2.76l.59-.1c.57.2.88.16,1-.09,4-.29,8.1-1.14,12.23-.58,1,.13,1.07.44.68.71a5.09,5.09,0,0,1-2.11.68c-.37.06-.78.09-.75.3.15,1-1.42,2.77-2.9,2.87-1.09.06-2.32.05-2.65.68l4.4.18c-.74.73-2.07,1.18-2.22,2.07,2-.4,3.25-2.82,3.4-3.82.18-1.19,1.4-1.82,3.81-2,.95-.08,1.5-.35,1.55-.87s1-.73,2-.77c2-.08,5.77-.42,9.67-.72l-.43-6.09-43.43,3Z" fill-rule="evenodd"/><path id="Path-Copy-7" d="M234.79,173.85a8,8,0,0,0-2.49.16,1.24,1.24,0,0,1-1.38,0c-.37-.23-.64-.62-1.16-.69.07.8.31.75.07,1.63-.09.3,1,.92,1.17,1.11.62.76,1.36.85,2.17,1.27.59.3,1.38,3.36,1.5,4.32-.83-1.2-3-4.56-4.54-4.55a.24.24,0,0,1-.23-.15c-.11-.54-1.46-.53-1.56-1.08-.35-1.94-.35-2.57-2-3.34-.8-.38-.77-1.11-1.71-1.2-.16,0-.73-.76-1-.58-.52.4-.57-.42-.8-.8-.5-.85-1.71-.25-2.63-.49a45.08,45.08,0,0,1-6.19-4.18c.89.31,2.55.42,3.44.74a49.58,49.58,0,0,1,6.2,3.28,14.11,14.11,0,0,1-1.45-3.44l-4-3.26q-3.53-2.28-3.84-2.54.2,0,5,1.24l4.2,3.67.6,3.31.8.81c.62.64.58.16,1.59.16,1.62,0,.88,1.42,2.25,1.94.17.07,1.49.16,1.53.38a2.91,2.91,0,0,0,1.9,2.17A2.19,2.19,0,0,1,234.79,173.85Z" fill-rule="evenodd"/><path id="Path-Copy-8" d="M254.36,117.19a6.85,6.85,0,0,0-2.41.11c-.67.34-1.06.3-1.32,0s-.29-.7-.75-.78c-.32.88-.07.83-.73,1.8-.22.33.51,1,.56,1.25.22.86.86,1,1.43,1.46.4.35-.35,3.76-.7,4.82-.2-1.34-.6-5.12-2.05-5.14-.09,0-.17-.07-.15-.17.17-.61-1.1-.62-.93-1.24.61-2.15.92-2.85-.21-3.74-.57-.44-.18-1.25-1-1.37-.14,0-.31-.86-.64-.66-.68.42-.33-.48-.36-.92-.06-.94-1.48-.31-2.23-.6s-3.5-4.12-3.78-4.77c.69.36,2.19.53,2.87.9a25.3,25.3,0,0,1,4.23,3.77,14.09,14.09,0,0,1,.31-3.83l-2.15-3.7c-1.46-1.74-2.26-2.71-2.38-2.9.12,0,1.49.5,4.09,1.48l2.16,4.17-1,3.67c.2.5.33.81.36.92.27.72.47.18,1.41.22,1.52,0,.14,1.59,1.17,2.2.13.08,1.32.21,1.25.45a2,2,0,0,0,.73,2.45C253.13,116.64,254,116.47,254.36,117.19Z" fill-rule="evenodd"/><path d="M145.92,172.55l2.73-5.41-.83-11.81a19.59,19.59,0,0,0-2.94-5l7.93-7.27a79.8,79.8,0,0,0-5.51-9.14,4.48,4.48,0,0,1-.88-3.34l.17-1.19a4.88,4.88,0,0,1,3.28-3.84l13.41-4.78a5.07,5.07,0,0,0,2.57-2l5.31-8.08a5.26,5.26,0,0,1,4-2.3q24.35-2.13,42.4-4.54t27.82-5.07q-.88-1.9-6.52-1.51c-.25,0-.5,0-.75,0l-66.4,4.64a5.23,5.23,0,0,0-4,2.29l-5.31,8.09a5.23,5.23,0,0,1-2.57,2l-13.41,4.77a4.89,4.89,0,0,0-3.28,3.84l-.17,1.2a4.43,4.43,0,0,0,.88,3.34,11.63,11.63,0,0,1,2.56,7.85q-.15,3.12-5,8.55a4.51,4.51,0,0,0-1,4.15l2.65,10a4.31,4.31,0,0,1,.12,1.6l-.86,8A4.7,4.7,0,0,0,145.92,172.55Z" fill="#c4c3c6"/><path d="M166.16,128.92l15.51-19.61-5.9.42a5,5,0,0,0-3.89,2.27l-5.09,8a5,5,0,0,1-2.48,2l-12.91,4.72a4.8,4.8,0,0,0-3.15,3.81l-.16,1.19a23.27,23.27,0,0,0,.63,5.46l2.71,5.68-2.32,9.59-4,2.64q2.83,7.92,3,8.44a23,23,0,0,1,.25,3.53l-.82,7.91a4.68,4.68,0,0,0,3.49,4.95l.66-6.42a29.17,29.17,0,0,0-.71-3.89l1.7-8.76-2.71-3,4.79-8.49-.63-9-.85-4.26,2.22-3.69Z" fill="#fff"/><path id="Rectangle" d="M175.84,123l-1.23,44.49a1.79,1.79,0,0,0,1.75,1.84h0a1.86,1.86,0,0,0,1.88-1.81L179.5,123a1.79,1.79,0,0,0-1.74-1.85h0A1.87,1.87,0,0,0,175.84,123Z" fill-rule="evenodd"/><path id="Rectangle-Copy-5" d="M197.92,121.45l-1.23,44.49a1.8,1.8,0,0,0,1.75,1.85h0a1.86,1.86,0,0,0,1.88-1.82l1.23-44.49a1.78,1.78,0,0,0-1.74-1.84h0A1.86,1.86,0,0,0,197.92,121.45Z" fill-rule="evenodd"/><path id="Rectangle-Copy-4" d="M186.88,122.22l-1.23,44.49a1.79,1.79,0,0,0,1.75,1.85h0a1.86,1.86,0,0,0,1.88-1.82l1.23-44.48a1.79,1.79,0,0,0-1.74-1.85h0A1.86,1.86,0,0,0,186.88,122.22Z" fill-rule="evenodd"/><path id="Rectangle-Copy-7" d="M208.23,142.43l-.64,22.83a1.82,1.82,0,0,0,1.76,1.86h0a1.88,1.88,0,0,0,1.89-1.83l.64-22.83a1.8,1.8,0,0,0-1.76-1.85h0A1.87,1.87,0,0,0,208.23,142.43Z" fill-rule="evenodd"/></g><path d="M158.28,124.58c-4.76,1.71-6.94,1.75-7.61,6.46l2.83,7.71c-.46,3.2-3.55,7.87-1.56,10.5.81,1.06.41,4.69.4,5.79-5,3.24,2,17.16.28,20.35q-1.71,3.2.64,9.14l-.84,7.88a11.39,11.39,0,0,0,0,2.61q.09.85,12.34,11.36a22.12,22.12,0,0,0,2.27,0L264,199.62c6.82-.48,12.29-5.54,12.85-11.9l3.27-70.49c.62-7.08-5-13.24-12.61-13.75a13.76,13.76,0,0,0-2,0l-78.34,2.57a14.12,14.12,0,0,0-10.87,6.22l-5,7.65Z"/><path d="M183,136.93a5.4,5.4,0,0,0,2.7-2.1l5.56-8.5a5.48,5.48,0,0,1,4.22-2.41l60.63-4.24q4.17-.3,11,3.39c.26,0,5.49,8.91,5.25,11.65l-3.66,52.56c-.22,2.46-5.27-1.19-7.92-1q-14.84,6.84-23.71,7.46c-7,.5-8-1.52-18.38-.79-3.75.26-15.47,3.16-19.66,3.45l-28.68,2a5.17,5.17,0,0,1-.88,0,5,5,0,0,1-4.8-5.4l.91-8.38a4.69,4.69,0,0,0-.12-1.67l-2.79-10.57a4.74,4.74,0,0,1,1.08-4.36c3.37-3.82,5.11-6.81,5.22-9a12.35,12.35,0,0,0-2.69-8.27,4.7,4.7,0,0,1-.93-3.5l.18-1.27a5.13,5.13,0,0,1,3.44-4Z" fill="#c4c3c6"/><path d="M206.59,126.5a19.11,19.11,0,0,1,1.78-2.23c1.82-1.94,6.27-2.11,10.95-2.43l-3.68,3a3.06,3.06,0,0,0,1.23-.39,48.61,48.61,0,0,0,4.92-2.86l.62-.1c.59.21.92.16,1-.1,4.19-.29,8.46-1.18,12.79-.6,1,.13,1.11.45.7.73a5.33,5.33,0,0,1-2.21.7c-.38.06-.8.1-.77.31.14,1-1.49,2.86-3,3-1.14.07-2.42.06-2.77.71l4.59.18c-.77.76-2.15,1.22-2.31,2.14,2.06-.42,3.39-2.92,3.55-4,.2-1.22,1.47-1.87,4-2.07,1-.08,1.57-.36,1.63-.91s1-.75,2.06-.79c2-.09,6-.44,10.1-.75l-.44-6.28-45.38,3.17Z" fill-rule="evenodd"/><path d="M255.68,191.44a8.29,8.29,0,0,0-2.59.16,1.28,1.28,0,0,1-1.45,0c-.37-.24-.66-.65-1.2-.72.07.84.32.79.07,1.71-.09.33,1.05,1,1.22,1.17.65.81,1.42.9,2.27,1.35.61.32,1.44,3.54,1.57,4.55-.87-1.26-3.14-4.81-4.74-4.8-.1,0-.23-.06-.25-.15-.11-.58-1.51-.56-1.62-1.15-.37-2-.36-2.7-2-3.51-.83-.41-.8-1.18-1.78-1.28-.16,0-.76-.8-1-.6-.54.41-.59-.45-.83-.86-.53-.88-1.79-.26-2.75-.52s-5.83-3.8-6.45-4.4c.92.32,2.66.45,3.58.78a52.12,52.12,0,0,1,6.47,3.46,14.79,14.79,0,0,1-1.51-3.62l-4.16-3.44c-2.44-1.61-3.78-2.5-4-2.68.13,0,1.87.44,5.2,1.31l4.38,3.87.63,3.49.84.85c.64.68.6.17,1.65.18,1.69,0,.92,1.5,2.35,2.05.18.06,1.55.16,1.59.39a3.06,3.06,0,0,0,2,2.29C254.06,191,254.94,190.77,255.68,191.44Z" fill-rule="evenodd"/><path d="M276,131.72a7.19,7.19,0,0,0-2.51.13c-.7.35-1.11.31-1.37,0s-.31-.73-.79-.82c-.34.93-.08.88-.76,1.89-.23.36.53,1.1.59,1.33.22.9.9,1,1.48,1.54.42.36-.35,4-.72,5.08-.21-1.42-.63-5.4-2.14-5.43a.14.14,0,0,1-.15-.18c.17-.64-1.16-.65-1-1.31.64-2.26,1-3-.22-3.93-.59-.47-.18-1.33-1.06-1.45-.15,0-.33-.91-.67-.7-.71.45-.34-.51-.37-1-.07-1-1.55-.34-2.33-.64s-3.65-4.35-3.94-5c.71.39,2.28.57,3,1a26.52,26.52,0,0,1,4.41,4,14.91,14.91,0,0,1,.32-4l-2.25-3.91c-1.52-1.83-2.35-2.85-2.47-3.06.12,0,1.54.54,4.26,1.57l2.25,4.4L268.51,125l.38,1c.27.77.48.2,1.47.24,1.58,0,.14,1.68,1.22,2.32.13.08,1.38.22,1.3.48a2.13,2.13,0,0,0,.77,2.58C274.74,131.15,275.66,131,276,131.72Z" fill-rule="evenodd"/><path d="M163.16,189.68,166,184l-.86-12.41a20.88,20.88,0,0,0-3.07-5.28l8.26-7.64a84,84,0,0,0-5.75-9.61,4.69,4.69,0,0,1-.92-3.51l.18-1.26a5.11,5.11,0,0,1,3.42-4l14-5a5.35,5.35,0,0,0,2.69-2.09l5.53-8.49a5.48,5.48,0,0,1,4.21-2.41q25.41-2.23,44.23-4.76t29-5.31q-.92-2-6.8-1.59c-.26,0-.52,0-.78,0l-69.27,4.84a5.48,5.48,0,0,0-4.21,2.41l-5.53,8.49a5.32,5.32,0,0,1-2.68,2.09l-14,5a5.11,5.11,0,0,0-3.42,4l-.18,1.26a4.69,4.69,0,0,0,.93,3.51,12.34,12.34,0,0,1,2.67,8.26q-.15,3.27-5.19,9a4.74,4.74,0,0,0-1.07,4.36l2.77,10.56a4.47,4.47,0,0,1,.13,1.67l-.9,8.37A4.93,4.93,0,0,0,163.16,189.68Z" fill="#c4c3c6"/><path d="M184,144.21l16.1-20.61L194,124a5.15,5.15,0,0,0-4,2.38l-5.3,8.44a5.06,5.06,0,0,1-2.57,2.07l-13.41,5a5,5,0,0,0-3.27,4l-.17,1.25a25.09,25.09,0,0,0,.66,5.74l2.83,6-2.41,10.08-4.11,2.77q3,8.33,3.09,8.87a24.4,24.4,0,0,1,.26,3.72l-.85,8.32a4.94,4.94,0,0,0,3.63,5.21l.69-6.75a30.29,30.29,0,0,0-.75-4.09l1.77-9.22-2.82-3.2,5-8.93-.67-9.46-.88-4.48,2.3-3.88Z" fill="#fff"/><path d="M194.2,137.76,193,184.7a1.88,1.88,0,0,0,1.83,1.93h0a1.94,1.94,0,0,0,2-1.89L198,137.8a1.88,1.88,0,0,0-1.83-1.93h0A1.94,1.94,0,0,0,194.2,137.76Z" fill-rule="evenodd"/><path d="M217.21,136.15,216,183.09a1.88,1.88,0,0,0,1.83,1.93h0a1.94,1.94,0,0,0,2-1.89L221,136.19a1.88,1.88,0,0,0-1.83-1.93h0A1.94,1.94,0,0,0,217.21,136.15Z" fill-rule="evenodd"/><path d="M205.7,137l-1.24,46.94a1.88,1.88,0,0,0,1.83,1.92h0a1.94,1.94,0,0,0,2-1.89L209.52,137a1.87,1.87,0,0,0-1.82-1.92h0A1.94,1.94,0,0,0,205.7,137Z" fill-rule="evenodd"/><path d="M228,158.28l-.64,24.1a1.89,1.89,0,0,0,1.84,1.94h0a2,2,0,0,0,2-1.9l.65-24.11a1.9,1.9,0,0,0-1.84-1.94h0A2,2,0,0,0,228,158.28Z" fill-rule="evenodd"/><g id="Group-30-Copy-3"><path d="M176.73,139c-5.12,1.8-7.46,1.85-8.19,6.76l3,8c-.5,3.34-3.83,8.22-1.69,11,.86,1.11.42,4.9.42,6-5.35,3.4,2.11,17.91.26,21.24-1.24,2.23-1,5.4.66,9.54l-.92,8.23a11.79,11.79,0,0,0,0,2.72q.1.88,13.22,11.83c1.08,0,1.9.05,2.44,0L290,217.12c7.31-.51,13.19-5.8,13.8-12.44l3.66-73.57c.68-7.39-5.36-13.81-13.5-14.33a15.86,15.86,0,0,0-2.18,0l-84.08,2.84A15.31,15.31,0,0,0,196,126.15l-5.36,8Z"/><path d="M203.51,152.14A5.75,5.75,0,0,0,206.4,150l6-8.89a5.9,5.9,0,0,1,4.52-2.53L281.73,134q4.45-.31,11.74,3.52c.28,0,5.86,9.29,5.59,12.16l-4,54.9c-.23,2.57-5.62-1.23-8.46-1q-15.87,7.19-25.36,7.84c-7.53.53-8.55-1.57-19.66-.79-4,.28-16.55,3.32-21,3.64l-30.67,2.14a7.53,7.53,0,0,1-1,0,5.28,5.28,0,0,1-5.12-5.64l1-8.75a4.91,4.91,0,0,0-.13-1.75l-3-11a4.87,4.87,0,0,1,1.16-4.56q5.41-6,5.59-9.41a12.63,12.63,0,0,0-2.86-8.63,4.81,4.81,0,0,1-1-3.66l.19-1.32a5.44,5.44,0,0,1,3.68-4.22Z" fill="#c4c3c6"/><path d="M228.13,140.79a21,21,0,0,1,1.91-2.41c1.94-2.1,6.7-2.28,11.69-2.62L237.81,139a3,3,0,0,0,1.31-.42,51.33,51.33,0,0,0,5.26-3.09l.66-.11c.63.23,1,.18,1.1-.1,4.48-.32,9-1.27,13.66-.64,1.06.14,1.19.49.75.79a5.85,5.85,0,0,1-2.36.76c-.4.06-.86.1-.82.33.15,1.09-1.59,3.09-3.24,3.2-1.22.08-2.59.06-3,.76l4.91.2c-.82.82-2.3,1.33-2.47,2.32,2.21-.45,3.63-3.16,3.8-4.27.2-1.32,1.56-2,4.25-2.24,1.06-.09,1.68-.39,1.73-1s1.08-.81,2.2-.86c2.19-.09,6.44-.46,10.79-.79l-.47-6.8-48.49,3.39Z" fill-rule="evenodd"/><path d="M281,208.61a9.23,9.23,0,0,0-2.78.18,1.37,1.37,0,0,1-1.54,0c-.41-.25-.71-.68-1.29-.75.07.88.34.83.07,1.79-.1.34,1.13,1,1.3,1.22.7.84,1.52.93,2.43,1.39.66.34,1.54,3.7,1.68,4.76-.94-1.32-3.36-5-5.07-5-.11,0-.25-.06-.27-.16-.11-.61-1.62-.58-1.73-1.2-.4-2.13-.39-2.82-2.19-3.66-.89-.42-.85-1.23-1.9-1.33-.17,0-.82-.83-1.09-.63-.59.44-.64-.46-.9-.89-.56-.92-1.91-.27-2.94-.53a50.21,50.21,0,0,1-6.91-4.59c1,.34,2.85.46,3.84.81a55.47,55.47,0,0,1,6.93,3.6,15.08,15.08,0,0,1-1.61-3.77l-4.45-3.59q-3.93-2.51-4.29-2.79c.15,0,2,.46,5.57,1.36l4.7,4,.66,3.64c.5.49.8.78.9.89.68.71.64.17,1.77.18,1.81,0,1,1.56,2.52,2.13.19.07,1.66.17,1.7.41a3.25,3.25,0,0,0,2.13,2.39C279.25,208.11,280.2,207.92,281,208.61Z" fill-rule="evenodd"/><path d="M302.93,146.25a7.74,7.74,0,0,0-2.69.14c-.76.36-1.19.32-1.48,0s-.33-.77-.83-.86c-.37,1-.09.91-.82,2-.26.38.56,1.15.62,1.39.24.94,1,1.07,1.59,1.6.45.38-.39,4.13-.78,5.3-.22-1.48-.67-5.63-2.28-5.66-.11,0-.2-.07-.17-.18.19-.67-1.24-.68-1-1.36.68-2.37,1-3.14-.24-4.11-.63-.49-.19-1.38-1.13-1.52-.15,0-.35-.94-.71-.72-.77.47-.37-.53-.4-1-.07-1-1.66-.35-2.5-.67s-3.9-4.53-4.21-5.24c.76.4,2.44.58,3.2,1a28.37,28.37,0,0,1,4.73,4.15,15,15,0,0,1,.35-4.21l-2.4-4.07c-1.64-1.92-2.52-3-2.65-3.19q.2,0,4.56,1.63l2.41,4.58-1.18,4c.23.55.36.89.41,1,.29.8.51.2,1.57.24,1.69.05.15,1.75,1.31,2.42.14.08,1.47.23,1.39.5a2.17,2.17,0,0,0,.81,2.69C301.55,145.66,302.54,145.47,302.93,146.25Z" fill-rule="evenodd"/><path d="M181.66,206.63l3.06-5.95-.91-13c-.28-1.06-1.38-2.9-3.28-5.51l8.88-8a87.35,87.35,0,0,0-6.15-10,4.81,4.81,0,0,1-1-3.66l.19-1.32a5.46,5.46,0,0,1,3.67-4.22l15-5.26a5.7,5.7,0,0,0,2.87-2.19l6-8.89a5.92,5.92,0,0,1,4.51-2.52q27.25-2.38,47.45-5.06t31.13-5.6q-1-2.08-7.29-1.65c-.28,0-.56,0-.84,0L210.66,129a5.94,5.94,0,0,0-4.52,2.52l-5.95,8.89a5.72,5.72,0,0,1-2.88,2.19l-15,5.27a5.39,5.39,0,0,0-3.67,4.22l-.2,1.31a4.79,4.79,0,0,0,1,3.67,12.63,12.63,0,0,1,2.85,8.62q-.18,3.42-5.58,9.4a4.87,4.87,0,0,0-1.16,4.56l2.95,11a4.55,4.55,0,0,1,.13,1.76l-1,8.74A5.15,5.15,0,0,0,181.66,206.63Z" fill="#c4c3c6"/><path d="M204.3,159.77l17.36-21.57-6.6.46a5.61,5.61,0,0,0-4.34,2.5L205,150a5.55,5.55,0,0,1-2.77,2.17l-14.44,5.21a5.27,5.27,0,0,0-3.52,4.19l-.19,1.31a25.27,25.27,0,0,0,.7,6l3,6.24-2.6,10.55-4.43,2.9q3.15,8.69,3.3,9.26a24,24,0,0,1,.27,3.88l-.92,8.7a5.12,5.12,0,0,0,3.89,5.43l.75-7a30.21,30.21,0,0,0-.79-4.27l1.92-9.64-3-3.34,5.36-9.34-.69-9.88-.94-4.68,2.48-4.06Z" fill="#fff"/><path d="M215.19,152.77l-1.43,48.88a2,2,0,0,0,1.94,2.06h.05a2.09,2.09,0,0,0,2.11-2l1.42-48.88a2,2,0,0,0-1.94-2.06h-.05A2.09,2.09,0,0,0,215.19,152.77Z" fill-rule="evenodd"/><path d="M239.86,151.05l-1.43,48.88a2,2,0,0,0,1.95,2.06h0a2.1,2.1,0,0,0,2.11-2L244,151.08A2,2,0,0,0,242,149h0A2.1,2.1,0,0,0,239.86,151.05Z" fill-rule="evenodd"/><path d="M227.52,151.91l-1.42,48.88a2,2,0,0,0,1.94,2.06h0a2.09,2.09,0,0,0,2.11-2l1.43-48.88a2,2,0,0,0-2-2.06h0A2.09,2.09,0,0,0,227.52,151.91Z" fill-rule="evenodd"/><path d="M251.35,174.12l-.73,25a2,2,0,0,0,1.95,2.08h.05a2.11,2.11,0,0,0,2.12-2.05l.74-25.05a2,2,0,0,0-2-2.07h-.05A2.11,2.11,0,0,0,251.35,174.12Z" fill-rule="evenodd"/></g><path d="M202.79,151.91c-5,1.8-7.34,1.85-8,6.82l3,8.12c-.49,3.38-3.75,8.31-1.65,11.08.85,1.12.43,4.95.43,6.11-5.26,3.42,2.11,18.1.29,21.46q-1.81,3.38.67,9.64l-.89,8.31a12.64,12.64,0,0,0,0,2.75q.1.9,13,12a21.83,21.83,0,0,0,2.4,0L314.36,231c7.2-.5,13-5.84,13.56-12.54l3.46-74.35c.66-7.47-5.3-14-13.31-14.5a15.28,15.28,0,0,0-2.14,0l-81.66,3.75c-4.73.33-10.05,1.74-12.52,5.53L216.5,147Z"/><path d="M229,165a5.66,5.66,0,0,0,2.83-2.21l5.85-9a5.76,5.76,0,0,1,4.44-2.55l63.79-4.46q4.39-.3,11.56,3.58c.28,0,5.78,9.4,5.53,12.29l-3.85,55.42c-.23,2.59-5.54-1.25-8.32-1.05q-15.62,7.22-24.95,7.86c-7.41.52-8.41-1.6-19.34-.84-3.94.28-16.28,3.33-20.68,3.64l-30.18,2.11a7.22,7.22,0,0,1-.93,0,5.31,5.31,0,0,1-5-5.7l.95-8.83a4.78,4.78,0,0,0-.13-1.77l-2.93-11.14a5,5,0,0,1,1.13-4.61q5.32-6,5.49-9.48a13,13,0,0,0-2.83-8.72,5,5,0,0,1-1-3.7l.19-1.33a5.44,5.44,0,0,1,3.62-4.26Z" fill="#c4c3c6"/><path d="M253.62,153.9a20.66,20.66,0,0,1,1.87-2.42c1.91-2.09,6.59-2.27,11.51-2.6l-3.86,3.2a3,3,0,0,0,1.29-.42,49,49,0,0,0,5.17-3.08l.65-.11c.62.23,1,.18,1.09-.1,4.4-.31,8.89-1.26,13.43-.62,1.05.14,1.17.49.75.79a5.8,5.8,0,0,1-2.32.76c-.4.06-.85.1-.82.32.16,1.1-1.56,3.1-3.18,3.2-1.2.08-2.55.06-2.92.76l4.84.21c-.82.81-2.27,1.32-2.44,2.31,2.17-.45,3.57-3.15,3.74-4.27.19-1.32,1.53-2,4.18-2.23,1-.09,1.65-.39,1.7-1s1.06-.82,2.16-.86c2.16-.09,6.34-.46,10.62-.79l-.47-6.79-47.72,3.33Z" fill-rule="evenodd"/><path d="M305.52,222.42a8.58,8.58,0,0,0-2.73.18,1.34,1.34,0,0,1-1.52,0c-.4-.25-.7-.69-1.27-.76.07.89.33.83.07,1.8-.09.34,1.11,1,1.29,1.24.68.85,1.49,1,2.39,1.41.64.34,1.52,3.74,1.65,4.81-.91-1.33-3.31-5.08-5-5.06a.26.26,0,0,1-.25-.17c-.12-.61-1.6-.59-1.71-1.21-.4-2.15-.39-2.85-2.16-3.7-.88-.43-.84-1.25-1.87-1.35-.18,0-.81-.84-1.08-.64-.58.45-.63-.46-.88-.9-.56-.93-1.88-.27-2.9-.54s-6.15-4-6.81-4.65c1,.34,2.81.47,3.79.82a57.24,57.24,0,0,1,6.82,3.65,15.42,15.42,0,0,1-1.6-3.81L287.37,210q-3.87-2.55-4.23-2.83.23,0,5.49,1.38l4.63,4.09.66,3.68.88.89c.68.72.64.18,1.74.19,1.79,0,1,1.58,2.49,2.16.18.07,1.63.18,1.68.42a3.21,3.21,0,0,0,2.09,2.41C303.81,221.91,304.75,221.72,305.52,222.42Z" fill-rule="evenodd"/><path d="M327,159.45a7.49,7.49,0,0,0-2.65.12c-.74.37-1.17.33-1.45,0s-.32-.78-.82-.87c-.36,1-.09.93-.8,2-.25.37.55,1.15.61,1.4.24.95.95,1.08,1.57,1.62.44.39-.37,4.17-.76,5.36-.22-1.5-.67-5.7-2.26-5.73-.1,0-.19-.07-.16-.18.18-.68-1.22-.69-1-1.38.67-2.4,1-3.17-.24-4.16-.62-.49-.19-1.39-1.11-1.53-.16,0-.35-1-.71-.73-.75.47-.36-.53-.39-1-.07-1-1.64-.35-2.46-.67s-3.85-4.59-4.16-5.31c.76.41,2.41.59,3.16,1a28.14,28.14,0,0,1,4.65,4.21,16,16,0,0,1,.34-4.26L316,145.21c-1.61-1.94-2.48-3-2.61-3.23q.2,0,4.49,1.65l2.38,4.64-1.15,4.08c.22.56.36.9.4,1,.29.81.51.21,1.54.25,1.67.06.16,1.77,1.3,2.45.14.08,1.45.23,1.37.5a2.24,2.24,0,0,0,.81,2.72C325.64,158.84,326.6,158.65,327,159.45Z" fill-rule="evenodd"/><path d="M207.91,220.42l3-6L210,201.33a22,22,0,0,0-3.24-5.57l8.72-8.06a90.63,90.63,0,0,0-6.06-10.14,4.94,4.94,0,0,1-1-3.7l.19-1.32a5.41,5.41,0,0,1,3.61-4.26L227,163a5.66,5.66,0,0,0,2.83-2.2l5.84-9a5.78,5.78,0,0,1,4.44-2.55q26.81-2.34,46.68-5t30.62-5.61q-1-2.1-7.18-1.67c-.28,0-.55,0-.82,0l-73.1,5.11a5.81,5.81,0,0,0-4.44,2.54l-5.84,9a5.61,5.61,0,0,1-2.83,2.2l-14.76,5.29a5.4,5.4,0,0,0-3.6,4.25l-.19,1.33a4.94,4.94,0,0,0,1,3.7,13,13,0,0,1,2.83,8.72q-.18,3.45-5.48,9.48a5,5,0,0,0-1.14,4.6l2.93,11.13a4.81,4.81,0,0,1,.13,1.77l-.95,8.83A5.22,5.22,0,0,0,207.91,220.42Z" fill="#c4c3c6"/><path d="M230.11,172.68l17-21.75-6.48.46a5.46,5.46,0,0,0-4.26,2.51l-5.6,8.91a5.32,5.32,0,0,1-2.71,2.18l-14.18,5.23a5.28,5.28,0,0,0-3.45,4.23l-.18,1.32a26.11,26.11,0,0,0,.69,6l3,6.31-2.54,10.64-4.35,2.92q3.12,8.79,3.26,9.36a24.53,24.53,0,0,1,.28,3.92l-.9,8.78a5.21,5.21,0,0,0,3.84,5.49l.72-7.11a32.1,32.1,0,0,0-.78-4.32l1.86-9.72-3-3.39,5.24-9.41-.69-10-.93-4.73,2.42-4.1Z" fill="#fff"/><polygon points="240.72 163.92 239.44 217.2 243.32 217.25 244.6 163.96 240.72 163.92" fill-rule="evenodd"/><polygon points="252.9 188.04 251.62 216.35 255.43 216.4 256.7 188.09 252.9 188.04" fill-rule="evenodd"/></g><g id="Group-35"><path d="M73.48,158,75.8,52.78a5.52,5.52,0,0,1,5.55-5.58,5.17,5.17,0,0,1,2.68.85l128.34,82.48a19.8,19.8,0,0,1,8.82,17.09l-2,89.92a7.81,7.81,0,0,1-7.85,7.88c-1.33,0-18.92,2.14-20.06,1.4a10.49,10.49,0,0,1-6.21-1.76Q139.47,215.57,73.48,158Z" fill-rule="evenodd"/><path d="M67.56,154.85l2.12-91a6.36,6.36,0,0,1,6.41-6.41,6.07,6.07,0,0,1,3.17,1l114,76.85a22.82,22.82,0,0,1,9.82,19.46l-1.72,73.51a9,9,0,0,1-9.05,9,8.5,8.5,0,0,1-4.48-1.47Z" fill="#c4c3c6" fill-rule="evenodd"/><path d="M71.4,54.56A5.31,5.31,0,0,1,78.72,53L204.79,134.5a20,20,0,0,1,9,17.31L212,231.5a7.92,7.92,0,0,1-8,8c-1.3-.05-3.35.23-5.29.37,1.74-1.46,4.47-5.2,4.52-7.74l1.77-79.7a20.07,20.07,0,0,0-8.95-17.31Z" fill="#f9f9f9" fill-rule="evenodd"/></g><path d="M6.72,119.1c-4.2,1.58-6.12,1.62-6.7,6l2.53,7.23c-.39,3-3.11,7.36-1.34,9.83.72,1,.38,4.4.38,5.42-4.38,3,1.83,16.08.33,19.06q-1.51,3,.59,8.56L1.8,182.6a11.69,11.69,0,0,0,0,2.44q.08.79,10.93,10.69a17.35,17.35,0,0,0,2,0l85.58-6a12.13,12.13,0,0,0,11.3-11.09l2.62-66a12.06,12.06,0,0,0-11.18-12.94,13.37,13.37,0,0,0-1.79,0l-69.17,2.11a12.23,12.23,0,0,0-9.57,5.79l-4.37,7.14Z"/><path d="M28.62,130.62a4.74,4.74,0,0,0,2.37-2l4.88-8a4.72,4.72,0,0,1,3.72-2.25l53.54-3.75q3.68-.25,9.71,3.23c.23,0,4.89,8.41,4.69,11l-3,49.42c-.18,2.32-4.65-1.13-7-1q-13.08,6.39-20.91,6.93c-6.22.43-7.07-1.46-16.24-.82-3.31.23-13.65,2.91-17.35,3.17l-25.32,1.77a5.08,5.08,0,0,1-.78,0,4.68,4.68,0,0,1-4.26-5.1l.77-7.88a4.68,4.68,0,0,0-.12-1.58l-2.5-10a4.62,4.62,0,0,1,.93-4.1q4.44-5.35,4.57-8.44a12.17,12.17,0,0,0-2.4-7.79,4.61,4.61,0,0,1-.84-3.3l.16-1.19a4.7,4.7,0,0,1,3-3.78Z" fill="#c4c3c6"/><path d="M49.4,121A17.31,17.31,0,0,1,51,118.87c1.59-1.87,5.53-2,9.65-2.29l-3.23,2.86a2.39,2.39,0,0,0,1.09-.37,40.6,40.6,0,0,0,4.33-2.75l.54-.09c.53.21.81.16.91-.09,3.7-.26,7.47-1.09,11.29-.51.88.14,1,.45.63.72a4.6,4.6,0,0,1-2,.67c-.33,0-.71.09-.68.29a3.3,3.3,0,0,1-2.66,2.86c-1,.06-2.15,0-2.45.66l4.06.21c-.68.73-1.9,1.18-2,2.07,1.82-.4,3-2.82,3.11-3.82.17-1.18,1.28-1.81,3.51-2,.88-.07,1.38-.34,1.42-.86s.89-.73,1.82-.76c1.81-.07,5.32-.39,8.91-.66l-.42-6.1-40.07,2.8Z" fill-rule="evenodd"/><path d="M93.13,182.05a6.75,6.75,0,0,0-2.29.15,1.1,1.1,0,0,1-1.28,0c-.33-.23-.59-.62-1.06-.68.06.79.28.74.06,1.6-.07.3.94.91,1.09,1.1.58.76,1.25.85,2,1.27.54.3,1.28,3.32,1.4,4.27-.77-1.19-2.79-4.52-4.21-4.51-.09,0-.2-.06-.21-.15-.1-.54-1.35-.53-1.44-1.08-.34-1.91-.34-2.53-1.82-3.3-.74-.38-.71-1.11-1.58-1.2-.14,0-.68-.75-.9-.57-.48.39-.53-.42-.75-.8-.47-.83-1.57-.25-2.43-.5A41.39,41.39,0,0,1,74,173.53c.82.31,2.35.43,3.17.75a45.8,45.8,0,0,1,5.74,3.26,14.18,14.18,0,0,1-1.35-3.39l-3.69-3.24q-3.25-2.26-3.56-2.52c.13,0,1.66.42,4.61,1.24l3.9,3.64.56,3.27.75.8c.56.64.53.16,1.46.17,1.49,0,.82,1.41,2.09,1.93.15.06,1.37.16,1.4.38A2.88,2.88,0,0,0,90.85,182C91.69,181.59,92.48,181.42,93.13,182.05Z" fill-rule="evenodd"/><path d="M110.91,126.2a6,6,0,0,0-2.22.11c-.62.32-1,.28-1.21,0s-.28-.69-.7-.78c-.3.88-.07.83-.66,1.77-.21.34.46,1,.52,1.25.2.85.8,1,1.32,1.44s-.3,3.71-.62,4.76c-.19-1.33-.58-5.06-1.91-5.09a.13.13,0,0,1-.14-.17c.15-.6-1-.62-.87-1.23.55-2.12.84-2.8-.21-3.68-.53-.44-.17-1.24-.94-1.37-.13,0-.3-.85-.6-.65-.63.42-.3-.48-.33-.9-.07-.94-1.37-.32-2.06-.61S97,117,96.77,116.32c.64.36,2,.53,2.65.9a24.81,24.81,0,0,1,3.92,3.75,14.25,14.25,0,0,1,.27-3.78l-2-3.67c-1.35-1.72-2.09-2.68-2.2-2.87.11,0,1.37.5,3.78,1.48l2,4.13-1,3.62c.19.49.31.79.34.9.25.72.43.19,1.3.23,1.4,0,.14,1.57,1.09,2.18.12.07,1.22.21,1.16.45a2.06,2.06,0,0,0,.68,2.42C109.77,125.66,110.58,125.5,110.91,126.2Z" fill-rule="evenodd"/><path d="M11.13,180.56l2.49-5.34-.82-11.67a20.39,20.39,0,0,0-2.73-5l7.27-7.15a80.56,80.56,0,0,0-5.11-9,4.58,4.58,0,0,1-.83-3.3l.15-1.19a4.68,4.68,0,0,1,3-3.77l12.35-4.67a4.62,4.62,0,0,0,2.36-2l4.86-8a4.71,4.71,0,0,1,3.71-2.25q22.46-2,39.09-4.3a195.43,195.43,0,0,0,25.63-4.88c-.55-1.25-2.55-1.76-6-1.52-.23,0-.46,0-.69,0l-61.21,4.28a4.73,4.73,0,0,0-3.71,2.25l-4.86,8a4.74,4.74,0,0,1-2.37,2l-12.34,4.66a4.71,4.71,0,0,0-3,3.78l-.15,1.18A4.62,4.62,0,0,0,9,136a12.26,12.26,0,0,1,2.4,7.78q-.13,3.08-4.56,8.43a4.65,4.65,0,0,0-.93,4.09l2.5,9.94a4.42,4.42,0,0,1,.11,1.58l-.76,7.86A4.68,4.68,0,0,0,11.13,180.56Z" fill="#c4c3c6"/><path d="M29.56,137.19l14.26-19.31-5.46.38a4.56,4.56,0,0,0-3.58,2.23L30.1,128.4a4.6,4.6,0,0,1-2.28,1.94L15.89,135A4.64,4.64,0,0,0,13,138.7l-.14,1.17a24.44,24.44,0,0,0,.6,5.4L16,150.89l-2.1,9.47-3.66,2.58q2.65,7.84,2.79,8.35a24.08,24.08,0,0,1,.24,3.49l-.72,7.82a4.65,4.65,0,0,0,3.25,4.9l.58-6.33a29.82,29.82,0,0,0-.67-3.85l1.53-8.65-2.51-3,4.38-8.37-.62-8.89-.8-4.22,2-3.63Z" fill="#fff"/><path d="M38.56,131.46l-.93,44.15a1.67,1.67,0,0,0,1.64,1.71h0A1.7,1.7,0,0,0,41,175.66l.94-44.16a1.68,1.68,0,0,0-1.64-1.71h0A1.7,1.7,0,0,0,38.56,131.46Z" fill-rule="evenodd"/><path d="M58.91,130,58,174.19a1.68,1.68,0,0,0,1.64,1.71h0a1.7,1.7,0,0,0,1.72-1.67l.93-44.15a1.68,1.68,0,0,0-1.64-1.71h0A1.7,1.7,0,0,0,58.91,130Z" fill-rule="evenodd"/><path d="M48.73,130.75,47.8,174.9a1.68,1.68,0,0,0,1.64,1.71h0A1.7,1.7,0,0,0,51.18,175l.93-44.16a1.68,1.68,0,0,0-1.64-1.71h0A1.71,1.71,0,0,0,48.73,130.75Z" fill-rule="evenodd"/><path d="M68.51,150.79,68,173.56a1.69,1.69,0,0,0,1.65,1.73h0a1.72,1.72,0,0,0,1.74-1.68l.49-22.77a1.69,1.69,0,0,0-1.65-1.72h0A1.7,1.7,0,0,0,68.51,150.79Z" fill-rule="evenodd"/><path d="M25.18,126.91c-4.73,1.78-6.9,1.82-7.55,6.81l2.85,8.17C20,145.28,17,150.21,19,153c.81,1.13.42,5,.43,6.14-4.93,3.41,2.07,18.18.37,21.55q-1.7,3.38.68,9.68l-.81,8.34a14.13,14.13,0,0,0,0,2.76q.11.9,12.32,12.09a22.6,22.6,0,0,0,2.26,0l96.39-6.74a13.69,13.69,0,0,0,12.72-12.54l2.93-74.63a13.65,13.65,0,0,0-14.62-14.63l-77.9,2.36A13.72,13.72,0,0,0,43,114L38.07,122Z"/><path d="M49.86,140.09a5.35,5.35,0,0,0,2.67-2.2l5.49-9a5.37,5.37,0,0,1,4.19-2.54l60.28-4.21q4.14-.28,10.94,3.64c.26,0,5.51,9.46,5.28,12.36L135.3,193.8c-.21,2.61-5.24-1.28-7.88-1.09q-14.72,7.18-23.54,7.8c-7,.49-8-1.65-18.28-.93-3.73.26-15.38,3.28-19.54,3.57l-28.52,2a5.06,5.06,0,0,1-.87,0,5.28,5.28,0,0,1-4.8-5.74l.87-8.86a5.33,5.33,0,0,0-.14-1.78l-2.81-11.2a5.22,5.22,0,0,1,1.05-4.62q5-6,5.15-9.5a13.7,13.7,0,0,0-2.71-8.77,5.2,5.2,0,0,1-.94-3.72l.17-1.33a5.31,5.31,0,0,1,3.4-4.26Z" fill="#c4c3c6"/><path d="M73.22,129.16A21,21,0,0,1,75,126.8c1.8-2,6.23-2.2,10.87-2.52l-3.64,3.13a2.84,2.84,0,0,0,1.22-.41,46.71,46.71,0,0,0,4.89-3l.61-.11c.59.23.91.18,1-.1,4.16-.29,8.4-1.21,12.71-.58,1,.15,1.1.49.7.78a5.41,5.41,0,0,1-2.19.74c-.38,0-.81.09-.77.31.15,1.08-1.47,3-3,3.13-1.13.07-2.41.05-2.76.73l4.58.22c-.77.8-2.14,1.28-2.3,2.26,2.06-.44,3.37-3.08,3.52-4.17.19-1.3,1.45-2,4-2.18,1-.08,1.56-.38,1.61-1s1-.79,2-.83c2-.08,6-.44,10-.75l-.47-6.65L72.51,119Z" fill-rule="evenodd"/><path d="M122.34,198.15a7.63,7.63,0,0,0-2.57.16,1.22,1.22,0,0,1-1.44,0c-.38-.26-.66-.7-1.2-.77.07.89.32.84.08,1.81-.09.34,1.05,1,1.22,1.25.65.85,1.41,1,2.26,1.43.61.34,1.45,3.76,1.58,4.83-.87-1.34-3.15-5.11-4.74-5.11a.24.24,0,0,1-.24-.16c-.11-.61-1.51-.6-1.62-1.22-.38-2.17-.37-2.87-2-3.73-.84-.43-.8-1.26-1.78-1.36-.16,0-.76-.86-1-.65-.54.44-.59-.47-.83-.9-.53-1-1.78-.29-2.73-.57s-5.82-4-6.44-4.69c.92.35,2.64.49,3.57.84a51.14,51.14,0,0,1,6.45,3.7,16.2,16.2,0,0,1-1.52-3.84l-4.15-3.67c-2.44-1.71-3.78-2.66-4-2.85.14,0,1.86.48,5.18,1.4l4.38,4.13.64,3.7.84.9c.63.72.59.18,1.64.2,1.68,0,.92,1.59,2.35,2.18.17.07,1.54.18,1.58.42a3.24,3.24,0,0,0,2,2.44C120.73,197.63,121.61,197.44,122.34,198.15Z" fill-rule="evenodd"/><path d="M142.31,135a6.67,6.67,0,0,0-2.5.11c-.69.37-1.09.33-1.36,0s-.31-.78-.78-.87c-.34,1-.08.93-.75,2-.23.37.53,1.16.59,1.41.23,1,.9,1.09,1.48,1.63.42.39-.33,4.19-.69,5.38-.22-1.51-.66-5.72-2.16-5.76a.15.15,0,0,1-.15-.19c.17-.68-1.15-.7-1-1.39.62-2.4.93-3.17-.25-4.17-.58-.49-.18-1.4-1.05-1.54-.15,0-.34-1-.67-.74-.71.48-.34-.53-.38-1-.07-1.05-1.54-.36-2.32-.69s-3.65-4.62-3.94-5.35c.71.42,2.27.61,3,1a28.56,28.56,0,0,1,4.41,4.25,17,17,0,0,1,.29-4.28l-2.25-4.15c-1.53-2-2.35-3-2.48-3.25.13,0,1.54.57,4.25,1.68l2.26,4.67-1.07,4.09c.22.56.34.9.38,1,.28.82.49.21,1.46.26,1.58.06.16,1.78,1.23,2.46.14.09,1.37.24,1.3.52a2.33,2.33,0,0,0,.77,2.73C141,134.39,141.94,134.21,142.31,135Z" fill-rule="evenodd"/><path d="M30.32,195.87l2.79-6-.91-13.14a22.87,22.87,0,0,0-3.08-5.61l8.18-8.05a91.55,91.55,0,0,0-5.76-10.2,5.25,5.25,0,0,1-.93-3.72l.17-1.34a5.28,5.28,0,0,1,3.38-4.25l13.89-5.25a5.32,5.32,0,0,0,2.66-2.2l5.46-9a5.32,5.32,0,0,1,4.18-2.53q25.26-2.25,44-4.84t28.84-5.49c-.62-1.42-2.88-2-6.77-1.71-.27,0-.52,0-.78,0l-68.87,4.82a5.33,5.33,0,0,0-4.17,2.53l-5.47,9a5.37,5.37,0,0,1-2.66,2.2l-13.89,5.24a5.28,5.28,0,0,0-3.38,4.26L27,141.91a5.25,5.25,0,0,0,.93,3.72,13.74,13.74,0,0,1,2.7,8.76q-.14,3.47-5.12,9.49a5.28,5.28,0,0,0-1.05,4.62l2.81,11.19a5.07,5.07,0,0,1,.13,1.78l-.85,8.85A5.26,5.26,0,0,0,30.32,195.87Z" fill="#c4c3c6"/><path d="M50.83,147.81l15.92-21.75-6.1.42a5.07,5.07,0,0,0-4,2.51l-5.22,8.91a5.14,5.14,0,0,1-2.55,2.19l-13.32,5.18a5.22,5.22,0,0,0-3.23,4.23l-.16,1.32a28,28,0,0,0,.68,6.08l2.84,6.34-2.35,10.67-4.08,2.91c2,5.89,3,9,3.12,9.42a25.78,25.78,0,0,1,.27,3.93l-.8,8.81a5.27,5.27,0,0,0,3.63,5.53l.65-7.14a30.81,30.81,0,0,0-.76-4.34l1.72-9.75-2.82-3.41,4.9-9.43-.7-10-.9-4.75,2.27-4.1Z" fill="#fff"/><path d="M61,140.91l-1,49.94a1.89,1.89,0,0,0,1.84,1.93h0a1.91,1.91,0,0,0,1.93-1.87l1-49.95A1.9,1.9,0,0,0,62.91,139h0A1.91,1.91,0,0,0,61,140.91Z" fill-rule="evenodd"/><path d="M83.83,139.31l-1,49.94a1.9,1.9,0,0,0,1.85,1.93h0a1.91,1.91,0,0,0,1.94-1.87l1-49.95a1.9,1.9,0,0,0-1.85-1.93h0A1.93,1.93,0,0,0,83.83,139.31Z" fill-rule="evenodd"/><path d="M72.4,140.11l-1,49.94A1.88,1.88,0,0,0,73.21,192h0a1.91,1.91,0,0,0,1.93-1.87l1-50a1.89,1.89,0,0,0-1.84-1.93h0A1.91,1.91,0,0,0,72.4,140.11Z" fill-rule="evenodd"/><path d="M94.64,162.78l-.54,25.77A1.9,1.9,0,0,0,96,190.49h0a1.93,1.93,0,0,0,2-1.88l.53-25.77a1.89,1.89,0,0,0-1.86-1.94h0A1.92,1.92,0,0,0,94.64,162.78Z" fill-rule="evenodd"/><g id="Group-30"><path d="M48.28,75.28c-4.74,1.78-6.91,1.82-7.56,6.8l2.86,8.17c-.45,3.39-3.51,8.32-1.51,11.11.81,1.13.42,5,.43,6.13-4.94,3.41,2.06,18.17.37,21.54q-1.71,3.38.67,9.68l-.81,8.34a13.38,13.38,0,0,0,0,2.76c0,.36,3.51,26.86,8.37,31q4.26,3.62,2,17.57,0,9.78,17.06,10.74l83.6-54a13.7,13.7,0,0,0,12.73-12.54L169.49,68a13.66,13.66,0,0,0-14.63-14.62l-78,2.37A13.76,13.76,0,0,0,66.1,62.33L61.18,70.4Z"/><path d="M73,88.28a5.33,5.33,0,0,0,2.66-2.2l5.48-9a5.3,5.3,0,0,1,4.17-2.53l60.08-4.21q4.13-.28,10.91,3.64c.26,0,5.49,9.46,5.26,12.36L158.17,142c-.21,2.61-5.23-1.28-7.85-1.09q-14.67,7.17-23.47,7.79c-7,.49-7.93-1.65-18.22-.93-3.72.26-15.33,3.28-19.48,3.57l-28.42,2a5.06,5.06,0,0,1-.87,0,5.27,5.27,0,0,1-4.78-5.74l.86-8.86a5.32,5.32,0,0,0-.13-1.78L53,125.72a5.24,5.24,0,0,1,1-4.62q5-6,5.13-9.49a13.75,13.75,0,0,0-2.7-8.77,5.2,5.2,0,0,1-.93-3.72l.17-1.33a5.28,5.28,0,0,1,3.38-4.26Z" fill="#c4c3c6"/><path d="M96.17,77.29a19.63,19.63,0,0,1,1.76-2.43c1.79-2.1,6.21-2.26,10.85-2.57l-3.63,3.22a2.83,2.83,0,0,0,1.22-.42A46.54,46.54,0,0,0,111.23,72l.62-.11c.59.24.91.18,1-.1,4.16-.29,8.4-1.23,12.69-.57,1,.16,1.11.51.71.81a5.13,5.13,0,0,1-2.19.75c-.38.06-.8.1-.77.33.15,1.11-1.46,3.12-3,3.21-1.13.08-2.41.05-2.75.75l4.56.24c-.76.82-2.13,1.32-2.28,2.32,2.05-.44,3.35-3.16,3.5-4.29.18-1.33,1.44-2,3.94-2.24,1-.08,1.56-.38,1.6-1s1-.82,2-.86c2-.07,6-.43,10-.74l-.48-6.87-45,3.15Z" fill-rule="evenodd"/><path d="M145.42,146.4a7.68,7.68,0,0,0-2.58.16,1.2,1.2,0,0,1-1.43,0c-.38-.26-.66-.7-1.2-.77.07.89.32.84.08,1.81-.09.34,1.05,1,1.21,1.25.66.85,1.42,1,2.27,1.43.61.34,1.44,3.76,1.58,4.84-.87-1.35-3.15-5.12-4.74-5.11a.25.25,0,0,1-.24-.17c-.11-.61-1.51-.6-1.62-1.22-.38-2.17-.38-2.87-2.05-3.73-.83-.43-.79-1.26-1.77-1.36-.16,0-.76-.85-1-.65-.54.44-.59-.47-.83-.9-.53-.94-1.78-.29-2.73-.56s-5.83-4.06-6.44-4.7c.92.35,2.64.48,3.57.84a51.14,51.14,0,0,1,6.45,3.7,16.51,16.51,0,0,1-1.53-3.84l-4.14-3.67c-2.44-1.71-3.78-2.66-4-2.85.13,0,1.86.47,5.18,1.4l4.38,4.13.63,3.7q.7.74.84.9c.64.73.6.18,1.65.2,1.68,0,.92,1.59,2.35,2.18.17.07,1.54.18,1.58.43a3.25,3.25,0,0,0,2,2.43C143.81,145.88,144.69,145.69,145.42,146.4Z" fill-rule="evenodd"/><path d="M165.39,83.25a6.47,6.47,0,0,0-2.5.11c-.69.37-1.1.33-1.36,0s-.31-.78-.78-.87c-.34,1-.08.93-.75,2-.24.37.53,1.16.58,1.41.23.95.9,1.09,1.49,1.63.42.39-.33,4.19-.69,5.38-.22-1.5-.66-5.72-2.16-5.76a.15.15,0,0,1-.15-.19c.17-.68-1.15-.7-1-1.39.62-2.4.93-3.17-.25-4.17-.59-.49-.19-1.4-1.06-1.54-.14,0-.33-1-.66-.74-.71.47-.35-.54-.38-1-.07-1-1.54-.36-2.32-.69s-3.65-4.62-3.94-5.35c.71.41,2.27.61,3,1a27.54,27.54,0,0,1,4.4,4.24,16.69,16.69,0,0,1,.3-4.27l-2.25-4.15c-1.53-2-2.35-3-2.48-3.25.13,0,1.54.57,4.25,1.68L159,72l-1.07,4.1c.21.56.34.9.38,1,.28.81.49.21,1.46.25,1.57.07.15,1.78,1.23,2.47.13.09,1.37.24,1.3.51a2.33,2.33,0,0,0,.77,2.74C164.11,82.63,165,82.44,165.39,83.25Z" fill-rule="evenodd"/><path d="M53.37,143.81l2.8-6-.92-13.15A23.06,23.06,0,0,0,52.17,119l8.19-8a91,91,0,0,0-5.76-10.21,5.25,5.25,0,0,1-.94-3.72l.18-1.33a5.28,5.28,0,0,1,3.38-4.26l13.9-5.25A5.33,5.33,0,0,0,73.78,84l5.47-9a5.33,5.33,0,0,1,4.18-2.53q25.27-2.25,44-4.84t28.87-5.5q-.93-2.11-6.78-1.71c-.26,0-.52,0-.78,0L79.82,65.27a5.32,5.32,0,0,0-4.18,2.53l-5.47,9A5.33,5.33,0,0,1,67.51,79l-13.9,5.25a5.28,5.28,0,0,0-3.38,4.26l-.18,1.33A5.25,5.25,0,0,0,51,93.54a13.75,13.75,0,0,1,2.7,8.77q-.15,3.47-5.13,9.49a5.28,5.28,0,0,0-1.05,4.62l2.81,11.2a5.33,5.33,0,0,1,.14,1.78l-.86,8.86A5.26,5.26,0,0,0,53.37,143.81Z" fill="#c4c3c6"/><path d="M73.93,96.07,90,74.35l-6.13.43a5.08,5.08,0,0,0-4,2.5l-5.26,8.9A5.1,5.1,0,0,1,72,88.36l-13.4,5.19a5.15,5.15,0,0,0-3.25,4.22l-.17,1.32a27.94,27.94,0,0,0,.68,6.07l2.85,6.33-2.36,10.66-4.1,2.91q3,8.82,3.13,9.39a27.23,27.23,0,0,1,.27,3.93l-.81,8.8a5.25,5.25,0,0,0,3.65,5.52l.66-7.13a33.84,33.84,0,0,0-.76-4.33l1.72-9.74-2.82-3.4,4.92-9.42-.7-10-.9-4.75,2.28-4.09Z" fill="#fff"/><polygon points="84.08 87.37 83.09 140.87 86.76 140.93 87.75 87.43 84.08 87.37" fill-rule="evenodd"/><polygon points="106.96 85.77 105.97 139.27 109.64 139.33 110.62 85.83 106.96 85.77" fill-rule="evenodd"/><polygon points="95.52 86.57 94.53 140.07 98.2 140.13 99.18 86.63 95.52 86.57" fill-rule="evenodd"/><polygon points="117.8 109.24 117.27 138.59 120.92 138.65 121.45 109.3 117.8 109.24" fill-rule="evenodd"/></g><path d="M69.08,159.23c-5,1.89-7.29,1.93-8,7.19l3,8.63c-.46,3.58-3.69,8.79-1.59,11.74.86,1.19.45,5.25.46,6.48-5.21,3.6,2.18,19.19.39,22.76q-1.8,3.56.71,10.22l-.85,8.81a14.14,14.14,0,0,0,0,2.91q.11,1,13,12.77c1.06,0,1.85.06,2.38,0l101.79-7.12a14.45,14.45,0,0,0,13.43-13.24L197,151.6a14.4,14.4,0,0,0-13.31-15.45,15.14,15.14,0,0,0-2.13,0l-11.73.35-70.39.27c-4.7.33-9.09,4.78-11.53,8.79l-5.19,8.52Z"/><path d="M95.19,173.23A5.59,5.59,0,0,0,98,170.9l5.78-9.48a5.62,5.62,0,0,1,4.41-2.67l63.44-4.44q4.37-.3,11.51,3.85c.28,0,5.8,10,5.56,13.05L185.13,230c-.22,2.75-5.52-1.35-8.29-1.16q-15.5,7.57-24.78,8.23c-7.37.51-8.38-1.74-19.24-1-3.93.27-16.18,3.46-20.56,3.76l-30,2.1a5.78,5.78,0,0,1-.93,0,5.57,5.57,0,0,1-5-6.07l.9-9.36A5.35,5.35,0,0,0,77,224.6l-3-11.83a5.56,5.56,0,0,1,1.11-4.87q5.26-6.37,5.42-10a14.57,14.57,0,0,0-2.86-9.26,5.55,5.55,0,0,1-1-3.93l.18-1.41a5.57,5.57,0,0,1,3.57-4.49Z" fill="#c4c3c6"/><path d="M119.66,161.57a21.65,21.65,0,0,1,1.85-2.55c1.89-2.21,6.55-2.38,11.43-2.71l-3.82,3.38a2.76,2.76,0,0,0,1.28-.44,47.33,47.33,0,0,0,5.13-3.24l.65-.11c.62.24,1,.19,1.08-.11,4.38-.3,8.84-1.29,13.36-.6,1,.16,1.17.53.75.85a5.45,5.45,0,0,1-2.31.79c-.39.06-.84.1-.81.34.16,1.17-1.54,3.28-3.15,3.38-1.19.07-2.54,0-2.9.79l4.81.24c-.8.86-2.25,1.39-2.41,2.44,2.16-.46,3.53-3.32,3.7-4.5.19-1.4,1.51-2.14,4.14-2.36,1.05-.08,1.64-.4,1.69-1s1.06-.85,2.15-.9c2.14-.08,6.31-.46,10.56-.78l-.5-7.21-47.45,3.32Z" fill-rule="evenodd"/><path d="M171.6,234.47a7.94,7.94,0,0,0-2.71.17,1.29,1.29,0,0,1-1.52,0c-.39-.27-.7-.74-1.26-.82.07.95.34.89.08,1.92-.09.36,1.11,1.09,1.28,1.31.69.91,1.5,1,2.39,1.51.65.37,1.53,4,1.67,5.11-.92-1.42-3.32-5.4-5-5.39a.26.26,0,0,1-.25-.18c-.12-.64-1.6-.63-1.71-1.29-.4-2.28-.4-3-2.16-3.94-.88-.45-.85-1.32-1.87-1.43-.18,0-.81-.9-1.08-.68-.57.46-.62-.5-.88-1-.56-1-1.87-.3-2.88-.59s-6.15-4.29-6.8-5c1,.38,2.8.52,3.77.9a54.88,54.88,0,0,1,6.81,3.9,16.92,16.92,0,0,1-1.61-4.05l-4.38-3.87q-3.86-2.72-4.22-3c.15,0,2,.5,5.47,1.49l4.62,4.35.67,3.91.89,1c.67.77.63.19,1.73.21,1.78,0,1,1.68,2.48,2.3.19.07,1.63.19,1.67.45a3.45,3.45,0,0,0,2.1,2.57C169.9,233.92,170.83,233.72,171.6,234.47Z" fill-rule="evenodd"/><path d="M192.68,167.79a6.81,6.81,0,0,0-2.64.13c-.73.38-1.16.34-1.44,0s-.33-.83-.82-.93c-.36,1-.09,1-.79,2.11-.25.4.55,1.23.61,1.49.25,1,1,1.15,1.57,1.73.45.41-.35,4.42-.73,5.67-.23-1.58-.69-6-2.27-6.07a.18.18,0,0,1-.17-.2c.18-.72-1.21-.74-1-1.47.65-2.53,1-3.35-.26-4.4-.62-.53-.2-1.49-1.12-1.63-.15,0-.35-1-.7-.78-.75.5-.36-.57-.4-1.08-.07-1.11-1.62-.38-2.45-.73s-3.85-4.88-4.16-5.65c.76.44,2.4.64,3.15,1.08a29.37,29.37,0,0,1,4.65,4.48A17.76,17.76,0,0,1,184,157l-2.37-4.39q-2.43-3.09-2.62-3.43c.13,0,1.63.6,4.48,1.78l2.39,4.92-1.13,4.33c.23.59.36.95.4,1.07.29.86.51.23,1.54.27,1.66.07.17,1.88,1.3,2.61.14.09,1.45.25,1.37.54a2.48,2.48,0,0,0,.81,2.89C191.32,167.14,192.29,167,192.68,167.79Z" fill-rule="evenodd"/><path d="M74.49,231.89l3-6.34-1-13.89a24.13,24.13,0,0,0-3.25-5.92l8.64-8.5a96,96,0,0,0-6.08-10.78,5.53,5.53,0,0,1-1-3.92l.18-1.41a5.57,5.57,0,0,1,3.56-4.5l14.67-5.54a5.6,5.6,0,0,0,2.8-2.32l5.77-9.48a5.62,5.62,0,0,1,4.41-2.67q26.66-2.37,46.41-5.11t30.44-5.8q-1-2.24-7.15-1.8c-.28,0-.55,0-.82,0L102.38,149A5.59,5.59,0,0,0,98,151.66l-5.77,9.48a5.6,5.6,0,0,1-2.8,2.32L74.74,169a5.56,5.56,0,0,0-3.57,4.49L71,174.9a5.55,5.55,0,0,0,1,3.93,14.49,14.49,0,0,1,2.85,9.25q-.15,3.66-5.41,10a5.53,5.53,0,0,0-1.1,4.87l3,11.82a5.4,5.4,0,0,1,.14,1.88l-.9,9.35A5.55,5.55,0,0,0,74.49,231.89Z" fill="#c4c3c6"/><path d="M96.35,181.38l16.83-23-6.45.45a5.33,5.33,0,0,0-4.22,2.65L97,170.92a5.44,5.44,0,0,1-2.69,2.3L80.21,178.7a5.48,5.48,0,0,0-3.42,4.46l-.17,1.4a28.81,28.81,0,0,0,.72,6.42l3,6.71L77.86,209,73.55,212q3.14,9.33,3.29,9.94a27.53,27.53,0,0,1,.29,4.16l-.85,9.31a5.57,5.57,0,0,0,3.84,5.84l.69-7.55a34.58,34.58,0,0,0-.8-4.58l1.81-10.3-3-3.6,5.18-10-.74-10.58-1-5,2.4-4.33Z" fill="#fff"/><polygon points="106.87 172.14 105.83 228.63 109.7 228.69 110.74 172.21 106.87 172.14" fill-rule="evenodd"/><polygon points="131.01 170.45 129.98 226.94 133.85 227 134.88 170.52 131.01 170.45" fill-rule="evenodd"/><polygon points="118.94 171.3 117.91 227.78 121.78 227.85 122.81 171.36 118.94 171.3" fill-rule="evenodd"/><polygon points="142.46 195.23 141.9 226.22 145.75 226.28 146.31 195.29 142.46 195.23" fill-rule="evenodd"/></g></g><g id="Group-38"><g id="Group-36"><path d="M140.32,78.44c.74-1,1.42-2,2.11-3A15.35,15.35,0,0,0,138,73.87a43.2,43.2,0,0,0-17-.33C100.17,78,84.85,79.14,74.9,77.27c-11.3-2.13-16.44-8.8-12.49-16.7C64,57.5,66.81,55.63,70.82,54c1.94-.81,3.15-1.22,7.53-2.63,1.38-.45,2.24-.73,3.1-1l1-.33c1-2.58,3.3-5,6.44-7.22A67.86,67.86,0,0,1,102.56,36c2.49-1,5-1.89,8.29-3,.69-.25,7.05-1.54,7.68-1.75.52-1.39,13.23-9.26,18.82-10,2.51-.33,12.58-3.32,22.38-6.9q4.74-1.73,15.6-2.94,41.91-5.83,51.39-8.94C231.2.92,233.52.3,236.51.07c5-.39,9.23.94,12.08,3.94,2,2,5,6.84,10.78,16.69,1.3,2.21,2.67,4.54,4.16,7.11.35.61,4.8,8.31,5.1,8.79,1.62,2.66,2.3,5,1.58,7.56-1,3.72-4.6,6.27-9,7.44a34.77,34.77,0,0,1-7.3,1c-.13,0-5.18.24-6.73.34a47.49,47.49,0,0,0-15,3l-.07,0c-.6.56-1.28,1.17-2.07,1.89-2.33,2.1-5.39,4.78-9.39,8.21C209,76.05,203,79.62,195,82.09l-.6.18-.56.17A37.43,37.43,0,0,0,189.47,84a51.75,51.75,0,0,0-16.75,11.49c-1.13,1.11-4.69,4.78-4.85,5-.59.59-1.15,1.19-1.7,1.8-2,2.2-6.66,8.57-6.92,8.88-4.23,5-10.46,7.6-17.44,5.21-8.87-3-12.29-12.35-9-23.73a34.23,34.23,0,0,1,3.08-7.72,29.86,29.86,0,0,1,1.76-2.74c.38-.54.76-1.07,1.32-1.82l.68-.9Z"/><path d="M90.27,51.53C89,45.28,108,40.88,119.06,38.06a15.94,15.94,0,0,1-1,2.47,6.35,6.35,0,0,0,2.5-2.18,2.78,2.78,0,0,1,.71-.86l1.32-.36L123,37h.12a0,0,0,0,0,0,0q5.28-1.32,15.62-3a89.47,89.47,0,0,1,14.1-2c4.59-.1-21.23.7-27.75,1.92,1.8-3,8.49-4.3,16.72-6.7,4.47-.73,20.61-3.41,23.9-3.13-2-.43-7.46,0-9.72-.29-1.09-.16,1.22-2.23,5.36-3.42,10-2.86,19.49-3.8,28.39-2,22.4,4.43,45.11-17.07,51.13-10.71,2.36,1.9,18.37,29.18,19.39,31.88,1.83,4.86,4.38-2.08-21.79,1.61l-18.62,7.14c-3.25,6.25-5,8.33-9.62,12.51-8,7.26-21.73,13.26-26.56,15.33-13.16,5.64-19.8,13.53-24.92,18.72-8.77,8.89-7.36,16.81-12.73,15-4.23-1.46-7.68-7.18-4.89-17,2.29-8.1,4.18-8.22,10.1-17.28.75-2.32-.4-4.27-2.74-5.81-5.94-3.93-19.57-5.24-29.19-3.21-42,8.89-52.73,2.41-49.1-4.91a5.05,5.05,0,0,1,2.26-1.83h0c2.61-1,5.68-1.22,9.44-2.18,6.4-1.63,17.4-4.29,27.82-6.29a12.86,12.86,0,0,1-.18,4.54,6.92,6.92,0,0,0,2.76-3.38,2.53,2.53,0,0,1,2-2c4.67-.82,9.06-1.45,12.65-1.71q5.81-.43,16.27-4.37a94.94,94.94,0,0,0-19.55,1.57C116,47.1,102.23,49.13,90.27,51.53Z" fill="#c4c3c6" fill-rule="evenodd"/><path id="Oval" d="M164.41,98.64c1.56,2.57-1,6.29-5.73,8.32s-8.41,2.24-10-.33,2.36-11,8.31-10S162.85,96.08,164.41,98.64Z" fill-rule="evenodd"/><path id="Oval-Copy-3" d="M157.28,98.71q-.51,1.5-6.85,8.81c-.94.17-1.79-.35-2.54-1.59-1.12-1.84,1.67-7.89,5.94-7.19S157.79,97.2,157.28,98.71Z" fill="#fff" fill-rule="evenodd"/><path id="Oval-Copy-5" d="M91.06,55.28q-2.43.09-16,4.25-1.74,2.19.46,3.78c2.2,1.6,12.34.53,13.24-3.8S93.51,55.19,91.06,55.28Z" fill-rule="evenodd"/><path id="Oval-Copy-4" d="M86.68,56.67q-.71-.31-12.93,3c-.38,1.09.07,2.1,1.34,3,1.91,1.39,10,1,10.4-2.44S87.38,57,86.68,56.67Z" fill="#fff" fill-rule="evenodd"/><path d="M251,23c2.8,4.58,5.77,9.57,8.45,14.18-12,2.73-24.74,6.1-39.81,11,1.9-5.86,1.93-10.24,3.79-12.56C236,30.84,239.44,26.35,251,23Z" fill="#fff" fill-rule="evenodd"/><path d="M117.52,65.85c-26.33,5.58-39.81,4.85-45,1.71,5-4.37,14.83-2.46,27.43-4.48q17.8-2.86,28.68-.44c3.53,1.17,5.13,2,4.78,2.66A51.47,51.47,0,0,0,117.52,65.85Z" fill="#fff" fill-rule="evenodd"/><path d="M152.47,81.65Q146.28,87.35,145,103c-.83,1.18-2.22,3.64-3.89,1s-1.61-17.24,7.75-25.38c1.7-1.48,2.54-4.17,2.46-7.21.73.33,1.53,1.59,2.43,4.23C151.83,77,152.8,78.73,152.47,81.65Z" fill="#fff" fill-rule="evenodd"/><path id="Path-Copy-18" d="M123.61,46q-22.83,3-26.43,3.73c2.83-2.54,9.38-4.83,16.67-5.94,10.29-1.58,31-3.41,31.43.09.06.52-11.16,1.49-11.45,2A58.14,58.14,0,0,0,123.61,46Z" fill="#fff" fill-rule="evenodd"/><path id="Path-Copy-24" d="M129.61,67.51c3.71-2.48,14.19-.4,22.81-1.45,7.6-.92,16.05-1.54,13.36.31-1.88,1.3-7.43,6.52-12.3,9.3A24.86,24.86,0,0,0,145.69,82c-2.08,1.46.54-7.13-2.08-8.25C136.75,70.8,125.67,70.15,129.61,67.51Z" fill-rule="evenodd"/><path d="M248.82,39.18c7.69-1.8,7.49-5.24,6.88-9-.06-.37,9,5.07,9.61,9.08.78,4.82-.67,7.51-5.76,6.24-9.31-2.31-26.62.09-26.8-.75S241.12,41,248.82,39.18Z" fill-rule="evenodd"/></g></g></g></g></g></svg>