<?xml version="1.0" encoding="UTF-8"?>
<svg width="258px" height="170px" viewBox="0 0 258 170" version="1.1" xmlns="http://www.w3.org/2000/svg" xmlns:xlink="http://www.w3.org/1999/xlink">
    <!-- Generator: Sketch 53.1 (72631) - https://sketchapp.com -->
    <title>Group 5</title>
    <desc>Created with Sketch.</desc>
    <g id="Blog-Illustrations" stroke="none" stroke-width="1" fill="none" fill-rule="evenodd">
        <g id="Blog_illustrations-Copy-2" transform="translate(-1570.000000, -818.000000)">
            <g id="Group-Copy-2" transform="translate(1570.000000, 818.000000)">
                <g id="Group-7" transform="translate(-0.000000, 0.000000)">
                    <g id="Group-5" transform="translate(0.200000, 0.700000)">
                        <path d="M93.5345771,44.2381079 C86.154434,36.3698501 88.8690154,23.556506 98.8057972,19.3569394 C102.688298,17.716084 105.752954,16.2992172 107.912276,15.1595753 C110.391175,13.8512677 112.270449,12.8105412 113.523299,12.0588314 C115.310178,10.9867041 116.784491,10.174774 118.091266,9.58078551 C120.384014,8.5386273 122.848978,8 125.38,8 C128.231265,8 130.8527,8.63014158 133.606461,9.68242851 C140.446056,12.2960228 144.523861,19.3392286 143.385061,26.5720743 C143.245957,27.4555651 143.06225,28.368727 142.837271,29.3136361 C142.625453,30.2032721 142.319046,32.3881087 141.995128,35.6920714 C141.648615,39.2265009 141.292628,44.3842223 140.933766,51.1308386 C140.579934,57.7828763 140.4,66.9768657 140.4,78.68 C140.4,91.5013034 140.50912,102.298643 140.726467,111.064964 C140.943459,119.816953 141.195856,127.218918 141.482793,133.264841 C141.486965,133.352767 141.490389,133.440724 141.493063,133.528703 C149.499632,141.81931 145.945196,155.752555 134.807135,159.11641 C130.916803,160.291346 126.414242,160.8 121.2,160.8 C118.266667,160.8 115.784931,160.71687 113.713752,160.536768 C112.883588,160.46458 112.095298,160.374032 111.366089,160.266236 C99.9055981,158.572087 94.2864721,145.362541 101.014415,135.931328 C101.361844,135.444303 101.750691,134.925038 102.178444,134.375417 C102.239493,133.827579 102.304043,133.160874 102.372014,132.367887 C102.563846,130.129847 102.701402,126.640218 102.771281,121.958377 C102.843604,117.112687 102.88,110.530265 102.88,102.22 C102.88,89.1748607 102.699338,78.7837514 102.342304,71.0718378 C101.993495,63.5375426 101.479081,57.7607658 100.831482,53.8104128 C100.521465,51.9193119 100.197508,50.4484384 99.8778719,49.392189 C99.801266,49.139042 99.730496,48.928241 99.668221,48.7604417 C97.3231205,47.5417422 95.2992792,46.1195256 93.5345771,44.2381079 Z M116.144994,23.0303491 L111.781724,27.1229396 C111.557024,28.7417104 111.34837,30.5730342 111.143044,32.6673572 C110.806402,36.1011072 110.480259,40.5991695 110.157869,46.2175833 L110.873774,47.9115176 C115.507325,45.953247 119.333695,44.1842209 122.381793,42.5755027 C125.103769,41.1389044 127.310473,39.9220394 129.064892,38.8840383 C129.022845,38.7615609 128.980357,38.6397317 128.93742,38.5185404 C127.784392,38.8351803 126.583509,39 125.38,39 C124.323645,39 123.534013,38.8883937 122.877712,38.7306317 C122.653294,38.6766859 122.553042,38.6448538 122.540906,38.6402164 L125.343719,31.3054494 C122.812761,27.5429848 119.624347,24.4489046 115.802613,22.229262 L115.2135,22.1365071 C115.508143,22.3877882 115.818276,22.6820218 116.144994,23.0303491 Z M110.517646,134.734429 L126.000219,133.999635 L110.50037,134.068004 C110.500922,134.193073 110.502084,134.317902 110.503863,134.442491 C110.508448,134.540117 110.513042,134.63743 110.517646,134.734429 Z M123.086943,151.677204 L130.325828,144.278354 L125.844522,129.440299 C125.266619,129.614834 123.627542,129.8 121.2,129.8 C119.091018,129.8 117.456624,129.745253 116.39927,129.65331 C116.164621,129.632905 115.988797,129.612709 115.899406,129.599495 L113.632748,144.932866 L123.086943,151.677204 Z M127.196423,152.720924 L115.178066,142.932712 L126.516803,153.500732 C126.67483,153.33118 126.829795,153.159724 126.981716,152.986411 C127.049925,152.901445 127.121563,152.81284 127.196423,152.720924 Z M125.323695,133.9 L118.5,133.9 C118.5,134.000048 118.50042,134.099805 118.501273,134.199279 C118.505181,134.282085 118.509095,134.364658 118.513016,134.446999 L125.305548,134.123545 C125.311655,134.049714 125.317704,133.975199 125.323695,133.9 Z M118.929255,35.3516445 C118.836065,35.4009577 118.742222,35.4505508 118.647724,35.5004247 C118.617255,35.5165057 118.586693,35.5326077 118.556039,35.5487309 C118.662857,35.7045123 118.76819,35.8617709 118.872068,36.0204673 C118.89111,35.7937375 118.910172,35.5707981 118.929255,35.3516445 Z M124.742235,30.9515236 C124.868704,30.979694 125.117129,31.057531 125.479407,31.199292 C125.417476,31.1750579 125.288171,31.1124678 125.088106,30.9921201 C124.925958,30.9827935 124.810005,30.966619 124.742235,30.9515236 Z M130,133.9 L126,133.9 L118.499859,134.078474 L118.504387,134.268734 L126.004527,134.090261 L130,133.9 Z M120.732941,143.821765 C121.167993,144.637487 121.632235,145.41773 122.137422,146.163451 C122.740438,145.260338 123.24844,144.294018 123.651493,143.279597 C123.900884,142.651918 124.099094,142.043382 124.264784,141.43585 C124.560425,140.351832 124.772788,139.151711 124.956279,137.648156 C123.881307,137.745668 122.628229,137.8 121.2,137.8 C120.305713,137.8 119.493329,137.791524 118.759795,137.775023 C119.065065,139.844659 119.670159,141.829049 120.732941,143.821765 Z M120.016252,148.398391 L120.170658,148.552798 L120.207,148.516456 C120.479122,148.244334 120.740588,147.962601 120.990963,147.671919 C121.02042,147.635757 121.050268,147.599195 121.080509,147.562235 L121.206841,147.407828 L120.337107,146.696228 C120.280435,147.298508 120.169564,147.871283 120.016252,148.398391 Z M94.7721716,121.838988 C94.8438534,117.036307 94.88,110.488596 94.88,102.22 C94.88,89.3032804 94.7017481,79.0209062 94.3508641,71.4418118 C94.017167,64.2339545 93.5293334,58.7186976 92.9368605,55.104613 C92.8693058,54.6925292 92.8010396,54.3051247 92.7330168,53.9446336 C85.5567485,49.169418 81.02,42.1205084 81.02,33.14 C81.02,23.9493414 86.3558277,16.1140746 94.662078,12.4253082 C94.7605473,12.3815785 94.85947,12.3388766 94.9588298,12.2972096 C99.0055679,10.6001904 102.116118,9.17282197 104.178207,8.08449732 C106.52099,6.84802867 108.292541,5.86776325 109.407333,5.19888795 C111.475698,3.95786872 113.189749,3.02107792 114.780843,2.29785369 C118.118886,0.780561448 121.713295,8.52651283e-14 125.38,8.52651283e-14 C129.212172,8.52651283e-14 132.94327,0.831085006 136.775787,2.3307658 C145.474344,5.73454905 151.7,12.6517135 151.7,22.8 C151.7,25.4946152 151.320038,28.2252681 150.619721,31.1666003 C150.510053,31.627205 150.237329,33.6128445 149.956956,36.4726428 C149.623233,39.8766162 149.27457,44.9363387 148.922472,51.5557698 C148.576814,58.054153 148.4,67.1256709 148.4,78.68 C148.4,91.4343264 148.508382,102.169708 148.724009,110.866677 C148.905885,118.202342 149.11262,124.57921 149.343411,129.987216 C152.959759,133.990995 155,139.167869 155,144.68 C155,156.050869 147.509414,163.600448 137.238261,166.738856 C132.557867,168.168976 127.276773,168.8 121.2,168.8 C113.250289,168.8 108.328312,168.321467 103.837882,166.525295 C95.2805848,163.102377 89.38,155.395532 89.38,145.78 C89.38,141.642385 90.4955018,138.10253 92.4210363,134.572383 C92.9945913,133.520866 93.6514249,132.483031 94.4254622,131.390016 C94.5871704,129.340201 94.7084862,126.105913 94.7721716,121.838988 Z M174.617334,85.94 C174.617334,86.3851933 174.684349,88.0108713 174.821439,90.6155734 C174.939847,92.8653242 175.280869,95.5696661 175.858126,98.7125075 C176.432554,101.839948 177.275893,105.215072 178.394464,108.833978 C179.339806,111.892436 180.630504,114.692577 182.270939,117.262592 C183.645418,119.415943 185.271265,121.106266 187.195707,122.418386 C188.407109,123.244341 190.097191,123.72 192.597334,123.72 C195.753871,123.72 197.909118,123.000003 199.568793,121.627579 C202.021369,119.599488 204.019841,116.955312 205.590365,113.560955 C207.392611,109.665778 208.70686,105.163061 209.502628,100.021176 C210.36689,94.436713 210.797334,88.9379051 210.797334,83.52 C210.797334,80.7158369 210.338383,76.863971 209.370656,72.0253356 C208.450832,67.4262139 206.976982,62.9424137 204.938735,58.5570951 C203.153795,54.7167689 200.834689,51.5303039 197.951596,48.9093108 C196.066162,47.1952795 193.957669,46.4 191.057334,46.4 C189.520075,46.4 188.191871,46.8623751 186.720218,47.9895987 C184.61211,49.6043192 182.66382,51.9544303 180.900676,55.169575 C178.98354,58.6655299 177.448444,62.9951593 176.34784,68.1924601 C175.20003,73.6126698 174.617334,79.5254161 174.617334,85.94 Z M143.617334,85.94 C143.617334,77.4266169 144.411562,69.3674123 146.020389,61.7701764 C147.721378,53.7377251 150.265488,46.5622412 153.719492,40.2637641 C157.475287,33.4149607 162.185422,27.7333946 167.869834,23.3793762 C174.68276,18.1609649 182.613824,15.4 191.057334,15.4 C201.580462,15.4 211.144088,19.0072002 218.804453,25.9711686 C224.779018,31.4025911 229.548135,37.9553866 233.050609,45.4910126 C236.119484,52.0937432 238.363816,58.9215321 239.768657,65.9457354 C241.106407,72.6344882 241.797334,78.4332709 241.797334,83.52 C241.797334,90.5395178 241.242864,97.6227283 240.137922,104.762353 C238.913231,112.675743 236.787225,119.959597 233.724803,126.578381 C230.248775,134.091087 225.426818,140.471013 219.323989,145.517583 C211.900085,151.65658 202.73001,154.72 192.597334,154.72 C184.112045,154.72 176.329808,152.529758 169.732266,148.031433 C164.306384,144.331968 159.746363,139.591111 156.140351,133.941691 C152.994315,129.012902 150.536216,123.680113 148.776982,117.988472 C147.309552,113.240903 146.171422,108.686002 145.368164,104.312705 C144.563161,99.9299135 144.057862,95.9228447 143.864286,92.2448972 C143.696133,89.0499947 143.617334,87.1384548 143.617334,85.94 Z M151.617334,85.94 C151.617334,77.9829611 152.354162,70.476237 153.846828,63.4275399 C155.384923,56.1643139 157.659905,49.7161119 160.733991,44.110425 C163.950637,38.2447769 167.933155,33.4079883 172.73445,29.7304013 C178.14333,25.5874291 184.363215,23.4 191.057334,23.4 C199.583168,23.4 207.230523,26.2611007 213.423071,31.8906892 C218.60978,36.6058798 222.74245,42.2932927 225.795932,48.8629049 C228.597457,54.8904285 230.643702,61.1131182 231.924011,67.5146644 C233.15544,73.6718083 233.797334,78.9788432 233.797334,83.52 C233.797334,90.1291931 233.2744,96.8035693 232.232039,103.538824 C231.121789,110.712748 229.211097,117.282425 226.464303,123.219045 C223.491795,129.643498 219.407944,135.067247 214.225874,139.352421 C208.224675,144.31495 200.847498,146.72 192.597334,146.72 C185.746889,146.72 179.523974,145.025033 174.23896,141.421614 C169.70559,138.33068 165.906612,134.373259 162.883728,129.637408 C160.123329,125.312782 157.967787,120.63291 156.420203,115.626022 C155.045764,111.179307 153.982388,106.928216 153.236541,102.867492 C152.49425,98.8261275 152.028384,95.1523756 151.853229,91.8244266 C151.69626,88.8420211 151.617334,86.9691619 151.617334,85.94 Z M187.915176,59.0162359 C186.387145,61.8026448 185.114533,65.4097313 184.174278,69.8498236 C183.143562,74.7170967 182.617334,80.078247 182.617334,85.94 C182.617334,86.2007096 182.68637,87.8388822 182.810381,90.1951028 C182.909905,92.086053 183.21109,94.461158 183.726503,97.2672954 C184.242977,100.079209 185.011448,103.151348 186.037685,106.471528 C186.772216,108.847951 187.76115,110.995014 189.014317,112.958309 C189.74753,114.107009 190.54155,114.964802 191.460874,115.637901 C191.699742,115.684722 192.073449,115.72 192.597334,115.72 C193.431135,115.72 193.988289,115.63841 194.327546,115.527809 C194.427152,115.495336 194.43819,115.489283 194.470679,115.462417 C195.986437,114.209001 197.255583,112.523453 198.329864,110.201619 C199.811727,106.998884 200.914125,103.208426 201.596745,98.7976471 C202.398533,93.6168683 202.797334,88.5268348 202.797334,83.52 C202.797334,81.2856964 202.388856,77.908492 201.52601,73.5942646 C200.730964,69.61903 199.455459,65.7401844 197.684058,61.9289874 C196.34491,59.0477915 194.659212,56.7279207 192.570214,54.8288314 C192.247395,54.5353595 192.063439,54.4350818 191.497783,54.408289 C190.332102,55.3276431 189.122594,56.8144734 187.915176,59.0162359 Z M135.777334,95.18 C135.777334,79.2103179 137.585658,65.8537129 141.378259,55.0658721 C145.094199,44.4960852 149.684326,35.8406745 155.301728,29.153291 C161.053717,22.3056847 167.470958,17.3444946 174.628349,14.5218613 C181.01829,12.0018849 186.807554,10.64 192.157334,10.64 C201.224355,10.64 209.610618,12.8622204 217.085169,17.3275364 C224.143332,21.5441013 230.164992,27.205908 235.105802,34.2128747 C239.937949,41.065738 243.568023,48.9859986 246.032315,57.9084337 C248.443469,66.6384756 249.637334,75.9174055 249.637334,85.72 C249.637334,89.3917389 249.204657,93.6404667 248.375627,98.5317446 C247.533305,103.501442 246.201671,108.616042 244.392729,113.878417 C242.547092,119.247545 240.132498,124.574367 237.160452,129.858004 C233.97284,135.524871 230.056346,140.599328 225.428084,145.04958 C220.699209,149.596575 215.258048,153.312922 209.154,156.185415 C202.545769,159.295171 195.154878,160.8 187.097334,160.8 C179.145478,160.8 171.668003,158.218388 164.933359,153.320465 C159.002116,149.006834 153.837737,143.615365 149.449489,137.208524 C145.148426,130.928971 141.800194,124.058873 139.410315,116.633178 C137.011867,109.180859 135.777334,102.028071 135.777334,95.18 Z M166.777334,95.18 C166.777334,98.6307183 167.46539,102.617262 168.919669,107.135915 C170.400267,111.736344 172.430653,115.902408 175.025418,119.690764 C177.456725,123.240473 180.16111,126.063776 183.166682,128.249646 C184.751828,129.40248 185.903219,129.8 187.097334,129.8 C190.774399,129.8 193.672088,129.210013 195.954291,128.136035 C199.037248,126.685232 201.673766,124.884474 203.941714,122.703755 C206.375985,120.363109 208.432014,117.699188 210.141611,114.659906 C212.213277,110.976943 213.853708,107.357998 215.076445,103.800945 C216.353228,100.086666 217.260743,96.6010431 217.811532,93.3513895 C218.372863,90.0395324 218.637334,87.44253 218.637334,85.72 C218.637334,78.6392433 217.800076,72.1319226 216.151061,66.1613515 C214.606184,60.5678331 212.467704,55.9019997 209.7708,52.0772993 C207.287631,48.555714 204.456227,45.8935145 201.186656,43.9402644 C198.615614,42.4043169 195.731218,41.64 192.157334,41.64 C191.239721,41.64 189.068141,42.1508492 186.001263,43.3603221 C184.021168,44.1412048 181.671678,45.9576033 179.038578,49.0922457 C176.062132,52.6356337 173.185757,58.0594953 170.623591,65.3474343 C168.132364,72.4335914 166.777334,82.4420853 166.777334,95.18 Z M158.777334,95.18 C158.777334,99.4875453 159.59803,104.285036 161.304352,109.586822 C163.020837,114.920185 165.392238,119.783385 168.425178,124.211476 C171.368191,128.508275 174.708999,131.990583 178.461308,134.719535 C181.392164,136.851067 184.17412,137.8 187.097334,137.8 C191.93479,137.8 195.98119,136.964928 199.360668,135.374585 C203.228128,133.554604 206.587144,131.258342 209.486583,128.47042 C212.48558,125.586769 215.022166,122.301194 217.114215,118.581996 C219.421584,114.480006 221.260422,110.420538 222.641938,106.401583 C224.059158,102.27876 225.074351,98.3739193 225.69904,94.6882554 C226.336003,90.9301728 226.637334,87.9252307 226.637334,85.72 C226.637334,77.9245069 225.705189,70.7039048 223.862352,64.0315663 C222.074584,57.5586127 219.547011,52.0594053 216.308865,47.4671253 C213.185331,43.0373866 209.528673,39.6049575 205.289498,37.0724636 C201.463215,34.7866322 197.162743,33.64 192.157334,33.64 C190.128982,33.64 187.074734,34.3373547 183.066318,35.9181387 C179.780573,37.2139254 176.388534,39.809097 172.91294,43.946709 C169.279785,48.2718928 165.957775,54.4982422 163.076409,62.6941279 C160.264861,70.6914188 158.777334,81.5278658 158.777334,95.18 Z M127.777334,95.18 C127.777334,78.2873488 129.726526,64.0877293 133.831076,52.4125657 C137.871264,40.9204748 142.923355,31.4514844 149.176089,24.0077543 C155.794557,16.1286259 163.290911,10.393337 171.693404,7.07967785 C179.050408,4.17832425 185.787901,2.64 192.157334,2.64 C202.67116,2.64 212.473282,5.25353391 221.188011,10.4597356 C229.207812,15.2507853 236.057977,21.6808924 241.643867,29.6027007 C247.01,37.2128524 251.03387,45.9675347 253.743606,55.7786485 C256.347299,65.2058098 257.637334,75.1987077 257.637334,85.72 C257.637334,89.8535631 257.168974,94.5241617 256.263135,99.8686105 C255.347593,105.270311 253.908627,110.80515 251.958222,116.479055 C249.954754,122.307327 247.342017,128.075275 244.133057,133.780094 C240.562261,140.128175 236.164828,145.824057 230.972954,150.816245 C225.615826,155.967329 219.452671,160.180532 212.560376,163.423965 C204.883927,167.036411 196.338339,168.8 187.097334,168.8 C177.460409,168.8 168.337413,165.688119 160.227985,159.790354 C153.557075,154.938782 147.753396,148.889289 142.84925,141.729236 C138.111283,134.811805 134.42141,127.244722 131.794998,119.084085 C129.14077,110.83702 127.777334,102.866872 127.777334,95.18 Z" id="100" fill="#000000" fill-rule="nonzero"></path>
                        <path d="M113.38,101.22 C113.38,88.019934 113.196669,77.4600396 112.83,69.54 C112.463332,61.6199604 111.913337,55.4233557 111.18,50.95 C110.446663,46.4766443 109.530006,43.3600088 108.43,41.6 C107.329995,39.8399912 106.046674,38.593337 104.58,37.86 C101.20665,36.2466586 99.52,34.340011 99.52,32.14 C99.52,30.8199934 100.179993,29.8666696 101.5,29.28 C106.046689,27.3733238 109.639987,25.7233403 112.28,24.33 C114.920013,22.9366597 116.973326,21.8000044 118.44,20.92 C119.906674,20.0399956 121.043329,19.4166685 121.85,19.05 C122.656671,18.6833315 123.499996,18.5 124.38,18.5 C125.553339,18.5 126.983325,18.8299967 128.67,19.49 C130.356675,20.1500033 131.2,20.9199956 131.2,21.8 C131.2,22.8266718 131.016669,24.1099923 130.65,25.65 C130.283332,27.1900077 129.916669,29.8299813 129.55,33.57 C129.183332,37.3100187 128.816669,42.6266322 128.45,49.52 C128.083332,56.4133678 127.9,65.7999406 127.9,77.68 C127.9,90.5867312 128.009999,101.476622 128.23,110.35 C128.450001,119.223378 128.706665,126.739969 129,132.9 C129,134.806676 129.29333,136.309995 129.88,137.41 C130.46667,138.510006 131.089997,139.389997 131.75,140.05 C132.410003,140.710003 133.03333,141.296664 133.62,141.81 C134.20667,142.323336 134.5,142.946663 134.5,143.68 C134.5,145.146674 133.180013,146.283329 130.54,147.09 C127.899987,147.896671 124.453355,148.3 120.2,148.3 C114.919974,148.3 111.546674,148.00667 110.08,147.42 C108.613326,146.83333 107.88,145.953339 107.88,144.78 C107.88,144.339998 108.099998,143.716671 108.54,142.91 C108.980002,142.103329 109.859993,140.893341 111.18,139.28 C111.620002,138.839998 111.949999,138.216671 112.17,137.41 C112.390001,136.603329 112.609999,134.91668 112.83,132.35 C113.050001,129.783321 113.196666,126.043358 113.27,121.13 C113.343334,116.216642 113.38,109.580042 113.38,101.22 Z M162.117334,84.94 C162.117334,85.673337 162.190666,87.4333194 162.337334,90.22 C162.484001,93.0066806 162.88733,96.1966487 163.547334,99.79 C164.207337,103.383351 165.160661,107.196647 166.407334,111.23 C167.654007,115.263354 169.377323,119.003316 171.577334,122.45 C173.777345,125.896684 176.490651,128.719989 179.717334,130.92 C182.944016,133.120011 186.903977,134.22 191.597334,134.22 C197.317362,134.22 202.083981,132.643349 205.897334,129.49 C209.710686,126.336651 212.753989,122.303358 215.027334,117.39 C217.300678,112.476642 218.913996,106.940031 219.867334,100.78 C220.820672,94.6199692 221.297334,88.5333634 221.297334,82.52 C221.297334,78.853315 220.747339,74.2700275 219.647334,68.77 C218.547328,63.2699725 216.787346,57.9166927 214.367334,52.71 C211.947322,47.5033073 208.720687,43.066685 204.687334,39.4 C200.65398,35.733315 195.777362,33.9 190.057334,33.9 C185.950646,33.9 182.174018,35.2199868 178.727334,37.86 C175.28065,40.5000132 172.310679,44.0933106 169.817334,48.64 C167.323988,53.1866894 165.41734,58.5766355 164.097334,64.81 C162.777327,71.0433645 162.117334,77.7532974 162.117334,84.94 Z M146.277334,94.18 C146.277334,79.3665926 147.927317,67.2667136 151.227334,57.88 C154.52735,48.4932864 158.487311,41.0500275 163.107334,35.55 C167.727357,30.0499725 172.640641,26.2733436 177.847334,24.22 C183.054026,22.1666564 187.490649,21.14 191.157334,21.14 C198.197369,21.14 204.540639,22.8266498 210.187334,26.2 C215.834029,29.5733502 220.67398,34.1199714 224.707334,39.84 C228.740687,45.5600286 231.820656,52.2699615 233.947334,59.97 C236.074011,67.6700385 237.137334,75.919956 237.137334,84.72 C237.137334,87.653348 236.770671,91.2833117 236.037334,95.61 C235.303997,99.9366883 234.130675,104.446643 232.517334,109.14 C230.903992,113.833357 228.777347,118.526643 226.137334,123.22 C223.49732,127.913357 220.270686,132.093315 216.457334,135.76 C212.643981,139.426685 208.244025,142.433322 203.257334,144.78 C198.270642,147.126678 192.550699,148.3 186.097334,148.3 C180.67064,148.3 175.537358,146.540018 170.697334,143.02 C165.857309,139.499982 161.604019,135.06336 157.937334,129.71 C154.270649,124.35664 151.410677,118.490032 149.357334,112.11 C147.30399,105.729968 146.277334,99.7533612 146.277334,94.18 Z" id="100" fill="#FFFFFF" fill-rule="nonzero"></path>
                        <path d="M117.38,104.22 C117.38,91.019934 117.196669,80.4600396 116.83,72.54 C116.463332,64.6199604 115.913337,58.4233557 115.18,53.95 C114.446663,49.4766443 113.530006,46.3600088 112.43,44.6 C111.329995,42.8399912 110.046674,41.593337 108.58,40.86 C105.20665,39.2466586 103.52,37.340011 103.52,35.14 C103.52,33.8199934 104.179993,32.8666696 105.5,32.28 C110.046689,30.3733238 113.639987,28.7233403 116.28,27.33 C118.920013,25.9366597 120.973326,24.8000044 122.44,23.92 C123.906674,23.0399956 125.043329,22.4166685 125.85,22.05 C126.656671,21.6833315 127.499996,21.5 128.38,21.5 C129.553339,21.5 130.983325,21.8299967 132.67,22.49 C134.356675,23.1500033 135.2,23.9199956 135.2,24.8 C135.2,25.8266718 135.016669,27.1099923 134.65,28.65 C134.283332,30.1900077 133.916669,32.8299813 133.55,36.57 C133.183332,40.3100187 132.816669,45.6266322 132.45,52.52 C132.083332,59.4133678 131.9,68.7999406 131.9,80.68 C131.9,93.5867312 132.009999,104.476622 132.23,113.35 C132.450001,122.223378 132.706665,129.739969 133,135.9 C133,137.806676 133.29333,139.309995 133.88,140.41 C134.46667,141.510006 135.089997,142.389997 135.75,143.05 C136.410003,143.710003 137.03333,144.296664 137.62,144.81 C138.20667,145.323336 138.5,145.946663 138.5,146.68 C138.5,148.146674 137.180013,149.283329 134.54,150.09 C131.899987,150.896671 128.453355,151.3 124.2,151.3 C118.919974,151.3 115.546674,151.00667 114.08,150.42 C112.613326,149.83333 111.88,148.953339 111.88,147.78 C111.88,147.339998 112.099998,146.716671 112.54,145.91 C112.980002,145.103329 113.859993,143.893341 115.18,142.28 C115.620002,141.839998 115.949999,141.216671 116.17,140.41 C116.390001,139.603329 116.609999,137.91668 116.83,135.35 C117.050001,132.783321 117.196666,129.043358 117.27,124.13 C117.343334,119.216642 117.38,112.580042 117.38,104.22 Z M166.117334,87.94 C166.117334,88.673337 166.190666,90.4333194 166.337334,93.22 C166.484001,96.0066806 166.88733,99.1966487 167.547334,102.79 C168.207337,106.383351 169.160661,110.196647 170.407334,114.23 C171.654007,118.263354 173.377323,122.003316 175.577334,125.45 C177.777345,128.896684 180.490651,131.719989 183.717334,133.92 C186.944016,136.120011 190.903977,137.22 195.597334,137.22 C201.317362,137.22 206.083981,135.643349 209.897334,132.49 C213.710686,129.336651 216.753989,125.303358 219.027334,120.39 C221.300678,115.476642 222.913996,109.940031 223.867334,103.78 C224.820672,97.6199692 225.297334,91.5333634 225.297334,85.52 C225.297334,81.853315 224.747339,77.2700275 223.647334,71.77 C222.547328,66.2699725 220.787346,60.9166927 218.367334,55.71 C215.947322,50.5033073 212.720687,46.066685 208.687334,42.4 C204.65398,38.733315 199.777362,36.9 194.057334,36.9 C189.950646,36.9 186.174018,38.2199868 182.727334,40.86 C179.28065,43.5000132 176.310679,47.0933106 173.817334,51.64 C171.323988,56.1866894 169.41734,61.5766355 168.097334,67.81 C166.777327,74.0433645 166.117334,80.7532974 166.117334,87.94 Z M150.277334,97.18 C150.277334,82.3665926 151.927317,70.2667136 155.227334,60.88 C158.52735,51.4932864 162.487311,44.0500275 167.107334,38.55 C171.727357,33.0499725 176.640641,29.2733436 181.847334,27.22 C187.054026,25.1666564 191.490649,24.14 195.157334,24.14 C202.197369,24.14 208.540639,25.8266498 214.187334,29.2 C219.834029,32.5733502 224.67398,37.1199714 228.707334,42.84 C232.740687,48.5600286 235.820656,55.2699615 237.947334,62.97 C240.074011,70.6700385 241.137334,78.919956 241.137334,87.72 C241.137334,90.653348 240.770671,94.2833117 240.037334,98.61 C239.303997,102.936688 238.130675,107.446643 236.517334,112.14 C234.903992,116.833357 232.777347,121.526643 230.137334,126.22 C227.49732,130.913357 224.270686,135.093315 220.457334,138.76 C216.643981,142.426685 212.244025,145.433322 207.257334,147.78 C202.270642,150.126678 196.550699,151.3 190.097334,151.3 C184.67064,151.3 179.537358,149.540018 174.697334,146.02 C169.857309,142.499982 165.604019,138.06336 161.937334,132.71 C158.270649,127.35664 155.410677,121.490032 153.357334,115.11 C151.30399,108.729968 150.277334,102.753361 150.277334,97.18 Z" id="100" fill="#C4C3C6" fill-rule="nonzero"></path>
                        <path d="M17.4243489,106.929509 C12.9630663,104.830081 9.23854307,101.44864 5.98129722,96.9459765 C2.16799025,91.6746404 0.3,85.3709635 0.3,78.5 C0.3,75.5952524 0.395385041,73.1178281 0.601724776,70.9856508 C0.843910652,68.4830634 1.23915526,66.22705 1.83485486,64.1421014 C2.65996341,61.2542215 3.93165545,58.5870388 5.66931757,56.2174996 C6.54565948,55.0224879 7.54268324,53.8036116 8.69784819,52.5044453 L8.7737153,52.4199295 C13.3713312,47.3466982 18.6101522,43.6089227 24.4552535,41.3948692 C24.5083337,41.374763 24.5614549,41.3547146 24.6146171,41.3347239 C25.3399603,35.8746474 28.4166497,31.3254835 32.9345698,28.0983977 C36.8547549,25.2982655 41.4832208,23.9 46.35,23.9 C55.4232986,23.9 62.7051448,30.2492737 64.1061798,38.8584621 C64.4561238,38.9508664 64.8054312,39.0462399 65.1540927,39.1445803 C68.0747056,39.968343 70.7639543,40.9844163 73.2290243,42.2169513 C80.0408597,45.622869 84.6,51.5261072 84.6,59.45 C84.6,62.4357263 84.0131579,65.3768834 82.9190476,68.2489229 C82.0826967,70.4443441 81.0175185,72.5195203 79.7288299,74.4525532 C78.3101371,76.5805924 76.6673461,78.4669153 74.7880577,80.0777339 C72.8098218,81.7733647 70.6093628,83.0841414 68.2233562,83.9168797 C71.57575,85.4528412 74.5777706,87.5740334 77.1352835,90.2299122 C79.544916,92.7322228 81.5579702,95.5417381 83.1430802,98.6187163 C84.6406105,101.525687 85.7496386,104.587132 86.4570865,107.770647 C87.1123463,110.719317 87.45,113.612709 87.45,116.45 C87.45,119.389755 86.8801122,122.314177 85.8238346,125.579035 C84.9960864,128.137529 83.9505616,130.64029 82.6930802,133.081284 C81.5443411,135.311189 80.3074702,137.40607 78.9783503,139.364773 C76.839042,142.517438 74.513577,144.996244 71.640151,146.818365 C68.1450459,149.093569 64.4882459,150.885312 60.6891737,152.169774 L60.6397395,152.35965 C60.6159506,152.451023 60.5910841,152.542112 60.5651451,152.632899 C59.6055455,155.991497 57.8291982,158.943837 55.4124119,161.533251 C51.5590963,165.661804 46.2796093,167.9 40.65,167.9 C32.0625323,167.9 25.4643303,161.913067 23.9025839,154.189153 C19.3698804,153.162953 15.7241695,152.044539 12.7289828,150.696705 C12.6545809,150.663224 12.5805224,150.628985 12.5068188,150.593994 L12.3409987,150.515269 C12.2672951,150.480278 12.1939503,150.444536 12.1209757,150.408049 C8.44360995,148.569366 5.74677664,145.725382 3.84722685,142.197647 C3.02615587,140.672801 2.33628945,139.03645 1.74672558,137.267758 C1.17599297,135.55556 0.742148896,133.818475 0.449500257,132.062583 C0.156772614,130.306217 3.69482223e-13,128.686542 3.69482223e-13,127.1 C3.69482223e-13,123.129428 1.17119712,119.297406 3.37117014,115.997447 C6.87640366,110.739596 12.6543949,107.75 18.9,107.75 C18.9826034,107.75 19.0650793,107.750521 19.1474299,107.75156 L17.4243489,106.929509 Z" id="Path" fill="#000000" fill-rule="nonzero"></path>
                        <path d="M44.6,130.3 C48.1000175,129.199995 50.8749898,128.150005 52.925,127.15 C54.9750103,126.149995 56.5249948,125.075006 57.575,123.925 C58.6250053,122.774994 59.2999985,121.500007 59.6,120.1 C59.9000015,118.699993 60.05,117.05001 60.05,115.15 C60.05,111.949984 58.650014,109.35001 55.85,107.35 C53.049986,105.34999 49.4000225,103.40001 44.9,101.5 L44.6,130.3 Z M39.8,59.65 C38.2999925,59.65 36.6750088,60.1249953 34.925,61.075 C33.1749913,62.0250048 31.5750073,63.2249928 30.125,64.675 C28.6749928,66.1250073 27.4750048,67.6999915 26.525,69.4 C25.5749953,71.1000085 25.1,72.749992 25.1,74.35 C25.1,76.4500105 26.5499855,78.7499875 29.45,81.25 C32.3500145,83.7500125 35.899979,86.199988 40.1,88.6 L39.8,59.65 Z M39.8,98.8 L23.45,91 C21.7499915,90.199996 20.0500085,88.6250118 18.35,86.275 C16.6499915,83.9249883 15.8,81.0000175 15.8,77.5 C15.8,75.099988 15.8749993,73.1250078 16.025,71.575 C16.1750008,70.0249923 16.3999985,68.7250053 16.7,67.675 C17.0000015,66.6249948 17.4249973,65.7250038 17.975,64.975 C18.5250028,64.2249963 19.199996,63.4000045 20,62.5 C22.9000145,59.299984 25.9999835,57.0750063 29.3,55.825 C32.6000165,54.5749938 36.149981,53.6000035 39.95,52.9 L39.95,42.85 C39.95,42.049996 40.4749948,41.2750038 41.525,40.525 C42.5750053,39.7749963 43.8499925,39.4 45.35,39.4 C46.350005,39.4 46.85,39.899995 46.85,40.9 C46.85,41.700004 46.7250013,43.0499905 46.475,44.95 C46.2249988,46.8500095 46.1,49.299985 46.1,52.3 L49.1,52.3 C50.2000055,52.3 51.74999,52.4499985 53.75,52.75 C55.75001,53.0500015 57.7249903,53.4749973 59.675,54.025 C61.6250098,54.5750028 63.3499925,55.2249963 64.85,55.975 C66.3500075,56.7250038 67.1,57.5499955 67.1,58.45 C67.1,59.3500045 66.900002,60.3249948 66.5,61.375 C66.099998,62.4250053 65.600003,63.3999955 65,64.3 C64.399997,65.2000045 63.7500035,65.949997 63.05,66.55 C62.3499965,67.150003 61.700003,67.45 61.1,67.45 C60.299996,67.45 59.5500035,67.0750038 58.85,66.325 C58.1499965,65.5749963 57.000008,64.100011 55.4,61.9 C54.599996,60.7999945 53.300009,60.0750018 51.5,59.725 C49.699991,59.3749983 48.000008,59.2 46.4,59.2 C46.199999,59.7000025 46.0750003,60.349996 46.025,61.15 C45.9749998,61.950004 45.95,62.749996 45.95,63.55 L45.65,91.45 C47.65001,92.5500055 49.6749898,93.5499955 51.725,94.45 C53.7750103,95.3500045 56.399984,96.399994 59.6,97.6 C61.400009,98.3000035 62.9499935,99.3249933 64.25,100.675 C65.5500065,102.025007 66.6249958,103.524992 67.475,105.175 C68.3250043,106.825008 68.949998,108.549991 69.35,110.35 C69.750002,112.150009 69.95,113.849992 69.95,115.45 C69.95,116.450005 69.6750028,117.799992 69.125,119.5 C68.5749973,121.200009 67.8750043,122.874992 67.025,124.525 C66.1749958,126.175008 65.2750048,127.699993 64.325,129.1 C63.3749953,130.500007 62.500004,131.449998 61.7,131.95 C59.099987,133.650009 56.4250138,134.924996 53.675,135.775 C50.9249863,136.625004 47.950016,137.349997 44.75,137.95 C44.75,138.650004 44.6750008,139.924991 44.525,141.775 C44.3749993,143.625009 44.100002,145.399992 43.7,147.1 C43.499999,147.800004 43.0500035,148.524996 42.35,149.275 C41.6499965,150.025004 40.7500055,150.4 39.65,150.4 C39.249998,150.4 39.05,150.150003 39.05,149.65 C39.05,149.149998 39.0999995,148.125008 39.2,146.575 C39.3000005,145.024992 39.35,142.350019 39.35,138.55 C35.2499795,138.55 31.2500195,138.125004 27.35,137.275 C23.4499805,136.424996 20.50001,135.550005 18.5,134.65 C18.099998,134.449999 17.7250018,134.025003 17.375,133.375 C17.0249983,132.724997 16.7000015,131.950005 16.4,131.05 C16.0999985,130.149996 15.8750008,129.250005 15.725,128.35 C15.5749993,127.449996 15.5,126.700003 15.5,126.1 C15.5,125.399997 15.699998,124.750003 16.1,124.15 C16.500002,123.549997 17.099996,123.25 17.9,123.25 C18.4000025,123.25 18.9999965,123.399999 19.7,123.7 C20.4000035,124.000002 21.849989,124.749994 24.05,125.95 C26.3500115,127.250007 28.8249868,128.399995 31.475,129.4 C34.1250133,130.400005 36.0999935,130.9 37.4,130.9 C37.800002,130.9 38.499995,130.800001 39.5,130.6 L39.8,98.8 Z" id="$" fill="#FFFFFF" fill-rule="nonzero"></path>
                        <path d="M47.6,132.3 C51.1000175,131.199995 53.8749898,130.150005 55.925,129.15 C57.9750103,128.149995 59.5249948,127.075006 60.575,125.925 C61.6250053,124.774994 62.2999985,123.500007 62.6,122.1 C62.9000015,120.699993 63.05,119.05001 63.05,117.15 C63.05,113.949984 61.650014,111.35001 58.85,109.35 C56.049986,107.34999 52.4000225,105.40001 47.9,103.5 L47.6,132.3 Z M42.8,61.65 C41.2999925,61.65 39.6750088,62.1249953 37.925,63.075 C36.1749913,64.0250048 34.5750073,65.2249928 33.125,66.675 C31.6749928,68.1250073 30.4750048,69.6999915 29.525,71.4 C28.5749953,73.1000085 28.1,74.749992 28.1,76.35 C28.1,78.4500105 29.5499855,80.7499875 32.45,83.25 C35.3500145,85.7500125 38.899979,88.199988 43.1,90.6 L42.8,61.65 Z M42.8,100.8 L26.45,93 C24.7499915,92.199996 23.0500085,90.6250118 21.35,88.275 C19.6499915,85.9249883 18.8,83.0000175 18.8,79.5 C18.8,77.099988 18.8749993,75.1250078 19.025,73.575 C19.1750008,72.0249923 19.3999985,70.7250053 19.7,69.675 C20.0000015,68.6249948 20.4249973,67.7250038 20.975,66.975 C21.5250028,66.2249963 22.199996,65.4000045 23,64.5 C25.9000145,61.299984 28.9999835,59.0750063 32.3,57.825 C35.6000165,56.5749938 39.149981,55.6000035 42.95,54.9 L42.95,44.85 C42.95,44.049996 43.4749948,43.2750038 44.525,42.525 C45.5750053,41.7749963 46.8499925,41.4 48.35,41.4 C49.350005,41.4 49.85,41.899995 49.85,42.9 C49.85,43.700004 49.7250013,45.0499905 49.475,46.95 C49.2249988,48.8500095 49.1,51.299985 49.1,54.3 L52.1,54.3 C53.2000055,54.3 54.74999,54.4499985 56.75,54.75 C58.75001,55.0500015 60.7249903,55.4749973 62.675,56.025 C64.6250098,56.5750028 66.3499925,57.2249963 67.85,57.975 C69.3500075,58.7250038 70.1,59.5499955 70.1,60.45 C70.1,61.3500045 69.900002,62.3249948 69.5,63.375 C69.099998,64.4250053 68.600003,65.3999955 68,66.3 C67.399997,67.2000045 66.7500035,67.949997 66.05,68.55 C65.3499965,69.150003 64.700003,69.45 64.1,69.45 C63.299996,69.45 62.5500035,69.0750038 61.85,68.325 C61.1499965,67.5749963 60.000008,66.100011 58.4,63.9 C57.599996,62.7999945 56.300009,62.0750018 54.5,61.725 C52.699991,61.3749983 51.000008,61.2 49.4,61.2 C49.199999,61.7000025 49.0750003,62.349996 49.025,63.15 C48.9749998,63.950004 48.95,64.749996 48.95,65.55 L48.65,93.45 C50.65001,94.5500055 52.6749898,95.5499955 54.725,96.45 C56.7750103,97.3500045 59.399984,98.399994 62.6,99.6 C64.400009,100.300004 65.9499935,101.324993 67.25,102.675 C68.5500065,104.025007 69.6249958,105.524992 70.475,107.175 C71.3250043,108.825008 71.949998,110.549991 72.35,112.35 C72.750002,114.150009 72.95,115.849992 72.95,117.45 C72.95,118.450005 72.6750028,119.799992 72.125,121.5 C71.5749973,123.200009 70.8750043,124.874992 70.025,126.525 C69.1749958,128.175008 68.2750048,129.699993 67.325,131.1 C66.3749953,132.500007 65.500004,133.449998 64.7,133.95 C62.099987,135.650009 59.4250138,136.924996 56.675,137.775 C53.9249863,138.625004 50.950016,139.349997 47.75,139.95 C47.75,140.650004 47.6750008,141.924991 47.525,143.775 C47.3749993,145.625009 47.100002,147.399992 46.7,149.1 C46.499999,149.800004 46.0500035,150.524996 45.35,151.275 C44.6499965,152.025004 43.7500055,152.4 42.65,152.4 C42.249998,152.4 42.05,152.150003 42.05,151.65 C42.05,151.149998 42.0999995,150.125008 42.2,148.575 C42.3000005,147.024992 42.35,144.350019 42.35,140.55 C38.2499795,140.55 34.2500195,140.125004 30.35,139.275 C26.4499805,138.424996 23.50001,137.550005 21.5,136.65 C21.099998,136.449999 20.7250018,136.025003 20.375,135.375 C20.0249983,134.724997 19.7000015,133.950005 19.4,133.05 C19.0999985,132.149996 18.8750008,131.250005 18.725,130.35 C18.5749993,129.449996 18.5,128.700003 18.5,128.1 C18.5,127.399997 18.699998,126.750003 19.1,126.15 C19.500002,125.549997 20.099996,125.25 20.9,125.25 C21.4000025,125.25 21.9999965,125.399999 22.7,125.7 C23.4000035,126.000002 24.849989,126.749994 27.05,127.95 C29.3500115,129.250007 31.8249868,130.399995 34.475,131.4 C37.1250133,132.400005 39.0999935,132.9 40.4,132.9 C40.800002,132.9 41.499995,132.800001 42.5,132.6 L42.8,100.8 Z" id="$" fill="#C4C3C6" fill-rule="nonzero"></path>
                        <path d="M32.7534884,121.466722 C35.219504,121.466722 38.5683412,120.955412 42.8,119.932792 C36.2269898,118.198339 32.3820285,117.125426 31.2651163,116.714054 C30.1607372,116.307297 29.913613,114.3 28.4440104,114.3 C24.744987,114.3 28.4440104,119.591846 28.4440104,121.466722 C28.4440104,123.341598 29.0544649,121.466722 32.7534884,121.466722 Z" id="Oval" fill="#000000"></path>
                        <path d="M35.7534884,123.524938 C38.219504,123.524938 41.5683412,123.013628 45.8,121.991008 C39.2269898,120.256555 35.3820285,119.183642 34.2651163,118.77227 C33.1607372,118.365513 32.913613,116.358216 31.4440104,116.358216 C27.744987,116.358216 31.4440104,121.650062 31.4440104,123.524938 C31.4440104,125.399814 32.0544649,123.524938 35.7534884,123.524938 Z" id="Oval-Copy-2" fill="#000000"></path>
                        <path d="M69.7534884,119.466722 C72.219504,119.466722 75.5683412,118.955412 79.8,117.932792 C73.2269898,116.198339 69.3820285,115.125426 68.2651163,114.714054 C67.1607372,114.307297 66.913613,112.3 65.4440104,112.3 C61.744987,112.3 65.4440104,117.591846 65.4440104,119.466722 C65.4440104,121.341598 66.0544649,119.466722 69.7534884,119.466722 Z" id="Oval-Copy" fill="#000000" transform="translate(71.800000, 116.300000) rotate(-180.000000) translate(-71.800000, -116.300000) "></path>
                        <path d="M71.7534884,116.466722 C74.219504,116.466722 77.5683412,115.955412 81.8,114.932792 C75.2269898,113.198339 71.3820285,112.125426 70.2651163,111.714054 C69.1607372,111.307297 68.913613,109.3 67.4440104,109.3 C63.744987,109.3 67.4440104,114.591846 67.4440104,116.466722 C67.4440104,118.341598 68.0544649,116.466722 71.7534884,116.466722 Z" id="Oval-Copy-3" fill="#000000" transform="translate(73.800000, 113.300000) rotate(-180.000000) translate(-73.800000, -113.300000) "></path>
                        <path d="M106.870057,89.8409176 C116.353613,87.0364987 128.326122,85.3630393 141.340918,85.3630393 C154.355713,85.3630393 166.328222,87.0364987 175.811778,89.8409176 C166.328222,92.6453365 154.355713,94.3187959 141.340918,94.3187959 C128.326122,94.3187959 116.353613,92.6453365 106.870057,89.8409176 Z" id="Combined-Shape-Copy-2" fill="#000000" transform="translate(141.340918, 89.840918) scale(-1, 1) rotate(-315.000000) translate(-141.340918, -89.840918) "></path>
                        <path d="M114.789896,81.6700875 C121.598321,79.7093252 129.98913,78.5520706 139.065319,78.5520706 C148.141509,78.5520706 156.532317,79.7093252 163.340743,81.6700875 C156.532317,83.6308499 148.141509,84.7881044 139.065319,84.7881044 C129.98913,84.7881044 121.598321,83.6308499 114.789896,81.6700875 Z" id="Combined-Shape-Copy-3" fill="#000000" transform="translate(139.065319, 81.670088) scale(-1, 1) rotate(-315.000000) translate(-139.065319, -81.670088) "></path>
                    </g>
                </g>
            </g>
        </g>
    </g>
</svg>