<?xml version="1.0" encoding="UTF-8"?>
<svg width="317px" height="258px" viewBox="0 0 317 258" version="1.1" xmlns="http://www.w3.org/2000/svg" xmlns:xlink="http://www.w3.org/1999/xlink">
    <!-- Generator: Sketch 53.1 (72631) - https://sketchapp.com -->
    <title>Block_carving</title>
    <desc>Created with Sketch.</desc>
    <g id="Blog-Illustrations" stroke="none" stroke-width="1" fill="none" fill-rule="evenodd">
        <g id="Blog_illustrations-Copy" transform="translate(-563.000000, -299.000000)">
            <g id="Block_carving" transform="translate(557.000000, 284.000000)">
                <g id="Group-13">
                    <g id="Group-Copy-2" transform="translate(225.325794, 137.318953) scale(1, -1) rotate(-60.000000) translate(-225.325794, -137.318953) translate(132.325794, 26.318953)">
                        <g id="Group-9" transform="translate(0.149960, 0.153465)">
                            <path d="M103.853177,17.4356011 L173.705864,57.7162111 C180.614596,61.7001371 184.86906,69.052836 184.86906,77.0087969 L184.86906,157.646987 C184.86906,165.602948 180.614596,172.955647 173.705864,176.939573 L103.853177,217.220183 C96.9265389,221.214435 88.3865829,221.214435 81.459945,217.220183 L11.6072582,176.939573 C4.69852622,172.955647 0.444061694,165.602948 0.444061694,157.646987 L0.444061694,77.0087969 C0.444061694,69.052836 4.69852622,61.7001371 11.6072582,57.7162111 L77.0461535,9.98606693 C83.9727915,5.99181538 96.9265389,13.4413495 103.853177,17.4356011 Z" id="Polygon" fill="#000000" transform="translate(92.656561, 114.529718) rotate(-360.000000) translate(-92.656561, -114.529718) "></path>
                            <path d="M71.2835957,67.8960541 C73.36313,68.7061418 75.0702282,69.875893 76.7159524,71.2822013 C77.5617175,72.7232691 78.5658577,73.1761071 79.8104048,73.038035 C80.9337006,72.9125148 82.0713669,72.2713966 83.3293864,72.7334072 C82.1300466,74.6364857 81.6493686,74.2214621 81.0428128,76.679243 C80.8296501,77.5424353 77.5331668,77.7396177 76.9194258,78.0268657 C74.4926038,79.1613747 72.7071233,78.496903 70.3012584,78.5567665 C68.5651197,78.6002158 62.7306638,85.2309056 61.1795456,87.4661297 C64.6563138,85.4998084 74.0424365,79.7765355 77.509325,81.6487167 C77.7272779,81.7660297 78.0751643,81.7698919 78.2350363,81.566163 C79.199957,80.3365484 82.2354112,82.0055526 83.2030263,80.7469718 C86.566926,76.3716294 87.3839769,74.8099942 92.0484089,74.8408914 C94.36835,74.8558573 95.2614808,72.988386 97.5104675,73.9013036 C97.8870949,74.0543417 100.182368,72.8926848 100.495525,73.655461 C101.158964,75.2708087 102.340988,73.2963168 103.380456,72.6170597 C105.639921,71.140267 107.592576,74.0637714 110.010117,74.572128 C112.136954,75.0196556 127.480427,72.3745285 129.587205,71.6663053 C127.153198,71.3636086 123.229525,69.6487439 120.798811,69.357151 C118.445039,69.0742479 104.754338,69.4051924 102.372124,70.0158962 C103.612779,69.4713319 106.220502,67.2186379 110.195291,63.2578142 L123.549427,59.9669963 C130.8924,59.0197808 134.920755,58.4650677 135.634491,58.302857 C135.327121,58.1586698 131.004668,57.1753005 122.667132,55.3527492 L108.263617,59.4005904 L102.542842,66.8823675 C100.947846,67.4397632 99.9821929,67.7829912 99.6458828,67.9120517 C97.4031832,68.7728302 98.1285633,67.6090446 95.8319742,66.4166033 C92.1321635,64.4956623 91.9466645,68.8727493 88.1423682,68.512603 C87.6741287,68.4681882 84.5535752,67.1144498 84.1796423,67.6117027 C82.0797497,70.4025948 79.5484422,70.6463935 76.9904892,70.701912 C75.4157195,68.6250365 73.713112,67.1767271 71.2835957,67.8960541 Z M120.062327,28.532878 C120.701688,29.46161 121.476852,28.8675475 122.186217,29.0152241 C123.394031,29.0511843 124.602146,29.086665 125.80996,29.1216662 C125.901597,29.2468077 125.993235,29.3719492 126.084873,29.4970907 C126.889481,29.5177079 127.697695,29.0324849 128.498097,29.5445581 C128.680471,30.0566313 128.867051,30.0657412 129.058138,29.5565449 C129.273862,29.5670932 129.490187,29.577162 129.706512,29.5881898 C129.973313,30.8487146 130.421286,30.5389774 130.902609,29.9391614 C135.596258,30.5543204 141.714273,35.9576749 146.403116,36.9300386 C148.438072,37.3524511 150.607931,38.1752203 152.69787,37.2503241 C153.445994,36.9190108 153.650901,37.8995255 154.073336,38.2356335 C154.46873,38.5496858 153.860616,39.0598412 153.711292,39.4563622 C151.189905,46.1550275 147.690022,47.8717918 146.234035,55.4004184 C145.376848,59.8316734 142.896923,62.8436994 141.060865,66.4061561 C137.90793,72.5232252 133.236514,75.3640806 129.595345,80.4071385 C127.692587,83.0423016 123.702252,80.1039757 122.581569,83.7556137 L122.332494,84.2542617 C122.35593,84.4187197 122.337602,84.5697525 122.278413,84.7087986 C121.563339,85.0027133 121.701246,85.5689665 122.088528,86.21625 C122.058182,86.5101647 122.028438,86.8045588 121.998092,87.0989529 C121.782068,87.2260123 121.731592,87.362661 121.989379,87.5151323 C122.06329,91.3154058 120.514764,93.7899467 119.032638,96.165717 C117.317963,98.9145143 115.097328,100.656906 113.15461,102.962673 C112.300127,103.976751 111.19687,104.62787 110.921656,106.60664 C110.805682,107.441396 110.27839,107.188716 109.908535,107.277417 C102.173718,109.125292 94.5801126,107.814423 87.0598177,104.713216 C82.0263578,102.637114 79.2808769,106.060183 74.3781133,103.292207 C74.2182732,102.791641 73.8721534,103.093707 73.6498195,102.862123 L73.5548769,102.939318 L73.4806654,102.817053 C73.4214765,102.550948 73.3397538,102.506836 73.2291877,102.753284 C72.9677951,102.842465 72.7601833,102.700542 72.5949351,102.376421 C72.1112086,100.669031 69.3771022,99.7527649 68.1122024,100.873764 C67.8964784,100.870887 67.6810549,100.867531 67.4656313,100.864175 C66.8310783,99.6923518 66.2959746,99.376861 66.0177567,101.289943 C65.5839051,101.359466 65.1031831,101.822154 64.7844043,100.918355 C64.1186043,99.2421301 63.2524034,99.914346 62.4021263,100.400528 C59.5941089,100.690127 56.8032172,100.094147 54.0123255,99.8342747 C50.7449181,99.5307706 40.1673892,108.29164 36.9435473,107.107831 C33.7500509,105.935528 31.0357743,103.36845 28.4726246,100.253338 C27.9230993,99.585437 27.878933,98.9832236 28.1748774,98.0271619 C30.0620118,91.9335869 39.6462488,77.3366172 42.3494088,72.0974565 C43.0179128,70.801451 44.0082001,69.802237 45.1057486,70.2989672 C46.231239,70.8076841 47.1205747,70.3708876 47.8341464,69.1750912 C49.6359526,66.1568321 51.667003,65.2185107 54.2532874,66.2723842 C56.4369671,67.1622792 62.2488174,68.110323 64.2474192,65.9057233 C62.2947865,65.1328188 60.5777076,66.4115634 58.6097519,66.6004743 C59.3620818,64.4951247 60.054021,62.5575894 60.7883239,60.503543 C59.2848658,60.2705209 58.5959311,61.9357177 57.8180628,63.3199455 C56.7619767,65.1985061 52.0993524,65.3316655 50.1214818,64.0639487 C49.7122672,63.801679 49.3982956,64.3127933 49.0735078,64.7356852 C48.2974422,65.7464064 47.426434,66.5442433 46.4265323,66.8261712 C45.6336414,67.0496039 45.0453579,66.5586274 45.3259793,65.1422751 C46.5473137,58.9796565 50.7183997,54.4430513 53.6366827,49.3774584 C54.2255672,49.5040383 54.5058882,49.1362854 54.4037348,48.1567296 L54.9565651,47.4686912 C57.8772517,46.8885334 60.6341924,45.2218982 63.4866766,44.1862445 C64.004955,43.9978131 64.5061077,43.6890349 64.9639954,43.02497 C62.420976,43.5178644 59.8779566,44.0112383 56.8980811,44.5889987 C60.1336406,38.9288639 62.9527747,33.3914732 67.8948974,33.1220115 C72.886895,32.8491935 77.8527533,33.6316873 82.8111003,34.4889784 C83.2999345,34.5738445 83.8037913,34.4352779 84.3010381,34.3993177 C84.3010381,34.3978793 84.1838621,34.4482235 84.1838621,34.4482235 C84.3115539,34.6299424 84.4392457,34.8121407 84.566637,34.9938596 C85.5337896,37.3212034 82.4103771,37.7617026 83.1437786,40.2741216 C84.0914019,43.5177313 84.3093378,48.2722785 86.5314753,49.645958 C88.7379893,51.010048 90.6449534,53.2942397 92.6579768,55.2332134 C94.3411047,56.8538196 95.9554293,58.6863512 96.9664478,61.5415907 C97.5796688,63.2734337 97.9459188,65.4564574 99.5987012,65.4885818 C99.7735638,65.4919381 100.021136,65.9599001 100.10406,66.2950491 C100.600406,68.2915592 101.132805,67.3239902 101.66851,66.3794357 C101.935311,65.9090764 102.197304,65.4291276 102.441871,64.9290412 C105.280535,59.1111609 107.672319,50.4997629 107.053389,43.1902538 C106.575371,37.5449825 105.626846,32.0013587 104.887436,26.4121854 C105.531002,26.011349 106.199506,26.1173117 106.865006,26.1638203 C106.858997,26.3814993 106.852688,26.5986989 106.846979,26.816378 C106.9278,27.2713943 107.087941,27.3255743 107.313279,27.0522768 C107.855594,27.0609073 108.398209,27.0704967 108.940824,27.0791271 C109.536919,28.4168464 109.917591,28.4393815 110.432264,27.1678289 C111.316191,27.7470278 112.26742,27.2594076 113.165769,27.6094201 C113.63267,29.132694 114.309287,28.4739032 114.963369,28.0495729 C115.46332,28.0538882 115.96267,28.0582034 116.46202,28.0625186 C116.561169,28.3866398 116.660618,28.4484914 116.760068,28.0629981 C116.965877,28.0773821 117.171385,28.0927252 117.377194,28.1071092 C117.369082,28.4331484 117.418056,28.7510365 117.648802,28.7682974 C117.887962,28.7865172 117.937236,28.4657523 117.93994,28.14259 C118.159269,28.1493025 118.379199,28.1550562 118.598529,28.1612893 C118.692871,28.2869102 118.786611,28.4120517 118.880953,28.5371932 C119.274544,28.5352753 119.668736,28.5338369 120.062327,28.532878 Z" id="Fill-3" fill="#C4C3C6" transform="translate(91.099197, 67.120910) rotate(-150.000000) translate(-91.099197, -67.120910) "></path>
                            <path d="M21.798475,80.4782594 L81.789174,115.509852 C86.5909056,118.313825 90.4834781,124.516752 90.4834781,129.364477 L90.4834781,200.02402 C90.4834781,204.871745 86.5909056,206.528533 81.789174,203.72456 L21.798475,168.692968 C16.9967434,165.888995 13.1041708,159.686068 13.1041708,154.838342 L13.1041708,84.1788 C13.1041708,79.3310748 16.9967434,77.6742863 21.798475,80.4782594 Z" id="Rectangle" fill="#FFFFFF"></path>
                            <path d="M103.2267,80.6256832 L163.217399,115.573468 C168.01913,118.370733 171.911703,124.558821 171.911703,129.394948 L171.911703,199.885449 C171.911703,204.721576 168.01913,206.374401 163.217399,203.577136 L103.2267,168.629351 C98.424968,165.832086 94.5323954,159.643999 94.5323954,154.807871 L94.5323954,84.3173708 C94.5323954,79.481243 98.424968,77.8284182 103.2267,80.6256832 Z" id="Rectangle-Copy-6" fill="#C4C3C6" transform="translate(133.222049, 142.101410) scale(-1, 1) translate(-133.222049, -142.101410) "></path>
                        </g>
                    </g>
                    <g id="Group-7" transform="translate(165.156054, 78.346274) scale(-1, 1) rotate(56.000000) translate(-165.156054, -78.346274) translate(119.156054, 7.846274)">
                        <path d="M66.6796654,9.84264034 C67.9662376,10.4162257 71.3895961,14.2258088 72.0226092,15.2987796 C73.0381697,17.0219765 75.1617477,18.7114904 74.7870274,20.4512847 C74.4485073,22.0216882 72.198718,23.1883852 70.7785966,24.5191033 C68.9974522,26.1881146 67.2412566,27.8864155 65.3970066,29.4841558 C64.5233115,30.2408003 64.3971003,30.7582476 65.2840035,31.6037368 C66.1347066,32.4140787 66.786309,33.4284705 67.567547,34.3169176 C68.7557919,35.6696027 69.3853807,37.1135734 69.6813412,39.0003031 C70.6836935,45.3927289 73.154108,51.4107377 75.0898367,57.5576202 C78.6535929,68.873117 85.8962115,86.8293 88.2135091,98.476744 C89.4174081,104.167199 90.9612949,109.811279 91.7400869,115.558848 C92.7473311,123.000813 85.566184,131.560816 80.9443077,137.484122 C80.5461062,137.993271 80.1195317,138.481917 79.6856193,138.960799 C78.8129026,139.92247 77.9460562,140.907572 77.1384019,138.874884 C77.002896,138.533661 76.5998026,138.057219 76.3150935,138.053802 C73.6240539,138.021096 65.2300259,136.423941 64.2315871,134.660715 C62.5854595,131.753736 54.837996,131.420955 52.0975482,129.770982 C48.8199686,127.796872 24.4874328,58.0623753 21.5899546,53.4566069 C20.2754984,51.3663154 19.2437947,49.0988226 18.1152311,46.9714311 C19.7608695,45.2755711 19.8856132,45.250675 18.0643552,44.8074278 C16.4950306,44.4247121 14.8660246,44.1938135 13.2521836,44.102528 C8.62590451,43.8423399 5.79104279,41.2575446 4.20410726,37.1731286 C3.28051469,34.7943359 1.65004117,27.5783879 8.916308e-12,27.5222498 C1.99981272,22.5776999 5.71228304,19.0229351 9.76620867,15.9392426 C14.5338639,12.3132067 18.8762555,7.76590272 23.9022036,4.51330759 C25.3069466,3.60451899 30.3866531,0.0340307352 34.4012204,0.1590249 C38.5875696,0.28936752 59.6196612,6.69255834 66.6796654,9.84264034 Z" id="Shape" fill="#000000"></path>
                        <path d="M62.8735363,15.6319985 C57.9899026,20.3101701 52.7730836,24.7070972 46.5306024,27.2849312 C40.1477363,29.920343 33.2062321,29.9434783 26.3878389,29.0781749 C20.1129406,28.2808261 14.3014793,25.8042726 8.45532242,23.5259081 C10.0853452,21.2157193 12.6959104,20.0997633 14.8445873,18.4428352 C19.0685744,15.1870571 23.4427719,12.1011883 27.9319651,9.22037007 C31.5118741,6.92323115 35.4031566,6.00228812 39.7561632,7.39142932 C47.5586021,9.88104017 55.2969861,12.5229469 62.8735363,15.6319985" id="Fill-15-Copy" fill="#C4C3C6" transform="translate(35.664429, 18.161874) rotate(-5.000000) translate(-35.664429, -18.161874) "></path>
                        <path d="M6.79310159,29.9260257 C16.5143047,33.5955076 26.2105591,34.029968 35.9919327,33.4319747 C38.1042593,33.3026129 38.749013,34.0382666 39.1550415,35.9533095 C40.0624908,40.2310359 40.1671776,40.116807 35.6671098,40.2544675 C27.3929336,40.5083095 19.3780287,38.4004444 11.2080502,37.7350853 C10.3001117,37.6613735 10.0364378,37.0355553 9.73020422,36.347741 C8.84134421,34.3492231 7.91334893,32.3673026 6.79310159,29.9260257" id="Fill-77-Copy" fill="#C4C3C6"></path>
                        <path d="M66.3754864,15.5148765 C66.9933346,17.6041917 67.5319339,19.5431543 68.1512497,21.4562446 C68.3684505,22.1264852 68.1683714,22.5516706 67.6826047,22.930481 C62.6913892,26.820122 58.505382,31.7007232 52.9364319,34.8786302 C52.1639993,35.3194367 51.3617261,35.7148445 50.5482015,36.0760812 C46.6806577,37.7948847 45.5667698,37.3296703 43.884442,33.5303385 C43.5894599,32.863515 43.8159553,32.6121138 44.2635651,32.3983007 C52.7510285,28.3407334 58.9661999,21.2985696 66.3754864,15.5148765" id="Fill-79-Copy" fill="#C4C3C6"></path>
                        <path d="M61.0714964,39.4741159 C61.4793041,46.9981952 64.2772897,53.6446485 66.3790677,60.4626265 C68.0416682,65.8564002 69.8246884,71.2141687 71.5353555,76.5939403 C74.4891784,85.8837728 77.4930917,95.1586032 80.3300366,104.482441 C81.08696,106.970798 81.3227397,109.615177 81.7695066,112.192547 C81.8201031,112.483588 81.7578694,112.84264 81.6227768,113.107678 C79.8230598,116.657687 78.1452804,120.275206 75.890701,123.57968 C75.5350077,124.100755 75.2314288,125.048891 74.5726626,124.882367 C73.9305932,124.719843 73.51469,123.951233 73.256142,123.175622 C72.061053,119.584107 70.7966469,116.015095 69.5206035,112.450584 C62.2670914,92.1906775 52.2444336,73.1709493 42.6771442,53.9471919 C42.3801428,53.3511064 42.147399,52.7075141 41.7603359,52.1734375 C40.8329023,50.8932539 40.9836798,50.1616489 42.5152354,49.3705355 C48.6232431,46.2150828 54.6543442,42.9136093 61.0714964,39.4741159" id="Fill-73-Copy" fill="#FFFFFF"></path>
                        <path d="M72.9895142,126.141174 C66.6674089,122.609943 62.2732042,121.281408 56.2641605,117.957327 C55.6018033,117.591057 49.2672527,103.394919 49.1334286,102.747276 C46.2622478,88.8896595 39.4246536,76.7377453 32.8479442,64.4660051 C30.0038181,59.1601851 27.3157396,53.7704384 24.4039768,48.1226047 C29.0559371,48.6872911 33.4455633,49.4557302 37.8627274,49.6769475 C41.0146008,49.8350985 42.2987331,51.3884711 43.45967,54.0833444 C49.5967404,68.3392489 56.5729899,82.2283982 61.9394844,96.821465 C64.0681101,102.6095 66.1885228,108.399475 68.4311647,114.51206 L72.9895142,126.141174 Z" id="Fill-75-Copy" fill="#B1B2B7"></path>
                    </g>
                    <g id="Group-11" transform="translate(173.400759, 178.104246) rotate(-315.000000) translate(-173.400759, -178.104246) translate(149.900759, 157.604246)" fill="#FFFFFF">
                        <path d="M48.8966115,23.576182 C40.2103936,23.4591406 31.6430237,24.331658 23.2011542,25.4418149 C13.5345,26.7105462 6.34529145,21.7728182 -1.94273916,17.6781829 C6.69281791,11.9182147 38.9359834,15.6627782 48.8966115,23.576182" id="Fill-107-Copy" transform="translate(23.476936, 20.266675) rotate(-39.000000) translate(-23.476936, -20.266675) "></path>
                    </g>
                    <g id="Group-10" transform="translate(130.907359, 186.426677) rotate(-93.000000) translate(-130.907359, -186.426677) translate(39.907359, 60.926677)">
                        <path d="M55.583648,105.771903 C49.5705449,102.685486 42.9367081,101.265056 36.4814851,99.3962468 C35.1062272,98.9980651 33.8280862,99.6262019 32.5465496,100.076615 C31.4612843,100.457839 30.2177795,101.652384 29.2309895,100.305214 C28.2285793,98.9363368 26.5714784,97.6312232 27.3701467,95.5684111 C27.5929045,94.9918277 27.6662516,94.5726176 27.4597931,94.0190975 C23.3238322,82.8998553 25.7836763,72.0485549 29.2214815,61.4068595 C33.5543929,47.9941719 39.3413425,35.1906278 46.4451439,22.9690938 C50.3861917,16.1898291 56.0658372,11.6490649 62.8545178,8.01591091 C65.9187962,6.37637892 68.3161594,3.53484004 71.8293492,2.53226318 C72.0385242,2.47256984 72.2606029,2.18766978 72.4113719,2.23108313 C74.9289428,2.9623266 76.869245,1.63143634 79.0336633,0.683804494 C81.8208527,-0.537195741 83.5580921,0.902906203 85.2912567,3.37136168 C91.2316918,11.8288233 98.7130949,18.6949146 107.994897,23.4351089 C109.659469,24.2850607 112.045287,22.8246088 112.359728,20.80521 C112.946505,17.0268926 113.424619,13.2309386 113.991701,9.12227279 C116.103826,10.6993981 117.878418,9.99053962 119.892746,8.85229607 C123.003206,7.09269906 126.311296,6.4123306 129.924319,7.96164423 C134.987985,10.1329896 140.173896,11.98077 144.315969,15.8432007 C146.313319,17.7059044 146.379195,24.3929157 144.262996,26.0297344 C138.810183,30.2496469 138.573163,30.6390103 134.918033,37.0587582 C133.938035,38.7790118 134.271492,39.3969736 135.928593,40.3771655 C149.144652,48.1963153 163.484008,53.1576463 178.210474,57.121827 C180.014948,57.6075138 180.79528,58.3326523 181.306672,60.0827526 C182.097786,62.7908804 182.103671,66.9039515 181.108051,73.5435439 C179.889147,81.6721826 177.441539,92.4255439 176.464406,94.6526609 C172.966157,102.627149 169.178595,110.390676 163.349538,116.971867 C154.784907,126.64151 138.421919,141.315764 126.709475,147.39838 C125.081683,148.24386 120.22292,145.955453 113.87427,142.081741 C113.927882,142.448712 113.968434,142.870426 113.991701,143.369841 C113.212326,142.29504 112.430864,141.420214 111.64793,140.697675 C110.351616,139.877961 109.006458,139.004965 107.625263,138.090077 C103.182783,136.161 98.7267952,136.493075 94.3681627,130.481506 C92.4699672,138.029322 85.8313765,141.764073 84.030298,148.77872 C83.2859948,151.676891 84.2397237,154.006109 83.4883445,156.902441 C81.9649154,162.774783 78.6604306,169.19286 76.5882849,174.909481 C75.9397065,176.699603 75.4330683,178.51211 73.8438813,179.836896 C72.515484,180.943936 73.8357316,182.596356 73.1946237,184.079871 C69.8192993,191.891559 66.6796364,199.804319 63.4679847,207.685876 C60.9965953,213.75289 58.5095856,219.78938 54.1433964,224.857888 C53.0472649,226.130441 52.9005707,224.113756 51.3955971,225.030184 C47.5869815,227.350763 34.6181295,235.287943 34.6344288,226.87593 C25.8789596,227.7347 21.4095411,226.017159 12.5902327,225.502304 C8.90793716,225.286594 8.14322584,224.514651 5.57404029,221.644622 C3.54748737,219.380345 3.03405774,218.15324 0.389487679,217.932781 C0.441102297,215.686819 1.8245099,213.997769 2.66460573,212.139135 C11.4377326,192.732693 24.578407,176.272253 37.8535511,159.87015 C41.0765345,155.887771 54.4749668,119.056954 61.474449,106.771069 C59.4225588,106.887989 57.5555391,106.78415 55.583648,105.771903 Z" id="Path" fill="#000000"></path>
                        <path d="M69.6907269,118.637519 L69.6927617,118.707534 C70.9068491,119.090242 70.4578403,118.237816 70.4368142,117.702841 C72.0409017,114.552127 73.8382937,111.480267 74.4677201,107.925093 C78.0638606,108.331593 81.4972184,109.35464 84.8566458,110.661829 C87.4849076,111.684196 88.8855169,113.663674 88.6501602,116.420123 C87.8050469,126.283522 86.1602636,135.991254 79.1294088,143.598511 C67.2306738,156.473271 59.2319403,172.024268 49.3116931,186.253122 C47.2988322,189.140228 44.0821578,200.929407 38.1493837,205.176093 C32.6991129,209.077403 24.4743093,205.570756 23.2759614,205.625761 C20.6144647,205.747439 17.9597507,206.030901 14.8078712,206.283094 C19.0883772,200.598895 23.1057179,195.205634 27.1847803,189.860638 C34.8552354,179.808944 41.6860032,169.204601 47.8575012,158.176764 C48.7188928,156.637774 50.7726675,156.037541 50.8744067,154.006402 C51.0609285,153.772562 51.2460938,153.538723 51.4319374,153.304884 L51.334946,153.395293 C52.3306334,152.737959 52.8508596,151.83591 52.7613292,150.61913 L52.7335205,150.653118 C53.7224252,150.652438 53.9923731,149.991706 54.0893645,149.171229 C54.0893645,149.171229 53.9984775,149.287469 53.9984775,149.286789 C55.208706,147.900037 56.3465597,146.47243 57.4172479,145.006898 C58.6975278,143.254482 59.8817726,141.447841 60.9788885,139.591987 C63.689334,135.007064 65.8679922,130.121771 67.6491609,125.01168 C68.4678221,122.931598 70.9082057,121.373575 69.6907269,118.637519 Z" id="Fill-13" fill="#C4C3C6"></path>
                        <path d="M155.592494,248.572677 C155.973143,249.725101 154.928597,250.157753 152.734266,250.008835 C153.187687,249.277218 154.324037,248.891949 155.592494,248.572677" id="Fill-43" fill="#FDFDFD"></path>
                        <path d="M165.022438,83.3250449 C169.038096,85.6395673 169.117882,85.6551237 167.008968,89.6084794 C161.582184,99.7796623 161.121989,107.071835 152.916226,115.274118 C151.339443,116.850049 150.486141,117.401287 148.585482,115.236242 C136.958398,101.999094 122.783579,91.8725518 107.946132,82.5847022 C96.4130327,75.365178 84.9637761,68.0124098 73.4218869,60.8070892 C71.5705868,59.6518571 71.1297367,58.6887128 71.9938571,56.5128453 C76.0338564,46.3409862 78.2414878,35.6645584 79.9244264,24.8968213 C80.3172698,22.3780366 80.3017184,19.7990554 80.7283693,17.2241323 C81.2537383,14.0479204 82.2659356,15.1524251 83.8170249,16.198086 C88.6711094,19.4683127 93.7138399,22.4781387 98.4110574,25.9566859 C116.439258,39.3088152 130.372489,47.2539368 151.276358,54.7791782 C157.507085,57.0213294 164.076245,64.0611176 170.757288,62.2207274 C173.157622,61.5599184 174.864226,62.6962122 174.785116,65.5153032 C174.611346,71.7764177 173.040231,75.1701074 170.957687,81.0111989 C170.201751,83.1322808 169.140195,81.5671713 168.383582,81.1958467 C158.395487,76.2908448 148.441875,71.3148246 138.470008,66.3773572 C137.469981,65.8815814 136.408425,65.5122859 135.375267,65.084823 C134.355632,64.2840064 133.381975,63.3086875 131.609785,64.2677736 C132.756536,64.8352441 133.706527,65.3053181 134.655843,65.7747157 C144.77714,71.6259527 154.893704,77.4859825 165.022438,83.3250449 Z" id="Fill-81" fill="#C4C3C6"></path>
                        <path d="M51.4551788,71.1122409 C51.8312228,68.6874553 51.8156762,66.2046173 52.2241216,63.7257946 C52.7270713,60.6681238 53.6978552,61.7316994 55.1853232,62.738757 C59.8403066,65.8882553 64.6761026,68.7871072 69.1807306,72.1371213 C86.4697618,84.9958858 99.8311338,92.6482183 119.875967,99.8980317 C125.850645,102.05812 132.151,108.837066 138.556443,107.066925 C140.85776,106.431339 142.494361,107.525689 142.419204,110.239662 C142.254133,116.267313 129.227246,126.280037 119.664836,121.5242 C118.705871,121.046662 118.376108,130.46714 117.385394,130.05536 C116.407553,129.284149 102.720637,108.105169 101.021667,109.028065 C102.121331,109.57466 103.032315,110.027442 103.94265,110.479573 C113.648561,116.115149 49.8442031,81.4781334 51.4551788,71.1122409 Z" id="Fill-81-Copy-2" fill="#C4C3C6" transform="translate(96.923425, 95.888175) rotate(173.000000) translate(-96.923425, -95.888175) "></path>
                        <path d="M79.9244264,24.8968213 C80.3172698,22.3780366 80.3017184,19.7990554 80.7283693,17.2241323 C81.2537383,14.0479204 82.2659356,15.1524251 83.8170249,16.198086 C88.6711094,19.4683127 93.7138399,22.4781387 98.4110574,25.9566859 C116.439258,39.3088152 130.372489,47.2539368 151.276358,54.7791782 C157.507085,57.0213294 164.076245,64.0611176 170.757288,62.2207274 C173.157622,61.5599184 174.864226,62.6962122 174.785116,65.5153032 C174.611346,71.7764177 78.2414878,35.6645584 79.9244264,24.8968213 Z" id="Fill-81-Copy" fill="#FFFFFF"></path>
                        <path d="M128.551781,19.7939876 C128.656241,19.7479425 128.784915,19.7245863 128.861704,19.6525159 C134.61742,14.2372194 135.315439,14.2712526 141.360324,20.566076 C138.431273,20.5360467 137.830797,22.6841477 136.858828,24.4932504 C136.013458,26.0667894 135.170854,27.6423304 134.311647,29.2085289 C131.509887,34.3168585 131.507119,34.3155239 126.230124,31.7857162 C115.287346,26.5399188 115.086034,26.0767992 118.015776,14.5448536 C118.27174,13.5351994 118.564368,12.9406179 119.690607,12.8538664 C120.946902,12.7564377 122.205965,12.3940833 123.445658,12.4621499 C130.057122,12.8265063 130.636844,13.7594187 127.898036,19.3028405 C127.66421,19.663193 127.387493,20.0522401 127.929167,20.3438587 C128.005956,20.3858998 128.337325,19.9881775 128.551781,19.7939876" id="Fill-85" fill="#C4C3C6"></path>
                        <path d="M46.6162599,216.958068 C41.1828987,216.894267 35.8232394,217.414644 30.54193,218.07525 C24.4943858,218.830228 20.0005585,215.919309 14.8188463,213.506834 C20.2243203,210.100793 40.3907687,212.291957 46.6162599,216.958068" id="Fill-107" fill="#FFFFFF"></path>
                        <path d="M79.4450733,147.123311 C79.5507401,146.836533 79.6564068,146.550332 79.7610997,146.264131 C79.8175852,146.318947 79.9149739,146.367417 79.9222781,146.431466 C79.966103,146.793257 79.8989048,147.102539 79.5672961,147.240446 C79.5677831,147.240446 79.4450733,147.123311 79.4450733,147.123311" id="Fill-119" fill="#B1B2B7"></path>
                    </g>
                </g>
            </g>
        </g>
    </g>
</svg>