<?xml version="1.0" encoding="UTF-8"?>
<svg width="298px" height="371px" viewBox="0 0 298 371" version="1.1" xmlns="http://www.w3.org/2000/svg" xmlns:xlink="http://www.w3.org/1999/xlink">
    <!-- Generator: Sketch 53.1 (72631) - https://sketchapp.com -->
    <title>Bug_report</title>
    <desc>Created with Sketch.</desc>
    <g id="Blog-Illustrations" stroke="none" stroke-width="1" fill="none" fill-rule="evenodd">
        <g id="Blog_illustrations-Copy" transform="translate(-596.000000, -981.000000)">
            <g id="Bug_report" transform="translate(566.000000, 980.000000)">
                <g id="Group-37-Copy" transform="translate(118.786152, 276.883274) scale(-1, 1) rotate(44.000000) translate(-118.786152, -276.883274) translate(38.786152, 189.883274)">
                    <path d="M57.8465557,11.4750195 C57.8317841,11.3428025 57.8178138,11.2102355 57.8046453,11.0773201 C57.8011707,11.0422978 57.7974209,11.0086107 57.7797837,10.8529965 C57.7531102,10.6161869 57.7360971,10.4474051 57.72106,10.245282 C57.6543031,9.34795936 57.6838016,8.54617969 57.9322367,7.61354621 C58.4251329,5.76319823 59.6941736,4.14737676 61.7089653,3.37748718 C63.8747613,2.55061217 66.0796372,3.0103814 67.7198568,4.29612056 L71.4857834,1.58376703 L73.2959134,9.73243535 C73.4987716,10.6456425 73.5388154,11.5321183 73.4559791,12.4184151 C73.4044791,12.969434 73.3353454,13.3455889 73.1958897,13.9863372 C73.1500076,14.1971485 73.1356239,14.2664471 73.1295663,14.3016241 C73.0401571,15.0110012 73.0819088,15.6288538 73.2748002,16.2123024 L73.9893296,16.4318661 L73.4406851,16.6285342 C73.6513306,17.0786711 73.959168,17.5159377 74.374027,17.9684374 C74.6790629,18.3012554 74.9582057,18.5850892 75.6085308,19.2302062 C77.7434865,18.7648672 80.016253,18.6792261 82.3523785,19.0301832 C82.9923335,19.126283 83.6177279,19.2503662 84.2275907,19.401414 C84.8963646,18.7602353 85.2557863,18.411973 85.6706708,18.0017807 C86.968999,16.7174245 87.3339857,15.4354945 86.9335329,13.4961425 C86.8277103,12.9844967 86.744835,12.4922533 86.6874324,12.0125227 C86.5394678,10.8023468 87.1908526,8.00479279 86.8555224,9.71512926 L88.5774586,0.932471445 L92.6919516,4.14111003 C94.3460256,2.90596712 96.5315473,2.47003185 98.7088185,3.3377346 C100.86212,4.19492998 102.175267,5.99881174 102.577061,8.0442045 C102.775475,9.05426019 102.746048,9.8772551 102.60818,10.8724878 C102.589016,11.0108251 102.570595,11.1317989 102.54307,11.3054142 C102.536389,11.347559 102.530675,11.3836605 102.525777,11.4147077 C104.789285,10.7537547 106.817692,10.8544124 109.396413,11.4069107 C109.444886,11.4172733 109.491453,11.4274636 109.536808,11.4376462 L109.546749,11.4257098 C110.379386,10.4278369 111.508942,9.7235304 112.799411,9.41414264 L116.035705,8.63824655 L117.900384,10.7737717 L119.413003,9.04019322 L123.370503,15.201281 C123.991544,16.1681262 124.410652,17.1822773 124.669346,18.2498211 L131.317582,12.8519395 L129.250433,26.8367512 C128.795617,29.9136959 128.993443,32.4940665 129.925516,38.5163997 C130.004997,39.0299422 130.03766,39.2415582 130.080387,39.5207685 C130.151645,39.9864216 130.212078,40.3888269 130.268644,40.7763231 C130.370003,41.4708857 130.457098,42.0346601 130.657792,43.3101722 L130.667747,43.3734415 C130.989145,45.4161796 131.135075,46.3896286 131.290058,47.5951391 C131.92203,52.5147071 129.823117,56.8823072 125.279643,59.0348528 C124.121847,59.5832671 123.165112,60.1532886 120.980274,61.5520227 L120.931843,61.583028 C119.794007,62.3114627 119.089374,62.7552519 118.412907,63.1577863 C118.69683,65.5795014 118.727551,68.0778286 118.500981,70.6495182 C118.427782,71.4810574 118.263014,72.2627643 118.014585,72.9888721 C118.400766,72.9552623 118.800055,72.9445519 119.211169,72.9577605 L119.493924,72.966845 L119.774254,73.0048926 C127.837255,74.0992379 134.519263,76.2888318 140.389049,80.1907124 C140.510391,80.2716437 140.640827,80.3562495 140.844111,80.4863786 C141.75872,81.0707023 142.01709,81.2423634 142.450482,81.5867515 C143.740768,82.612058 144.655263,83.8002505 144.902075,85.7539231 C144.916503,85.8681286 144.928053,85.9804661 144.936812,86.0910178 C145.000535,86.1782804 145.063119,86.2676587 145.124512,86.3591588 C147.170927,89.4103078 149.042587,91.7750686 153.450951,97.0539614 L153.457524,97.0618318 C153.978003,97.6850907 154.211825,97.9652848 154.503285,98.3152843 C156.992896,101.305674 158.524424,104.074795 159.107337,107.447287 C159.448269,109.419181 159.092452,111.343252 158.349789,113.049066 C158.030367,113.782743 157.63966,114.46584 157.158457,115.053548 C156.933462,115.328343 156.684975,115.589893 156.37669,115.850451 C155.668282,116.449186 154.864775,116.907541 153.680511,117.106731 C151.266632,117.51274 148.886237,116.288299 147.805037,114.10717 C147.648108,113.790593 147.528875,113.488079 147.440404,113.195099 C143.801151,111.913509 141.331935,109.313764 140.741297,105.31099 C140.731106,105.241949 140.673556,105.099937 140.512254,104.845492 C140.276327,104.473331 139.91755,104.030178 139.305916,103.356305 C138.123367,102.053665 136.686886,100.829439 134.9381,99.6125343 C134.592122,99.3717081 134.271224,99.1103988 133.977189,98.830397 C133.248092,98.6148045 132.564552,98.2637305 131.957111,97.7972855 C131.225662,97.2356171 130.870221,96.8006516 130.377035,96.0885547 L130.364106,96.0698468 C130.088408,95.7520546 129.849629,95.4595218 129.420055,94.9235412 L129.410387,94.911479 C128.965977,94.3569873 128.778135,94.1300445 128.571393,93.9028363 C127.05105,92.2325617 124.952627,91.3933919 121.709376,91.1663284 C121.647018,93.6668859 121.565461,95.866594 121.453309,97.8802027 C121.756006,98.084221 122.04132,98.3154442 122.306078,98.5715244 C123.013367,99.2556321 123.401811,99.8833989 123.767914,100.659517 C123.815024,100.759389 123.898445,100.943629 123.893743,100.933626 C125.861528,105.044312 127.080788,109.496961 127.708307,114.432152 C128.119287,117.666938 128.3261,120.226228 128.326501,122.784828 C128.34724,123.914197 128.308931,124.780615 128.190324,126.616279 C128.163061,127.03822 128.151339,127.223488 128.137907,127.450229 C128.033968,129.204839 128.051438,130.229695 128.217893,131.136604 C128.271042,131.42645 128.311943,131.654732 128.402324,132.163143 L128.403511,132.169821 C128.612499,133.345421 128.708263,133.858842 128.836779,134.462871 C129.091242,135.658307 129.149527,136.792265 128.786803,137.919671 C129.125216,138.805639 129.46185,139.636719 130.153489,141.315226 C132.11865,146.08438 132.926778,148.299735 133.6279,151.334008 C134.669711,155.841236 134.93147,159.423754 134.126038,163.178872 C133.184921,167.567618 130.606,170.844988 126.572766,172.271303 L125.69465,173.155432 L123.347503,173.113136 C121.420297,173.078408 119.922056,172.997106 118.789554,172.856023 C118.030268,172.761433 117.380857,172.636664 116.760323,172.438361 C116.211568,172.262996 115.691263,172.035243 115.158097,171.688693 C114.069974,170.981429 113.167434,169.949738 112.739831,168.425612 L111.785808,165.025146 L114.480977,162.742737 C114.702391,162.555232 114.958739,162.337813 115.456326,161.915745 C115.865994,161.568386 116.174157,161.307609 116.478703,161.050832 C116.532956,161.005103 116.560373,160.981995 116.587603,160.959059 C116.705067,159.893421 117.01866,158.909217 117.50202,157.990866 C117.842217,157.344515 118.111146,156.959532 118.665734,156.231667 C119.440316,155.215589 119.629379,153.977469 119.213037,152.045747 C119.096557,151.505558 118.810728,150.898903 117.955065,149.399454 C117.869215,149.249046 117.869215,149.249046 117.780182,149.092807 C117.591703,148.761606 117.438254,148.493619 117.093314,147.892449 L117.091664,147.889574 C115.065005,144.357465 114.186072,142.725067 113.214864,140.50875 C112.985797,139.986241 112.805385,139.502279 112.673574,139.001123 C111.541904,137.653508 111.015391,135.762058 111.581364,133.497664 C111.941897,132.053394 112.099696,130.662482 112.048698,129.054218 C108.387528,133.793028 103.602758,137.686112 97.7185275,140.681852 C97.4553474,140.815936 97.4553474,140.815936 97.1893281,140.951734 L97.0767968,141.009189 C93.8542922,142.654523 92.3374075,143.373766 90.2845759,144.136587 C89.3509512,144.483954 88.7182414,144.695436 87.9654716,144.883737 C84.8278174,145.669461 82.0941243,145.127319 80.1174758,143.464679 C78.5653684,144.774577 76.5320187,145.436595 74.2532146,145.205494 C74.1946601,145.199583 74.1946601,145.199583 74.1295394,145.193105 C73.9074484,145.171035 73.830083,145.163159 73.7018038,145.148995 C72.7219535,145.040808 71.9420498,144.888683 71.0560886,144.55123 C63.4089951,141.638227 57.5290364,138.385263 52.5310095,133.872218 C50.8849072,132.385916 49.4038152,130.789837 48.0802283,129.08494 C48.1080521,130.2091 48.2398368,131.301991 48.4770211,132.373381 C48.9129758,134.33969 48.598591,136.160466 47.7195903,137.577544 C47.6932383,138.206786 47.5723406,138.840655 47.3558314,139.458796 C47.2513062,139.75722 47.1612248,139.966335 47.0311288,140.245833 C47.007616,140.296348 47.0037787,140.304703 47.0261967,140.249779 C46.1711954,142.3442 45.3705334,143.865172 43.5278771,147.106286 L43.5227934,147.115228 C43.3537006,147.412653 43.2797356,147.542848 43.1871396,147.706193 C43.0226668,147.996342 42.8594277,148.277063 42.6296094,148.667317 C42.5479781,148.805844 42.5479781,148.805844 42.4681525,148.941168 C41.2419559,151.020139 40.8859366,151.822309 40.8254918,152.569781 C40.6479937,154.764874 40.8517202,155.651769 41.4500563,156.219 C42.7410867,157.444415 43.5202915,159.081375 43.5287935,160.958985 C43.6247517,161.074536 43.8154668,161.252956 44.1258692,161.485449 C46.3559898,163.156119 46.8573613,165.53263 46.4125234,167.745777 C46.2225913,168.690723 45.8742367,169.520464 45.4250463,170.316627 L43.8467694,173.114029 L32.7603723,173.114029 L32.0517259,171.382422 C27.2203833,168.405762 25.300401,164.255493 25.6027042,157.895161 C25.7963945,153.816301 26.7167925,149.791883 28.3001007,145.663373 C28.9661469,143.926793 29.5070951,142.542749 30.7222393,139.45312 L30.7445493,139.396395 C31.0949334,138.505506 31.3234019,137.924227 31.5248716,137.410567 C31.3807071,137.016384 31.277702,136.607507 31.2162797,136.191128 C31.0704481,135.202545 31.1599846,134.303983 31.3911857,133.384252 C31.9608296,131.117847 32.0895895,128.687508 31.9274687,124.916176 C31.5650624,116.482227 32.7129667,108.922565 35.7333736,101.934872 L35.7301654,101.942305 C35.730228,101.934803 35.8096989,101.706172 35.8415393,101.616885 C36.1907289,100.637686 36.522943,99.9358696 37.2175443,99.1054431 C37.6411207,98.5990388 38.133561,98.1641647 38.6785651,97.814418 C38.5663806,95.7980708 38.4870797,93.615447 38.4301374,91.1743174 C37.4163782,91.2518436 36.5006383,91.3848467 35.6438514,91.5808952 C33.8026191,92.0018634 32.2916957,93.0229909 30.8858191,94.7993401 C30.7946142,94.9144968 30.7175221,95.0129006 30.5459108,95.2327684 L30.5383495,95.2424558 C30.061857,95.8529355 29.8237454,96.1517308 29.5120523,96.5187577 C29.5030528,96.5301943 29.4868537,96.5507332 29.4594771,96.5854433 C28.9429254,97.2376887 28.5135689,97.6834849 27.6914309,98.1873259 C27.3391181,98.4032381 26.9686277,98.5812815 26.5854785,98.7198725 C26.3052486,98.9854502 26.0128439,99.206915 25.6389937,99.4701584 L25.5827709,99.5097109 C25.5489749,99.5336396 25.5489749,99.5336396 25.5528534,99.5308684 C22.8568532,101.509865 21.3749735,102.817985 20.2388364,104.320338 C19.6668153,105.076836 19.3856346,105.669592 19.3052814,106.179821 C18.8277847,109.210068 16.9606723,111.447711 14.26683,112.660945 C13.9065679,112.823237 13.6108695,112.946902 13.1880232,113.112912 L15.0958867,123.825196 L5.02239165,118.301757 C3.98951288,117.735415 3.17536979,116.944336 2.58178246,116.010159 C2.48328108,115.85514 2.3972375,115.709429 2.31985492,115.567447 L0.865453515,114.71201 L0.865453515,106.978405 L1.18982773,106.076233 C2.51566157,102.388732 4.14779664,100.093597 8.04689424,95.5604901 L8.0581807,95.5473684 C8.95212002,94.5080704 9.34501455,94.0450768 9.80368171,93.4822766 C12.2674571,90.4589671 13.7734596,88.4921034 15.1482369,86.4252874 C15.1728231,86.3883253 15.1975921,86.3516978 15.2225408,86.3154046 C15.3318463,84.6892283 16.1022821,83.0909072 17.5246593,81.924277 C18.1825956,81.3839875 18.8722009,80.8788039 19.6866418,80.3253104 C25.3860402,76.4500721 31.8680499,74.2661149 39.9265192,73.0490269 C39.9869329,73.0400464 39.9869329,73.0400464 40.0449549,73.0320476 C40.2778332,73.0005367 40.4953853,72.9815608 40.7156515,72.9696624 C40.8289936,72.9635399 40.9308746,72.9598983 41.0246657,72.9572938 L41.1384522,72.9504794 L41.3063948,72.9506868 C41.5756044,72.9510192 41.8398147,72.9619956 42.0985684,72.9833214 C41.8314543,72.2009722 41.6629852,71.3550768 41.6037146,70.4534394 C41.4218001,67.6818588 41.4992916,65.0169122 41.8354578,62.4658769 C41.0888122,62.0334093 40.4014602,61.6085965 39.7389035,61.1662597 C38.1216966,60.0867385 36.8643217,59.3459065 35.6285971,58.7686881 C30.4569813,56.3532114 28.1476196,52.2773452 28.8995769,46.660404 C29.1659034,44.6707296 29.3983147,43.0943673 29.9343881,39.5669643 L29.9389896,39.5366857 C30.4322769,36.2908111 30.6485511,34.8282314 30.8926535,33.0298779 C31.2150913,30.6568803 31.2274105,28.6906082 30.8994294,26.8628084 L29.1285537,16.9939299 L35.2245708,19.498251 C35.4082931,18.0706307 35.791271,16.7803641 36.5033766,15.4656136 L40.3298911,8.40077426 L42.2800062,10.6965809 L44.3599576,8.45000266 L47.4925842,9.46141598 C47.7044702,9.51503908 47.7198969,9.52023916 48.0962982,9.64711772 C49.0046049,9.98191184 49.8509829,10.5085358 50.553172,11.4138638 C53.2640254,10.7661343 55.3555271,10.7625732 57.8465557,11.4750195 L57.8465557,11.4750195 Z M64.5104152,26.8990175 C62.9840975,25.1339536 61.7078867,23.2312671 60.6861138,21.2005598 L58.4264388,22.0105668 C58.3167048,22.0499023 58.1655202,22.1030635 58.131369,22.1144813 C54.0791576,23.7748979 51.1725574,26.7524299 49.0458893,31.2832272 C47.0874857,35.4549903 45.7132001,39.623639 43.7954368,46.7236084 C44.4801959,46.947959 45.4147893,47.0141947 47.1921018,46.9722627 C47.5112368,46.9647229 47.8066814,46.9641824 48.0892109,46.9735496 C50.229748,44.1298418 52.891003,41.5502999 56.0708678,39.255909 C57.7978059,38.0098412 59.5512633,37.2145941 61.4496668,36.7712367 C61.4241655,35.9945844 61.4834355,35.1748824 61.6294973,34.317113 C62.1004998,31.5510929 63.1008528,29.0477881 64.5104152,26.8990175 L64.5104152,26.8990175 Z M95.2063631,27.3801002 C96.457993,29.4500216 97.3287145,31.8333182 97.7535437,34.4618126 C97.8847653,35.2738557 97.9374069,36.051003 97.9133196,36.7890169 C101.892036,37.6261646 105.461208,39.6493926 108.519872,42.8628882 C109.983248,44.4002402 111.291339,45.9935984 112.442024,47.6412764 C112.940572,47.6299833 113.444104,47.6365045 114.2326,47.6554345 L114.286798,47.6567375 C114.659737,47.6657101 114.820961,47.6691481 115.011754,47.6716501 C115.413522,47.6768724 115.840727,47.5939688 116.325301,47.4020868 C116.30461,47.3242938 116.282786,47.2422307 116.259662,47.1552718 C116.21293,46.9795287 116.21293,46.9795287 116.166267,46.8040763 C113.672203,37.4273968 112.224799,33.236482 109.544646,28.7658685 C107.775681,25.8150856 105.390279,23.6938417 102.30007,22.3334277 C102.257186,22.3145251 102.257186,22.3145251 102.215359,22.2958305 C101.936134,22.1706185 101.045718,21.7314929 101.190045,21.8014134 L99.6595439,21.0599476 C98.4977262,23.3303282 97.0101286,25.4408549 95.2063631,27.3801002 L95.2063631,27.3801002 Z" id="Shape" fill="#000000" fill-rule="nonzero"></path>
                    <path d="M36.1140203,166.552487 C36.0975515,166.512244 36.091539,166.449268 36.0625225,166.435157 C31.814344,164.376528 30.5208859,162.088466 30.7582464,157.0945 C30.9313,153.45022 31.7970909,149.96116 33.0970842,146.571399 C34.2488579,143.568383 35.4377519,140.579477 36.6096542,137.5843 C37.1607071,136.176603 39.9570129,135.062362 41.3926782,135.678017 C42.2341579,136.03863 41.7902832,136.633902 41.5986695,137.102699 C40.6270074,139.48405 39.3296282,141.69999 38.064141,143.932393 C36.7806165,146.196676 35.2215656,148.388313 35.0051179,151.064949 C34.7672345,154.006818 34.971396,156.914978 37.3253956,159.146596 C37.5739967,159.382563 37.6924156,159.622449 37.6905857,159.934457 C37.6769924,162.108325 38.8488947,163.596507 40.4900285,164.825726 C40.9375629,165.160992 40.6191651,165.980732 40.2965848,166.552487 L36.1140203,166.552487 Z M117.6971,165.878374 C118.4,165.283121 119.148868,164.645687 119.90115,164.012707 C120.952611,163.128212 121.618738,161.997703 121.703842,160.643713 C121.760316,159.74638 122.186627,159.180209 122.701456,158.504524 C124.685127,155.902389 124.917064,152.914336 124.251199,149.824891 C123.898961,148.191352 123.041612,146.750641 122.222087,145.310979 C120.712795,142.658803 119.140988,140.039377 117.913801,137.238912 C117.280245,135.793748 117.542651,135.439006 119.111306,135.513937 C121.693073,135.637075 122.272519,136.073034 123.19396,138.513518 C124.823028,142.82779 126.885237,146.985651 127.93092,151.511091 C128.652469,154.632761 129.093752,157.77644 128.410027,160.964133 C127.812982,163.748354 126.305003,165.708601 123.361017,166.308045 C123.264355,166.328219 123.191858,166.468386 123.10833,166.552487 C119.609238,166.489433 117.805494,166.264729 117.6971,165.878374 Z M6.02718634,106.875577 C7.58549567,102.541499 10.8933179,99.3746676 13.7289735,95.8952222 C15.7087275,93.4658575 17.6579419,91.0129042 19.3893967,88.4098653 C20.0009827,87.4904291 20.4928008,87.5811544 21.109698,88.2836275 C22.2863968,89.6242884 22.6775675,91.2358292 22.7609535,92.9495008 C22.7888374,93.5259954 22.348538,93.7502165 21.9600229,94.0356124 C19.5912228,95.7744279 17.2946551,97.586342 15.5135405,99.9415712 C14.5272486,101.245942 13.7863346,102.66022 13.5340521,104.26217 C13.3518775,105.41827 12.6877106,106.126186 11.6695514,106.584738 C10.989982,106.890871 10.2835909,107.140236 9.58968117,107.415782 C7.42270705,108.276376 6.82121239,109.298721 7.1712212,111.531341 C7.21503869,111.809479 7.26947861,112.08658 7.32843305,112.417598 C6.50253973,111.964749 6.75083885,110.930221 6.02718634,110.50459 L6.02718634,106.875577 Z M79.7536994,76.5930391 C71.8111422,76.5773645 64.0434933,75.1979926 56.2966978,73.6680411 C54.0872749,73.2319766 51.8864541,72.7550552 49.6838086,72.2884123 C47.9026634,71.9111921 46.8756311,70.8874557 46.7536384,69.0316764 C46.0352371,58.0863814 49.8954711,49.1883025 58.9508205,42.6545306 C61.937295,40.4996476 65.4331149,40.5862438 68.8549052,41.0081753 C76.0920945,41.9000903 83.3131224,41.9931105 90.5328469,40.9778538 C95.9073019,40.2226426 100.440842,41.6462119 104.197851,45.5934046 C110.513839,52.2286765 113.48728,59.9868721 112.683901,69.1056814 C112.524633,70.9149506 111.54009,71.8901213 109.822287,72.2729946 C104.070124,73.5542069 98.2874624,74.681756 92.4570989,75.5595381 C88.2486123,76.1932063 84.0158836,76.5753088 79.7536994,76.5930391 Z M80.6586463,111.676858 C80.4073983,106.518612 80.1265454,100.113344 80.1399069,93.6961069 C80.1443607,91.4559931 80.7608223,89.8720427 82.9500076,88.8191111 C85.3831053,87.6485801 87.2555451,85.7266613 88.4900402,83.2908953 C89.833523,80.6407444 91.9213183,79.0677214 94.8566501,78.3930855 C99.1391325,77.4088403 103.330443,76.0452588 107.667157,75.2748782 C108.480111,75.1304807 109.30957,75.031874 110.134575,75.0058564 C113.125449,74.9111524 114.761574,76.1527115 115.517414,79.0474276 C115.825252,80.2260241 116.013622,81.4345408 115.999475,82.6451389 C115.895727,91.3087336 115.788835,99.9707672 114.239429,108.541219 C112.0919,120.417725 105.726862,129.199179 94.885207,134.718809 C92.637336,135.863062 90.4012545,137.038537 88.0284145,137.920273 C87.4578011,138.132576 86.8808999,138.339416 86.2911613,138.486936 C83.899458,139.08586 82.7425118,138.380524 82.1986214,136.001476 C81.5648685,133.229303 81.7810099,130.391825 81.5839937,127.586609 C81.2407873,122.703109 81.0084025,117.811544 80.6586463,111.676858 Z M79.3075469,103.257738 C78.7530335,113.469149 78.2000947,123.68056 77.6416448,133.891711 C77.5825982,134.976348 77.4387869,136.050056 77.0188998,137.065732 C76.5533499,138.193047 75.7308961,138.799903 74.4709723,138.67213 C73.8665974,138.610716 73.23388,138.562573 72.6756926,138.349966 C66.5663353,136.022732 60.7690066,133.144332 55.878634,128.728495 C49.9138753,123.342782 46.7521255,116.470117 45.28462,108.748843 C43.6418118,100.105576 43.5657072,91.3462459 43.4822547,82.5929013 C43.4712326,81.4255111 43.6488974,80.2617641 43.9499039,79.1245605 C44.7755069,76.002065 46.5387703,74.7844505 49.8057544,75.0319289 C52.4775485,75.2341273 55.04752,75.9187915 57.6216903,76.5886226 C60.3640779,77.3019121 63.1017418,78.0344586 65.8415052,78.7591981 C67.8451539,79.2895461 69.4168438,80.432735 70.3657887,82.2470561 C72.0744667,85.5144995 74.5431404,87.9775731 77.8578867,89.6178006 C79.2319672,90.2977807 79.3240799,91.6025721 79.335102,92.8537562 C79.3637068,96.060306 79.3025607,99.2676364 79.2744808,102.474707 C79.2723813,102.734416 79.2490251,102.994125 79.2359036,103.253834 C79.2595223,103.255135 79.2834034,103.256436 79.3075469,103.257738 Z M79.363289,39.1762778 C76.0076933,39.0583219 72.6420075,39.0166123 69.3456587,38.2751379 C66.9289571,37.7315847 66.2904367,36.6614811 66.7131848,34.1788301 C67.9490892,26.9208285 74.1061028,22.3423365 81.1973536,23.4076581 C87.0426098,24.2854194 91.0180982,28.2908693 91.9857102,34.277658 C92.3758596,36.6920328 91.7456182,37.7318504 89.3798844,38.2679649 C86.0845705,39.0150183 82.718626,39.0556653 79.363289,39.1762778 Z M35.9746978,24.8298592 C36.1759294,24.9125276 36.2710427,24.9279797 36.3328795,24.9807742 C38.4106998,26.7644557 39.1826113,26.513875 39.8945203,23.9050541 C40.2862405,22.4703313 40.1709516,21.0077949 40.2964593,19.5596803 C40.370611,18.7002889 40.5356837,17.883133 41.0012936,17.023484 C41.5193076,17.6333249 41.9542612,18.2099439 42.457078,18.7216642 C43.1202511,19.3964037 43.7097966,19.2820585 44.0294613,18.3938232 C44.3192556,17.5898016 44.5241554,16.7556485 44.7589256,15.9328269 C44.9811187,15.1558464 45.0872369,14.3332823 45.6725901,13.701036 C45.762725,13.7301373 45.8764418,13.731425 45.9086703,13.7826743 C47.6495326,16.5277308 47.9133869,16.6322897 51.076233,15.8061201 C53.202789,15.2506189 54.4387384,15.2204874 56.2322668,15.7716105 C55.9872779,15.8594297 55.8788015,15.8939392 55.7737314,15.9366899 C50.0546161,18.2593904 46.2665899,22.4780573 43.7289241,27.8844717 C41.1446187,33.3895217 39.489437,39.2100511 37.9270105,45.0478352 C37.1773706,47.8487766 38.0480638,49.212935 40.7183118,50.4792304 C42.7332473,51.4349396 44.8333393,51.4599204 46.9837392,51.4091862 C48.9022512,51.3638602 49.0733504,51.7081834 48.2571575,53.4143471 C47.7577469,54.4583905 47.2981635,55.5299901 46.9391958,56.6270856 C46.6383966,57.5454524 46.1062335,57.6742195 45.3599999,57.2665429 C44.3700876,56.7252061 43.39118,56.1557981 42.4541957,55.5302477 C40.9009399,54.4934152 39.3220061,53.5199361 37.6178266,52.723898 C34.6066903,51.317504 33.5824533,49.5423212 34.0126905,46.3285525 C34.6213634,41.781272 35.3872485,37.2548518 36.0043061,32.708859 C36.3572473,30.1113695 36.4526227,27.4932774 35.9746978,24.8298592 Z M103.249723,15.790138 C104.909084,15.1881978 106.410023,15.4028208 107.908335,15.7238381 C108.377822,15.8242051 108.833647,15.9848448 109.300506,16.0985767 C111.346859,16.5972672 112.127148,16.2495203 113.169897,14.4101566 C113.313344,14.1575357 113.334625,13.7990445 113.743422,13.701036 C114.548407,14.6229453 114.556551,15.8470039 114.915957,16.9429177 C115.189978,17.7786109 115.09277,19.0312336 116.146291,19.1929215 C117.075281,19.3357414 117.500367,18.2458549 118.018984,17.5571745 C118.117768,17.426147 118.233629,17.3082223 118.404662,17.1122052 C119.141601,18.2594818 119.166822,19.4667689 119.188366,20.6617395 C119.213062,22.0197082 119.277166,23.3695532 119.701202,24.6717043 C120.349866,26.663846 121.21265,26.8923579 122.803965,25.5136868 C122.995228,25.347806 123.197262,25.1934557 123.471283,24.970971 C122.683638,30.2995963 123.741363,35.3942065 124.488023,40.508995 C124.815376,42.7521853 125.207622,44.9864658 125.496618,47.2343731 C125.824234,49.7846919 124.954357,51.8811314 122.586956,53.0027266 C119.763204,54.3402551 117.289138,56.2218096 114.597799,57.7564033 C113.133904,58.5907863 112.85568,58.5064046 112.370955,56.9707626 C112.001303,55.799115 111.428566,54.7207588 110.93018,53.6070253 C110.453862,52.542034 110.690839,52.1434484 111.84472,52.0915616 C112.761625,52.0501569 113.682733,52.0975888 114.602003,52.1096434 C116.597912,52.1355868 118.381542,51.4437617 120.037225,50.4206992 C121.564174,49.4778255 122.111689,47.953714 121.675306,46.3255666 C119.70199,38.9607743 117.904173,31.5160554 113.923651,24.8763692 C111.592768,20.9882599 108.351024,18.0752571 104.173459,16.2361555 C103.904955,16.1182308 103.644596,15.9814381 103.249723,15.790138 Z M122.488211,121.774765 C122.550131,124.872633 121.901191,127.968926 122.469825,131.067055 C122.682623,132.227542 122.873519,133.392489 123.119035,134.546417 C123.280999,135.307306 123.096592,135.715037 122.254052,135.394152 C120.714713,134.808792 119.133193,134.600991 117.492727,134.686 C116.858929,134.718797 116.399264,134.488694 116.579344,133.768211 C117.976458,128.17148 116.752395,122.739782 115.455056,117.323565 C114.839375,114.751761 115.493993,112.302486 115.919319,109.805983 C116.337074,107.352772 116.593134,104.874111 116.950592,102.410405 C117.014404,101.968827 116.973575,101.326795 117.614133,101.274844 C118.203316,101.227354 118.39259,101.825046 118.590517,102.238287 C120.389432,105.994979 121.393125,109.968131 121.9139,114.063812 C122.239181,116.624072 122.490915,119.190892 122.488211,121.774765 Z M44.2786762,114.311648 C44.0989129,117.018793 43.3525741,119.53367 42.8247868,122.080635 C42.102791,125.56378 42.0006041,129.030753 42.7691458,132.502346 C43.0082952,133.580994 42.7097597,134.017382 41.534878,133.923174 C40.1435849,133.812023 38.7961625,134.033041 37.4907384,134.535657 C36.6419452,134.862691 36.1002477,134.804164 36.387013,133.663395 C37.2181508,130.356602 37.2301886,127.016181 37.0841309,123.618517 C36.7813153,116.571367 37.5966703,109.637935 40.448273,103.044885 C40.7529611,102.339477 40.9300494,101.135046 41.855349,101.284958 C42.7132373,101.423832 42.5928601,102.613374 42.6404759,103.385524 C42.8330795,106.506981 43.5208347,109.554508 44.0553096,112.625394 C44.1574964,113.212464 44.2131375,113.806979 44.2786762,114.311648 Z M40.9613361,77.3891405 C42.4102467,77.3909296 42.8207496,77.7799457 42.6477688,79.0901272 C42.4588486,80.517627 42.0405067,81.9057651 41.9973921,83.3662366 C41.9647296,84.4683636 41.0068023,84.5238278 40.1664603,84.5299621 C38.1147297,84.5450422 36.0791997,84.7001885 34.0797291,85.1577041 C30.8019771,85.9071096 28.2684086,87.7550636 26.2360142,90.3230296 C25.8100946,90.8608021 25.3969787,91.4095653 24.9519841,91.9317465 C24.7115878,92.2141793 24.4808595,92.6394899 24.0186191,92.4805096 C23.583554,92.3307307 23.617523,91.8532787 23.5830314,91.4980012 C23.3737298,89.3371985 22.6867711,87.4386366 20.7278021,86.1749734 C20.2587679,85.8726042 20.2642552,85.4516387 20.6768485,85.1132305 C21.2402121,84.650603 21.8364996,84.2227365 22.4408874,83.8119948 C27.8539862,80.1314225 33.9914096,78.3951636 40.4120827,77.425435 C40.626349,77.3929744 40.8461026,77.3960415 40.9613361,77.3891405 Z M118.696285,77.3933818 C125.180133,78.2733977 131.443576,80.0119219 136.998981,83.7048136 C137.179409,83.8251533 137.361942,83.9426765 137.544737,84.0596877 C139.578633,85.3591001 139.547334,85.3291432 137.934789,86.9294048 C136.795144,88.0605978 136.258067,89.493408 136.07948,91.064993 C136.020565,91.5829657 136.147338,92.3280475 135.535565,92.4906341 C134.905907,92.6580854 134.638157,91.9242695 134.284139,91.5227958 C133.600299,90.7467329 132.996154,89.9035871 132.300479,89.1390461 C129.401,85.9536293 125.587281,84.8349824 121.382984,84.5945591 C120.254123,84.5297805 119.004275,84.8639152 118.025859,84.2555597 C116.938029,83.5790971 117.607665,82.2691869 117.312036,81.2762566 C117.117931,80.624374 116.954073,79.9581531 116.853864,79.2870674 C116.627408,77.7736039 117.046654,77.3403811 118.696285,77.3933818 Z M152.386167,110.528744 C152.474549,109.135401 151.871827,108.132811 150.561527,107.569047 C150.083794,107.363387 149.599785,107.167496 149.105579,107.005797 C147.330359,106.424551 146.140603,105.455895 145.844079,103.446345 C145.562722,101.540138 144.327206,100.016201 143.039916,98.5979219 C141.466039,96.8642123 139.664148,95.3744663 137.741973,94.0369083 C137.122254,93.6055375 136.883518,93.144089 136.97896,92.435592 C137.187887,90.8864618 137.559457,89.4039138 138.691686,88.2229141 C139.248125,87.6426972 139.686374,87.5681457 140.218495,88.3612201 C143.148956,92.7304563 146.571792,96.7302766 149.938147,100.772771 C151.551246,102.710341 152.911229,104.787245 153.349477,107.322769 C153.653584,109.081672 152.351128,111.079911 152.386167,110.528744 Z M79.8032948,78.9862004 C81.582714,78.9796792 83.361115,78.9950694 85.1313711,79.2220097 C87.2900399,79.4990335 87.8270982,80.4480093 86.8252682,82.3665682 C85.9005607,84.1372247 84.7368496,85.7367629 83.2402133,87.0543211 C81.0336928,88.9966175 78.56577,89.0310498 76.3363418,87.1364892 C74.7485837,85.7871071 73.5431297,84.1093136 72.6028959,82.2463159 C71.6916785,80.4409663 72.2152467,79.5055547 74.2214521,79.2360957 C76.0739214,78.986983 77.9383536,78.9687234 79.8032948,78.9862004 Z M91.9144987,9.71177571 C93.2515453,10.7544556 93.9150341,9.9989478 94.5716337,9.03089571 C95.044343,8.33472096 95.5032737,7.05418134 96.3363444,7.38618286 C97.1869031,7.72477695 96.8011045,9.01401875 96.6948509,9.91008004 C96.0382514,15.4462515 93.6100518,20.0874165 89.5284297,23.8839423 C89.2078141,24.1821898 88.873155,24.4878211 88.4931857,24.6961461 C87.7573597,25.099611 87.2276815,24.6138709 86.7637162,24.1452715 C86.1895228,23.565917 86.7374841,23.2275866 87.1142736,22.8668415 C87.8127387,22.1978281 88.5127936,21.5301332 89.2003949,20.850308 C91.8938309,18.1858574 92.7377654,14.9842446 91.9812716,11.320625 C91.9102592,10.9772843 91.8501106,10.6310428 91.8085101,10.2834829 C91.7939367,10.1642893 91.8509055,10.0361299 91.9144987,9.71177571 Z M67.5885218,9.86358052 C67.8078459,10.8509125 67.4462644,11.6824462 67.3381184,12.523652 C66.9308022,15.6937274 67.8967884,18.3496164 69.9811253,20.6230679 C70.6747251,21.3798394 71.4203765,22.0856367 72.1407601,22.816529 C72.4897078,23.1707347 73.03726,23.4959242 72.4919819,24.08435 C72.0525757,24.5585412 71.5449465,25.0387448 70.8467985,24.6450668 C70.4470627,24.4199958 70.097357,24.0835658 69.7623066,23.7568078 C65.7788454,19.8707403 63.4976727,15.1066087 62.9395081,9.47277795 C62.8687584,8.75966129 62.666111,7.70880757 63.3324216,7.45419774 C64.0636704,7.1750157 64.4515304,8.19005675 64.8237244,8.77743693 C65.4996367,9.84475926 66.1047994,10.9322099 67.5885218,9.86358052 Z" id="Shape" fill="#0C0D0C"></path>
                    <g id="Group-37" transform="translate(45.561365, 8.848651)">
                        <g id="Group-6" transform="translate(7.669988, 33.996170)">
                            <path d="M7.16117183,2.80421929 C9.91802844,0.832430883 13.145069,0.911669219 16.3037717,1.29775037 C22.984523,2.11388173 29.6503554,2.19899828 36.3149846,1.2700052 C41.2762197,0.578962256 45.4611939,1.88157468 48.9293422,5.49338504 C54.7597197,11.5648756 57.504545,18.6638782 56.7629345,27.0078867 C56.6159117,28.6634271 55.7070658,29.5557401 54.1213379,29.9060817 C48.8114352,31.0784329 43.4733793,32.1101772 38.0912887,32.9133765 C34.2063755,33.4932036 30.2990841,33.8428398 26.3646019,33.8590637 C22.7155794,33.8519254 6.95464795,25.1185218 2.03022536,18.1432744 C-2.93986644,11.1033384 2.96232044,5.80732416 7.16117183,2.80421929 Z" id="Fill-7" fill="#C4C3C6"></path>
                            <path d="M7.1579532,2.24257785 C9.91645279,0.248193031 13.1454166,0.328339428 16.3060017,0.718845018 C22.9907344,1.54432912 29.6605394,1.6304211 36.3291405,0.690781888 C41.2933323,-0.0081803101 45.4808006,1.30935987 48.9510157,4.96256106 C54.784868,11.1036301 57.5313291,18.2839862 56.7892765,26.7236159 C56.6421662,28.3981286 55.7327787,29.3006674 54.1461057,29.6550238 C53.0802122,29.8929131 52.0131849,30.1250785 50.9448955,30.3508018 C51.0417508,22.8916863 35.8938032,11.0796981 30.9296115,11.7786603 C24.2610104,12.7182995 17.0299545,7.45814596 10.3452218,6.63266186 C7.18463659,6.24215627 3.95567282,6.16200987 1.19717323,8.15639469 C1.04523367,8.26624486 0.894877603,8.37681713 0.746101596,8.48810972 C2.43360855,6.20183176 4.56523891,4.11707405 7.1579532,2.24257785 Z" id="Path" fill="#FFFFFF"></path>
                        </g>
                        <g id="Group-5" transform="translate(36.136316, 65.206515)">
                            <path d="M0.98263317,34.891405 C0.765397758,30.0555495 0.522565265,24.0506103 0.53411793,18.0344509 C0.537968819,15.9343442 1.07097708,14.4493907 2.963802,13.4622674 C5.06751969,12.3648946 6.68647849,10.5630957 7.75385415,8.27956503 C8.91546331,5.79504855 10.7206239,4.32033947 13.2585859,3.68786831 C16.9613284,2.7651385 20.5852409,1.48678087 24.3348736,0.764549047 C25.037774,0.629176315 25.7549453,0.536732594 26.4682658,0.512341111 C29.0542506,0.423556112 30.4688858,1.58751769 31.1224042,4.30131411 C31.3885686,5.4062483 31.5514385,6.5392327 31.5392063,7.67416841 C31.4495032,15.7962884 31.3570819,23.9169449 30.0174258,31.9517434 C28.160618,43.0859677 22.6572454,51.3185811 13.2832769,56.4932343 C11.3397108,57.5659717 9.40633832,58.6679789 7.35472089,59.4946063 C6.86135413,59.6936408 6.36255081,59.8875531 5.85264788,60.0258528 C3.7847208,60.5873447 2.7843959,59.9260916 2.31413447,57.6957344 C1.7661757,55.0968218 1.95305705,52.4366867 1.78271187,49.806797 C1.48596694,45.2285156 1.28504117,40.6426728 0.98263317,34.891405" id="Fill-9" fill="#C4C3C6"></path>
                            <path d="M24.4027944,5.86540069 C26.5439368,5.79228363 27.7152258,6.75084022 28.2563256,8.9857314 C28.4767043,9.8956772 28.6115572,10.8287232 28.6014292,11.7633761 C28.5271569,18.4521808 28.4506339,25.1397803 27.3414261,31.7566732 C25.8040273,40.9260343 21.2473476,47.7058336 13.4858938,51.9673127 C11.8766609,52.8507435 10.2758681,53.7582789 8.57717092,54.4390308 C8.16867335,54.6029416 7.75567443,54.7626341 7.33348525,54.8765279 C5.62128401,55.3389331 4.79303549,54.7943717 4.40366867,52.9576069 C4.07263009,51.3959633 4.06550924,49.8074779 4.0310676,48.221411 C5.21626229,47.6554091 6.36652296,47.0091492 7.52112847,46.3752981 C15.2825823,42.113819 19.839262,35.3340197 21.3766608,26.1646586 C22.4858686,19.5477657 22.5623916,12.8601662 22.6366639,6.1713615 C22.6370194,6.13855426 22.6371963,6.105749 22.6371971,6.07294665 C23.420701,5.94796788 24.0092334,5.8787859 24.4027944,5.86540069 Z" id="Path" fill="#FFFFFF"></path>
                        </g>
                        <path d="M30.5699828,120.755372 C30.5179664,121.772219 30.3912774,122.77882 30.0213825,123.731016 C29.6112615,124.787874 28.8867298,125.356801 27.776814,125.237014 C27.2443965,125.179438 26.6870111,125.134305 26.1952821,124.934985 C20.8133113,122.753204 21.439597,109.762293 15.2304855,97.1419958 C9.02137392,84.5216985 0.551162309,80.8689979 0.477645698,72.6627373 C0.467935957,71.568309 0.624447736,70.4772962 0.889616141,69.4111679 C1.61692199,66.4838283 3.17024938,65.3423147 6.04826287,65.5743257 C8.40195035,65.7638867 10.6659383,66.4057594 12.9336252,67.0337261 C15.3495013,67.702435 17.761216,68.3891973 20.1747802,69.0686406 C21.9398725,69.5658419 23.3244353,70.6375814 24.1603978,72.3385075 C25.6656388,75.4017357 27.8403897,77.7108672 30.7604787,79.2485804 C31.9709598,79.8860617 32.0521054,81.1093037 32.0618152,82.2822889 C32.0870143,85.2884292 32.0331483,88.2953015 32.0084116,91.3019297 C32.0065621,91.5454071 31.9859867,91.7888845 31.9744275,92.0323618 C31.9952341,92.0335817 32.0162719,92.0348015 32.0375408,92.0360213 C31.5490484,101.609219 31.061943,111.182418 30.5699828,120.755372 Z" id="Fill-11" fill="#C4C3C6"></path>
                        <g id="Group-2" transform="translate(23.673351, 16.397453)">
                            <path d="M10.6307281,13.1561421 C7.90339709,13.0619457 5.16786513,13.0286375 2.4886882,12.4365153 C0.524463126,12.0024479 0.00549219266,11.147891 0.349089642,9.16531051 C1.353597,3.36925928 6.3578394,-0.287005249 12.1214027,0.563732871 C16.8722578,1.26469016 20.1034196,4.4633382 20.8898667,9.24423185 C21.2069688,11.1722887 20.6947269,12.00266 18.7719269,12.4307871 C16.0935911,13.0273646 13.3578489,13.0598241 10.6307281,13.1561421" id="Fill-13" fill="#C4C3C6"></path>
                            <path d="M6.30760369,1.0425895 C7.97929769,0.334115714 9.87729353,0.0800189213 11.8664022,0.381813267 C16.5821709,1.09700096 19.7894696,4.36058596 20.5701086,9.23853833 C20.8848688,11.2057374 20.3764099,12.0529664 18.4678104,12.489785 C17.4500597,12.7228038 16.4239582,12.8714718 15.3931828,12.9717355 C16.5157082,12.4701321 16.7981359,11.6119318 16.5440255,10.0237844 C15.7633866,5.145832 12.5560878,1.882247 7.84031912,1.16705931 C7.32244258,1.08848532 6.81074215,1.04759257 6.30760369,1.0425895 Z" id="Combined-Shape" fill="#FFFFFF"></path>
                        </g>
                        <path d="M46.8690504,2.57511041 C48.0016047,3.48118253 48.5636173,2.82465835 49.1197943,1.98343661 C49.5202059,1.37847192 49.9089463,0.265703537 50.6146043,0.554207532 C51.3350758,0.848440359 51.0082825,1.9687708 50.9182797,2.74743369 C50.3621026,7.5582779 48.30528,11.5913758 44.8479147,14.8904958 C44.5763351,15.1496681 44.2928599,15.4152568 43.9710044,15.5962879 C43.347718,15.9468925 42.8990506,15.5247921 42.5060457,15.1175867 C42.0196714,14.6141369 42.4838256,14.3201332 42.8029877,14.0066515 C43.3946272,13.4252896 43.9876134,12.8450735 44.5700506,12.2543163 C46.8515436,9.93895145 47.566404,7.15680133 46.9256108,3.97317465 C46.8654593,3.67481706 46.8145101,3.37393879 46.779272,3.07191475 C46.7669275,2.96833746 46.8151834,2.85696896 46.8690504,2.57511041" id="Fill-32" fill="#C4C3C6"></path>
                    </g>
                </g>
                <g id="Group-7" transform="translate(205.082261, 214.729453) rotate(-30.000000) translate(-205.082261, -214.729453) translate(117.082261, 98.229453)">
                    <path d="M21.861703,72.7822448 C24.619043,72.7822448 40.0948254,70.7407244 47.6919597,68.1888239 C45.1595816,94.7285895 25.913508,191.70081 34.0171179,213.647154 C39.2179841,228.294967 50.5196935,233.764858 62.3797526,232.531218 C80.044923,230.693753 109.737683,229.647557 135.312242,226.406657 C147.614048,224.847728 160.129547,224.847728 167.726682,220.282096 C180.466977,212.62559 175.685057,190.969087 167.726682,176.389407 C164.825038,171.073619 162.713414,172.306366 155.571267,172.306366 C155.571267,158.015723 160.244733,136.942977 162.713414,115.971555 C166.069719,87.4597688 167.726682,52.3982061 167.726682,41.6490583 C167.726682,22.9935343 159.51842,0.308269594 149.493559,0.308269594 C116.572644,0.308269594 37.7605638,5.41207067 25.4070324,5.41207067 C9.32320361,5.41207067 0.0832513663,20.9162106 0.0832513663,39.0971578 C0.0832513663,57.2781049 5.77787427,72.7822448 21.861703,72.7822448 Z" id="Oval" fill="#000000"></path>
                    <path d="M40.585476,12.0145588 L146.639338,8.47829441 C154.719632,14.6527243 158.75978,31.9972593 158.75978,60.5118993 C158.75978,76.3403741 94.4983799,118.507072 92.0085509,139.593541 C91.3054163,145.548418 146.615231,114.594086 149.129328,126.903166 C150.624451,134.223322 149.794454,149.13948 146.639338,171.651638 C91.7922771,174.419562 61.8278526,176.209156 56.7460645,177.02042 C51.6642765,177.831684 47.1038074,181.553697 43.0646572,188.186457 C48.0230196,150.596686 52.5834887,118.984081 56.7460645,93.3486402 C59.1678006,78.434252 59.8156469,51.206846 56.7460645,35.7580484 C54.6996763,25.45885 49.3128135,17.5443535 40.585476,12.0145588 Z" id="Rectangle" fill="#C4C3C6"></path>
                    <path d="M70.3708733,52.3768085 C101.537766,51.2349848 122.31532,51.2245575 132.703534,52.3455264 C148.285855,54.0269799 149.106513,54.797019 130.240784,56.8514919 C111.375055,58.9059649 100.509881,58.0852139 84.3114552,56.8745419 C73.5125047,56.0674272 68.8656441,54.5681827 70.3708733,52.3768085 Z" id="Rectangle" fill="#000000" transform="translate(107.246092, 54.808867) rotate(-6.000000) translate(-107.246092, -54.808867) "></path>
                    <path d="M62.7031269,35.3579613 C53.6374347,23.605457 46.2080103,15.844698 40.4148538,12.0756843 L146.011771,8.46029806 C150.923497,12.3140972 154.335931,20.4241912 156.249072,32.7905802 C99.9289034,42.3371705 68.7469217,43.1929642 62.7031269,35.3579613 Z" id="Path" fill="#FFFFFF"></path>
                    <g id="Group-3" transform="translate(13.076160, 22.753214)">
                        <path d="M24.098572,-2.27219522e-13 C26.2468789,1.99765067 34.4537704,7.22772571 34.4537704,19.8217058 C34.4537704,26.1537338 32.9608241,34.7349921 31.6944857,40.4057848 C16.7516931,43.2299779 5.36797769,45.7367614 4.10163933,43.6751221 C9.04668855,42.4367232 12.7257347,39.5680731 15.1387779,35.0691717 C17.0472602,31.5109785 19.7442836,24.0707439 19.2777049,16.0098393 C18.6774091,5.6387581 12.5619621,2.71208155 11.3309077,1.49639519 L24.098572,-2.27219522e-13 Z" id="Path" fill="#FFFFFF"></path>
                        <path d="M31.7634389,40.4546018 C16.7833049,43.2445487 5.37114221,45.7209349 4.10163933,43.6842951 C9.05904598,42.460913 12.7472859,39.6270482 15.1663592,35.1827005 C16.2220661,33.2431442 18.4298552,28.1789845 23.913238,24.638898 C27.5688266,22.2788404 31.0823374,21.6427733 34.4537704,22.7306968 C34.1342469,28.5864818 32.8635463,35.600077 31.7634389,40.4546018 Z" id="Path" fill="#C4C3C6"></path>
                        <path d="M7.46087802,6.58245824 C10.1433528,9.5057237 11.4845901,13.3796688 11.4845901,18.2042935 C11.4845901,19.3483487 11.4458548,20.4601198 11.3708159,21.5358393 L0.156593242,23.0386038 C0.0406709135,22.5383166 -0.128552129,19.7695393 0.156593242,17.553222 C0.396787234,15.6862932 1.28068717,11.8750412 3.37782063,9.42886996 C5.07804137,7.44567184 7.23309839,6.58714274 7.46087802,6.58245824 Z" id="Path" fill="#C4C3C6"></path>
                        <g id="Group-4" transform="translate(94.847463, 175.931952) rotate(-356.000000) translate(-94.847463, -175.931952) translate(35.847463, 151.931952)">
                            <path d="M106.022812,0.230634744 C107.843709,0.102920386 110.935848,3.79226473 113.473634,10.0853916 C117.516903,20.1117719 112.343265,25.2258347 106.470244,28.524032 C91.5274512,31.3482251 43.821783,39.3175906 42.5554447,37.2559512 C23.5845155,43.7452885 15.3055725,44.7405064 17.7186156,40.241605 C19.627098,36.6834118 18.8667326,34.7692429 18.4001538,26.7083382 C17.7998581,16.337257 11.684411,13.4105805 10.4533566,12.1948941 L106.022812,0.230634744 Z" id="Path-Copy-6" fill="#FFFFFF"></path>
                            <path d="M116.899873,28.7539354 C114.656075,38.8416237 61.9542301,41.1839397 47.9622137,43.5194087 C33.9701972,45.8548777 11.8697349,50.3255471 14.2888081,45.8811995 C15.3445151,43.9416432 17.5523042,38.8774834 23.035687,35.337397 C26.5668747,33.0576528 58.3089611,20.8983429 83.5055088,16.6566539 C100.303207,13.8288612 109.348717,9.8951598 110.642037,4.85554976 C119.182437,14.1543396 116.687702,25.7105771 116.899873,28.7539354 Z" id="Path-Copy-5" fill="#C4C3C6"></path>
                            <path d="M5.87829503,19.2131763 C7.98595376,21.8441152 9.03978312,25.3306658 9.03978312,29.6728281 C9.03978312,30.7024778 9.00934819,31.7030717 8.95038911,32.6712193 L0.13921414,34.0237074 C0.0481323107,33.5734488 -0.0848286513,31.0815493 0.13921414,29.0868637 C0.327937991,27.4066278 1.0224308,23.976501 2.67017851,21.7749469 C4.00606624,19.9900686 5.69932533,19.2173924 5.87829503,19.2131763 Z" id="Path-Copy-2" fill="#C4C3C6"></path>
                        </g>
                    </g>
                    <path d="M70.3708733,52.3768085 C101.537766,51.2349848 122.31532,51.2245575 132.703534,52.3455264 C148.285855,54.0269799 149.106513,54.797019 130.240784,56.8514919 C111.375055,58.9059649 100.509881,58.0852139 84.3114552,56.8745419 C73.5125047,56.0674272 68.8656441,54.5681827 70.3708733,52.3768085 Z" id="Rectangle-Copy" fill="#000000" transform="translate(107.246092, 54.808867) rotate(-6.000000) translate(-107.246092, -54.808867) "></path>
                    <path d="M70.1135474,91.077428 C96.2593111,89.9381242 113.689445,89.9293768 122.40395,91.0511858 C135.475706,92.7338992 136.164088,93.5040046 120.337605,95.5569523 C104.511122,97.6099 95.3964746,96.7882705 81.8078347,95.5762887 C72.7487414,94.7683009 68.8506456,93.2686806 70.1135474,91.077428 Z" id="Rectangle-Copy-4" fill="#000000" transform="translate(101.047778, 93.512626) rotate(-6.000000) translate(-101.047778, -93.512626) "></path>
                    <path d="M70.0918338,72.9509034 C86.6051549,71.8164337 97.6136606,71.810909 103.117351,72.9343293 C111.372886,74.6194598 111.807512,75.3896926 101.811462,77.4397142 C91.8154122,79.4897358 86.058945,78.666421 77.4768704,77.4519267 C71.7554873,76.6422638 69.2938084,75.1419227 70.0918338,72.9509034 Z" id="Rectangle-Copy-2" fill="#000000" transform="translate(89.628981, 75.392119) rotate(-6.000000) translate(-89.628981, -75.392119) "></path>
                    <path d="M42.3549617,165.057538 L42.3549617,152.780821 C45.1507603,152.418683 47.1740035,152.332602 48.4246912,152.52258 C50.9583154,152.907433 53.754567,152.407277 52.3419611,153.203933 C51.6277945,153.606696 48.390969,154.971244 46.4433768,155.667179 C45.8928077,155.863914 45.3696192,156.040483 44.8700497,156.198736 C48.0491954,156.206245 51.413978,156.376697 55.3782436,156.789246 C65.5576562,157.848585 64.9586879,158.294414 55.9370193,159.353159 C54.1300007,159.565223 51.8169581,159.724627 48.9978915,159.831371 C49.9943751,160.161597 51.0297299,160.567048 52.1243763,161.062466 C54.2998131,162.047031 57.6776009,163.974802 58.3066142,164.542686 C59.5507887,165.665949 55.8569139,164.951867 51.5519255,165.47955 C49.3841856,165.74526 46.318531,165.60459 42.3549617,165.057538 Z" id="Combined-Shape" fill="#000000" transform="translate(52.606503, 159.017188) scale(1, -1) rotate(5.000000) translate(-52.606503, -159.017188) "></path>
                    <path d="M132.854422,21.3375909 L132.854422,7.49470815 C135.918191,7.10018252 138.140169,7.00843351 139.520358,7.21946111 C142.352055,7.65242115 145.477278,7.08974544 143.898483,7.98598376 C143.100297,8.43909209 139.482668,9.97420833 137.305948,10.7571351 C136.690606,10.9784624 136.105866,11.1771018 135.547523,11.3551373 C139.100686,11.3635843 142.861325,11.5553428 147.291975,12.01946 C158.668966,13.2112166 157.999531,13.7127744 147.916489,14.9038629 C145.89688,15.1424351 143.311715,15.3217644 140.160993,15.4418509 C141.27471,15.8133552 142.431872,16.2694875 143.6553,16.8268327 C146.08667,17.9344683 149.861845,20.1032113 150.56486,20.7420809 C151.955408,22.0057509 147.82696,21.2024095 143.015502,21.7960526 C140.614267,22.0923196 137.227241,21.9394991 132.854422,21.3375909 Z" id="Combined-Shape-Copy" fill="#000000" transform="translate(144.253088, 14.525895) scale(-1, -1) rotate(-7.000000) translate(-144.253088, -14.525895) "></path>
                </g>
                <g id="Group" transform="translate(260.366293, 119.699418) rotate(-3.000000) translate(-260.366293, -119.699418) translate(198.866293, 3.699418)">
                    <path d="M65.7060565,117.81304 C63.8695898,119.153514 62.0255479,120.483887 60.1840311,121.817507 C59.9686764,121.984164 59.7533217,122.150822 59.5379671,122.31784 C59.3857398,122.318922 59.1382804,122.375917 59.0996825,122.310625 C58.9788385,122.103566 59.1992434,122.093105 59.3334342,122.048374 C59.4777255,121.867288 59.6223774,121.68584 59.7666687,121.504393 C62.5150559,118.261427 65.2850868,115.036859 68.0049765,111.770086 C70.0355148,109.331188 72.4971232,107.205404 74.0605187,104.433913 C76.3821646,100.318341 78.4314608,96.0490982 80.6030438,91.8487545 C82.8864526,87.4305298 80.1391854,93.0715233 82.5531777,88.4119699 C78.3683713,89.6633434 74.8844595,91.8284467 71.0697601,93.1552127 C75.2653883,90.0298454 79.4646239,86.9585875 84.2893619,84.9139682 C84.6609118,84.7566898 84.8156642,84.4536763 84.9801562,84.13443 C88.3901187,77.5164718 87.717038,76.5117844 91.5663673,70.1625703 C93.0240694,67.7583028 94.4244158,65.3194052 96.0321809,62.5875946 C92.5038995,63.7545572 89.7482978,65.4283458 87.0031571,67.1230568 C86.7834737,67.402262 86.5140098,67.5927276 86.1446243,67.6049924 C85.9436987,67.7835539 85.7431339,67.961394 85.5429298,68.1395948 L85.1591152,68.4292612 C85.0068879,68.4566767 84.7421135,68.5414483 84.721552,68.501768 C84.6003474,68.2647682 84.8225559,68.2701791 84.96829,68.2312203 C84.9650435,68.0050424 85.0772299,67.8755402 85.2990777,67.8394671 C85.3466938,67.530682 85.5818885,67.4127232 85.8340374,67.3120794 C86.1146838,67.0981664 86.3946088,66.8842533 86.6745338,66.670701 C88.6722459,64.6654012 90.9953347,63.0637586 93.5262029,61.8830883 C96.3204026,60.5801305 98.9548109,58.8403738 100.165775,55.8311616 C101.488565,52.5434656 102.805211,49.5381758 104.413698,46.3651921 C103.822344,46.2670734 103.390793,46.297014 103.119045,46.4550139 C100.066924,48.2283641 97.0169685,50.0046001 93.973145,51.791658 C93.2412277,52.2216486 93.2534925,52.2418495 92.3570832,52.1725892 C96.569305,48.5313775 101.010467,44.5457435 105.833402,41.7049924 C106.366558,41.391157 107.559922,39.1982644 107.722611,38.7004566 C108.690444,35.7421073 108.55666,34.9033473 109.318878,31.8923315 C110.604152,26.8150524 111.570182,21.675367 110.216009,16.4271018 C109.367576,13.1379629 107.343892,11.7841421 103.942948,12.2556166 C102.278188,12.486484 100.688459,12.9749128 99.1463463,13.6682364 C93.3505283,16.27307 88.3782525,20.1271126 83.3345525,23.8960228 C79.953809,26.4222171 77.1080252,29.2517856 76.0153799,33.5091247 C75.8465591,34.1660146 75.6221863,35.0530504 74.631627,35.4808766 C75.10382,33.5361795 76.0597494,31.9446374 76.3418388,29.928155 C75.9251978,30.2228716 75.6726882,30.3758213 75.4493975,30.5630403 C67.0195431,37.6246968 70.3108363,35.0294709 64.2708054,44.2190755 C61.8860321,47.8476616 59.1282178,53.9957737 58.9828444,58.3487063 C58.8847264,61.3059733 56.9093986,66.7185249 56.5064654,69.6656915 C56.4620958,69.6570339 49.9375879,87.5956669 49.8928576,87.5870093 L53.6945708,58.6895964 C52.3295758,61.0303754 51.083621,63.1089034 49.8928576,65.218815 C43.1714113,77.1265223 42.1137188,79.2982257 36.4275621,91.7279099 C32.6215202,100.047072 32.8986164,96.299527 31.8268933,105.613223 C31.4153025,109.191307 30.7338872,112.779491 29.6275342,116.581949 C29.4561883,113.488687 29.3039611,110.738479 29.1495695,107.951837 C24.9640416,114.168663 26.4192187,121.300662 25.2933863,128.000506 C24.9348226,125.813759 24.5758982,123.626651 24.216613,121.439904 C22.4432738,125.560887 21.1659357,129.725158 20.2013488,133.987908 C18.7295782,140.492236 18.0579026,147.014601 19.630677,153.605143 C19.6451061,153.750157 19.724827,153.968759 19.6609781,154.026116 C19.5055043,154.164636 19.3893499,154.02323 19.3265832,153.860901 C15.1370873,152.216692 13.513811,148.811398 13.0856267,144.580393 C12.6635749,148.937654 13.8276444,152.57093 17.5438651,155.11516 C19.1916709,156.242803 20.6302545,157.605282 21.7798949,159.245883 C22.9345854,160.894421 23.4002854,162.594543 22.7001122,164.653952 C21.087297,169.401163 19.5805358,174.186611 18.1477239,178.991539 C16.0609119,185.988624 13.8601099,192.964066 12.4063758,200.125645 C11.8609549,202.814168 11.5842765,205.655641 13.4867564,208.262999 C13.6454767,207.925356 13.7533344,207.772045 13.7912109,207.603223 C16.7217658,194.584827 20.0970984,181.685833 24.1401387,168.9654 C27.1139809,159.60986 28.8996039,150.951003 31.8268933,141.011276 C33.3310183,135.903959 36.5574013,124.467036 45.2719212,107.071154 C57.2961463,83.068453 71.3284776,63.9478437 73.7168501,61.1891365 C74.2909341,60.5260365 78.0567669,58.3758863 78.1234369,58.3487063 C76.867021,60.4254307 75.5925687,62.4924153 74.357075,64.5817652 C71.251567,69.8347199 41.395927,125.744138 34.1961553,146.220272 C32.2767212,151.678122 30.3897526,157.143908 28.7441111,162.727291 C31.9816456,162.159141 34.3869804,164.800769 37.4069959,164.679924 C35.9290929,163.434323 33.9923439,162.987739 32.653682,161.497562 C37.8009109,162.111525 56.0393888,150.483743 54.4874703,150.483743 C52.9355519,150.483743 38.7831735,160.480663 34.4057383,159.369614 C42.3435596,153.051783 47.9950864,144.976474 53.5582348,136.49823 C51.3264102,136.7107 49.6627323,138.016905 47.3778807,137.879106 C49.9257031,136.435102 52.1842215,135.111222 54.4874703,133.871392 C55.3723363,133.395228 55.989542,132.743388 56.5064654,131.911544 C61.634215,123.660199 61.9414982,127.114471 66.5819042,118.584281 C66.7590217,118.258542 67.2391508,117.860295 66.7817476,117.478282 C66.3611386,117.12657 66.0375656,117.57099 65.7060565,117.81304 Z M77.8405166,122.341396 C77.5452297,123.088076 77.2160759,123.722329 76.8523644,124.316355 C76.766865,124.455995 76.6892667,124.578146 76.6134221,124.693454 C74.3035915,128.873972 72.4911977,131.283828 70.0635436,133.620782 C69.9651609,133.715489 69.8673157,133.808882 69.7521714,133.918202 C69.1298769,134.509024 68.7121466,134.92135 68.3136501,135.400073 L63.4452359,142.819542 C64.0774129,143.553622 64.633715,144.385513 65.0922044,145.314599 C66.399839,147.9644 66.5731188,150.664192 66.0271213,153.114899 C65.7284728,154.455381 65.259992,155.548803 64.6834763,156.537156 C63.815371,158.025396 63.0261383,158.857107 61.9460319,159.806816 C61.1632111,160.49513 60.2338786,161.189397 59.0930655,161.973511 C57.9962508,162.727383 56.7002712,163.562748 55.3070773,164.414972 L68.1096158,175.205169 L37.8754052,176.414978 C36.5044737,176.469836 35.3170108,176.393577 34.1730459,176.192067 C30.8882262,186.898107 27.9456494,198.139646 25.2358657,210.177299 C25.1454494,210.560683 25.1454494,210.560683 25.0454657,210.918172 C24.6476354,212.289559 23.571369,214.38861 24.0998322,213.264418 L15.6794479,231.176982 L4.01524684,215.191133 C1.78071641,212.128698 0.594348617,208.692622 0.330126959,205.083271 C0.148085149,202.596522 0.382356745,200.394924 0.911528027,197.786499 C2.05834524,192.136896 3.25119119,187.808407 6.08244339,178.386181 C6.17137539,178.090223 6.17137539,178.090223 6.26007065,177.794993 C6.53133777,176.891961 6.72066862,176.260175 6.90813327,175.631606 C8.06788052,171.742399 9.22555283,168.031149 10.4026392,164.443819 C3.48256764,159.443215 0.591379534,151.903779 1.41054546,143.446714 L7.03702936,143.434594 C7.20755283,139.602316 7.80183084,135.633656 8.76142879,131.392819 C9.93086257,126.224799 11.4513457,121.42362 13.4440945,116.792761 L14.7392964,113.7829 C14.815695,113.300008 14.9024314,112.812158 15.0021061,112.300699 C15.7730788,108.344619 17.1653862,104.74079 19.4232076,101.387215 L20.7965379,99.3473874 C20.8280145,99.1437032 20.8596776,98.9477052 20.892236,98.7543095 C21.2418343,96.6777107 21.701779,95.0357491 22.4748894,93.3193278 C22.7039648,92.8107463 24.7711761,89.0054219 25.7631518,86.8371835 C31.7797924,73.6850764 32.9946298,71.2859484 39.6806224,59.4410507 C39.8155784,59.2019225 39.9532311,58.9595444 40.0944241,58.712363 C40.865346,57.3627377 43.7586004,52.4357505 43.5648948,52.767929 L72.9296514,2.41140604 L70.6827412,19.4905199 C72.290156,17.7316587 74.1691929,16.0901357 76.3187707,14.4839058 C76.5874751,14.2831162 76.8339223,14.0986258 77.2721325,13.7703448 C77.3929869,13.6798065 77.3929869,13.6798065 77.5142463,13.5889675 C85.0421199,7.94978619 88.8422134,5.42590446 94.3414078,2.95438353 C96.9190786,1.79547972 99.5753783,1.00476655 102.334196,0.622176304 C111.61542,-0.664484168 119.230071,4.40657348 121.572998,13.489456 C123.352718,20.3869807 122.808459,26.4059998 120.689201,34.7778044 C120.497374,35.5355874 120.438951,35.8165331 120.202229,37.080267 L122.114004,37.3974727 L119.559008,42.4375886 L121.976656,41.637963 L111.057363,60.1913203 C111.053474,60.200983 111.049583,60.2106513 111.04569,60.2203253 C110.195443,62.3331664 109.105707,64.1513259 107.791735,65.740066 L106.137995,68.5499942 C106.070275,68.6650584 105.801955,69.1235268 105.437552,69.7459963 L97.6414018,84.7943375 C96.9781644,86.3724466 96.3894754,87.6074707 95.4045621,89.5189624 C95.3935492,89.5403404 95.3935492,89.5403404 95.3777046,89.5710428 C95.2320916,89.8529188 95.112121,90.075588 94.9348019,90.3758263 C94.6882251,90.7933322 94.4176958,91.2048762 94.1043676,91.6216167 L92.9655674,93.8197597 C92.2561552,95.1890864 91.8963257,95.8625412 91.5764206,96.3906509 C91.4444091,96.6069074 91.4444091,96.6069074 91.22031,96.9470183 C91.1457191,97.0582919 91.090044,97.1413473 91.0343487,97.2199619 C91.02959,97.2291665 91.0248078,97.2384183 91.0200019,97.2477172 C90.4817106,98.288897 90.0493844,99.1394242 89.0758633,101.065612 L89.0738813,101.069533 C86.7847401,105.598779 85.726237,107.635095 84.2739249,110.209602 C82.7977649,112.826448 81.4976259,114.405589 78.7093527,117.408973 C78.7701027,119.139977 78.446689,120.80859 77.8405166,122.341396 Z M22.9482931,142.84282 C20.172146,141.983391 17.2221174,142.231794 14.6686304,143.418155 L22.7525674,143.400741 C22.8171424,143.216496 22.8823787,143.03054 22.9482931,142.84282 Z M83.7221594,68.668875 C83.7480075,68.6542667 83.7578875,68.648683 83.7588946,68.6480957 C83.7835085,68.6413482 83.7965806,68.6373415 83.6769781,68.6945861 C83.6929622,68.6854673 83.7080527,68.67688 83.7221594,68.668875 Z M47.2613258,57.9045533 C47.2607092,57.9217841 47.2601135,57.9390044 47.2595387,57.9562142 C47.260711,57.9208789 47.2617614,57.8937625 47.2624986,57.8741933 L47.2613258,57.9045533 Z" id="Fill-1-Copy" fill="#000000" fill-rule="nonzero"></path>
                    <path d="M65.7060565,117.81304 C66.0375656,117.57099 66.3611386,117.12657 66.7817476,117.478282 C67.2391508,117.860295 66.7590217,118.258542 66.5819042,118.584281 C61.9414982,127.114471 61.634215,123.660199 56.5064654,131.911544 C55.989542,132.743388 55.3723363,133.395228 54.4874703,133.871392 C52.1842215,135.111222 49.9257031,136.435102 47.3778807,137.879106 C49.6627323,138.016905 51.3264102,136.7107 53.5582348,136.49823 C47.9950864,144.976474 42.3435596,153.051783 34.4057383,159.369614 C38.7831735,160.480663 52.9355519,150.483743 54.4874703,150.483743 C56.0393888,150.483743 37.8009109,162.111525 32.653682,161.497562 C33.9923439,162.987739 35.9290929,163.434323 37.4069959,164.679924 C34.3869804,164.800769 31.9816456,162.159141 28.7441111,162.727291 C30.3897526,157.143908 32.2767212,151.678122 34.1961553,146.220272 C41.395927,125.744138 71.251567,69.8347199 74.357075,64.5817652 C75.5925687,62.4924153 76.867021,60.4254307 78.1234369,58.3487063 C78.0567669,58.3758863 74.2909341,60.5260365 73.7168501,61.1891365 C71.3284776,63.9478437 57.2961463,83.068453 45.2719212,107.071154 C36.5574013,124.467036 33.3310183,135.903959 31.8268933,141.011276 C28.8996039,150.951003 27.1139809,159.60986 24.1401387,168.9654 C20.0970984,181.685833 16.7217658,194.584827 13.7912109,207.603223 C13.7533344,207.772045 13.6454767,207.925356 13.4867564,208.262999 C11.5842765,205.655641 11.8609549,202.814168 12.4063758,200.125645 C13.8601099,192.964066 16.0609119,185.988624 18.1477239,178.991539 C19.5805358,174.186611 21.087297,169.401163 22.7001122,164.653952 C23.4002854,162.594543 22.9345854,160.894421 21.7798949,159.245883 C20.6302545,157.605282 19.1916709,156.242803 17.5438651,155.11516 C13.8276444,152.57093 12.6635749,148.937654 13.0856267,144.580393 C13.513811,148.811398 15.1370873,152.216692 19.3265832,153.860901 C19.3893499,154.02323 19.5055043,154.164636 19.6609781,154.026116 C19.724827,153.968759 19.6451061,153.750157 19.630677,153.605143 C18.0579026,147.014601 18.7295782,140.492236 20.2013488,133.987908 C21.1659357,129.725158 22.4432738,125.560887 24.216613,121.439904 C24.5758982,123.626651 24.9348226,125.813759 25.2933863,128.000506 C26.4192187,121.300662 24.9640416,114.168663 29.1495695,107.951837 C29.3039611,110.738479 29.4561883,113.488687 29.6275342,116.581949 C30.7338872,112.779491 31.4153025,109.191307 31.8268933,105.613223 C32.8986164,96.299527 32.6215202,100.047072 36.4275621,91.7279099 C42.1137188,79.2982257 43.1714113,77.1265223 49.8928576,65.218815 C51.083621,63.1089034 52.3295758,61.0303754 53.6945708,58.6895964 L49.8928576,87.5870093 C49.9375879,87.5956669 56.4620958,69.6570339 56.5064654,69.6656915 C56.9093986,66.7185249 58.8847264,61.3059733 58.9828444,58.3487063 C59.1282178,53.9957737 61.8860321,47.8476616 64.2708054,44.2190755 C70.3108363,35.0294709 67.0195431,37.6246968 75.4493975,30.5630403 C75.6726882,30.3758213 75.9251978,30.2228716 76.3418388,29.928155 C76.0597494,31.9446374 75.10382,33.5361795 74.631627,35.4808766 C75.6221863,35.0530504 75.8465591,34.1660146 76.0153799,33.5091247 C77.1080252,29.2517856 79.953809,26.4222171 83.3345525,23.8960228 C88.3782525,20.1271126 93.3505283,16.27307 99.1463463,13.6682364 C100.688459,12.9749128 102.278188,12.486484 103.942948,12.2556166 C107.343892,11.7841421 109.367576,13.1379629 110.216009,16.4271018 C111.570182,21.675367 110.604152,26.8150524 109.318878,31.8923315 C108.55666,34.9033473 108.690444,35.7421073 107.722611,38.7004566 C107.559922,39.1982644 106.366558,41.391157 105.833402,41.7049924 C101.010467,44.5457435 96.569305,48.5313775 92.3570832,52.1725892 C93.2534925,52.2418495 93.2412277,52.2216486 93.973145,51.791658 C97.0169685,50.0046001 100.066924,48.2283641 103.119045,46.4550139 C103.390793,46.297014 103.822344,46.2670734 104.413698,46.3651921 C102.805211,49.5381758 101.488565,52.5434656 100.165775,55.8311616 C98.9548109,58.8403738 96.3204026,60.5801305 93.5262029,61.8830883 C90.9953347,63.0637586 88.6722459,64.6654012 86.6745338,66.670701 C86.3946088,66.8842533 86.1146838,67.0981664 85.8340374,67.3120794 C85.5818885,67.4127232 85.3466938,67.530682 85.2990777,67.8394671 C85.0772299,67.8755402 84.9650435,68.0050424 84.96829,68.2312203 C84.8225559,68.2701791 84.6003474,68.2647682 84.721552,68.501768 C84.7421135,68.5414483 85.0068879,68.4566767 85.1591152,68.4292612 L85.5429298,68.1395948 C85.7431339,67.961394 85.9436987,67.7835539 86.1446243,67.6049924 C86.5140098,67.5927276 86.7834737,67.402262 87.0031571,67.1230568 C89.7482978,65.4283458 92.5038995,63.7545572 96.0321809,62.5875946 C94.4244158,65.3194052 93.0240694,67.7583028 91.5663673,70.1625703 C87.717038,76.5117844 88.3901187,77.5164718 84.9801562,84.13443 C84.8156642,84.4536763 84.6609118,84.7566898 84.2893619,84.9139682 C79.4646239,86.9585875 75.2653883,90.0298454 71.0697601,93.1552127 C74.8844595,91.8284467 78.3683713,89.6633434 82.5531777,88.4119699 C80.1391854,93.0715233 82.8864526,87.4305298 80.6030438,91.8487545 C78.4314608,96.0490982 76.3821646,100.318341 74.0605187,104.433913 C72.4971232,107.205404 70.0355148,109.331188 68.0049765,111.770086 C65.2850868,115.036859 62.5150559,118.261427 59.7666687,121.504393 C59.6223774,121.68584 59.4777255,121.867288 59.3334342,122.048374 C59.1992434,122.093105 58.9788385,122.103566 59.0996825,122.310625 C59.1382804,122.375917 59.3857398,122.318922 59.5379671,122.31784 C59.7533217,122.150822 59.9686764,121.984164 60.1840311,121.817507 C62.0255479,120.483887 63.8695898,119.153514 65.7060565,117.81304 Z" id="Fill-1" fill="#C4C3C6"></path>
                    <path d="M29.2950647,162.784758 C30.0467343,159.889428 30.8325714,156.934821 31.7224927,153.861414 C32.5690063,151.33636 33.4425889,148.823636 34.3230139,146.312589 C37.0688795,138.479689 43.1158042,125.468359 49.7135879,112.085334 C50.2244073,114.375386 30.4627596,162.673206 29.2950647,162.784758 Z M50.2155756,97.8605352 L52.4262805,81.0057023 C54.2974092,75.8855494 56.5686611,69.653659 56.5947551,69.658766 C56.9969917,66.7077788 58.9689046,61.2882107 59.0668531,58.32711 C59.2119752,53.9685344 61.9650219,47.8124522 64.3456725,44.1791621 C70.3752618,34.9776445 67.0896583,37.5762347 75.5049397,30.5054238 C75.7278443,30.3179621 75.9799174,30.1648141 76.3958381,29.8697154 C76.1142364,31.8888119 75.1599596,33.4824172 74.6885828,35.4296353 C75.6774297,35.0012546 75.9014147,34.1130688 76.0699436,33.4553274 C77.1607,29.1924693 80.0015642,26.3592326 83.3764632,23.8297635 C88.4114439,20.0559674 93.3751239,16.1969286 99.1609224,13.5887182 C100.700369,12.8944958 102.287349,12.4054338 103.949232,12.1742671 C107.344296,11.7021814 109.364483,13.0577573 110.211448,16.3511601 C111.235788,20.3331443 110.930234,24.2527042 110.163847,28.1299547 C109.290202,24.9662077 107.282265,23.6681827 103.949232,24.1316429 C102.287349,24.3628096 100.700369,24.8518716 99.1609224,25.546094 C93.3751239,28.1543044 88.4114439,32.0133432 83.3764632,35.7871393 C80.0015642,38.3166084 77.1607,41.1498451 76.0699436,45.4127032 C75.9014147,46.0704446 75.6774297,46.9586304 74.6885828,47.3870111 C75.1599596,45.439793 76.1142364,43.8461877 76.3958381,41.8270912 C75.9799174,42.1221899 75.7278443,42.2753379 75.5049397,42.4627996 C67.0896583,49.5336105 70.3752618,46.9350203 64.3456725,56.1365379 C61.9650219,59.769828 59.2119752,65.9259102 59.0668531,70.2844858 C58.9689046,73.2455865 56.9969917,78.6651546 56.5947551,81.6161418 C56.5639271,81.6101083 53.3994158,90.3093757 51.463206,95.5961124 C51.0474493,96.3432937 50.6313968,97.0982495 50.2155756,97.8605352 Z M22.7231393,173.703526 C21.7295966,177.078398 14.2913063,204.761823 13.4717854,208.181532 C11.7683848,205.641 18.5279383,178.595002 19.0547941,175.990121 C20.5060152,168.819258 24.739928,165.429772 22.7231393,173.703526 Z M17.6995112,155.219008 C13.989715,152.671479 12.8276579,149.033493 13.2489801,144.670583 C13.6622025,148.76612 15.1903846,152.088977 19.0701578,153.792974 C18.9978716,154.570702 18.9450079,155.348968 18.9139971,156.127857 C18.5235826,155.809188 18.1183162,155.506477 17.6995112,155.219008 Z M20.3524009,134.064367 C21.3153202,129.796091 22.5904501,125.626422 24.3607237,121.500097 C24.7193878,123.689679 25.0776917,125.879622 25.4356356,128.069204 C26.5595216,121.360674 25.1068602,114.21943 29.2851523,107.994544 C29.439277,110.784798 29.5912411,113.538572 29.7622908,116.635844 C30.8667312,112.828456 31.5469685,109.23562 31.9578477,105.652898 C33.0277181,96.3271285 32.7511009,100.079532 36.5505631,91.7495849 C42.2268899,79.3037875 43.282754,77.1292688 49.9925805,65.2061247 C51.1812854,63.093478 52.4250862,61.0122555 53.7877215,58.668442 L51.766045,74.082087 C51.1571323,75.1241304 50.5683924,76.1401287 49.9925805,77.1635005 C43.282754,89.0866446 42.2268899,91.2611633 36.5505631,103.706961 C32.7511009,112.036908 33.0277181,108.284504 31.9578477,117.610274 C31.5469685,121.192996 30.8667312,124.785832 29.7622908,128.59322 C29.5912411,125.495947 29.439277,122.742174 29.2851523,119.95192 C25.1068602,126.176805 26.5595216,133.31805 25.4356356,140.026579 C25.0776917,137.836997 24.7193878,135.647054 24.3607237,133.457472 C22.5904501,137.583798 21.3153202,141.753467 20.3524009,146.021743 C19.9411725,147.844629 19.5925159,149.668929 19.3380471,151.495746 C18.3726046,145.647588 19.0474671,139.848854 20.3524009,134.064367 Z" id="Shape" fill="#FFFFFF"></path>
                </g>
            </g>
        </g>
    </g>
</svg>