<?xml version="1.0" encoding="UTF-8"?>
<svg width="235px" height="351px" viewBox="0 0 235 351" version="1.1" xmlns="http://www.w3.org/2000/svg" xmlns:xlink="http://www.w3.org/1999/xlink">
    <!-- Generator: Sketch 53.1 (72631) - https://sketchapp.com -->
    <title>Council</title>
    <desc>Created with Sketch.</desc>
    <g id="Blog-Illustrations" stroke="none" stroke-width="1" fill="none" fill-rule="evenodd">
        <g id="Blog_illustrations-Copy" transform="translate(-601.000000, -1763.000000)">
            <g id="Council" transform="translate(596.186593, 1763.000000)">
                <g id="Warstwa-3-Copy" transform="translate(64.500000, 182.444418) scale(-1, 1) rotate(2.000000) translate(-64.500000, -182.444418) translate(5.000000, 61.444418)">
                    <path d="M21.5311044,187.62397 C21.6328411,187.244739 21.7142305,186.874989 21.8057935,186.495758 C23.5658385,178.911139 23.8405276,171.098981 24.5933792,163.37215 C25.3665782,155.853896 27.7065224,148.525257 29.5886514,141.2061 C30.0227364,139.984144 30.1206844,138.680186 29.8735142,137.41379 C29.4970884,136.133885 28.4390267,135.138404 27.7065224,134.000711 C22.2025666,125.468014 33.8107247,115.731259 34.6449656,107.302851 C35.0620861,102.837406 33.2409991,98.4193656 33.3529095,93.9349594 C33.4546462,89.6875726 35.2655595,85.6677243 36.4050106,81.562549 C37.8212836,76.5211369 38.2588544,71.2843526 37.6970668,66.0994063 C37.2290779,61.7666925 34.8382654,56.9314976 38.5007868,53.1960726 C43.1501542,48.4556855 47.1178857,42.3121438 55.1143906,41.3451048 C58.1664918,40.9753546 61.0965089,40.160008 64.087568,39.5437577 L65.5830976,38.7568534 C67.3736636,37.1356411 70.201944,38.7568534 71.931468,36.9555063 C72.948835,35.1446785 73.0200507,33.6846392 71.3617424,31.845369 C69.8967339,30.2336374 67.8925208,28.3659249 68.8081511,25.7018273 C68.8081511,22.5542103 66.6106383,19.709978 67.3634899,16.4580725 C65.1594957,13.4058876 65.64567,9.31629663 68.5131147,6.78768278 C72.6436249,0.890641213 84.7909874,-1.06239828 89.5420915,3.94345051 C93.9656793,8.37263451 95.8155989,14.5229579 94.5068427,20.4494784 C93.9879855,22.9713644 90.854495,24.2417881 91.658215,27.0860204 C91.1088368,28.4607326 91.1088368,30.2620797 88.7994136,30.2715605 L88.5959402,30.4706568 C87.9041306,32.8787734 88.4942035,35.2963709 88.4942035,37.7044875 C93.497771,40.9173904 98.7673562,43.7547487 104.253219,46.1897804 C109.858911,48.6927048 115.678251,51.4895332 116.593881,57.7752865 C117.86559,66.5070796 117.295865,76.1111039 117.784201,84.9945893 L118.079237,90.3512268 C118.435316,96.9877687 118.801568,103.671715 118.079237,110.260853 C117.659541,115.222408 116.509304,120.106561 114.660884,124.775918 C113.338307,127.885612 107.539315,135.157366 107.976782,138.342906 C108.139561,139.565926 107.335841,139.973599 106.226911,140.115811 C106.150362,140.248535 106.033604,140.35734 105.89118,140.428676 C105.77927,141.319869 104.802597,141.955081 105.148502,143.016928 C107.864872,151.435855 106.450732,162.035361 106.80681,170.833519 C106.165869,189.795068 109.228144,208.178289 106.562642,227.158799 C106.4588,228.221158 106.219735,229.268238 105.850485,230.277973 C105.494407,231.169166 104.945029,231.993994 104.517734,232.866225 C102.98151,236.061246 105.39267,242.072057 99.4308993,240.943844 C97.8411985,240.534699 96.3305561,239.894809 94.9544842,239.04769 C91.1960889,237.045281 87.2018301,235.454588 83.0512898,234.307303 C79.7346732,233.359225 76.3264936,232.771417 72.9590087,232.022436 C66.5902909,230.628762 60.62852,228.049992 54.1377183,226.779568 C46.8635439,225.357452 39.4164171,224.22924 32.6509262,221.223834 C31.9619195,220.952104 31.3312117,220.566693 30.7891445,220.086141 C30.2829056,219.481597 29.8623255,218.818812 29.5377831,218.11414 C28.0821816,215.688773 25.6521642,213.901714 22.7824659,213.146214 C17.9601461,211.724098 16.0068013,212.406714 16.5968742,206.813057 C17.2886838,200.252362 19.9236645,194.014012 21.5311044,187.62397 Z" id="Path" fill="#000000" fill-rule="nonzero"></path>
                    <path d="M77.0470486,94.1964032 C76.8642336,103.161494 74.2946672,110.982106 70.5774288,119.107912 C63.6609279,100.386131 58.3897621,81.1970212 56.0944182,61.3593729 C55.6678498,57.6398139 55.3293035,53.9075384 55.0787793,50.1625465 C54.9772154,48.4553642 55.3631582,46.1854795 57.160839,45.9851955 C58.6916925,63.580398 62.2120811,80.9726769 67.6625452,97.8682756 C67.7660967,98.2708694 67.9600064,98.6480567 68.231303,98.974606 C69.2469419,99.9283391 70.1711733,99.0222927 69.8867944,97.9541116 C66.0070538,83.3429207 63.792961,68.5886698 61.6194938,53.6913589 C61.2979828,50.4610547 61.2199228,47.2134554 61.3858968,43.9728187 C64.6460977,42.4086964 69.6227283,40.0243637 71.938385,41.6552473 C72.2735458,49.7047546 74.5282642,57.7161125 74.8329558,65.8514558 C74.8144746,67.5130061 75.0019355,69.1709331 75.3915572,70.7917932 C75.6017522,71.4882596 75.863058,72.1702207 76.1735992,72.832782 C76.3868833,79.9762428 77.1892381,87.0815544 77.0470486,94.1964032 Z" id="Path" fill="#C4C3C6" fill-rule="nonzero"></path>
                    <path d="M97.5232446,102.023719 C92.5629739,99.5031429 89.5486556,94.9324979 85.7426018,91.1852412 C84.3308325,89.7821204 81.8697751,89.8577377 83.8348054,91.8826006 C85.1702629,93.2941234 86.6106492,94.6300288 88.0319575,95.9743361 C90.7982623,98.5705297 93.6313399,101.116312 96.4167227,103.695701 C96.7411465,103.958992 97.0036721,104.275865 97.1893802,104.628315 C97.3515834,105.117436 97.3712671,105.634668 97.2466141,106.132258 C96.6714783,110.129876 96.4863807,114.163555 96.6933531,118.189015 C96.8078209,120.331505 97.0176785,122.566416 96.0447024,124.532465 C96.3022549,124.019948 92.8777603,120.146663 92.4389672,119.491313 C90.3403911,116.517033 88.299049,113.500743 86.3912526,110.434042 C84.3022155,107.073274 80.877721,103.712505 80.4293888,99.7467986 C80.1909143,97.6715241 80.7918701,95.5458382 80.7918701,93.4789656 C80.7938018,91.3002176 80.6184715,89.1241484 80.2672261,86.9674769 C79.9821799,85.6753137 79.8574406,84.3596881 79.8952058,83.0437799 C79.8917182,82.8122062 79.9718898,82.5856498 80.1241414,82.3968319 C80.5629346,81.9515301 81.383287,82.3044108 81.927009,82.6656934 C86.3644618,85.6749012 91.2052693,88.1919681 96.3404108,90.1602069 C97.294309,90.5382933 98.4389868,91.0003989 98.7728512,91.8910026 C98.8999484,92.3274204 98.9226868,92.7823407 98.8396241,93.226908 C98.5057597,96.1675803 98.0669665,99.1082526 97.5232446,102.023719 Z" id="Path" fill="#C4C3C6" fill-rule="nonzero"></path>
                    <path d="M41.0341535,54.1930497 C39.9889258,67.301162 42.1943562,81.2469751 44.870139,94.079027 C47.6818014,107.548874 52.3226122,120.31429 57.6741778,133.108265 C64.7608213,150.024108 74.3978203,166.10225 85.2786403,181.237979 C86.7001499,183.208479 89.4595509,186.359376 92.4175452,185.045709 C91.9994541,185.226577 81.6830571,169.167473 80.7109954,167.682458 C76.8332008,161.72336 73.1121903,155.688107 69.7047481,149.500545 C62.945698,137.310838 57.4821584,124.560359 53.3887444,111.42324 C52.5595305,108.73879 51.8034824,106.041647 51.1206004,103.331812 C50.4725592,100.742555 49.8767795,98.1437793 49.3646179,95.5354839 C46.6574783,81.9038086 45.8631052,68.0055922 45.8108439,54.145453 C45.8108439,51.1849426 46.647026,47.3200961 49.8767795,46.967881 C46.1662213,71.9561126 57.5592028,96.4683779 67.7815293,119.904959 C75.3385252,137.220614 82.4147165,154.755213 91.5500062,171.423553 C92.5387926,173.547148 93.9976282,175.462309 95.8354396,177.049475 C92.8983499,170.919029 89.9612602,164.798102 86.9614568,158.696214 C83.9616534,152.594326 80.9095887,146.197339 78.0561171,139.886025 C74.9204342,132.955956 71.9728922,125.959251 69.2553003,118.943507 C69.7057698,119.023993 70.1724758,118.977503 70.5931917,118.810237 C71.0844487,119.200529 72.7672652,119.267164 73.0181198,118.810237 C75.795034,113.465707 77.8348029,107.828649 79.0908925,102.027664 C81.7562231,106.635018 84.5156241,111.185256 87.4527138,115.668859 C88.9369371,117.985228 90.4525172,120.279386 91.9994541,122.551332 C93.0446818,124.036347 95.6786555,126.68272 95.9817715,128.358121 C98.8561476,143.055961 101.427408,157.868033 102.002283,172.88953 C102.368112,182.227989 101.448312,191.490293 100.957055,200.771636 C100.761946,204.446096 100.38218,208.104691 99.817757,211.74742 C95.9713192,207.438338 92.2677292,203.034063 88.706987,198.534595 C75.6625458,182.142315 62.8166979,165.321665 58.1027211,145.226367 C57.7159869,143.560485 56.4303569,141.418637 54.7057312,142.046912 C56.7230206,154.679058 62.5867478,166.587736 69.9033414,177.468326 C77.219935,188.348916 86.0102996,198.344208 94.4766437,208.510849 C95.8036578,209.95567 96.91109,211.556598 97.7691108,213.270512 C99.9745412,218.296716 97.7691108,223.941677 95.584585,228.967881 C79.5926018,216.592757 67.6770065,200.267112 59.4719694,182.684916 C51.2669322,165.102721 46.6574783,146.302051 43.7935545,127.37763 C40.075495,103.137041 39.1506664,78.6088229 41.0341535,54.1930497 L41.0341535,54.1930497 Z" id="Path" fill="#C4C3C6" fill-rule="nonzero"></path>
                    <path d="M48.4619684,52.2890758 C48.4619684,65.9405252 49.2991752,79.6388867 51.97617,93.07454 C52.4860738,95.6453284 53.0648835,98.2067344 53.7125991,100.758758 C54.3844317,103.432753 55.1389515,106.087984 55.9554866,108.733831 C59.9999959,121.681706 65.399232,134.248825 72.0794706,146.263589 C75.4489698,152.362175 79.1388815,158.320024 82.9734957,164.184048 C85.1130243,167.45852 87.6969961,169.719688 88.5755465,173.566488 C89.6091352,178.060676 90.7874264,182.010683 93.4230776,185.979455 C90.5910445,181.710445 82.4360295,169.597716 81.9399069,168.837738 C78.1052928,162.964331 74.425717,157.015865 71.0562177,150.917279 C64.3724318,138.902859 58.9697304,126.33573 54.9218979,113.387521 C54.1019175,110.741673 53.3542883,108.083316 52.6790103,105.412448 C52.0381853,102.860424 51.4490398,100.299018 50.9425813,97.72823 C48.2655865,84.2925767 47.4800591,70.5942151 47.4283797,56.9333833 C47.3748302,55.2336995 47.7274423,53.5436507 48.4619684,51.9794553 L48.4619684,52.2890758 Z" id="Path" fill="#FFFFFF" fill-rule="nonzero"></path>
                    <path d="M54.2153877,46.8098312 C54.4553112,50.2222724 54.768255,53.6347136 55.1646504,57.0280374 C58.460991,84.9488798 67.7971455,111.617538 79.4073578,137.492827 C82.2516686,143.865266 85.2107254,150.164423 88.2845283,156.390296 C91.2783566,162.507837 94.2095962,168.654055 97.1408358,174.809831 C95.2110161,173.337798 94.251322,174.484837 93.1247246,172.420166 C83.9867677,155.682955 76.2570576,137.053129 68.7151138,119.627694 C67.0147862,115.708644 65.7212855,109.571985 64.0313893,105.595583 C59.3209895,91.301558 56.0355233,76.6454166 54.2153877,61.8073668 C53.7772665,58.0794899 53.4295512,54.3388681 53.172242,50.5855014 C53.0470645,49.2568478 53.2765565,47.5745239 54.2153877,46.8098312 Z" id="Path" fill="#FFFFFF" fill-rule="nonzero"></path>
                    <path d="M66.9870861,49.94514 C69.3088903,64.2206478 70.1704318,78.6596913 69.5607492,93.0785628 C69.0937539,102.783818 68.7824237,95.8971267 67.8691884,94.0838506 C67.6525587,93.7309536 67.4585218,93.3670714 67.2880387,92.9940059 C67.2880387,92.9094489 67.2880387,92.8342872 67.215395,92.7497303 C64.0398268,80.0004263 62.0265581,67.1477749 60.0755555,54.1729858 C59.7470395,50.9908171 59.6672788,47.791611 59.836869,44.5992638 L60.8019926,44.1482936 C60.791615,45.8958032 66.7276443,48.1788399 66.9870861,49.94514 Z" id="Path" fill="#FFFFFF" fill-rule="nonzero"></path>
                    <path d="M96.1572453,122.103313 C96.1572453,122.95215 96.3172453,123.800987 96.4372453,124.649824 C96.0972453,125.138197 95.7572453,125.614941 95.4372453,126.103313 C95.2172453,125.405638 95.0172453,124.707964 94.7972453,124.01029 L96.1572453,122.103313 Z" id="Path" fill="#FFFFFF" fill-rule="nonzero"></path>
                    <path d="M41.0822642,56.431054 C41.0822642,56.298914 41.0822642,56.1667741 41.1669507,56.0346341 C41.1669507,56.5631939 41.1669507,57.0823152 41.1669507,57.6014364 C39.8966533,67.1249515 40.3095,76.7994836 40.9552345,86.3796301 C42.553692,111.684431 45.0731151,137.159126 53.2030183,161.435122 C61.3329215,185.711119 75.4967372,208.948873 97.1976506,225.31535 C97.9704149,222.899077 98.6479068,220.463926 99.2618839,218.009899 C98.4361906,222.059044 97.4093669,226.070436 96.1390695,230.034634 C74.4381561,213.668157 60.2849262,190.392649 52.1444372,166.154406 C44.0039482,141.916164 41.4527676,116.403715 39.8966533,91.098914 C39.1344749,79.5272297 38.6051843,67.8045284 41.0822642,56.431054 Z" id="Path" fill="#FFFFFF" fill-rule="nonzero"></path>
                    <path d="M90.878122,20.213482 C91.0252368,19.4556014 91.1447676,18.8420791 91.163157,18.6796761 C91.318079,16.9397546 91.2841749,15.1886056 91.0620155,13.4557138 C90.6942284,10.7489975 89.6552299,7.93401262 87.0623308,6.71599031 C86.7249242,6.55846786 86.3331547,6.55846786 85.9957481,6.71599031 C83.4672118,3.10703532 76.8010705,3.15214726 73.7208535,6.06637842 C72.6795323,6.91794368 72.0822491,8.18284132 72.0933955,9.51293043 C71.9162255,9.67794219 71.794371,9.89191173 71.7439978,10.1264528 C71.7105416,10.2775652 71.6951135,10.4319836 71.6980244,10.5865945 C71.6980244,10.6768184 71.6428563,10.7760647 71.6980244,10.7309527 C71.6529741,10.8239534 71.5974607,10.9117157 71.5325202,10.992602 C71.1344756,11.4704443 71.1743838,12.1674995 71.6244669,12.5985869 C71.9533113,12.8915081 72.431798,12.9560224 72.8289697,12.7609899 C73.9966938,12.2016019 76.2677792,13.5278929 77.3343618,13.9339003 C79.5286097,14.743796 81.8417099,15.2007941 84.1843966,15.2872584 C84.6273736,15.2791168 85.0677247,15.3557303 85.4808462,15.5128181 C86.5934022,16.0541614 86.6669596,17.606012 86.8876319,18.8601239 C87.2573503,20.9091403 88.4329592,22.7334821 90.1609371,23.939728 C90.1609371,23.939728 90.5655029,21.7653326 90.878122,20.213482 Z" id="Path" fill="#FFFFFF" fill-rule="nonzero" transform="translate(81.258525, 13.939728) scale(-1, 1) rotate(-65.000000) translate(-81.258525, -13.939728) "></path>
                    <path d="M79.5624503,40.1468757 C79.4537103,39.8037862 79.4537103,39.4396585 79.5624503,39.096569 C79.7230973,38.7591974 79.9815301,38.4680676 80.310007,38.2544312 L83.0406653,36.0970445 C82.3346396,40.8281557 85.2625698,44.2061692 90.0178608,45.559267 C94.9392754,46.9691382 100.068345,48.5587916 103.515412,51.9462672 C106.370663,54.7376229 110.711088,56.3717207 111.385965,60.0809119 C112.330794,65.2851343 112.651657,69.2605919 112.485533,74.4932009 C112.31941,79.72581 109.443951,88.0824952 109.869643,93.2394065 C110.16036,96.8161266 110.368014,100.392847 110.513372,103.979029 C110.637965,106.732536 111.323225,109.703674 110.752175,112.495029 C110.264187,114.926821 105.4466,121.162425 103.484263,116.279918 C101.947619,112.428794 105.685402,107.9437 106.007267,104.130425 C106.412194,99.2384556 105.438093,93.0396151 105.448475,88.1287216 C105.448475,78.1176901 108.802689,54.9914749 81.2236874,48.9372805 C82.015298,48.5181254 80.2788588,42.9760803 79.5624503,40.1468757 Z" id="Path" fill="#FFFFFF" fill-rule="nonzero"></path>
                    <path d="M63.8685617,123.117247 C63.3112686,121.213213 62.9897533,119.093256 61.6179548,117.670137 C60.0666729,115.994466 58.1009499,114.682187 55.8842659,113.842438 C55.766377,113.67559 55.648488,113.508741 55.5305991,113.361522 C55.4068726,113.45031 55.2953194,113.552469 55.1983667,113.665775 L55.1983667,113.665775 C55.1929703,113.695012 55.1929703,113.72487 55.1983667,113.754107 C53.9873258,115.245928 54.1266491,118.975481 53.9658915,120.928589 C53.8587197,121.91005 52.8941739,125.777008 54.2552552,127.111795 C55.037609,127.877335 57.0095693,123.31354 57.170327,122.970028 C57.4489735,122.322264 57.8133575,121.703943 58.027701,121.007106 C58.7993377,122.283005 59.5709743,123.470573 60.1068331,124.422591 C60.8248838,125.678861 63.2469655,131.361522 65.2403602,131.361522 C66.3335121,131.351708 64.0400365,123.69631 63.8685617,123.117247 Z" id="Path" fill="#C4C3C6" fill-rule="nonzero"></path>
                    <path d="M69.6894504,208.780633 C84.3249963,208.780633 66.5681944,166.705674 66.5681944,118.656901 C66.5681944,70.608128 57.7130235,40.0730858 43.0774777,40.0730858 C28.4419318,40.0730858 14.6057109,74.4656495 14.6057109,122.514423 C14.6057109,170.563196 55.0539045,208.780633 69.6894504,208.780633 Z" id="Oval" fill="#000000" transform="translate(45.039383, 124.426859) rotate(10.000000) translate(-45.039383, -124.426859) "></path>
                </g>
                <g id="Warstwa-3" transform="translate(56.813407, 0.000000)" fill-rule="nonzero">
                    <path d="M72.4123992,262.70951 C72.5280998,262.244952 72.6206603,261.792008 72.7247908,261.32745 C74.7264106,252.036292 75.0388021,242.466398 75.8949863,233.00103 C76.7743106,223.791169 79.4354236,214.813587 81.5758841,205.847619 C82.0695493,204.350723 82.1809412,202.753374 81.8998457,201.20204 C81.4717536,199.634156 80.2684677,198.414692 79.4354236,197.021018 C73.176023,186.568465 86.3774576,174.640939 87.3262022,164.316139 C87.8005746,158.84597 85.7295344,153.43387 85.856805,147.940472 C85.9725056,142.737423 88.0319757,137.813109 89.327822,132.784269 C90.9384854,126.60854 91.4361149,120.193479 90.7972192,113.84192 C90.2649966,108.534345 87.5460333,102.611231 91.7112537,98.0353357 C96.9987696,92.2283615 101.511092,84.7025229 110.605156,83.5179002 C114.076173,83.0649562 117.408349,82.0661566 120.809946,81.31125 L122.510744,80.3472923 C124.547074,78.3613071 127.76355,80.3472923 129.73046,78.1406421 C130.887465,75.9223779 130.968456,74.1338299 129.082537,71.8807239 C127.416448,69.9063526 125.137147,67.6184048 126.178452,64.3548853 C126.178452,60.4990544 123.67932,57.0148699 124.535504,53.0312856 C122.029001,49.2923591 122.581905,44.2826102 125.842921,41.1850582 C130.540364,33.9611823 144.355011,31.5687089 149.758228,37.7008737 C154.788975,43.1266241 156.892805,50.6607702 155.404415,57.9207579 C154.814343,61.0100682 151.250765,62.5663372 152.1648,66.0505218 C151.540016,67.7345443 151.540016,69.9411945 148.913614,69.9528084 L148.682213,70.1967014 C147.895449,73.1466443 148.566512,76.1082011 148.566512,79.058144 C154.256844,82.99395 160.249705,86.4697139 166.48853,89.4526278 C172.863631,92.5187102 179.481703,95.944825 180.523008,103.644873 C181.969265,114.341319 181.321342,126.106249 181.876705,136.988519 L182.212237,143.5504 C182.617189,151.680163 183.033711,159.867997 182.212237,167.939691 C181.734935,174.017597 180.426823,180.000684 178.324698,185.720646 C176.82059,189.530021 170.225658,198.43792 170.72317,202.340206 C170.908291,203.838406 169.994257,204.337806 168.733121,204.512015 C168.646064,204.674602 168.513281,204.807889 168.351309,204.895275 C168.224038,205.986986 167.113313,206.765121 167.506695,208.065883 C170.5959,218.379069 168.987662,231.363464 169.392614,242.141208 C168.6637,265.369105 172.146287,287.888551 169.114933,311.139675 C168.996837,312.441066 168.72496,313.723738 168.305029,314.960664 C167.900077,316.052375 167.275293,317.062789 166.789351,318.131272 C165.042273,322.045173 167.784376,329.408416 161.004323,328.026356 C159.196428,327.525153 157.478442,326.741288 155.913498,325.703567 C151.639244,323.250616 147.096754,321.302017 142.376532,319.896592 C138.604693,318.735198 134.728724,318.015133 130.899035,317.097631 C123.65618,315.39038 116.876127,312.231386 109.494431,310.675117 C101.22184,308.933025 92.7525588,307.550965 85.0584711,303.869344 C84.2748948,303.536474 83.5576193,303.064345 82.9411508,302.47567 C82.3654281,301.735104 81.8871213,300.923191 81.5180338,300.059968 C79.8626439,297.088893 77.0990947,294.899747 73.8355162,293.974259 C68.3513094,292.232167 66.1298585,293.068372 66.8009218,286.216142 C67.5876856,278.17929 70.5843303,270.537312 72.4123992,262.70951 Z" id="Path" fill="#000000"></path>
                    <path d="M135.664902,147.536425 C135.448848,158.570383 132.412088,168.195751 128.018988,178.196743 C119.844941,155.154551 113.615382,131.537185 110.902702,107.121618 C110.398576,102.543699 109.998476,97.9501296 109.702402,93.3409088 C109.582372,91.2397614 110.038486,88.4460571 112.163018,88.1995538 C113.972208,109.855188 118.132668,131.261069 124.574125,152.055652 C124.696504,152.551152 124.92567,153.015383 125.246294,153.41729 C126.446594,154.591115 127.538868,153.475981 127.202783,152.161297 C122.617635,134.178292 120.00098,116.019214 117.432337,97.6840625 C117.05237,93.7083035 116.960117,89.7112582 117.156268,85.7227823 C121.009233,83.7977087 126.890705,80.8631454 129.62739,82.8703867 C130.02349,92.7774726 132.688157,102.637605 133.048247,112.650336 C133.026405,114.695321 133.24795,116.735846 133.708412,118.730751 C133.956824,119.58794 134.26564,120.427277 134.632644,121.242737 C134.884707,130.034689 135.832944,138.779688 135.664902,147.536425 Z" id="Path" fill="#C4C3C6"></path>
                    <path d="M160.960044,156.365849 C154.694439,152.913341 150.886879,146.652794 146.079232,141.520066 C144.295944,139.59817 141.18724,139.701745 143.669384,142.47526 C145.356277,144.408664 147.175712,146.238493 148.971049,148.07983 C152.465329,151.635913 156.043953,155.122946 159.562332,158.656012 C159.97213,159.016649 160.303741,159.45068 160.53832,159.93344 C160.743208,160.603404 160.768072,161.311872 160.610616,161.993436 C159.884128,167.469091 159.650321,172.99414 159.91176,178.507932 C160.05635,181.442563 160.321434,184.503787 159.092411,187.196743 C159.417741,186.494733 155.092063,181.189379 154.537798,180.291727 C151.886965,176.217768 149.308428,172.086267 146.89858,167.885716 C144.259796,163.282373 139.934119,158.679029 139.367805,153.247084 C139.066574,150.404519 139.825676,147.492904 139.825676,144.661848 C139.828116,141.677552 139.606646,138.696926 139.162968,135.742869 C138.802909,133.972955 138.645344,132.170904 138.693047,130.368466 C138.688642,130.051273 138.789911,129.740952 138.982229,129.482322 C139.536494,128.872379 140.572729,129.35573 141.259535,129.85059 C146.864739,133.97239 152.979443,137.420091 159.465938,140.116046 C160.670862,140.633922 162.116771,141.266882 162.538494,142.486768 C162.699038,143.084542 162.72776,143.70766 162.622839,144.316597 C162.201115,148.344523 161.64685,152.372448 160.960044,156.365849 Z" id="Path" fill="#C4C3C6"></path>
                    <path d="M96.7244543,100.009861 C95.5780756,115.998877 97.9969347,133.009704 100.931664,148.661987 C104.015423,165.092239 109.105344,180.663242 114.974804,196.269079 C122.747251,216.90269 133.316863,236.514489 145.250666,254.976752 C146.809741,257.38033 149.836181,261.223732 153.080432,259.621346 C152.621881,259.841965 141.307123,240.253388 140.240991,238.441996 C135.987926,231.173206 131.906817,223.811524 128.169623,216.264058 C120.756471,201.395295 114.764202,185.842512 110.274651,169.818114 C109.36519,166.543675 108.535976,163.253754 107.787009,159.948351 C107.076254,156.790027 106.422818,153.620091 105.861093,150.438544 C102.891972,133.810896 102.020724,116.858127 101.963405,99.9518031 C101.963405,96.340631 102.880508,91.6263677 106.422818,91.1967427 C102.353174,121.676893 114.848702,151.57647 126.060286,180.163948 C134.348604,201.285241 142.109588,222.673598 152.128938,243.00531 C153.213413,245.595629 154.813427,247.931705 156.829091,249.867698 C153.607767,242.389901 150.386442,234.923716 147.096335,227.480753 C143.806228,220.037791 140.458803,212.234872 137.329189,204.536457 C133.890052,196.083295 130.657264,187.548853 127.67668,178.991188 C128.170743,179.089363 128.682614,179.032656 129.144045,178.828627 C129.682843,179.304698 131.528512,179.385979 131.803643,178.828627 C134.849291,172.309476 137.086457,165.433504 138.464104,158.357577 C141.387369,163.977537 144.413809,169.527827 147.635133,174.996837 C149.262991,177.822298 150.92524,180.620667 152.621881,183.391941 C153.76826,185.203333 156.657134,188.431326 156.989584,190.474948 C160.142125,208.403082 162.962217,226.470554 163.592725,244.793479 C163.993958,256.184347 162.985144,267.482322 162.446346,278.803521 C162.232356,283.285555 161.815838,287.748236 161.196794,292.191565 C156.97812,286.935432 152.916118,281.563184 149.010788,276.074822 C134.703981,256.079843 120.614987,235.562348 115.444819,211.050501 C115.020659,209.018491 113.610613,206.405906 111.719088,207.172264 C113.931599,222.580706 120.362784,237.106675 128.387435,250.378604 C136.412086,263.650532 146.053131,275.842592 155.338798,288.243659 C156.794233,290.006023 158.008836,291.958804 158.949891,294.049402 C161.36875,300.180267 158.949891,307.065878 156.55396,313.196743 C139.014365,298.101811 125.945648,278.188113 116.946575,256.741698 C107.947502,235.295283 102.891972,212.362599 99.7508941,189.278965 C95.6730224,159.710773 94.6586943,129.791738 96.7244543,100.009861 L96.7244543,100.009861 Z" id="Path" fill="#C4C3C6"></path>
                    <path d="M102.859127,94.5803024 C102.859127,111.491799 103.805534,128.461412 106.831702,145.105579 C107.408115,148.290287 108.062422,151.463372 108.794622,154.624834 C109.554085,157.937395 110.407021,161.22671 111.33006,164.504403 C115.902114,180.544308 122.005599,196.112529 129.557173,210.996491 C133.366172,218.551455 137.537376,225.932074 141.872157,233.196463 C144.290755,237.252897 147.211767,240.054046 148.204911,244.819485 C149.373315,250.386912 150.705297,255.280204 153.684728,260.196743 C150.4833,254.908268 141.264587,239.902946 140.703753,238.961482 C136.368972,231.68547 132.209451,224.316474 128.400452,216.76151 C120.844868,201.877974 114.737466,186.30974 110.161656,170.269422 C109.234721,166.991729 108.389575,163.69854 107.626218,160.389853 C106.901807,157.228391 106.235816,154.055306 105.663298,150.870598 C102.63713,134.22643 101.749142,117.256818 101.690722,100.333698 C101.630188,98.2281199 102.028793,96.1344774 102.859127,94.1967427 L102.859127,94.5803024 Z" id="Path" fill="#FFFFFF"></path>
                    <path d="M110.90581,88.1967427 C111.17845,92.3556554 111.534068,96.5145681 111.984518,100.650182 C115.730359,134.678708 126.339626,167.181135 139.533049,198.716644 C142.76522,206.483054 146.127785,214.160151 149.620743,221.747934 C153.02282,229.203688 156.353774,236.69439 159.684728,244.196743 C157.491751,242.402702 156.40119,243.800656 155.120966,241.284339 C144.736924,220.885862 135.953162,198.180762 127.382772,176.943513 C125.450581,172.167171 123.980694,164.688118 122.060357,159.841877 C116.70763,142.421035 112.974146,124.558862 110.90581,106.474989 C110.407945,101.931639 110.012814,97.3727564 109.720417,92.7983408 C109.57817,91.1790442 109.838956,89.1287119 110.90581,88.1967427 Z" id="Path" fill="#FFFFFF"></path>
                    <path d="M125.368826,93.2817772 C128.154991,110.72962 129.18884,128.37734 128.457221,146.000405 C127.896827,157.862383 127.523231,149.445316 126.427348,147.22909 C126.167393,146.797772 125.934548,146.353027 125.729969,145.897058 C125.729969,145.79371 125.729969,145.701846 125.642796,145.598499 C121.832114,130.016016 119.416192,114.30722 117.074989,98.4491443 C116.68077,94.559827 116.585057,90.6496862 116.788565,86.7479285 L117.946713,86.1967427 C117.93426,88.3325878 125.057495,91.122966 125.368826,93.2817772 Z" id="Path" fill="#FFFFFF"></path>
                    <path d="M160.224728,182.196743 C160.224728,183.04558 160.384728,183.894417 160.504728,184.743254 C160.164728,185.231626 159.824728,185.708371 159.504728,186.196743 C159.284728,185.499068 159.084728,184.801394 158.864728,184.103719 L160.224728,182.196743 Z" id="Path" fill="#FFFFFF"></path>
                    <path d="M96.6871467,100.684294 C96.6871467,100.521777 96.6871467,100.35926 96.7803019,100.196743 C96.7803019,100.846811 96.7803019,101.48527 96.7803019,102.123729 C95.3829747,113.836558 95.8371061,125.735121 96.547414,137.5176 C98.3057173,168.639596 101.077083,199.970543 110.019976,229.827228 C118.96287,259.683914 134.543067,288.263681 158.414072,308.392566 C159.264112,305.420827 160.009354,302.425872 160.684728,299.4077 C159.776466,304.387684 158.64696,309.321234 157.249633,314.196743 C133.378628,294.067857 117.810075,265.441657 108.855537,235.631405 C99.9009991,205.821153 97.0947005,174.443773 95.3829747,143.321777 C94.5445785,129.089935 93.9623589,114.67236 96.6871467,100.684294 Z" id="Path" fill="#FFFFFF"></path>
                    <path d="M151.190204,58.3526229 C151.381453,57.3673782 151.536843,56.5697991 151.560749,56.3586752 C151.762148,54.0967772 151.718073,51.8202836 151.429265,49.5675242 C150.951142,46.0487931 149.600444,42.3893127 146.229675,40.8058837 C145.791047,40.6011045 145.281746,40.6011045 144.843118,40.8058837 C141.556021,36.1142422 132.890037,36.1728877 128.885755,39.9613882 C127.532037,41.0684231 126.755569,42.71279 126.770059,44.4419059 C126.539738,44.6564211 126.381327,44.9345815 126.315842,45.2394849 C126.272349,45.435931 126.252293,45.6366749 126.256077,45.8376692 C126.256077,45.9549602 126.184358,46.0839804 126.256077,46.0253349 C126.197512,46.1462357 126.125344,46.2603268 126.040921,46.3654789 C125.523463,46.9866738 125.575344,47.8928456 126.160452,48.4532593 C126.58795,48.8340568 127.209983,48.9179254 127.726306,48.6643832 C129.244347,47.9371788 132.196758,49.661357 133.583315,50.1891667 C136.435838,51.2420311 139.442868,51.8361287 142.488361,51.9485322 C143.064231,51.9379482 143.636687,52.0375456 144.173745,52.2417598 C145.620068,52.945506 145.715693,54.9629119 146.002567,56.5932573 C146.483201,59.2569786 148.011492,61.6286231 150.257863,63.1967427 C150.257863,63.1967427 150.783799,60.3700287 151.190204,58.3526229 Z" id="Path" fill="#FFFFFF"></path>
                    <path d="M173.682361,182.196743 C173.787454,185.505747 170.366109,190.354105 168.848107,193.178273 C168.170844,194.463088 165.765394,200.256875 163.955468,200.196271 C162.904543,200.196271 165.239931,192.317689 165.415085,191.711645 C165.975579,189.760181 166.349241,187.57842 167.645382,186.148154 C169.128353,184.536075 171.545481,182.584611 173.682361,182.196743 Z" id="Path" fill="#C4C3C6"></path>
                    <path d="M130.773333,61.1967427 C130.440757,60.6386544 131.133623,59.4826143 131.383055,58.8547649 C131.493914,58.5757208 131.757203,57.3499196 132.366925,57.2004317 C132.727216,57.1107389 132.671787,58.6853453 132.657929,58.7949697 C132.73085,59.1941656 132.654311,59.6001247 132.436212,59.9709416 C132.035035,60.4741317 131.462891,60.8958909 130.773333,61.1967427 L130.773333,61.1967427 Z" id="Path" fill="#C4C3C6"></path>
                    <path d="M146.280433,90.6746402 C147.355046,87.9629057 143.15004,85.5858107 142.34408,82.1355613 C142.221748,81.7171595 142.221748,81.2731013 142.34408,80.8546995 C142.524808,80.4432706 142.815545,80.0882343 143.185082,79.8277021 L146.257072,77.1967427 C145.462793,82.9663906 148.756715,87.0859192 154.106417,88.7360385 C159.643009,90.4553936 165.413211,92.3939953 169.291162,96.5250632 C172.503319,99.9291554 174.091877,104.487177 174.851114,109.010581 C175.914046,115.357194 175.528587,121.796121 175.341698,128.177352 C175.154809,134.558582 175.960769,140.593634 176.439672,146.88255 C176.766728,151.244404 177.00034,155.606258 177.163868,159.979651 C177.304034,163.337586 178.074952,166.960925 177.432521,170.365017 C176.883534,173.330616 171.463748,180.935012 169.25612,174.980735 C167.527395,170.284242 171.732401,164.814616 172.094499,160.164279 C172.550041,154.198464 172.842056,148.209569 172.853736,142.220675 C172.853736,130.0121 173.75314,113.026256 164.081626,103.714044 C164.812935,106.677307 165.142872,109.723355 165.062794,112.772392 C164.98103,117.007313 164.595571,121.311471 164.116668,125.569471 C164.0796,126.162351 163.868542,126.731731 163.509278,127.208051 C163.020643,127.733544 162.313433,128.006191 161.593664,127.946566 C160.172183,127.897496 158.791115,127.466644 157.598908,126.700322 C156.430851,125.938728 155.648253,124.27707 154.760529,123.134679 C152.794555,120.642514 150.962088,118.050313 149.27066,115.368733 C146.327156,110.626083 137.344795,97.5520605 144.212972,92.8555671 C145.103534,92.3444024 145.822456,91.5860243 146.280433,90.6746402 Z" id="Path" fill="#FFFFFF"></path>
                    <path d="M128.783301,275.404691 C128.678838,274.858651 128.562767,274.300993 128.469911,273.754953 C126.415462,262.555322 126.46189,251.14657 125.742252,239.83076 C125.034222,228.805398 122.260135,217.989157 119.938723,207.196152 C119.410864,205.398481 119.343011,203.496826 119.741403,201.666044 C120.310149,199.807184 121.795853,198.401421 122.840488,196.763301 C130.733287,184.494826 115.307507,169.798216 114.634298,157.436798 C114.274479,150.895934 116.955709,144.517722 116.955709,137.953623 C117.013745,131.749678 114.727154,125.789709 113.345914,119.736796 C111.693011,112.316436 111.374642,104.660596 112.405743,97.1284133 C113.253058,90.8315256 116.723568,83.8608011 111.906639,78.249368 C105.801327,71.1043754 100.694222,61.9843443 89.8532296,60.1951917 C85.7559382,59.5329728 81.7282891,58.1969173 77.7354613,57.1745444 L75.7274403,55.9546676 C73.4060287,53.5149141 69.448022,55.733928 67.1730387,53.0501991 C65.9426906,50.3548523 65.8498341,48.2171635 68.1944598,45.6147597 C70.2605161,43.2911849 73.069424,40.6771632 71.9435394,36.7387039 C72.0944312,32.0915543 75.2167297,28.0717699 74.3462004,23.2968236 C77.4452848,18.4173165 77.0506449,13.4448664 73.1854946,9.11139942 C67.834641,0.293433004 51.4106543,-3.07575047 44.7017749,4.0576242 C38.4747003,10.3431153 35.6720909,19.2566187 37.1804014,27.9788269 C37.7607543,31.6849287 41.9741163,33.6948209 40.7437682,37.7610768 C41.4285846,39.7942048 41.3473352,42.4082265 44.4812408,42.547641 L44.7598102,42.8380878 C45.5839113,46.32345 44.6669537,49.8901374 44.5624902,53.4219711 C37.5964691,57.861683 30.2924657,61.746279 22.7180075,65.0398451 C14.9760999,68.4555001 6.93240891,72.2893986 5.40027728,81.4326654 C3.2529716,94.1542375 3.58957627,108.153776 2.52172696,121.177413 L1.84851761,128.973006 C1.09405885,138.673931 0.281564808,148.409709 0.908345927,158.122252 C1.25858302,165.403605 2.61399271,172.601399 4.93599497,179.510758 C6.58419717,184.157908 14.1287847,194.997384 13.4091471,199.632916 C13.1305778,201.422069 14.1984271,202.049434 15.7305587,202.305027 C15.8226016,202.504214 15.9776043,202.667527 16.1716269,202.769742 C16.2760904,204.082562 17.5760809,205.093317 17.0537633,206.592023 C12.9448648,218.779173 14.38414,234.335506 13.4555754,247.184875 C13.4555754,274.881886 8.44132641,301.672704 11.1341638,329.532366 C11.2239465,331.108626 11.5005873,332.668618 11.9582649,334.179516 C12.4109402,335.492335 13.1189707,336.712212 13.6528954,338.001796 C15.591274,342.741889 12.0395143,351.432059 20.1992759,350.049532 C22.3873843,349.525003 24.4764776,348.65014 26.3858377,347.458746 C31.5910177,344.694204 37.098481,342.542187 42.7982174,341.045679 C47.3597911,339.883892 52.0258283,339.082258 56.6454373,338.152829 C65.3739447,336.375294 73.6149558,332.855078 82.505962,331.286665 C92.4764246,329.532366 102.655814,328.19631 111.999496,324.083583 C112.982804,323.739525 113.889613,323.206771 114.669119,322.51517 C115.390804,321.65782 115.99577,320.708506 116.468213,319.692027 C118.557072,316.20488 121.949432,313.695875 125.893144,312.721302 C132.520774,310.850825 135.17879,311.931287 134.610044,303.729068 C133.971656,294.051379 130.686859,284.815169 128.783301,275.404691 Z" id="Path" fill="#000000"></path>
                    <path d="M57.6907594,135.50963 C57.5283395,148.618846 60.6607244,160.162435 65.3593018,172.196743 C75.6497663,145.125392 83.7127571,117.282911 87.7500532,88.42394 C88.5234815,82.9715028 89.1499585,77.5190656 89.6294841,72.0666285 C89.8615126,69.5896641 89.4322599,66.2247315 86.9959605,65.8742177 C84.09518,91.5196888 78.4950165,116.781847 70.2899076,141.234689 C70.1388605,141.824036 69.8572506,142.371282 69.4662064,142.835368 C68.0972382,144.237424 66.8210814,142.835368 67.2619356,141.26974 C73.2134669,120.180492 76.9027202,98.6589435 80.5687707,76.9504543 C81.1562169,72.2387921 81.4082243,67.4908427 81.3228634,62.7429609 C76.9607274,60.3244155 70.2899076,56.6323366 67.0647113,58.9106765 C66.2294087,70.5944704 62.7953867,82.2782644 61.9948883,94.148999 C61.9468186,96.5786564 61.6158488,98.9942428 61.0087672,101.346216 C60.6966398,102.35204 60.308801,103.332427 59.8486246,104.278848 C59.2453505,114.72416 57.8299765,125.076002 57.6907594,135.50963 Z" id="Path" fill="#C4C3C6"></path>
                    <path d="M27.1223718,145.582033 C34.4153677,141.640548 39.0038295,134.110546 44.7134015,128.004186 C46.8400438,125.73342 50.3767422,125.980498 47.4872827,129.274874 C45.4762189,131.557405 43.3149031,133.734046 41.1882609,135.898922 C37.0621127,140.122782 32.8435017,144.228986 28.68268,148.417549 C28.1975713,148.835799 27.8038632,149.352814 27.5268962,149.935315 C27.2664014,150.747276 27.2068503,151.612145 27.3535286,152.453159 C27.987111,159.153273 28.0489844,165.896686 27.538454,172.607678 C27.2610659,176.137366 26.8449837,179.914133 28.1394616,183.196743 C27.8042843,182.326086 32.9475223,176.01971 33.6178769,174.960804 C36.8078402,170.089834 39.9053409,165.160036 42.8641474,160.112582 C46.0656686,154.582738 51.1857909,149.123487 52.0410709,142.546501 C52.4802688,139.075641 51.7290093,135.487125 51.8445877,132.051562 C51.945947,128.413431 52.3090649,124.787753 52.9310245,121.203654 C53.4164217,119.057747 53.6683579,116.86398 53.682284,114.661965 C53.7025052,114.277246 53.5968208,113.896563 53.3817802,113.579527 C52.7692147,112.802996 51.5556417,113.35598 50.7581509,113.932496 C44.1741478,118.727115 37.0355413,122.67869 29.5032865,125.698123 C28.0469989,126.286404 26.4289015,126.992342 25.897241,128.474811 C25.6871952,129.199671 25.6320223,129.961908 25.7354312,130.71028 C26.0205246,135.722437 26.4828381,140.679688 27.1223718,145.582033 Z" id="Path" fill="#C4C3C6"></path>
                    <path d="M105.276246,81.1340688 C106.004269,100.326861 102.469835,120.615717 98.2308622,139.248816 C93.8392395,158.814737 87.0287017,177.272932 79.2552947,195.719467 C68.969034,220.136056 55.3244737,243.223376 40.0125059,264.888143 C38.0163137,267.709927 34.2470333,272.187467 30.2781336,270.146922 C30.8300221,270.426768 45.4022246,247.39775 46.7173629,245.263922 C52.1892778,236.72861 57.4733158,228.065035 62.3228885,219.156594 C71.9448912,201.639061 79.859921,183.24894 85.9601518,164.236759 C87.1343824,160.353891 88.3086131,156.436043 89.377163,152.506535 C90.371345,148.75193 91.2794167,144.977892 92.1013781,141.18442 C96.3638355,121.361974 98.0782122,101.108098 98.7827506,80.8658828 C98.9354006,76.5399254 97.9842738,70.8497174 93.6748472,70.1967427 C97.4793546,106.856608 81.0636099,142.222183 66.2800458,176.025284 C55.4418968,201.013226 45.1438939,226.339316 32.1099335,250.301155 C30.5012375,253.251201 28.7868607,256.271209 26.1096148,258.335076 C30.3368452,249.508257 34.5523333,240.693099 38.8617598,231.901261 C43.2690389,222.922859 47.5354103,213.882269 51.660874,204.779491 C56.1855762,194.782759 60.4480335,184.677199 64.448246,174.462809 C63.8358873,174.545331 63.2125341,174.452279 62.6516731,174.194623 C61.9823616,174.754315 59.7160964,174.777636 59.4107964,174.06636 C55.9379908,166.175256 53.4611418,157.888006 52.0366279,149.393245 C48.2634333,156.000727 44.3493311,162.526587 40.2943212,168.970825 C38.1963624,172.297887 36.0553485,175.589967 33.8712795,178.847067 C32.4504604,180.969235 28.7398915,184.677199 28.2584569,187.149174 C23.7259265,208.510775 19.5926346,230.023959 18.113104,251.968573 C17.197204,265.599419 17.9956809,279.171965 18.2540116,292.779491 C18.3636065,298.158759 18.7041334,303.518592 19.2755923,308.858993 C24.6183418,302.725695 29.8436683,296.429153 34.7871794,290.027669 C53.0229816,266.625522 71.0239377,242.570401 78.233714,213.349784 C78.8325716,210.936109 80.6643715,207.799499 82.9306367,208.860583 C79.6427908,227.237156 71.18833,244.377742 60.925554,259.979173 C50.662778,275.580604 38.3685829,289.806124 26.5323378,304.28817 C24.6639765,306.362498 23.0842508,308.676313 21.8354152,311.167725 C18.6532501,318.408747 21.3422383,326.745835 24.0429688,334.196743 C46.0480515,316.811292 62.7925808,293.385824 74.5935989,268.083055 C86.3946171,242.780286 93.5574242,215.495272 98.2895737,188.035354 C104.36804,152.741245 106.709688,116.912292 105.276246,81.1340688 Z" id="Path" fill="#C4C3C6"></path>
                    <path d="M97.4839722,73.59174 C96.7842595,93.7598391 95.0816251,113.951173 90.848363,133.689422 C90.0709044,137.469005 89.1690524,141.229224 88.142807,144.970082 C87.1048998,148.885202 85.9620356,152.788705 84.7492002,156.657356 C78.6907522,175.599924 70.8299354,193.922711 61.2738374,211.376104 C56.4574813,220.251926 51.2096357,228.88378 45.7752,237.38784 C42.7431114,242.127808 39.1512526,245.369109 37.7868128,251.061718 C36.2124591,257.660497 34.4281915,263.422811 30.6847283,269.196743 C34.6964148,263.004579 46.2300133,245.46205 46.9413879,244.358381 C52.3758236,235.854321 57.6236692,227.222467 62.4400253,218.346645 C71.9961233,200.893252 79.8569401,182.570466 85.9153881,163.627897 C87.081576,159.759246 88.2477639,155.855743 89.3089949,151.940623 C90.2963674,148.199766 91.1982194,144.439546 92.0145509,140.659964 C96.2478131,120.910097 97.9504474,100.73038 98.6501602,80.5622812 C98.8103987,78.0515178 98.4121916,75.5364774 97.4839722,73.1967427 L97.4839722,73.59174 Z" id="Path" fill="#FFFFFF"></path>
                    <path d="M88.3524711,67.1967427 C87.881923,72.1440424 87.3072373,77.0758332 86.6284139,81.9921154 C80.9818374,122.388601 67.4092262,160.703033 50.8629056,197.772885 C46.8131069,206.868783 42.6090301,215.887136 38.2506753,224.827946 C34.004172,233.598159 29.8502356,242.391635 25.6847283,251.196743 C28.3228829,249.137953 29.5262517,250.847795 31.1114586,247.905005 C43.9666769,224.002103 55.0515546,197.214569 65.8240192,172.29972 C68.2538985,166.681666 70.2556561,157.8184 72.6623937,152.118925 C79.6022666,131.57546 84.6642582,110.438668 87.7854993,88.9710647 C88.5568895,83.542993 89.1817156,78.1149213 89.6599775,72.6868495 C89.7756861,70.7909016 89.5095564,68.3599009 88.3524711,67.1967427 Z" id="Path" fill="#FFFFFF"></path>
                    <path d="M71.3912732,70.6205214 C67.4502359,91.7373229 65.5427101,113.159008 65.6929572,134.613121 C65.8634196,149.082338 66.6426765,138.889449 68.0063761,136.183061 C68.3280302,135.665358 68.6167239,135.129343 68.8708642,134.577973 C68.8708642,134.460814 68.9439195,134.343654 68.9926231,134.226495 C74.0456171,115.398939 77.5157454,96.3604962 80.8762908,77.1463138 C81.4928254,72.4216782 81.7573113,67.6606555 81.6677236,62.8997006 L80.3405517,62.1967427 C80.2674964,64.8445508 71.8417811,67.9844293 71.3912732,70.6205214 Z" id="Path" fill="#FFFFFF"></path>
                    <path d="M27.1847283,177.196743 C27.0447283,178.041403 26.8847283,178.886063 26.6847283,179.730723 C27.0447283,180.225869 27.4247283,180.701597 27.7847283,181.196743 L28.6847283,179.128782 L27.1847283,177.196743 Z" id="Path" fill="#FFFFFF"></path>
                    <path d="M105.064128,80.7794452 C105.064128,80.5813263 105.064128,80.3832075 104.970282,80.1967427 C104.970282,80.9659099 104.970282,81.7350772 104.970282,82.5275525 C106.143359,96.5939898 105.122782,110.835238 103.879321,124.936637 C100.606437,162.113054 96.0548998,199.522551 84.1833646,234.939207 C72.3118294,270.355862 52.5102964,304.001101 23.0308815,327.204313 C22.1158818,323.614866 21.3299205,319.990457 20.6847283,316.354394 C21.5879973,322.356229 22.7610739,328.311448 24.2039581,334.196743 C53.683373,310.993531 73.437983,277.359945 85.3564412,241.931636 C97.2748994,206.503327 101.779514,169.105483 105.052397,131.894104 C106.553935,114.879193 107.809127,97.6312001 105.064128,80.7794452 Z" id="Path" fill="#FFFFFF"></path>
                    <path d="M72.7357128,16.0325208 C72.4271854,15.2542815 72.0417493,14.5108924 71.5855073,13.8141242 C70.1822566,11.4415076 69.0665572,8.81976629 66.9846852,6.90980993 C66.5794236,6.48754385 66.0938238,6.15634191 65.5584304,5.93703713 C65.0753441,5.77095397 64.5577516,5.75909088 64.0746653,5.58114464 C63.3699529,5.18321632 62.710289,4.70576403 62.1078138,4.15757468 C61.4808298,3.59678143 60.5627806,3.5526271 59.8879172,4.05080693 C59.5313938,3.2589128 58.9050706,2.62981888 58.1281028,2.28320757 C57.2674438,2.21039132 56.4012431,2.25426311 55.5516424,2.41370148 C54.631478,2.41370148 53.7228156,1.33416093 52.8946677,2.66282622 C52.7663299,2.97202168 52.5829687,3.25368464 52.3540711,3.49324203 C52.0676331,3.65432868 51.7484975,3.74372815 51.4224046,3.75422986 C49.5360675,4.08639618 48.3283518,6.29292962 46.4305126,6.50646511 C46.0021215,6.49301207 45.5745443,6.55314816 45.1652866,6.68441136 C43.3364598,7.51482717 42.4623036,10.5399133 41.910205,12.2719234 C40.7599994,16.0325208 37.0678397,22.640258 40.2884152,26.211046 C40.7715015,26.7448847 41.4386207,27.1956818 41.5766454,27.8956037 C41.71467,28.5955256 41.5766454,29.081912 41.8066865,29.6394769 C42.0367276,30.1970418 42.6348344,30.4343035 42.956892,30.8257852 C43.3573338,31.5863715 43.5891139,32.4291426 43.6355132,33.2933065 C44.0610893,35.2032629 45.7173852,36.508202 46.9020969,38.0385397 C47.8567675,39.2841634 48.5238867,40.7433226 49.3980429,42.0601248 C53.5617869,48.3356957 64.7187804,46.4969179 68.7675038,40.8738165 C70.0610517,39.3660065 70.5858237,37.3154412 70.1822566,35.3456199 C70.4026846,35.0583635 70.5240917,34.7035797 70.5273182,34.3372578 C70.527102,34.1060789 70.5039778,33.875528 70.4583059,33.649199 C70.4583059,33.5187051 70.4583059,33.3526219 70.4583059,33.4356635 C70.5009849,33.2874046 70.5588199,33.1442436 70.6308367,33.0085925 C71.0884181,32.1813126 70.823047,31.1286182 70.0327299,30.6359759 C69.4557929,30.3038195 68.7456008,30.340674 68.2039031,30.7308806 C66.9501791,31.656201 60.7620734,30.0309587 59.1747898,29.9479171 C55.4286698,29.7383231 51.6726684,29.8136598 47.9372819,30.1733157 C46.8891339,28.5310915 45.9919151,26.7915343 45.257303,24.9772853 C45.0869443,24.6335914 45.0189145,24.2456194 45.0617681,23.8621555 C45.2227969,23.1740967 45.9819325,22.9012458 46.5225291,22.4741748 C48.5123846,20.9201109 47.546212,17.930614 49.9731456,16.7443057 C51.1233512,16.1748777 52.4920957,16.0562469 53.6883095,15.5579974 C55.1950787,14.8699386 56.6098315,13.4700948 58.2201192,13.8259873 C59.6003658,14.1344275 60.7045631,15.7003544 62.0848097,15.3800512 C62.5909002,15.2614204 63.0854885,14.8936648 63.5685749,15.071611 C64.0516612,15.2495573 64.2011879,16.1748777 64.5692537,16.7324426 C65.1098502,17.5628585 66.3405702,17.5984477 66.9846852,18.357685 C67.6288003,19.1169223 67.4562695,19.9947905 67.8473394,20.7303016 C68.2269988,21.3312227 68.8260592,21.7483348 69.5083837,21.8868489 C70.1907081,22.0253631 70.8983462,21.8735152 71.4704868,21.4658128 C72.5817327,20.5651069 73.1500636,19.1267365 72.9657539,17.6814893 C72.9558597,17.1241051 72.8785826,16.5701712 72.7357128,16.0325208 L72.7357128,16.0325208 Z M56.469537,34.6143823 C59.130788,34.3510756 62.5995126,33.2429932 65.0901706,35.0093424 C65.3500209,35.1983475 65.5934498,35.4074926 65.8180341,35.6346958 C65.8493836,35.8114589 65.9108713,35.9819911 66,36.139367 C64.737907,36.7173518 63.4431511,37.2264822 62.1218522,37.6643517 C58.2798702,38.7187439 54.1743069,37.2324321 52,34 C53.4580566,34.3809937 54.9591975,34.5873404 56.469537,34.6143823 Z" id="Shape" fill="#FFFFFF"></path>
                    <path d="M9.69754088,177.196743 C9.42477608,180.804933 13.5782401,186.206151 15.3760081,189.371618 C16.2067009,190.788331 19.0087393,197.196743 21.3148417,197.196743 C22.6414706,197.196743 19.9882129,188.563649 19.7898385,187.910633 C19.1451217,185.763428 18.7731697,183.372725 17.1861745,181.767855 C15.3636097,179.90842 12.3879937,177.661602 9.69754088,177.196743 Z" id="Path" fill="#C4C3C6"></path>
                    <path d="M118.74116,182.120407 C118.090985,179.793253 117.715884,177.202195 116.115452,175.462828 C114.305624,173.414785 112.01228,171.810889 109.426149,170.784529 C109.288612,170.580603 109.151075,170.376677 109.013537,170.196743 C108.86919,170.305261 108.739044,170.430122 108.625933,170.568607 L108.625933,170.568607 C108.619637,170.604341 108.619637,170.640835 108.625933,170.676568 C107.213052,172.499905 107.375596,177.058248 107.188045,179.44538 C107.063012,180.644943 105.937708,185.371225 107.525636,187.002631 C108.438382,187.938291 110.739003,182.36032 110.926553,181.940472 C111.251641,181.14876 111.676756,180.393035 111.926823,179.541345 C112.827066,181.100778 113.727309,182.55225 114.352477,183.715827 C115.190203,185.251268 118.015965,192.196743 120.341592,192.196743 C121.616936,192.184747 118.941214,182.828149 118.74116,182.120407 Z" id="Path" fill="#C4C3C6"></path>
                    <path d="M47.4825699,67.494191 C46.3050903,64.1715239 51.4271264,61.4572324 52.5339572,57.3038985 C52.7015413,56.8060085 52.7300277,56.2722687 52.6163807,55.7595602 C52.4045503,55.259106 52.068269,54.8203063 51.6390727,54.4843112 L48.106634,51.1967427 C48.8484462,58.216462 44.7272677,63.0600683 38.2275806,64.8617963 C31.4923975,66.7337214 24.4863941,68.8630363 19.6351783,73.7066426 C15.5728739,77.7078826 13.5358342,83.148165 12.3583547,88.600147 C10.8276313,96.228242 11.0513524,104.03183 11.0278028,111.765221 C11.0042532,119.498611 9.85032322,126.752321 8.99076315,134.345318 C8.42557296,139.610107 7.97813073,144.874897 7.60133727,150.163085 C7.31874218,154.211123 6.24723578,158.575049 6.88307474,162.728383 C7.43649013,166.331839 13.6535822,175.738262 16.5030827,168.578149 C18.7520687,162.962373 13.9126277,156.188344 13.665357,150.560869 C13.3356627,143.318859 13.2179148,136.065149 13.4298611,128.823139 C13.8773033,114.046629 13.4887351,93.4788519 25.475477,82.5748879 C24.4778947,86.1333861 23.9631026,89.8083281 23.9447535,93.502251 C23.8741048,98.626646 24.1684746,103.832938 24.5923673,109.015831 C24.6110105,109.73416 24.8446752,110.430673 25.2635306,111.016451 C25.8259067,111.669462 26.6602617,112.027841 27.5242914,111.987512 C29.233726,111.98077 30.9096742,111.515959 32.3755072,110.642066 C33.8591314,109.7763 34.8246646,107.799079 35.9079458,106.453633 C38.3677138,103.505904 40.6708607,100.432541 42.807976,97.2461012 C46.5288114,91.6420253 57.84439,76.1869434 49.7551054,70.220182 C48.7471143,69.5502153 47.9574209,68.6029488 47.4825699,67.494191 L47.4825699,67.494191 Z" id="Path" fill="#FFFFFF"></path>
                </g>
            </g>
        </g>
    </g>
</svg>