<?xml version="1.0" encoding="UTF-8"?>
<svg width="882px" height="300px" viewBox="0 0 882 300" version="1.1" xmlns="http://www.w3.org/2000/svg" xmlns:xlink="http://www.w3.org/1999/xlink">
    <!-- Generator: Sketch 61 (89581) - https://sketch.com -->
    <title>Group</title>
    <desc>Created with Sketch.</desc>
    <g id="Github-Covers" stroke="none" stroke-width="1" fill="none" fill-rule="evenodd">
        <g id="Blog">
            <g id="Group">
                <rect id="Rectangle" fill="#FFFFFF" fill-rule="nonzero" x="0" y="0" width="882" height="300"></rect>
                <rect id="Rectangle" fill="#E9ECF0" fill-rule="nonzero" x="0" y="0" width="882" height="210"></rect>
                <rect id="Rectangle" fill="#D3D8E0" fill-rule="nonzero" x="620" y="105" width="52.5" height="52.5"></rect>
                <polygon id="Path" fill="#D3D8E0" fill-rule="nonzero" points="625.837 157.5 620 157.5 620 163.337 625.837 163.337"></polygon>
                <polygon id="Path" fill="#D3D8E0" fill-rule="nonzero" points="631.674 163.337 625.837 163.337 625.837 169.174 631.674 169.174"></polygon>
                <polygon id="Path" fill="#D3D8E0" fill-rule="nonzero" points="637.494 157.5 631.658 157.5 631.658 163.337 637.494 163.337"></polygon>
                <polygon id="Path" fill="#D3D8E0" fill-rule="nonzero" points="625.837 169.158 620 169.158 620 174.995 625.837 174.995"></polygon>
                <polygon id="Path" fill="#D3D8E0" fill-rule="nonzero" points="637.494 169.158 631.658 169.158 631.658 174.995 637.494 174.995"></polygon>
                <polygon id="Path" fill="#D3D8E0" fill-rule="nonzero" points="643.332 163.337 637.496 163.337 637.496 169.174 643.332 169.174"></polygon>
                <polygon id="Path" fill="#D3D8E0" fill-rule="nonzero" points="631.674 174.995 625.837 174.995 625.837 180.832 631.674 180.832"></polygon>
                <polygon id="Path" fill="#D3D8E0" fill-rule="nonzero" points="625.837 180.832 620 180.832 620 186.669 625.837 186.669"></polygon>
                <polygon id="Path" fill="#D3D8E0" fill-rule="nonzero" points="637.494 180.832 631.658 180.832 631.658 186.669 637.494 186.669"></polygon>
                <polygon id="Path" fill="#D3D8E0" fill-rule="nonzero" points="643.332 174.995 637.496 174.995 637.496 180.832 643.332 180.832"></polygon>
                <polygon id="Path" fill="#D3D8E0" fill-rule="nonzero" points="631.674 186.668 625.837 186.668 625.837 192.505 631.674 192.505"></polygon>
                <polygon id="Path" fill="#D3D8E0" fill-rule="nonzero" points="625.837 192.489 620 192.489 620 198.326 625.837 198.326"></polygon>
                <polygon id="Path" fill="#D3D8E0" fill-rule="nonzero" points="637.494 192.489 631.658 192.489 631.658 198.326 637.494 198.326"></polygon>
                <polygon id="Path" fill="#D3D8E0" fill-rule="nonzero" points="643.332 186.668 637.496 186.668 637.496 192.505 643.332 192.505"></polygon>
                <polygon id="Path" fill="#D3D8E0" fill-rule="nonzero" points="631.674 198.326 625.837 198.326 625.837 204.163 631.674 204.163"></polygon>
                <polygon id="Path" fill="#D3D8E0" fill-rule="nonzero" points="625.837 204.164 620 204.164 620 210.001 625.837 210.001"></polygon>
                <polygon id="Path" fill="#D3D8E0" fill-rule="nonzero" points="637.494 204.164 631.658 204.164 631.658 210.001 637.494 210.001"></polygon>
                <polygon id="Path" fill="#D3D8E0" fill-rule="nonzero" points="643.332 198.326 637.496 198.326 637.496 204.163 643.332 204.163"></polygon>
                <polygon id="Path" fill="#D3D8E0" fill-rule="nonzero" points="649.168 157.5 643.331 157.5 643.331 163.337 649.168 163.337"></polygon>
                <polygon id="Path" fill="#D3D8E0" fill-rule="nonzero" points="655.006 163.337 649.169 163.337 649.169 169.174 655.006 169.174"></polygon>
                <polygon id="Path" fill="#D3D8E0" fill-rule="nonzero" points="660.826 157.5 654.99 157.5 654.99 163.337 660.826 163.337"></polygon>
                <polygon id="Path" fill="#D3D8E0" fill-rule="nonzero" points="649.168 169.158 643.331 169.158 643.331 174.995 649.168 174.995"></polygon>
                <polygon id="Path" fill="#D3D8E0" fill-rule="nonzero" points="660.826 169.158 654.99 169.158 654.99 174.995 660.826 174.995"></polygon>
                <polygon id="Path" fill="#D3D8E0" fill-rule="nonzero" points="666.663 163.337 660.827 163.337 660.827 169.174 666.663 169.174"></polygon>
                <polygon id="Path" fill="#D3D8E0" fill-rule="nonzero" points="655.006 174.995 649.169 174.995 649.169 180.832 655.006 180.832"></polygon>
                <polygon id="Path" fill="#D3D8E0" fill-rule="nonzero" points="649.168 180.832 643.331 180.832 643.331 186.669 649.168 186.669"></polygon>
                <polygon id="Path" fill="#D3D8E0" fill-rule="nonzero" points="660.826 180.832 654.99 180.832 654.99 186.669 660.826 186.669"></polygon>
                <polygon id="Path" fill="#D3D8E0" fill-rule="nonzero" points="666.663 174.995 660.827 174.995 660.827 180.832 666.663 180.832"></polygon>
                <polygon id="Path" fill="#D3D8E0" fill-rule="nonzero" points="655.006 186.668 649.169 186.668 649.169 192.505 655.006 192.505"></polygon>
                <polygon id="Path" fill="#D3D8E0" fill-rule="nonzero" points="649.168 192.489 643.331 192.489 643.331 198.326 649.168 198.326"></polygon>
                <polygon id="Path" fill="#D3D8E0" fill-rule="nonzero" points="660.826 192.489 654.99 192.489 654.99 198.326 660.826 198.326"></polygon>
                <polygon id="Path" fill="#D3D8E0" fill-rule="nonzero" points="666.663 186.668 660.827 186.668 660.827 192.505 666.663 192.505"></polygon>
                <polygon id="Path" fill="#D3D8E0" fill-rule="nonzero" points="655.006 198.326 649.169 198.326 649.169 204.163 655.006 204.163"></polygon>
                <polygon id="Path" fill="#D3D8E0" fill-rule="nonzero" points="649.168 204.164 643.331 204.164 643.331 210.001 649.168 210.001"></polygon>
                <polygon id="Path" fill="#D3D8E0" fill-rule="nonzero" points="660.826 204.164 654.99 204.164 654.99 210.001 660.826 210.001"></polygon>
                <polygon id="Path" fill="#D3D8E0" fill-rule="nonzero" points="672.5 157.5 666.663 157.5 666.663 163.337 672.5 163.337"></polygon>
                <polygon id="Path" fill="#D3D8E0" fill-rule="nonzero" points="672.5 169.158 666.663 169.158 666.663 174.995 672.5 174.995"></polygon>
                <polygon id="Path" fill="#D3D8E0" fill-rule="nonzero" points="672.5 180.832 666.663 180.832 666.663 186.669 672.5 186.669"></polygon>
                <polygon id="Path" fill="#D3D8E0" fill-rule="nonzero" points="672.5 192.489 666.663 192.489 666.663 198.326 672.5 198.326"></polygon>
                <polygon id="Path" fill="#D3D8E0" fill-rule="nonzero" points="672.5 204.164 666.663 204.164 666.663 210.001 672.5 210.001"></polygon>
                <polygon id="Path" fill="#D3D8E0" fill-rule="nonzero" points="666.663 198.326 660.827 198.326 660.827 204.163 666.663 204.163"></polygon>
                <rect id="Rectangle" fill="#D3D8E0" fill-rule="nonzero" x="631.667" y="52.5" width="5.83333" height="52.5"></rect>
                <rect id="Rectangle" fill="#D3D8E0" fill-rule="nonzero" x="643.333" y="52.5" width="5.83333" height="52.5"></rect>
                <rect id="Rectangle" fill="#D3D8E0" fill-rule="nonzero" x="655" y="52.5" width="5.83333" height="52.5"></rect>
                <rect id="Rectangle" fill="#D3D8E0" fill-rule="nonzero" x="666.667" y="52.5" width="5.83333" height="52.5"></rect>
                <rect id="Rectangle" fill="#D3D8E0" fill-rule="nonzero" x="620" y="52.5" width="5.83668" height="52.5"></rect>
                <rect id="Rectangle" fill="#D3D8E0" fill-rule="nonzero" transform="translate(552.916335, 131.250000) rotate(-180.000000) translate(-552.916335, -131.250000) " x="549.99967" y="105" width="5.83333" height="52.5"></rect>
                <rect id="Rectangle" fill="#D3D8E0" fill-rule="nonzero" transform="translate(541.250335, 131.250000) rotate(-180.000000) translate(-541.250335, -131.250000) " x="538.33367" y="105" width="5.83333" height="52.5"></rect>
                <rect id="Rectangle" fill="#D3D8E0" fill-rule="nonzero" transform="translate(529.583335, 131.250000) rotate(-180.000000) translate(-529.583335, -131.250000) " x="526.66667" y="105" width="5.83333" height="52.5"></rect>
                <rect id="Rectangle" fill="#D3D8E0" fill-rule="nonzero" transform="translate(517.916335, 131.250000) rotate(-180.000000) translate(-517.916335, -131.250000) " x="514.99967" y="105" width="5.83333" height="52.5"></rect>
                <rect id="Rectangle" fill="#D3D8E0" fill-rule="nonzero" transform="translate(564.581660, 131.250000) rotate(-180.000000) translate(-564.581660, -131.250000) " x="561.66332" y="105" width="5.83668" height="52.5"></rect>
                <rect id="Rectangle" fill="#D3D8E0" fill-rule="nonzero" transform="translate(867.588335, 27.234400) rotate(-180.000000) translate(-867.588335, -27.234400) " x="864.67167" y="0.9844" width="5.83333" height="52.5"></rect>
                <rect id="Rectangle" fill="#D3D8E0" fill-rule="nonzero" transform="translate(855.921335, 27.234400) rotate(-180.000000) translate(-855.921335, -27.234400) " x="853.00467" y="0.9844" width="5.83333" height="52.5"></rect>
                <rect id="Rectangle" fill="#D3D8E0" fill-rule="nonzero" transform="translate(844.255335, 27.234400) rotate(-180.000000) translate(-844.255335, -27.234400) " x="841.33867" y="0.9844" width="5.83333" height="52.5"></rect>
                <rect id="Rectangle" fill="#D3D8E0" fill-rule="nonzero" transform="translate(832.588335, 27.234400) rotate(-180.000000) translate(-832.588335, -27.234400) " x="829.67167" y="0.9844" width="5.83333" height="52.5"></rect>
                <rect id="Rectangle" fill="#D3D8E0" fill-rule="nonzero" transform="translate(879.253660, 27.234400) rotate(-180.000000) translate(-879.253660, -27.234400) " x="876.33532" y="0.9844" width="5.83668" height="52.5"></rect>
                <path d="M567.5,163.333 L567.5,157.5 C596.495,157.5 620,181.005 620,210 L614.167,210 C614.167,184.227 593.273,163.333 567.5,163.333 Z M567.5,175 L567.5,169.166 C590.052,169.166 608.333,187.448 608.333,210 L602.5,210 C602.5,190.67 586.83,175 567.5,175 Z M567.5,180.834 L567.5,186.667 C580.387,186.667 590.833,197.114 590.833,210 L596.667,210 C596.667,193.892 583.608,180.834 567.5,180.834 Z M567.5,198.333 L567.5,192.5 C577.165,192.5 585,200.335 585,210 L579.167,210 C579.167,203.557 573.943,198.333 567.5,198.333 Z M567.5,210 L567.5,204.166 C570.722,204.166 573.333,206.778 573.333,210 L567.5,210 Z" id="Shape" fill="#D3D8E0"></path>
                <path d="M777,110.833 L777,105 C805.995,105 829.5,128.505 829.5,157.5 L823.667,157.5 C823.667,131.727 802.773,110.833 777,110.833 Z M777,122.5 L777,116.667 C799.552,116.667 817.833,134.949 817.833,157.5 L812,157.5 C812,138.17 796.33,122.5 777,122.5 Z M777,128.333 L777,134.167 C789.887,134.167 800.333,144.613 800.333,157.5 L806.167,157.5 C806.167,141.392 793.108,128.333 777,128.333 Z M777,145.833 L777,140 C786.665,140 794.5,147.835 794.5,157.5 L788.667,157.5 C788.667,151.056 783.443,145.833 777,145.833 Z M777,157.5 L777,151.667 C780.222,151.667 782.833,154.279 782.833,157.5 L777,157.5 Z" id="Shape" fill="#D3D8E0"></path>
                <path d="M729.112,52.5 L725,52.5 L725,48.3875 L773.387,0 L777.5,0 L777.5,4.1125 L729.112,52.5 Z M765.133,0 L756.879,0 L725,31.8791 L725,40.1333 L765.133,0 Z M748.625,0 L740.371,0 L725,15.3708 L725,23.625 L748.625,0 Z M725,0 L725,7.11666 L732.117,0 L725,0 Z M777.5,20.6208 L777.5,12.3667 L737.367,52.5 L745.621,52.5 L777.5,20.6208 Z M777.5,37.1291 L777.5,28.875 L753.875,52.5 L762.129,52.5 L777.5,37.1291 Z M777.5,45.3833 L770.383,52.5 L777.5,52.5 L777.5,45.3833 Z" id="Shape" fill="#D3D8E0" fill-rule="nonzero"></path>
                <path d="M672.5,105 L725,105 L725,52.5 C696.005,52.5 672.5,76.0051 672.5,105 Z" id="Path" fill="#D3D8E0" fill-rule="nonzero"></path>
                <path d="M777.5,157.5 L777.5,105 L725,105 C725,133.995 748.505,157.5 777.5,157.5 Z" id="Path" fill="#D3D8E0" fill-rule="nonzero"></path>
                <path d="M64.4062,101 L64.4062,68.3516 L77.1328,68.3516 C78.7578,68.3516 80.1641,68.4688 81.3516,68.7031 C82.5391,68.9219 83.6016,69.3672 84.5391,70.0391 C86.4141,71.3672 87.3516,73.4219 87.3516,76.2031 C87.3516,78.1094 86.9062,79.7422 86.0156,81.1016 C85.1406,82.4609 83.9375,83.4297 82.4062,84.0078 C84.1406,84.4922 85.5156,85.3672 86.5312,86.6328 C87.5625,87.8984 88.0781,89.5156 88.0781,91.4844 C88.0781,94.6562 87.25,97.0156 85.5938,98.5625 C84.6719,99.3906 83.5234,100.008 82.1484,100.414 C80.7891,100.805 79.1953,101 77.3672,101 L64.4062,101 Z M68.9766,96.9219 L79.2422,96.9219 C80.4609,96.9219 81.4375,96.6328 82.1719,96.0547 C82.9062,95.4766 83.2734,94.5781 83.2734,93.3594 L83.2734,89.4219 C83.2734,88.3281 82.9375,87.5156 82.2656,86.9844 C81.5938,86.4375 80.6875,86.1641 79.5469,86.1641 L68.9766,86.1641 L68.9766,96.9219 Z M68.9766,82.0859 L79.0078,82.0859 C80.2266,82.0859 81.125,81.7656 81.7031,81.125 C82.2812,80.4844 82.5703,79.6562 82.5703,78.6406 L82.5703,75.7109 C82.5703,73.5391 81.3828,72.4453 79.0078,72.4297 L68.9766,72.4297 L68.9766,82.0859 Z M95.2031,101 L95.2031,68.3516 L99.5156,68.3516 L99.5156,101 L95.2031,101 Z M106.289,88.7656 C106.289,86.9062 106.508,85.1875 106.945,83.6094 C107.398,82.0156 108.078,80.6641 108.984,79.5547 C109.906,78.4297 111.055,77.5469 112.43,76.9062 C113.805,76.2656 115.422,75.9453 117.281,75.9453 C119.141,75.9453 120.758,76.2656 122.133,76.9062 C123.508,77.5469 124.648,78.4297 125.555,79.5547 C126.461,80.6641 127.141,82.0156 127.594,83.6094 C128.047,85.1875 128.273,86.9062 128.273,88.7656 C128.273,90.6562 128.047,92.3828 127.594,93.9453 C127.141,95.5078 126.461,96.8516 125.555,97.9766 C124.648,99.1016 123.5,99.9844 122.109,100.625 C120.734,101.266 119.125,101.586 117.281,101.586 C115.422,101.586 113.805,101.266 112.43,100.625 C111.055,99.9844 109.906,99.1016 108.984,97.9766 C108.078,96.8516 107.398,95.5078 106.945,93.9453 C106.508,92.3828 106.289,90.6562 106.289,88.7656 Z M110.836,92.5625 C110.836,93.3906 111.008,94.1484 111.352,94.8359 C111.711,95.5234 112.18,96.1094 112.758,96.5938 C113.336,97.0625 114.016,97.4375 114.797,97.7188 C115.578,97.9844 116.406,98.1172 117.281,98.1172 C118.141,98.1172 118.961,97.9844 119.742,97.7188 C120.523,97.4375 121.203,97.0625 121.781,96.5938 C122.359,96.1094 122.82,95.5234 123.164,94.8359 C123.523,94.1484 123.703,93.3906 123.703,92.5625 L123.703,84.9688 C123.703,84.1406 123.523,83.3828 123.164,82.6953 C122.82,82.0078 122.359,81.4219 121.781,80.9375 C121.203,80.4531 120.523,80.0781 119.742,79.8125 C118.961,79.5312 118.141,79.3906 117.281,79.3906 C116.422,79.3906 115.594,79.5312 114.797,79.8125 C114.016,80.0781 113.336,80.4531 112.758,80.9375 C112.18,81.4219 111.711,82.0078 111.352,82.6953 C111.008,83.3828 110.836,84.1406 110.836,84.9688 L110.836,92.5625 Z M133.711,88.7656 C133.711,87 133.906,85.3359 134.297,83.7734 C134.703,82.1953 135.305,80.8359 136.102,79.6953 C136.898,78.5391 137.906,77.625 139.125,76.9531 C140.344,76.2812 141.766,75.9453 143.391,75.9453 C145.219,75.9453 146.789,76.3359 148.102,77.1172 C149.414,77.8984 150.453,79.0312 151.219,80.5156 L151.219,76.5312 L155.555,76.5312 L155.555,100.531 C155.555,102.234 155.25,103.695 154.641,104.914 C154.031,106.148 153.227,107.172 152.227,107.984 C151.242,108.797 150.117,109.391 148.852,109.766 C147.586,110.156 146.297,110.352 144.984,110.352 C143.703,110.352 142.477,110.227 141.305,109.977 C140.148,109.727 139.094,109.305 138.141,108.711 C137.203,108.117 136.422,107.328 135.797,106.344 C135.172,105.375 134.766,104.156 134.578,102.688 L138.891,102.688 C139.047,104.094 139.641,105.148 140.672,105.852 C141.719,106.555 143.094,106.906 144.797,106.906 C145.625,106.906 146.43,106.781 147.211,106.531 C147.992,106.297 148.68,105.914 149.273,105.383 C149.867,104.867 150.336,104.188 150.68,103.344 C151.039,102.516 151.219,101.508 151.219,100.32 L151.219,97.0156 C150.453,98.4844 149.43,99.6172 148.148,100.414 C146.867,101.195 145.32,101.586 143.508,101.586 C141.852,101.586 140.406,101.25 139.172,100.578 C137.953,99.9062 136.938,98.9922 136.125,97.8359 C135.312,96.6797 134.703,95.3281 134.297,93.7812 C133.906,92.2188 133.711,90.5469 133.711,88.7656 Z M138.258,92.5625 C138.258,93.3906 138.414,94.1484 138.727,94.8359 C139.055,95.5234 139.5,96.1094 140.062,96.5938 C140.625,97.0625 141.281,97.4375 142.031,97.7188 C142.781,97.9844 143.609,98.1172 144.516,98.1172 C146.688,98.1172 148.344,97.4297 149.484,96.0547 C150.641,94.6797 151.219,92.9375 151.219,90.8281 L151.219,86.7031 C151.219,84.5938 150.641,82.8516 149.484,81.4766 C148.344,80.0859 146.688,79.3906 144.516,79.3906 C143.625,79.3906 142.797,79.5312 142.031,79.8125 C141.281,80.0781 140.625,80.4531 140.062,80.9375 C139.5,81.4219 139.055,82.0078 138.727,82.6953 C138.414,83.3828 138.258,84.1406 138.258,84.9688 L138.258,92.5625 Z" id="Shape" fill="#000000" fill-rule="nonzero"></path>
                <path d="M65,145 C68.5455,145 70.5455,142.795 70.5455,139.159 C70.5455,135.545 68.5455,133.364 65.1591,133.364 L61.4091,133.364 L61.4091,145 L65,145 Z M62.8182,143.75 L62.8182,134.614 L65.0682,134.614 C67.7955,134.614 69.1818,136.341 69.1818,139.159 C69.1818,142 67.7955,143.75 64.9091,143.75 L62.8182,143.75 Z M72.7273,145 L74.0682,145 L74.0682,136.273 L72.7273,136.273 L72.7273,145 Z M73.4091,134.818 C73.9318,134.818 74.3636,134.409 74.3636,133.909 C74.3636,133.409 73.9318,133 73.4091,133 C72.8864,133 72.4545,133.409 72.4545,133.909 C72.4545,134.409 72.8864,134.818 73.4091,134.818 Z M82.706,138.227 C82.2855,136.989 81.3423,136.159 79.6151,136.159 C77.7741,136.159 76.4105,137.205 76.4105,138.682 C76.4105,139.886 77.1264,140.693 78.7287,141.068 L80.1832,141.409 C81.0639,141.614 81.4787,142.034 81.4787,142.636 C81.4787,143.386 80.6832,144 79.4332,144 C78.3366,144 77.6491,143.528 77.4105,142.591 L76.1378,142.909 C76.4503,144.392 77.6719,145.182 79.456,145.182 C81.4844,145.182 82.8651,144.074 82.8651,142.568 C82.8651,141.352 82.1037,140.585 80.5469,140.205 L79.2514,139.886 C78.2173,139.631 77.7514,139.284 77.7514,138.614 C77.7514,137.864 78.5469,137.318 79.6151,137.318 C80.7855,137.318 81.2685,137.966 81.5014,138.568 L82.706,138.227 Z M88.429,145.182 C90.3608,145.182 91.6335,144 91.8608,142.455 L90.5199,142.455 C90.2699,143.409 89.4744,143.977 88.429,143.977 C86.8381,143.977 85.8153,142.659 85.8153,140.636 C85.8153,138.659 86.8608,137.364 88.429,137.364 C89.6108,137.364 90.3153,138.091 90.5199,138.886 L91.8608,138.886 C91.6335,137.25 90.2472,136.159 88.4062,136.159 C86.0426,136.159 84.4744,138.023 84.4744,140.682 C84.4744,143.295 85.9744,145.182 88.429,145.182 Z M99.321,141.432 C99.321,143.068 98.071,143.818 97.071,143.818 C95.9574,143.818 95.1619,143 95.1619,141.727 L95.1619,136.273 L93.821,136.273 L93.821,141.818 C93.821,144.045 95.0028,145.114 96.6392,145.114 C97.9574,145.114 98.821,144.409 99.2301,143.523 L99.321,143.523 L99.321,145 L100.662,145 L100.662,136.273 L99.321,136.273 L99.321,141.432 Z M109.3,138.227 C108.879,136.989 107.936,136.159 106.209,136.159 C104.368,136.159 103.004,137.205 103.004,138.682 C103.004,139.886 103.72,140.693 105.322,141.068 L106.777,141.409 C107.658,141.614 108.072,142.034 108.072,142.636 C108.072,143.386 107.277,144 106.027,144 C104.93,144 104.243,143.528 104.004,142.591 L102.732,142.909 C103.044,144.392 104.266,145.182 106.05,145.182 C108.078,145.182 109.459,144.074 109.459,142.568 C109.459,141.352 108.697,140.585 107.141,140.205 L105.845,139.886 C104.811,139.631 104.345,139.284 104.345,138.614 C104.345,137.864 105.141,137.318 106.209,137.318 C107.379,137.318 107.862,137.966 108.095,138.568 L109.3,138.227 Z M117.659,138.227 C117.239,136.989 116.295,136.159 114.568,136.159 C112.727,136.159 111.364,137.205 111.364,138.682 C111.364,139.886 112.08,140.693 113.682,141.068 L115.136,141.409 C116.017,141.614 116.432,142.034 116.432,142.636 C116.432,143.386 115.636,144 114.386,144 C113.29,144 112.602,143.528 112.364,142.591 L111.091,142.909 C111.403,144.392 112.625,145.182 114.409,145.182 C116.438,145.182 117.818,144.074 117.818,142.568 C117.818,141.352 117.057,140.585 115.5,140.205 L114.205,139.886 C113.17,139.631 112.705,139.284 112.705,138.614 C112.705,137.864 113.5,137.318 114.568,137.318 C115.739,137.318 116.222,137.966 116.455,138.568 L117.659,138.227 Z M126.905,145.205 C128.428,145.205 129.223,144.386 129.496,143.818 L129.564,143.818 L129.564,145 L130.905,145 L130.905,139.25 C130.905,136.477 128.791,136.159 127.678,136.159 C126.359,136.159 124.859,136.614 124.178,138.205 L125.45,138.659 C125.746,138.023 126.445,137.341 127.723,137.341 C128.956,137.341 129.564,137.994 129.564,139.114 L129.564,139.159 C129.564,139.807 128.905,139.75 127.314,139.955 C125.695,140.165 123.928,140.523 123.928,142.523 C123.928,144.227 125.246,145.205 126.905,145.205 Z M127.109,144 C126.041,144 125.268,143.523 125.268,142.591 C125.268,141.568 126.2,141.25 127.246,141.114 C127.814,141.045 129.337,140.886 129.564,140.614 L129.564,141.841 C129.564,142.932 128.7,144 127.109,144 Z M134.693,139.75 C134.693,138.227 135.636,137.364 136.92,137.364 C138.165,137.364 138.92,138.176 138.92,139.545 L138.92,145 L140.261,145 L140.261,139.455 C140.261,137.227 139.074,136.159 137.307,136.159 C135.989,136.159 135.17,136.75 134.761,137.636 L134.648,137.636 L134.648,136.273 L133.352,136.273 L133.352,145 L134.693,145 L134.693,139.75 Z M146.007,145.182 C147.689,145.182 148.257,144.136 148.553,143.659 L148.712,143.659 L148.712,145 L150.007,145 L150.007,133.364 L148.666,133.364 L148.666,137.659 L148.553,137.659 C148.257,137.205 147.734,136.159 146.03,136.159 C143.825,136.159 142.303,137.909 142.303,140.659 C142.303,143.432 143.825,145.182 146.007,145.182 Z M146.189,143.977 C144.507,143.977 143.643,142.5 143.643,140.636 C143.643,138.795 144.484,137.364 146.189,137.364 C147.825,137.364 148.689,138.682 148.689,140.636 C148.689,142.614 147.803,143.977 146.189,143.977 Z M160.695,145.182 C162.626,145.182 163.899,144 164.126,142.455 L162.786,142.455 C162.536,143.409 161.74,143.977 160.695,143.977 C159.104,143.977 158.081,142.659 158.081,140.636 C158.081,138.659 159.126,137.364 160.695,137.364 C161.876,137.364 162.581,138.091 162.786,138.886 L164.126,138.886 C163.899,137.25 162.513,136.159 160.672,136.159 C158.308,136.159 156.74,138.023 156.74,140.682 C156.74,143.295 158.24,145.182 160.695,145.182 Z M169.632,145.182 C171.996,145.182 173.587,143.386 173.587,140.682 C173.587,137.955 171.996,136.159 169.632,136.159 C167.268,136.159 165.678,137.955 165.678,140.682 C165.678,143.386 167.268,145.182 169.632,145.182 Z M169.632,143.977 C167.837,143.977 167.018,142.432 167.018,140.682 C167.018,138.932 167.837,137.364 169.632,137.364 C171.428,137.364 172.246,138.932 172.246,140.682 C172.246,142.432 171.428,143.977 169.632,143.977 Z M175.634,145 L176.974,145 L176.974,139.545 C176.974,138.267 177.906,137.364 178.952,137.364 C179.969,137.364 180.679,138.028 180.679,139.023 L180.679,145 L182.043,145 L182.043,139.318 C182.043,138.193 182.747,137.364 183.974,137.364 C184.929,137.364 185.747,137.869 185.747,139.159 L185.747,145 L187.088,145 L187.088,139.159 C187.088,137.108 185.986,136.159 184.429,136.159 C183.179,136.159 182.264,136.733 181.815,137.636 L181.724,137.636 C181.293,136.705 180.531,136.159 179.384,136.159 C178.247,136.159 177.406,136.705 177.043,137.636 L176.929,137.636 L176.929,136.273 L175.634,136.273 L175.634,145 Z M189.54,145 L190.881,145 L190.881,139.545 C190.881,138.267 191.812,137.364 192.858,137.364 C193.875,137.364 194.585,138.028 194.585,139.023 L194.585,145 L195.949,145 L195.949,139.318 C195.949,138.193 196.653,137.364 197.881,137.364 C198.835,137.364 199.653,137.869 199.653,139.159 L199.653,145 L200.994,145 L200.994,139.159 C200.994,137.108 199.892,136.159 198.335,136.159 C197.085,136.159 196.17,136.733 195.722,137.636 L195.631,137.636 C195.199,136.705 194.438,136.159 193.29,136.159 C192.153,136.159 191.312,136.705 190.949,137.636 L190.835,137.636 L190.835,136.273 L189.54,136.273 L189.54,145 Z M207.105,145.182 C208.878,145.182 210.173,144.295 210.582,142.977 L209.287,142.614 C208.946,143.523 208.156,143.977 207.105,143.977 C205.531,143.977 204.446,142.96 204.384,141.091 L210.719,141.091 L210.719,140.523 C210.719,137.273 208.787,136.159 206.969,136.159 C204.605,136.159 203.037,138.023 203.037,140.705 C203.037,143.386 204.582,145.182 207.105,145.182 Z M204.384,139.932 C204.474,138.574 205.435,137.364 206.969,137.364 C208.423,137.364 209.355,138.455 209.355,139.932 L204.384,139.932 Z M214.099,139.75 C214.099,138.227 215.043,137.364 216.327,137.364 C217.571,137.364 218.327,138.176 218.327,139.545 L218.327,145 L219.668,145 L219.668,139.455 C219.668,137.227 218.48,136.159 216.713,136.159 C215.395,136.159 214.577,136.75 214.168,137.636 L214.054,137.636 L214.054,136.273 L212.759,136.273 L212.759,145 L214.099,145 L214.099,139.75 Z M225.913,136.273 L224.05,136.273 L224.05,134.182 L222.709,134.182 L222.709,136.273 L221.391,136.273 L221.391,137.409 L222.709,137.409 L222.709,142.864 C222.709,144.386 223.936,145.114 225.072,145.114 C225.572,145.114 225.891,145.023 226.072,144.955 L225.8,143.75 C225.686,143.773 225.504,143.818 225.209,143.818 C224.618,143.818 224.05,143.636 224.05,142.5 L224.05,137.409 L225.913,137.409 L225.913,136.273 Z M235.976,145.182 C238.339,145.182 239.93,143.386 239.93,140.682 C239.93,137.955 238.339,136.159 235.976,136.159 C233.612,136.159 232.021,137.955 232.021,140.682 C232.021,143.386 233.612,145.182 235.976,145.182 Z M235.976,143.977 C234.18,143.977 233.362,142.432 233.362,140.682 C233.362,138.932 234.18,137.364 235.976,137.364 C237.771,137.364 238.589,138.932 238.589,140.682 C238.589,142.432 237.771,143.977 235.976,143.977 Z M243.318,139.75 C243.318,138.227 244.261,137.364 245.545,137.364 C246.79,137.364 247.545,138.176 247.545,139.545 L247.545,145 L248.886,145 L248.886,139.455 C248.886,137.227 247.699,136.159 245.932,136.159 C244.614,136.159 243.795,136.75 243.386,137.636 L243.273,137.636 L243.273,136.273 L241.977,136.273 L241.977,145 L243.318,145 L243.318,139.75 Z M259.632,136.273 L257.768,136.273 L257.768,134.182 L256.428,134.182 L256.428,136.273 L255.109,136.273 L255.109,137.409 L256.428,137.409 L256.428,142.864 C256.428,144.386 257.655,145.114 258.791,145.114 C259.291,145.114 259.609,145.023 259.791,144.955 L259.518,143.75 C259.405,143.773 259.223,143.818 258.928,143.818 C258.337,143.818 257.768,143.636 257.768,142.5 L257.768,137.409 L259.632,137.409 L259.632,136.273 Z M265.214,145.182 C266.987,145.182 268.283,144.295 268.692,142.977 L267.396,142.614 C267.055,143.523 266.266,143.977 265.214,143.977 C263.641,143.977 262.555,142.96 262.493,141.091 L268.828,141.091 L268.828,140.523 C268.828,137.273 266.896,136.159 265.078,136.159 C262.714,136.159 261.146,138.023 261.146,140.705 C261.146,143.386 262.692,145.182 265.214,145.182 Z M262.493,139.932 C262.584,138.574 263.544,137.364 265.078,137.364 C266.533,137.364 267.464,138.455 267.464,139.932 L262.493,139.932 Z M277.05,138.227 C276.629,136.989 275.686,136.159 273.959,136.159 C272.118,136.159 270.754,137.205 270.754,138.682 C270.754,139.886 271.47,140.693 273.072,141.068 L274.527,141.409 C275.408,141.614 275.822,142.034 275.822,142.636 C275.822,143.386 275.027,144 273.777,144 C272.68,144 271.993,143.528 271.754,142.591 L270.482,142.909 C270.794,144.392 272.016,145.182 273.8,145.182 C275.828,145.182 277.209,144.074 277.209,142.568 C277.209,141.352 276.447,140.585 274.891,140.205 L273.595,139.886 C272.561,139.631 272.095,139.284 272.095,138.614 C272.095,137.864 272.891,137.318 273.959,137.318 C275.129,137.318 275.612,137.966 275.845,138.568 L277.05,138.227 Z M283.023,136.273 L281.159,136.273 L281.159,134.182 L279.818,134.182 L279.818,136.273 L278.5,136.273 L278.5,137.409 L279.818,137.409 L279.818,142.864 C279.818,144.386 281.045,145.114 282.182,145.114 C282.682,145.114 283,145.023 283.182,144.955 L282.909,143.75 C282.795,143.773 282.614,143.818 282.318,143.818 C281.727,143.818 281.159,143.636 281.159,142.5 L281.159,137.409 L283.023,137.409 L283.023,136.273 Z M286.381,139.75 C286.381,138.227 287.324,137.364 288.608,137.364 C289.852,137.364 290.608,138.176 290.608,139.545 L290.608,145 L291.949,145 L291.949,139.455 C291.949,137.227 290.761,136.159 288.994,136.159 C287.676,136.159 286.858,136.75 286.449,137.636 L286.335,137.636 L286.335,136.273 L285.04,136.273 L285.04,145 L286.381,145 L286.381,139.75 Z M298.058,145.182 C299.831,145.182 301.126,144.295 301.536,142.977 L300.24,142.614 C299.899,143.523 299.109,143.977 298.058,143.977 C296.484,143.977 295.399,142.96 295.337,141.091 L301.672,141.091 L301.672,140.523 C301.672,137.273 299.74,136.159 297.922,136.159 C295.558,136.159 293.99,138.023 293.99,140.705 C293.99,143.386 295.536,145.182 298.058,145.182 Z M295.337,139.932 C295.428,138.574 296.388,137.364 297.922,137.364 C299.376,137.364 300.308,138.455 300.308,139.932 L295.337,139.932 Z M307.507,136.273 L305.643,136.273 L305.643,134.182 L304.303,134.182 L304.303,136.273 L302.984,136.273 L302.984,137.409 L304.303,137.409 L304.303,142.864 C304.303,144.386 305.53,145.114 306.666,145.114 C307.166,145.114 307.484,145.023 307.666,144.955 L307.393,143.75 C307.28,143.773 307.098,143.818 306.803,143.818 C306.212,143.818 305.643,143.636 305.643,142.5 L305.643,137.409 L307.507,137.409 L307.507,136.273 Z M317.57,145.182 C319.501,145.182 320.774,144 321.001,142.455 L319.661,142.455 C319.411,143.409 318.615,143.977 317.57,143.977 C315.979,143.977 314.956,142.659 314.956,140.636 C314.956,138.659 316.001,137.364 317.57,137.364 C318.751,137.364 319.456,138.091 319.661,138.886 L321.001,138.886 C320.774,137.25 319.388,136.159 317.547,136.159 C315.183,136.159 313.615,138.023 313.615,140.682 C313.615,143.295 315.115,145.182 317.57,145.182 Z M324.303,139.75 C324.303,138.227 325.274,137.364 326.598,137.364 C327.859,137.364 328.621,138.159 328.621,139.545 L328.621,145 L329.962,145 L329.962,139.455 C329.962,137.21 328.768,136.159 326.984,136.159 C325.609,136.159 324.825,136.733 324.416,137.636 L324.303,137.636 L324.303,133.364 L322.962,133.364 L322.962,145 L324.303,145 L324.303,139.75 Z M334.983,145.205 C336.506,145.205 337.301,144.386 337.574,143.818 L337.642,143.818 L337.642,145 L338.983,145 L338.983,139.25 C338.983,136.477 336.869,136.159 335.756,136.159 C334.438,136.159 332.938,136.614 332.256,138.205 L333.528,138.659 C333.824,138.023 334.523,137.341 335.801,137.341 C337.034,137.341 337.642,137.994 337.642,139.114 L337.642,139.159 C337.642,139.807 336.983,139.75 335.392,139.955 C333.773,140.165 332.006,140.523 332.006,142.523 C332.006,144.227 333.324,145.205 334.983,145.205 Z M335.188,144 C334.119,144 333.347,143.523 333.347,142.591 C333.347,141.568 334.278,141.25 335.324,141.114 C335.892,141.045 337.415,140.886 337.642,140.614 L337.642,141.841 C337.642,142.932 336.778,144 335.188,144 Z M342.771,139.75 C342.771,138.227 343.714,137.364 344.999,137.364 C346.243,137.364 346.999,138.176 346.999,139.545 L346.999,145 L348.339,145 L348.339,139.455 C348.339,137.227 347.152,136.159 345.385,136.159 C344.067,136.159 343.249,136.75 342.839,137.636 L342.726,137.636 L342.726,136.273 L341.43,136.273 L341.43,145 L342.771,145 L342.771,139.75 Z M354.312,148.455 C356.403,148.455 358.085,147.5 358.085,145.25 L358.085,136.273 L356.79,136.273 L356.79,137.659 L356.653,137.659 C356.358,137.205 355.812,136.159 354.108,136.159 C351.903,136.159 350.381,137.909 350.381,140.591 C350.381,143.318 351.972,144.864 354.085,144.864 C355.79,144.864 356.335,143.864 356.631,143.386 L356.744,143.386 L356.744,145.159 C356.744,146.614 355.722,147.273 354.312,147.273 C352.727,147.273 352.17,146.438 351.812,145.955 L350.744,146.705 C351.29,147.619 352.364,148.455 354.312,148.455 Z M354.267,143.659 C352.585,143.659 351.722,142.386 351.722,140.568 C351.722,138.795 352.562,137.364 354.267,137.364 C355.903,137.364 356.767,138.682 356.767,140.568 C356.767,142.5 355.881,143.659 354.267,143.659 Z M364.199,145.182 C365.972,145.182 367.267,144.295 367.676,142.977 L366.381,142.614 C366.04,143.523 365.25,143.977 364.199,143.977 C362.625,143.977 361.54,142.96 361.477,141.091 L367.812,141.091 L367.812,140.523 C367.812,137.273 365.881,136.159 364.062,136.159 C361.699,136.159 360.131,138.023 360.131,140.705 C360.131,143.386 361.676,145.182 364.199,145.182 Z M361.477,139.932 C361.568,138.574 362.528,137.364 364.062,137.364 C365.517,137.364 366.449,138.455 366.449,139.932 L361.477,139.932 Z M376.034,138.227 C375.614,136.989 374.67,136.159 372.943,136.159 C371.102,136.159 369.739,137.205 369.739,138.682 C369.739,139.886 370.455,140.693 372.057,141.068 L373.511,141.409 C374.392,141.614 374.807,142.034 374.807,142.636 C374.807,143.386 374.011,144 372.761,144 C371.665,144 370.977,143.528 370.739,142.591 L369.466,142.909 C369.778,144.392 371,145.182 372.784,145.182 C374.812,145.182 376.193,144.074 376.193,142.568 C376.193,141.352 375.432,140.585 373.875,140.205 L372.58,139.886 C371.545,139.631 371.08,139.284 371.08,138.614 C371.08,137.864 371.875,137.318 372.943,137.318 C374.114,137.318 374.597,137.966 374.83,138.568 L376.034,138.227 Z" id="Shape" fill="#000000" fill-rule="nonzero"></path>
                <path d="M767.37,135.72 C766.69,130.22 767.19,127.95 762.18,125.72 L753,126 C749.59,124.45 745.23,119.68 741.84,120.85 C740.46,121.33 736.56,119.7 735.36,119.33 C733.04,113.1 715.97,115.63 712.89,112.78 C710.843,110.88 707.436,110.077 702.67,110.37 L694.21,106.85 C693.286,106.46 692.324,106.165 691.34,105.97 C690.673,105.85 685.466,108.83 675.72,114.91 C675.481,115.683 675.284,116.467 675.13,117.26 L658.13,219.75 C657.589,223.317 658.27,226.962 660.062,230.094 C661.853,233.225 664.651,235.659 668,237 L744.75,264.06 C746.86,264.89 750.65,266.22 754.88,264.06 C760.88,261 767.28,258.7 769.51,248.3 C771.74,237.9 775.51,206.02 780.51,171.7 C780.88,169.314 780.702,166.874 779.99,164.567 C779.278,162.259 778.05,160.143 776.4,158.38 L769.24,150.67 L767.37,135.72 Z" id="Path" fill="#000000" fill-rule="nonzero"></path>
                <path d="M747.72,157.241 C747.884,158.538 748.45,159.752 749.34,160.711 L757.34,169.291 C757.978,169.975 758.452,170.794 758.727,171.688 C759.003,172.582 759.072,173.526 758.93,174.451 L748.35,238.281 C747.857,241.201 745.69,244.591 741.85,248.451 C741.85,248.731 730.66,251.111 727.7,249.941 L670.76,228.531 C668.11,227.481 673.39,223.531 673.85,220.721 C671.317,209.007 670.567,200.037 671.6,193.811 C672.83,186.401 675.28,186.091 677.09,175.161 C677.75,171.211 677.51,158.161 678.24,153.761 C679.24,147.714 680.907,137.651 683.24,123.571 C683.292,123.262 683.369,122.957 683.47,122.661 C683.708,121.965 684.088,121.327 684.586,120.787 C685.084,120.247 685.689,119.816 686.362,119.522 C687.036,119.229 687.763,119.079 688.498,119.081956 C689.233,119.085 689.959,119.241 690.63,119.541 L699.63,123.291 C700.228,123.537 700.864,123.682 701.51,123.721 L713.84,124.401 C714.74,124.462 715.615,124.726 716.4,125.173 C717.184,125.62 717.858,126.238 718.37,126.981 C721.703,131.721 724.567,134.514 726.96,135.361 C730.119,136.506 733.581,136.506 736.74,135.361 C738.086,134.911 739.553,134.994 740.84,135.591 L742.18,136.201 C743.143,136.644 743.977,137.326 744.603,138.182 C745.23,139.037 745.628,140.039 745.76,141.091 L747.72,157.241 Z" id="Path" fill="#D3D8E0" fill-rule="nonzero"></path>
                <path d="M694.92,119 L700.46,123.85 L714.36,127.12 C715.54,127.19 717.74,126.72 720.95,125.73 L727.28,136.83 C731.336,136.197 735.345,135.291 739.28,134.12 C740.626,133.67 742.093,133.753 743.38,134.35 L744.72,134.96 C745.683,135.404 746.517,136.085 747.143,136.941 C747.77,137.797 748.168,138.798 748.3,139.85 L750.3,155.99 C750.468,157.288 751.038,158.502 751.93,159.46 L759.93,168.04 C760.571,168.722 761.049,169.541 761.326,170.435 C761.603,171.329 761.673,172.275 761.53,173.2 C758.863,191.2 756.887,206.976 755.6,220.53 C754.313,234.083 753.823,244.676 754.13,252.31 C755.76,252.12 756.91,249.95 757.6,245.81 C757.6,245.53 757.75,245.28 757.79,245 L769.94,171.77 C770.08,170.845 770.009,169.9 769.732,169.006 C769.454,168.113 768.979,167.293 768.34,166.61 L760.34,158.03 C759.444,157.074 758.873,155.86 758.71,154.56 L756.71,138.42 C756.576,137.368 756.177,136.368 755.551,135.513 C754.925,134.657 754.092,133.975 753.13,133.53 L751.78,132.92 C750.496,132.322 749.032,132.24 747.69,132.69 C744.531,133.835 741.069,133.835 737.91,132.69 C735.53,131.85 732.667,129.056 729.32,124.31 C728.807,123.565 728.132,122.947 727.345,122.5 C726.559,122.053 725.682,121.79 724.78,121.73 L712.49,121 C711.844,120.961 711.209,120.815 710.61,120.57 L701.61,116.82 C700.421,116.3 699.083,116.234 697.85,116.636 C696.617,117.038 695.574,117.879 694.92,119 Z" id="Path" fill="#D3D8E0" fill-rule="nonzero"></path>
                <path d="M739.39,155.711 L758,179.361 L759.08,172.841 C759.217,171.94 759.144,171.02 758.867,170.153 C758.589,169.285 758.114,168.494 757.48,167.841 L749.54,159.511 C748.66,158.588 748.09,157.413 747.91,156.151 L745.91,140.551 C745.764,139.523 745.36,138.55 744.736,137.721 C744.111,136.892 743.287,136.235 742.34,135.811 L741,135.211 C738.895,134.56 736.726,134.145 734.53,133.971 L727.24,134.891 L716.68,129.001 L714.68,123.801 C708.08,123.971 704.56,124.051 704.14,124.021 C702.734,123.791 701.347,123.456 699.99,123.021 L691.06,119.341 C689.898,118.818 688.586,118.733 687.367,119.101 C686.147,119.468 685.1,120.263 684.42,121.341 L691.66,124.341 C693.207,124.651 694.774,124.852 696.35,124.941 L706.03,129.871 L710.27,128.031 L718.83,136.181 L729.39,138.671 L734.54,139.261 L738.23,142.951 L739.39,155.711 Z" id="Path" fill="#FFFFFF" fill-rule="nonzero"></path>
                <path d="M743.92,168.59 L692.23,151.46 C691.984,151.371 691.723,151.335 691.462,151.353 C691.201,151.372 690.947,151.444 690.716,151.567 C690.486,151.689 690.283,151.859 690.122,152.064 C689.96,152.27 689.844,152.507 689.78,152.76 C689.657,153.298 689.739,153.862 690.008,154.342 C690.278,154.823 690.717,155.186 691.24,155.36 L742.93,172.5 C743.176,172.588 743.437,172.623 743.697,172.604 C743.957,172.585 744.211,172.512 744.441,172.39 C744.672,172.268 744.874,172.099 745.036,171.894 C745.197,171.689 745.315,171.453 745.38,171.2 C745.505,170.662 745.425,170.096 745.155,169.613 C744.885,169.13 744.445,168.765 743.92,168.59 Z" id="Path" fill="#000000"></path>
                <path d="M739.9,192.791 L688.22,175.661 C687.974,175.572 687.712,175.535 687.452,175.552 C687.191,175.57 686.936,175.641 686.705,175.763 C686.473,175.884 686.27,176.053 686.107,176.257 C685.944,176.462 685.826,176.698 685.76,176.951 C685.634,177.489 685.714,178.056 685.984,178.538 C686.254,179.021 686.695,179.386 687.22,179.561 L738.91,196.691 C739.155,196.78 739.416,196.817 739.676,196.799 C739.936,196.781 740.189,196.71 740.42,196.588 C740.651,196.467 740.854,196.298 741.015,196.094 C741.177,195.889 741.294,195.653 741.36,195.401 C741.488,194.862 741.409,194.295 741.138,193.811 C740.868,193.328 740.426,192.964 739.9,192.791 Z" id="Path" fill="#000000"></path>
                <path d="M741.91,180.69 L690.22,163.56 C689.975,163.471 689.714,163.434 689.454,163.452 C689.193,163.469 688.94,163.541 688.709,163.663 C688.479,163.784 688.276,163.952 688.114,164.157 C687.952,164.361 687.835,164.597 687.77,164.85 C687.644,165.386 687.723,165.95 687.991,166.431 C688.259,166.912 688.698,167.275 689.22,167.45 L740.91,184.58 C741.155,184.669 741.416,184.706 741.676,184.688 C741.936,184.671 742.19,184.599 742.42,184.477 C742.651,184.356 742.854,184.187 743.016,183.983 C743.177,183.778 743.295,183.542 743.36,183.29 C743.481,182.754 743.4,182.192 743.132,181.713 C742.865,181.233 742.429,180.869 741.91,180.69 Z" id="Path" fill="#000000"></path>
                <path d="M722.53,201.56 L687.35,189.85 C687.102,189.763 686.839,189.728 686.577,189.747 C686.315,189.767 686.06,189.841 685.828,189.964 C685.595,190.087 685.391,190.257 685.228,190.463 C685.065,190.669 684.947,190.906 684.88,191.16 C684.756,191.703 684.838,192.272 685.11,192.758 C685.381,193.244 685.823,193.611 686.35,193.79 L721.52,205.49 C721.767,205.58 722.03,205.616 722.292,205.598 C722.554,205.58 722.809,205.507 723.042,205.385 C723.274,205.263 723.478,205.093 723.642,204.888 C723.805,204.682 723.923,204.445 723.99,204.19 C724.119,203.649 724.04,203.079 723.77,202.592 C723.5,202.106 723.058,201.738 722.53,201.56 Z" id="Path" fill="#000000"></path>
                <path d="M717.15,203.36 C717.091,202.388 717.169,201.412 717.38,200.46 C717.528,200.215 717.612,199.936 717.625,199.649 C717.637,199.363 717.577,199.078 717.45,198.82 C717.152,198.316 716.939,197.765 716.82,197.19 C717.6,197.57 717.54,197.83 718.41,197.87 C718.71,197.87 719.28,199.41 719.46,199.67 C720.02,200.622 720.419,201.659 720.64,202.74 C720.92,203.55 723.9,205.63 724.84,206.13 C723.69,204.69 720.45,200.85 720.51,199.03 C720.513,198.967 720.501,198.904 720.477,198.845 C720.453,198.786 720.416,198.734 720.37,198.69 C719.84,198.36 719.9,196.76 719.37,196.44 C717.48,195.3 716.87,195.07 716.16,192.87 C715.81,191.78 715.09,191.55 715.03,190.39 C715.03,190.2 714.3,189.24 714.5,189.01 C714.9,188.53 714.1,188.18 713.73,187.76 C712.92,186.84 713.54,185.63 713.33,184.44 C712.199,181.39 710.89,178.408 709.41,175.51 C709.69,176.68 709.75,178.71 710.03,179.88 C710.31,181.05 712.51,187.44 713.03,188.5 C712.033,187.382 710.916,186.376 709.7,185.5 L706.62,179.5 C705.2,176.167 704.41,174.327 704.25,173.98 C704.25,174.14 704.61,176.28 705.31,180.39 L708.79,186.76 L712.02,188.7 L712.78,189.96 C713.4,190.96 712.92,190.7 712.9,191.91 C712.9,193.85 714.26,193.49 714.73,195.32 C714.79,195.54 714.85,197.15 715.06,197.32 C716.112,198.046 716.852,199.143 717.13,200.39 C716.884,200.848 716.758,201.359 716.761,201.878 C716.765,202.397 716.898,202.907 717.15,203.36 Z" id="Path" fill="#000000"></path>
                <path d="M756.12,163.82 C756.528,163.259 757.037,162.777 757.62,162.4 C758.21,162.22 758.42,161.95 758.41,161.58 C758.4,161.21 758.2,160.88 758.41,160.58 C759.1,161.02 758.92,161.14 759.85,161.43 C760.17,161.54 760.13,162.51 760.22,162.7 C760.57,163.46 760.22,163.95 760.22,164.7 C760.17,165.21 762.52,167.22 763.33,167.78 C762.69,166.67 760.82,163.66 761.67,162.78 C761.685,162.767 761.696,162.751 761.705,162.733 C761.713,162.714 761.717,162.695 761.717,162.675 C761.717,162.655 761.713,162.635 761.705,162.617 C761.696,162.599 761.685,162.583 761.67,162.57 C761.23,162.23 761.98,161.42 761.53,161.08 C759.97,159.89 759.39,159.58 759.53,158.22 C759.62,157.54 758.93,157.22 759.37,156.58 C759.44,156.48 759.07,155.75 759.37,155.7 C760.01,155.58 759.3,155.14 759.07,154.8 C758.58,154.07 759.78,153.64 760.07,152.96 C760.36,152.28 759.85,147.76 759.65,147.11 C759.45,147.81 758.65,148.87 758.45,149.57 C758.137,151.352 758,153.161 758.04,154.97 C757.38,154.008 756.601,153.134 755.72,152.37 L754.93,148.32 C754.82,146.13 754.75,144.93 754.72,144.71 C754.65,144.8 754.12,146.01 753.12,148.36 L754.12,152.75 L756.8,154.75 L757.09,155.64 C757.35,156.34 756.92,156.07 756.38,156.64 C755.51,157.64 757.19,157.89 756.91,158.99 C756.91,159.12 756.25,159.99 756.43,160.1 C756.793,160.335 757.077,160.676 757.243,161.075 C757.409,161.475 757.449,161.916 757.36,162.34 C756.55,162.65 755.93,163.08 756.12,163.82 Z" id="Path" fill="#000000"></path>
                <path d="M669,137.169949 C670.321,137.472 671.586,137.978 672.75,138.67 C673.61,139.29 675,139.67 675.2,140.58 C675.4,141.49 674.54,142.46 674.14,143.41 C673.65,144.6 673.14,145.8 672.62,146.97 C672.36,147.53 672.42,147.8 673.03,148.02 C673.64,148.24 674.14,148.59 674.71,148.85 C675.546,149.24 676.243,149.875 676.71,150.67 C678.57,153.55 681.06,155.94 683.32,158.5 C687.48,163.22 694.85,170.37 698.48,175.5 C700.29,178.01 702.25,180.41 703.87,183.03 C705.96,186.42 703.21,196.64 703.11,196.96 C702.9,197.61 690.41,197.76 688.73,197.55 C686.73,197.3 659.05,169.55 656.66,167.97 C655.57,167.24 654.59,166.36 653.58,165.57 C654.01,164.4 654.07,164.36 653.09,164.57 C652.247,164.728 651.421,164.962 650.62,165.27 C649.619,165.674 648.516,165.754 647.467,165.499 C646.418,165.245 645.475,164.668 644.77,163.85 C643.77,162.85 641.46,159.74 640.66,160.07 C640.675,157.347 641.436,154.68 642.86,152.36 C644.38,149.58 645.49,146.44 647.21,143.79 C647.69,143.05 649.37,140.22 651.33,139.42 C653.29,138.62 664.9,137.16 669,137.169949 Z" id="Path" fill="#000000"></path>
                <path d="M668,139.51 C667.11,142.959 665.584,146.211 663.5,149.1 C661.159,151.84 658.133,153.91 654.73,155.1 C651.65,156.33 648.35,156.65 645.08,157.1 C645.24,155.61 646.14,154.43 646.7,153.1 C647.8,150.51 649.01,147.95 650.33,145.47 C650.801,144.478 651.5,143.61 652.368,142.938 C653.237,142.266 654.251,141.807 655.33,141.6 C659.45,140.73 663.67,140 668,139.51 Z" id="Path" fill="#D3D8E0"></path>
                <path d="M644,160.43 C649.369,159.882 654.569,158.241 659.28,155.61 C659.441,155.478 659.631,155.384 659.834,155.337 C660.037,155.29 660.248,155.29 660.451,155.337 C660.654,155.385 660.843,155.478 661.004,155.61 C661.165,155.742 661.294,155.91 661.38,156.1 C662.73,157.92 662.76,157.84 660.55,158.9 C656.48,160.9 652.05,161.64 647.84,163.14 C647.37,163.3 647.11,163.06 646.84,162.81 C645.98,162.06 645.1,161.33 644.03,160.43" id="Path" fill="#D3D8E0"></path>
                <path d="M669.27,140.19 C669.99,141.08 670.65,141.91 671.34,142.71 C671.444,142.812 671.512,142.946 671.532,143.091 C671.552,143.236 671.523,143.383 671.45,143.51 C670.06,146.38 669.24,149.57 667.45,152.21 C667.2,152.57 666.93,152.92 666.65,153.21 C665.29,154.81 664.7,154.8 663.13,153.3 C662.86,153.04 662.9,152.87 663.06,152.68 C665.97,149.04 667.22,144.4 669.28,140.14" id="Path" fill="#D3D8E0"></path>
                <path d="M672.71,152.57 C674.55,156.19 677.35,158.88 679.85,161.8 C681.85,164.1 683.85,166.37 685.85,168.66 C689.3,172.66 692.78,176.56 696.18,180.56 C697.043,181.675 697.837,182.84 698.56,184.05 C698.652,184.197 698.697,184.368 698.69,184.54 C698.681,186.677 698.538,188.811 698.26,190.93 C698.2,191.26 698.26,191.79 697.91,191.85 C697.56,191.91 697.2,191.61 696.91,191.29 C695.55,189.77 694.16,188.29 692.77,186.79 C684.85,178.33 675.88,171.08 667.09,163.62 C666.832,163.372 666.554,163.144 666.26,162.94 C665.54,162.51 665.45,162.11 666.01,161.4 C668.23,158.54 670.39,155.63 672.7,152.57" id="Path" fill="#FFFFFF"></path>
                <path d="M698.05,192 C694.21,191.65 691.78,192 688.14,191.65 C685.786,189.823 683.53,187.873 681.38,185.81 C676.99,179.7 671.03,175.28 665.18,170.74 C662.65,168.74 660.18,166.74 657.54,164.64 C659.92,163.9 662.22,163.33 664.42,162.48 C665.99,161.87 666.95,162.35 668.1,163.4 C674.17,169 680.56,174.23 686.33,180.15 L693.33,187.34 L698.05,192 Z" id="Path" fill="#D3D8E0"></path>
                <path d="M583,120.73 C579.19,119.03 575,118.37 571,117.43 C570.16,117.352 569.316,117.541 568.59,117.97 C567.93,118.24 567.2,118.97 566.59,118.22 C565.98,117.47 564.86,116.66 565.29,115.37 C565.363,115.214 565.4,115.043 565.4,114.87 C565.4,114.698 565.363,114.527 565.29,114.37 C562.38,107.66 563.55,100.91 565.29,94.2504 C567.542,85.8652 570.693,77.748 574.69,70.0404 C576.912,65.9425 580.261,62.5662 584.34,60.3104 C586.18,59.2004 587.56,57.3804 589.7,56.6504 C589.83,56.6504 589.96,56.4204 590.05,56.4404 C591.63,56.8104 592.78,55.9304 594.05,55.2804 C595.73,54.4404 596.85,55.2804 598,56.7304 C601.858,61.7503 606.898,65.7386 612.67,68.3404 C612.958,68.4222 613.261,68.44 613.557,68.3927 C613.853,68.3454 614.135,68.2341 614.384,68.0665 C614.632,67.8989 614.841,67.6791 614.996,67.4224 C615.151,67.1658 615.248,66.8784 615.28,66.5804 C615.52,64.2404 615.69,61.8804 615.91,59.3404 C617.26,60.2404 618.34,59.7504 619.54,58.9804 C620.42,58.3441 621.442,57.9322 622.517,57.7806 C623.592,57.629 624.689,57.7422 625.71,58.1104 C628.91,59.2804 632.17,60.2504 634.85,62.4904 C636.15,63.5704 636.4,67.6904 635.15,68.7604 C631.92,71.5304 631.78,71.7604 629.73,75.8504 C629.18,76.9404 629.41,77.3104 630.46,77.8504 C638.88,82.2304 647.89,84.8504 657.11,86.7804 C657.58,86.8273 658.023,87.0175 658.381,87.3252 C658.739,87.6329 658.993,88.0432 659.11,88.5004 C659.69,90.1404 659.82,92.6704 659.42,96.7904 C659.044,101.24 658.336,105.656 657.3,110 C655.39,115 653.3,119.92 649.92,124.16 C644.92,130.38 635.31,139.94 628.27,144.06 C627.27,144.63 624.27,143.38 620.17,141.21 C620.226,141.468 620.266,141.728 620.29,141.99 C619.828,141.422 619.312,140.9 618.75,140.43 C617.93,139.96 617.07,139.43 616.19,138.95 C613.38,137.95 610.64,138.26 607.75,134.7 C606.83,139.41 602.85,141.92 601.96,146.29 C601.59,148.1 602.26,149.5 601.89,151.29 C601.14,154.95 599.3,159.01 598.21,162.59 C597.998,163.754 597.464,164.834 596.67,165.71 C595.89,166.43 596.76,167.41 596.41,168.34 C594.58,173.26 592.89,178.23 591.16,183.18 C589.83,186.99 588.49,190.79 585.96,194.05 C585.32,194.87 585.17,193.63 584.27,194.24 C581.99,195.79 574.27,201.1 573.98,195.92 C568.6,196.73 565.78,195.82 560.32,195.79 C558.04,195.79 557.54,195.33 555.86,193.64 C554.54,192.31 554.18,191.58 552.54,191.53 C552.54,190.14 553.3,189.06 553.76,187.89 C558.55,175.66 566.14,165.11 573.76,154.59 C575.63,152.04 582.76,128.94 586.64,121.16 C585.41,121.361 584.149,121.212 583,120.73 Z" id="Path" fill="#000000"></path>
                <path d="M581.19,190.001 C577.925,190.177 574.678,190.608 571.48,191.291 C567.84,192.011 565,190.121 561.77,188.591 C564.92,186.021 577.24,186.921 581.19,190.001 Z" id="Path" fill="#FFFFFF"></path>
                <path d="M592.18,128.73 L592.18,128.78 C592.95,128.97 592.64,128.46 592.61,128.13 C593.649,126.209 594.39,124.143 594.81,122 C597.045,122.165 599.249,122.616 601.37,123.34 C602.13,123.514 602.804,123.952 603.271,124.577 C603.738,125.201 603.968,125.972 603.92,126.75 C603.71,132.84 603,138.85 598.86,143.75 C591.86,152.05 587.38,161.86 581.66,170.92 C580.5,172.76 578.87,180.11 575.31,182.92 C572.04,185.5 566.81,183.61 566.06,183.68 C564.41,183.84 562.76,184.11 560.81,184.36 C563.29,180.73 565.62,177.29 567.99,173.87 C572.419,167.452 576.382,160.724 579.85,153.74 C580.34,152.74 581.6,152.33 581.59,151.08 L581.92,150.63 L581.86,150.69 C582.149,150.507 582.378,150.245 582.52,149.934 C582.662,149.623 582.711,149.278 582.66,148.94 C583.28,148.94 583.43,148.49 583.46,147.94 L583.41,148.02 C584.12,147.13 584.78,146.21 585.41,145.28 C586.15,144.16 586.83,143.01 587.41,141.84 C588.942,138.911 590.175,135.836 591.09,132.66 C591.55,131.41 593,130.37 592.18,128.73 Z" id="Path" fill="#D3D8E0"></path>
                <path d="M650.37,103.14 C652.93,104.43 652.98,104.44 651.8,106.93 C648.8,113.35 648.73,117.85 643.91,123.15 C642.99,124.15 642.48,124.53 641.24,123.27 C633.62,115.51 624.53,109.76 615.05,104.53 C607.69,100.47 600.37,96.3302 593.05,92.2802 C592.796,92.1994 592.564,92.0627 592.37,91.8801 C592.176,91.6974 592.025,91.4736 591.929,91.225 C591.833,90.9764 591.794,90.7094 591.815,90.4438 C591.836,90.1782 591.916,89.9206 592.05,89.6902 C594.055,83.2902 595.337,76.6856 595.87,70.0002 C596.03,68.4402 595.94,66.8602 596.12,65.2602 C596.34,63.2602 597,63.9402 598,64.5302 C601.1,66.3802 604.32,68.0702 607.34,70.0502 C618.91,77.6702 627.79,82.0502 640.95,86.0502 C644.88,87.2202 649.17,91.3302 653.24,89.9802 C654.7,89.5002 655.8,90.1402 655.84,91.8802 C655.93,95.7302 655.07,97.8802 653.97,101.52 C653.57,102.84 652.86,101.92 652.38,101.71 C646.05,99.0202 639.73,96.2902 633.38,93.5802 C632.74,93.3102 632.08,93.1202 631.38,92.8902 C630.73,92.4302 630.09,91.8902 629.03,92.5102 L630.96,93.3402 L650.37,103.14 Z" id="Path" fill="#D3D8E0"></path>
                <path d="M638.91,123.42 C638.91,124.93 639.21,126.42 639.23,127.99 C639.23,129.9 638.55,129.36 637.54,128.91 C634.37,127.49 631.11,126.25 628.02,124.69 C616.12,118.69 607.18,115.51 594.21,113.25 C590.35,112.58 585.79,109.13 582.08,110.9 C580.75,111.53 579.64,111.04 579.39,109.38 C578.85,105.7 585.7,98.22 592.02,100.08 C592.65,100.27 591.85,94.51 592.49,94.65 C593.17,95.02 603.76,106.42 604.7,105.65 L602.77,105.08 C596.26,102.73 638.77,116.94 638.91,123.42 Z" id="Path" fill="#D3D8E0"></path>
                <path d="M595.21,70.0002 C595.37,68.4202 595.28,66.8102 595.45,65.1902 C595.68,63.1902 596.34,63.8402 597.33,64.4402 C600.44,66.3302 603.65,68.0502 606.67,70.0702 C618.25,77.8202 627.12,82.3302 640.28,86.3502 C644.2,87.5502 648.49,91.7302 652.56,90.3502 C654.02,89.8602 655.11,90.5102 655.1601,92.2702 C655.25,96.1902 594.52,76.7602 595.21,70.0002 Z" id="Path" fill="#FFFFFF"></path>
                <path d="M625.34,65.6309 C625.403,65.6018 625.463,65.5684 625.52,65.5309 C628.94,61.8909 629.38,61.8909 633.36,65.7009 C631.53,65.7709 631.23,67.1609 630.68,68.3409 C630.21,69.3409 629.73,70.4009 629.25,71.4309 C627.67,74.7709 627.67,74.7709 624.25,73.3309 C617.25,70.3309 617.09,70.0609 618.54,62.6309 C618.66,61.9809 618.83,61.6309 619.54,61.5009 C620.307,61.324 621.086,61.2004 621.87,61.1309 C626.01,61.1309 626.41,61.7209 624.87,65.3309 C624.74,65.5709 624.58,65.8309 624.92,66.0009 C624.92,66.0009 625.17,65.7609 625.3,65.6309" id="Path" fill="#D3D8E0"></path>
                <path d="M569.29,109.451 C571.806,102.122 573.782,94.6184 575.2,87.0006 C576.95,78.4006 583.26,73.7406 589.2,67.8906 C591.59,76.8906 578.98,103.281 569.32,109.431" id="Path" fill="#FFFFFF"></path>
                <path d="M599.83,145.32 C599.83,145.1 599.94,144.88 599.99,144.66 C599.99,144.66 600.09,144.73 600.1,144.78 C600.1,145.05 600.1,145.29 599.91,145.41 L599.83,145.32 Z" id="Path" fill="#B1B2B7"></path>
            </g>
        </g>
    </g>
</svg>