<svg id="Layer_4" data-name="Layer 4" xmlns="http://www.w3.org/2000/svg" viewBox="0 0 882 300"><defs><style>.cls-1,.cls-4{fill:#c4c3c6;}.cls-2,.cls-5{fill:#fff;}.cls-3,.cls-4,.cls-5,.cls-6{fill-rule:evenodd;}.cls-6{fill:#b1b2b7;}</style></defs><title>blog</title><rect class="cls-1" width="882" height="209" rx="6"/><path d="M66,145.06H61.53V132.61H66A3.92,3.92,0,0,1,70,135a9.71,9.71,0,0,1,.57,3.64q0,4.69-2.34,5.92A4.9,4.9,0,0,1,66,145.06Zm3.18-6.4q0-3.58-1.6-4.47a3.21,3.21,0,0,0-1.58-.36H62.92v10H66Q69.16,143.84,69.16,138.66Z"/><path d="M72.91,134v-1.57h1.35V134Zm0,11v-9h1.35v9Z"/><path d="M79.67,137.09c-1.3,0-2,.46-2,1.37a1,1,0,0,0,.45.89,8,8,0,0,0,2,.54,5.45,5.45,0,0,1,2.27.78,2.24,2.24,0,0,1,.67,1.89,2.37,2.37,0,0,1-.89,2,4.42,4.42,0,0,1-2.6.64A16,16,0,0,1,77,145l-.54-.09.07-1.17a22.14,22.14,0,0,0,3.1.31,3.14,3.14,0,0,0,1.59-.33,1.21,1.21,0,0,0,.55-1.12,1.13,1.13,0,0,0-.47-1.06,6.58,6.58,0,0,0-2-.53,5.47,5.47,0,0,1-2.25-.74,2.1,2.1,0,0,1-.67-1.8,2.19,2.19,0,0,1,.93-2,4,4,0,0,1,2.31-.63,20.26,20.26,0,0,1,2.76.25l.5.1,0,1.15A23.77,23.77,0,0,0,79.67,137.09Z"/><path d="M88.58,135.88a16.56,16.56,0,0,1,2,.22l.43.05,0,1.1a20.4,20.4,0,0,0-2.13-.16,2.43,2.43,0,0,0-2.07.73,4.7,4.7,0,0,0-.55,2.7,5.28,5.28,0,0,0,.51,2.74,2.39,2.39,0,0,0,2.13.78l2.13-.16,0,1.11a18.17,18.17,0,0,1-2.5.25,3.4,3.4,0,0,1-2.91-1.08,6.3,6.3,0,0,1-.8-3.64,5.75,5.75,0,0,1,.86-3.6A3.57,3.57,0,0,1,88.58,135.88Z"/><path d="M98.68,136.06H100v9H98.68v-.63a5.16,5.16,0,0,1-2.66.81,2.66,2.66,0,0,1-2.44-1,7.22,7.22,0,0,1-.6-3.53v-4.7h1.35v4.68a6.59,6.59,0,0,0,.34,2.63c.23.45.74.67,1.55.67a4.63,4.63,0,0,0,1.2-.17,5.93,5.93,0,0,0,.94-.34l.32-.16Z"/><path d="M105.45,137.09c-1.31,0-2,.46-2,1.37a1,1,0,0,0,.45.89,7.92,7.92,0,0,0,2,.54,5.5,5.5,0,0,1,2.27.78,2.27,2.27,0,0,1,.66,1.89,2.34,2.34,0,0,1-.89,2,4.4,4.4,0,0,1-2.6.64,16.11,16.11,0,0,1-2.63-.25l-.54-.09.07-1.17a22.28,22.28,0,0,0,3.1.31,3.09,3.09,0,0,0,1.59-.33,1.21,1.21,0,0,0,.55-1.12,1.13,1.13,0,0,0-.46-1.06,6.67,6.67,0,0,0-2.06-.53,5.58,5.58,0,0,1-2.25-.74,2.12,2.12,0,0,1-.66-1.8,2.21,2.21,0,0,1,.92-2,4,4,0,0,1,2.32-.63,20,20,0,0,1,2.75.25l.51.1,0,1.15A23.77,23.77,0,0,0,105.45,137.09Z"/><path d="M113.82,137.09c-1.31,0-2,.46-2,1.37a1,1,0,0,0,.45.89,7.92,7.92,0,0,0,2,.54,5.5,5.5,0,0,1,2.27.78,2.27,2.27,0,0,1,.66,1.89,2.34,2.34,0,0,1-.89,2,4.4,4.4,0,0,1-2.6.64,16.11,16.11,0,0,1-2.63-.25l-.54-.09.07-1.17a22.28,22.28,0,0,0,3.1.31,3.09,3.09,0,0,0,1.59-.33,1.21,1.21,0,0,0,.55-1.12,1.13,1.13,0,0,0-.46-1.06,6.67,6.67,0,0,0-2.06-.53,5.58,5.58,0,0,1-2.25-.74,2.12,2.12,0,0,1-.66-1.8,2.21,2.21,0,0,1,.92-2,4,4,0,0,1,2.32-.63,20,20,0,0,1,2.75.25l.51.1,0,1.15A23.77,23.77,0,0,0,113.82,137.09Z"/><path d="M129.68,138.78v4.61c0,.44.38.71,1,.79l-.05,1.06a2.9,2.9,0,0,1-2.14-.72,7.92,7.92,0,0,1-3.24.72,2.43,2.43,0,0,1-1.89-.7,2.83,2.83,0,0,1-.65-2,2.54,2.54,0,0,1,.66-1.94,3.53,3.53,0,0,1,2.09-.76l2.83-.27v-.78a1.77,1.77,0,0,0-.4-1.31,1.43,1.43,0,0,0-1.08-.4,26,26,0,0,0-3,.18l-.55.06-.06-1a18.49,18.49,0,0,1,3.51-.4,3,3,0,0,1,2.22.71A3,3,0,0,1,129.68,138.78Zm-5.55,3.67c0,1.11.46,1.66,1.37,1.66a7.4,7.4,0,0,0,2.41-.41l.42-.15v-3l-2.67.25a1.76,1.76,0,0,0-1.17.47A1.67,1.67,0,0,0,124.13,142.45Z"/><path d="M133.69,145.06h-1.35v-9h1.33v.63a5.8,5.8,0,0,1,2.79-.81,2.65,2.65,0,0,1,2.42,1,6.75,6.75,0,0,1,.63,3.45v4.75h-1.34v-4.71a6,6,0,0,0-.37-2.57,1.61,1.61,0,0,0-1.57-.69,5,5,0,0,0-1.22.17,8.4,8.4,0,0,0-1,.33l-.34.17Z"/><path d="M148.92,132.14v12.92h-1.33v-.61a5.49,5.49,0,0,1-2.74.79,4,4,0,0,1-1.26-.18,2.65,2.65,0,0,1-1-.64c-.64-.65-1-1.85-1-3.6a6.42,6.42,0,0,1,.87-3.78,3.41,3.41,0,0,1,2.89-1.16,11.06,11.06,0,0,1,2.22.24v-4Zm-4.68,11.77a2.21,2.21,0,0,0,.84.13,4.71,4.71,0,0,0,1.15-.17,7.56,7.56,0,0,0,1-.34l.36-.16v-6.1a11.19,11.19,0,0,0-2.14-.22,2,2,0,0,0-1.91.88,5.25,5.25,0,0,0-.54,2.7,4.45,4.45,0,0,0,.63,2.81A1.46,1.46,0,0,0,144.24,143.91Z"/><path d="M158.86,135.88a16.65,16.65,0,0,1,2,.22l.43.05-.05,1.1a20.44,20.44,0,0,0-2.12-.16,2.45,2.45,0,0,0-2.08.73,4.7,4.7,0,0,0-.55,2.7,5.28,5.28,0,0,0,.51,2.74,2.39,2.39,0,0,0,2.13.78l2.13-.16,0,1.11a18,18,0,0,1-2.5.25,3.43,3.43,0,0,1-2.91-1.08,6.3,6.3,0,0,1-.8-3.64,5.68,5.68,0,0,1,.87-3.6A3.54,3.54,0,0,1,158.86,135.88Z"/><path d="M162.83,140.54a5.69,5.69,0,0,1,.89-3.56,4.56,4.56,0,0,1,5.94,0,5.69,5.69,0,0,1,.88,3.56,6.13,6.13,0,0,1-.83,3.59,4.68,4.68,0,0,1-6.05,0A6.13,6.13,0,0,1,162.83,140.54Zm1.39,0a5.71,5.71,0,0,0,.48,2.76,2.13,2.13,0,0,0,2,.79c1,0,1.68-.26,2-.78a5.8,5.8,0,0,0,.47-2.76,5.07,5.07,0,0,0-.52-2.73,2.88,2.88,0,0,0-3.88,0A5,5,0,0,0,164.22,140.52Z"/><path d="M174.08,145.06h-1.35v-9h1.34v.63a5.05,5.05,0,0,1,2.62-.81,2.7,2.7,0,0,1,2.34.92,6.87,6.87,0,0,1,1.54-.64,6.25,6.25,0,0,1,1.67-.28,2.68,2.68,0,0,1,2.42,1,6.87,6.87,0,0,1,.62,3.46v4.75h-1.35v-4.71a6.23,6.23,0,0,0-.36-2.57,1.56,1.56,0,0,0-1.53-.69,4.78,4.78,0,0,0-1.22.17,8.4,8.4,0,0,0-1,.33l-.34.17a8.73,8.73,0,0,1,.24,2.62v4.68h-1.35v-4.64a6.47,6.47,0,0,0-.36-2.64c-.23-.46-.74-.69-1.54-.69a4.41,4.41,0,0,0-1.17.17,7.13,7.13,0,0,0-.93.33l-.31.17Z"/><path d="M189.13,145.06h-1.35v-9h1.33v.63a5.11,5.11,0,0,1,2.63-.81,2.7,2.7,0,0,1,2.34.92,6.87,6.87,0,0,1,1.54-.64,6.19,6.19,0,0,1,1.67-.28,2.68,2.68,0,0,1,2.42,1,6.87,6.87,0,0,1,.62,3.46v4.75H199v-4.71a6.23,6.23,0,0,0-.36-2.57,1.56,1.56,0,0,0-1.53-.69,4.86,4.86,0,0,0-1.23.17,8.13,8.13,0,0,0-1,.33l-.34.17a9.22,9.22,0,0,1,.23,2.62v4.68h-1.35v-4.64a6.51,6.51,0,0,0-.35-2.64c-.23-.46-.75-.69-1.54-.69a4.55,4.55,0,0,0-1.18.17,6.89,6.89,0,0,0-.92.33l-.31.17Z"/><path d="M209,144l.52-.06,0,1.07a26.05,26.05,0,0,1-3.51.28,3.17,3.17,0,0,1-2.76-1.12,6,6,0,0,1-.81-3.5q0-4.74,3.77-4.74a3.42,3.42,0,0,1,2.71,1,4.74,4.74,0,0,1,.9,3.2l-.07,1H203.8a3.7,3.7,0,0,0,.54,2.22,2.21,2.21,0,0,0,1.88.72C207.12,144.06,208,144,209,144Zm-.49-3.91a3.88,3.88,0,0,0-.53-2.34,2.06,2.06,0,0,0-1.73-.68,2.24,2.24,0,0,0-1.8.72,3.63,3.63,0,0,0-.62,2.3Z"/><path d="M213.27,145.06h-1.35v-9h1.33v.63a5.74,5.74,0,0,1,2.79-.81,2.65,2.65,0,0,1,2.42,1,6.77,6.77,0,0,1,.62,3.45v4.75h-1.33v-4.71a6,6,0,0,0-.37-2.57,1.61,1.61,0,0,0-1.57-.69,4.9,4.9,0,0,0-1.22.17,8.4,8.4,0,0,0-1,.33l-.34.17Z"/><path d="M226.19,137.23h-2.86v4.31a5.74,5.74,0,0,0,.23,2c.14.32.5.49,1.07.49l1.6-.11.09,1.11a11.47,11.47,0,0,1-1.84.2,2.37,2.37,0,0,1-1.94-.68A4.48,4.48,0,0,1,222,142v-4.74h-1.28v-1.17H222v-2.75h1.33v2.75h2.86Z"/><path d="M231.41,140.54a5.76,5.76,0,0,1,.88-3.56,4.57,4.57,0,0,1,6,0,5.69,5.69,0,0,1,.88,3.56,6.13,6.13,0,0,1-.83,3.59,4.68,4.68,0,0,1-6,0A6.13,6.13,0,0,1,231.41,140.54Zm1.39,0a5.71,5.71,0,0,0,.48,2.76,2.13,2.13,0,0,0,2,.79c1,0,1.68-.26,2-.78a5.8,5.8,0,0,0,.47-2.76,5.07,5.07,0,0,0-.52-2.73,2.88,2.88,0,0,0-3.88,0A5,5,0,0,0,232.8,140.52Z"/><path d="M242.66,145.06h-1.35v-9h1.33v.63a5.8,5.8,0,0,1,2.79-.81,2.68,2.68,0,0,1,2.43,1,6.88,6.88,0,0,1,.62,3.45v4.75h-1.34v-4.71a6.23,6.23,0,0,0-.36-2.57,1.64,1.64,0,0,0-1.58-.69,4.83,4.83,0,0,0-1.21.17,8,8,0,0,0-1,.33l-.34.17Z"/><path d="M259.6,137.23h-2.86v4.31a5.81,5.81,0,0,0,.22,2c.15.32.51.49,1.07.49l1.61-.11.09,1.11a11.47,11.47,0,0,1-1.84.2,2.36,2.36,0,0,1-1.94-.68,4.48,4.48,0,0,1-.54-2.61v-4.74h-1.28v-1.17h1.28v-2.75h1.33v2.75h2.86Z"/><path d="M267.38,144l.52-.06,0,1.07a25.81,25.81,0,0,1-3.51.28,3.16,3.16,0,0,1-2.75-1.12,6,6,0,0,1-.81-3.5q0-4.74,3.76-4.74a3.44,3.44,0,0,1,2.72,1,4.74,4.74,0,0,1,.9,3.2l-.07,1h-5.94a3.7,3.7,0,0,0,.54,2.22,2.2,2.2,0,0,0,1.88.72C265.54,144.06,266.45,144,267.38,144Zm-.49-3.91a4,4,0,0,0-.53-2.34,2.08,2.08,0,0,0-1.73-.68,2.21,2.21,0,0,0-1.8.72,3.63,3.63,0,0,0-.62,2.3Z"/><path d="M273.17,137.09c-1.31,0-2,.46-2,1.37a1,1,0,0,0,.45.89,7.92,7.92,0,0,0,2,.54,5.45,5.45,0,0,1,2.27.78,2.27,2.27,0,0,1,.67,1.89,2.35,2.35,0,0,1-.9,2,4.4,4.4,0,0,1-2.6.64,15.9,15.9,0,0,1-2.62-.25l-.54-.09.07-1.17a22.17,22.17,0,0,0,3.09.31,3.16,3.16,0,0,0,1.6-.33,1.23,1.23,0,0,0,.55-1.12,1.13,1.13,0,0,0-.47-1.06,6.58,6.58,0,0,0-2.05-.53,5.47,5.47,0,0,1-2.25-.74,2.1,2.1,0,0,1-.67-1.8,2.19,2.19,0,0,1,.93-2,4,4,0,0,1,2.31-.63,20,20,0,0,1,2.75.25l.51.1,0,1.15A23.77,23.77,0,0,0,273.17,137.09Z"/><path d="M283.38,137.23h-2.86v4.31a5.81,5.81,0,0,0,.22,2c.15.32.51.49,1.07.49l1.6-.11.09,1.11a11.26,11.26,0,0,1-1.83.2,2.38,2.38,0,0,1-1.95-.68,4.48,4.48,0,0,1-.54-2.61v-4.74h-1.27v-1.17h1.27v-2.75h1.34v2.75h2.86Z"/><path d="M286.38,145.06H285v-9h1.34v.63a5.74,5.74,0,0,1,2.79-.81,2.66,2.66,0,0,1,2.42,1,6.88,6.88,0,0,1,.62,3.45v4.75h-1.33v-4.71a6.19,6.19,0,0,0-.37-2.57,1.63,1.63,0,0,0-1.58-.69,4.83,4.83,0,0,0-1.21.17,7.26,7.26,0,0,0-1,.33l-.35.17Z"/><path d="M300.82,144l.52-.06,0,1.07a26.05,26.05,0,0,1-3.51.28,3.17,3.17,0,0,1-2.76-1.12,6,6,0,0,1-.81-3.5q0-4.74,3.77-4.74a3.42,3.42,0,0,1,2.71,1,4.74,4.74,0,0,1,.9,3.2l-.07,1h-5.94a3.7,3.7,0,0,0,.54,2.22,2.21,2.21,0,0,0,1.88.72C299,144.06,299.9,144,300.82,144Zm-.49-3.91a3.88,3.88,0,0,0-.53-2.34,2.06,2.06,0,0,0-1.73-.68,2.24,2.24,0,0,0-1.8.72,3.63,3.63,0,0,0-.62,2.3Z"/><path d="M308.4,137.23h-2.86v4.31a5.81,5.81,0,0,0,.22,2c.15.32.51.49,1.07.49l1.6-.11.09,1.11a11.26,11.26,0,0,1-1.83.2,2.38,2.38,0,0,1-1.95-.68,4.48,4.48,0,0,1-.54-2.61v-4.74h-1.28v-1.17h1.28v-2.75h1.34v2.75h2.86Z"/><path d="M317.38,135.88a16.56,16.56,0,0,1,2,.22l.43.05-.06,1.1a20.44,20.44,0,0,0-2.12-.16,2.47,2.47,0,0,0-2.08.73,4.7,4.7,0,0,0-.55,2.7,5.28,5.28,0,0,0,.51,2.74,2.42,2.42,0,0,0,2.14.78l2.12-.16,0,1.11a18,18,0,0,1-2.5.25,3.39,3.39,0,0,1-2.9-1.08,6.21,6.21,0,0,1-.81-3.64,5.68,5.68,0,0,1,.87-3.6A3.57,3.57,0,0,1,317.38,135.88Z"/><path d="M323.21,145.06h-1.35V132.14h1.35v4.43a6.39,6.39,0,0,1,2.77-.69,2.65,2.65,0,0,1,2.42,1,6.77,6.77,0,0,1,.62,3.45v4.75h-1.35v-4.71a6.23,6.23,0,0,0-.36-2.57,1.61,1.61,0,0,0-1.56-.69,6.13,6.13,0,0,0-2.2.41l-.34.13Z"/><path d="M337.88,138.78v4.61c0,.44.38.71,1,.79l-.05,1.06a2.9,2.9,0,0,1-2.14-.72,7.92,7.92,0,0,1-3.24.72,2.43,2.43,0,0,1-1.89-.7,2.87,2.87,0,0,1-.65-2,2.51,2.51,0,0,1,.67-1.94,3.5,3.5,0,0,1,2.08-.76l2.83-.27v-.78a1.77,1.77,0,0,0-.4-1.31,1.43,1.43,0,0,0-1.08-.4,25.72,25.72,0,0,0-3,.18l-.56.06-.06-1a18.49,18.49,0,0,1,3.51-.4,2.52,2.52,0,0,1,2.92,2.9Zm-5.54,3.67c0,1.11.45,1.66,1.36,1.66a7.5,7.5,0,0,0,2.42-.41l.41-.15v-3l-2.66.25a1.76,1.76,0,0,0-1.17.47A1.67,1.67,0,0,0,332.34,142.45Z"/><path d="M341.89,145.06h-1.35v-9h1.34v.63a5.74,5.74,0,0,1,2.79-.81,2.66,2.66,0,0,1,2.42,1,6.88,6.88,0,0,1,.62,3.45v4.75h-1.33v-4.71a6.19,6.19,0,0,0-.37-2.57,1.63,1.63,0,0,0-1.58-.69,4.83,4.83,0,0,0-1.21.17,7.26,7.26,0,0,0-1,.33l-.35.17Z"/><path d="M353.68,149.29a5.62,5.62,0,0,1-3-.58,2.4,2.4,0,0,1-.86-2.13,2,2,0,0,1,.33-1.2,4.87,4.87,0,0,1,1.1-1,1.37,1.37,0,0,1-.51-1.24,3.1,3.1,0,0,1,.45-1.13l.16-.29a2.68,2.68,0,0,1-1.42-2.72q0-3.08,3.37-3.08a6.76,6.76,0,0,1,1.6.18l.27.06,2.66-.08v1.16l-1.71,0a2.44,2.44,0,0,1,.6,1.8,2.89,2.89,0,0,1-.84,2.37,4.2,4.2,0,0,1-2.64.67,4.83,4.83,0,0,1-.88-.07,3.94,3.94,0,0,0-.32,1c0,.37.11.6.34.69a8.46,8.46,0,0,0,2.07.14,4.28,4.28,0,0,1,2.48.54,2.42,2.42,0,0,1,.76,2.1Q357.68,149.3,353.68,149.29Zm-2.53-2.82a1.49,1.49,0,0,0,.53,1.32,3.61,3.61,0,0,0,2,.37,3.9,3.9,0,0,0,2.05-.4,1.44,1.44,0,0,0,.62-1.32q0-.93-.45-1.2a3.85,3.85,0,0,0-1.76-.27l-2-.09a3.28,3.28,0,0,0-.8.76A1.5,1.5,0,0,0,351.15,146.47Zm.12-7.51a2,2,0,0,0,.48,1.51,2.25,2.25,0,0,0,1.57.45,2.21,2.21,0,0,0,1.57-.45,2.69,2.69,0,0,0,0-3,2.94,2.94,0,0,0-3.14,0A2,2,0,0,0,351.27,139Z"/><path d="M365.58,144l.52-.06,0,1.07a26.05,26.05,0,0,1-3.51.28,3.15,3.15,0,0,1-2.75-1.12,6,6,0,0,1-.81-3.5q0-4.74,3.76-4.74a3.44,3.44,0,0,1,2.72,1,4.74,4.74,0,0,1,.9,3.2l-.08,1h-5.94a3.7,3.7,0,0,0,.54,2.22,2.21,2.21,0,0,0,1.88.72C363.75,144.06,364.66,144,365.58,144ZM365.1,140a3.87,3.87,0,0,0-.54-2.34,2.06,2.06,0,0,0-1.72-.68,2.21,2.21,0,0,0-1.8.72,3.57,3.57,0,0,0-.62,2.3Z"/><path d="M371.38,137.09c-1.31,0-2,.46-2,1.37a1,1,0,0,0,.45.89,7.79,7.79,0,0,0,2.05.54,5.5,5.5,0,0,1,2.27.78,2.27,2.27,0,0,1,.66,1.89,2.37,2.37,0,0,1-.89,2,4.4,4.4,0,0,1-2.6.64,16.11,16.11,0,0,1-2.63-.25l-.54-.09.07-1.17a22.14,22.14,0,0,0,3.1.31,3.09,3.09,0,0,0,1.59-.33,1.21,1.21,0,0,0,.55-1.12,1.11,1.11,0,0,0-.47-1.06,6.49,6.49,0,0,0-2-.53,5.58,5.58,0,0,1-2.25-.74,2.12,2.12,0,0,1-.66-1.8,2.18,2.18,0,0,1,.92-2,4,4,0,0,1,2.32-.63,20.14,20.14,0,0,1,2.75.25l.5.1,0,1.15A23.77,23.77,0,0,0,371.38,137.09Z"/><path d="M64.08,67.39h12q4.94,0,7.41,2T86,75.84a9.28,9.28,0,0,1-1.08,4.87,7.38,7.38,0,0,1-3.2,2.76Q87,85.3,87,91.3c0,3.32-.88,5.71-2.64,7.15s-4.3,2.16-7.63,2.16H64.08ZM76,70.66h-8.2V82.13h8.54a6,6,0,0,0,4.49-1.47,6.12,6.12,0,0,0,1.41-4.41A5.38,5.38,0,0,0,80.71,72,7.07,7.07,0,0,0,76,70.66Zm.39,14.68H67.78v12h8.83a7.83,7.83,0,0,0,5-1.36c1.13-.92,1.7-2.52,1.7-4.83a6.17,6.17,0,0,0-.7-3.07,4.1,4.1,0,0,0-1.84-1.78A10.48,10.48,0,0,0,76.37,85.34Z"/><path d="M93.31,100.61V66.14h3.6v34.47Z"/><path d="M103.05,88.56q0-6.57,2.36-9.5c1.56-2,4.21-2.93,7.94-2.93s6.37,1,7.92,2.93,2.33,5.12,2.33,9.5-.74,7.57-2.21,9.55-4.16,3-8.06,3-6.6-1-8.07-3S103.05,92.94,103.05,88.56Zm3.7-.07q0,5.25,1.27,7.37c.85,1.4,2.63,2.11,5.33,2.11s4.47-.7,5.3-2.09,1.25-3.85,1.25-7.37-.46-5.94-1.39-7.27-2.65-2-5.16-2-4.24.66-5.18,2S106.75,85,106.75,88.49Z"/><path d="M138.72,111.89q-5.76,0-8-1.56t-2.28-5.69a5.45,5.45,0,0,1,.86-3.19,13.24,13.24,0,0,1,2.93-2.76,3.71,3.71,0,0,1-1.34-3.31,8.22,8.22,0,0,1,1.2-3l.43-.77c-2.53-1.15-3.79-3.56-3.79-7.25q0-8.2,9-8.2a18,18,0,0,1,4.27.48l.72.14,7.11-.19v3.07l-4.56-.09a6.52,6.52,0,0,1,1.58,4.79q0,4.52-2.23,6.32t-7,1.8a13.89,13.89,0,0,1-2.35-.19A10,10,0,0,0,134.3,95c0,1,.31,1.61.91,1.85a22.83,22.83,0,0,0,5.52.36c3.08,0,5.28.48,6.63,1.44s2,2.83,2,5.62Q149.37,111.88,138.72,111.89ZM132,104.35c0,1.7.47,2.87,1.42,3.53s2.68,1,5.23,1,4.37-.35,5.47-1a3.88,3.88,0,0,0,1.66-3.53c0-1.65-.4-2.71-1.2-3.19s-2.37-.72-4.71-.72l-5.18-.24a8.63,8.63,0,0,0-2.14,2A4,4,0,0,0,132,104.35Zm.34-20c0,1.89.42,3.24,1.27,4a6,6,0,0,0,4.2,1.2q2.93,0,4.17-1.2c.84-.8,1.25-2.15,1.25-4.06s-.41-3.25-1.25-4-2.22-1.2-4.17-1.2-3.35.4-4.2,1.22A5.45,5.45,0,0,0,132.29,84.33Z"/><g id="Illustrations"><g id="Group-22-Copy-2"><g id="Group-17-Copy"><g id="Group-16-Copy-2"><g id="Group-15"><g id="Group-19"><path id="Path" d="M767.37,135.72c-.68-5.5-.18-7.77-5.19-10L753,126c-3.41-1.55-7.77-6.32-11.16-5.15-1.38.48-5.28-1.15-6.48-1.52-2.32-6.23-19.39-3.7-22.47-6.55q-3.07-2.85-10.22-2.41l-8.46-3.52a14.78,14.78,0,0,0-2.87-.88q-1-.18-15.62,8.94a22.6,22.6,0,0,0-.59,2.35l-17,102.49A16,16,0,0,0,668,237l76.75,27.06c2.11.83,5.9,2.16,10.13,0,6-3.06,12.4-5.36,14.63-15.76s6-42.28,11-76.6a15.92,15.92,0,0,0-4.11-13.32l-7.16-7.71Z"/><path class="cls-1" d="M747.72,157.24a6.25,6.25,0,0,0,1.62,3.47l8,8.58a6.19,6.19,0,0,1,1.59,5.16l-10.58,63.83q-.74,4.38-6.5,10.17c0,.28-11.19,2.66-14.15,1.49l-56.94-21.41c-2.65-1.05,2.63-5,3.09-7.81q-3.8-17.57-2.25-26.91c1.23-7.41,3.68-7.72,5.49-18.65.66-3.95.42-17,1.15-21.4q1.5-9.07,5-30.19a5.78,5.78,0,0,1,.23-.91,5.29,5.29,0,0,1,7.16-3.12l9,3.75a5.84,5.84,0,0,0,1.88.43l12.33.68a6,6,0,0,1,4.53,2.58q5,7.11,8.59,8.38a14.35,14.35,0,0,0,9.78,0,5.56,5.56,0,0,1,4.1.23l1.34.61a6.24,6.24,0,0,1,3.58,4.89Z"/><path class="cls-1" d="M694.92,119l5.54,4.85,13.9,3.27c1.18.07,3.38-.4,6.59-1.39l6.33,11.1a91.54,91.54,0,0,0,12-2.71,5.56,5.56,0,0,1,4.1.23l1.34.61a6.24,6.24,0,0,1,3.58,4.89l2,16.14a6.27,6.27,0,0,0,1.63,3.47l8,8.58a6.16,6.16,0,0,1,1.6,5.16q-4,27-5.93,47.33t-1.47,31.78c1.63-.19,2.78-2.36,3.47-6.5,0-.28.15-.53.19-.81l12.15-73.23a6.2,6.2,0,0,0-1.6-5.16l-8-8.58a6.2,6.2,0,0,1-1.63-3.47l-2-16.14a6.26,6.26,0,0,0-3.58-4.89l-1.35-.61a5.53,5.53,0,0,0-4.09-.23,14.35,14.35,0,0,1-9.78,0q-3.57-1.26-8.59-8.38a6,6,0,0,0-4.54-2.58L712.49,121a5.9,5.9,0,0,1-1.88-.43l-9-3.75A5.29,5.29,0,0,0,694.92,119Z"/><path class="cls-2" d="M739.39,155.71,758,179.36l1.08-6.52a5.9,5.9,0,0,0-1.6-5l-7.94-8.33a6.12,6.12,0,0,1-1.63-3.36l-2-15.6a6.14,6.14,0,0,0-3.57-4.74l-1.34-.6a29.94,29.94,0,0,0-6.47-1.24l-7.29.92L716.68,129l-2-5.2c-6.6.17-10.12.25-10.54.22a28.69,28.69,0,0,1-4.15-1l-8.93-3.68a5.29,5.29,0,0,0-6.64,2l7.24,3a33.41,33.41,0,0,0,4.69.6l9.68,4.93,4.24-1.84,8.56,8.15,10.56,2.49,5.15.59,3.69,3.69Z"/><path id="Rectangle" class="cls-3" d="M743.92,168.59l-51.69-17.13a1.87,1.87,0,0,0-2.45,1.3h0a2.22,2.22,0,0,0,1.46,2.6l51.69,17.14a1.88,1.88,0,0,0,2.45-1.3h0A2.22,2.22,0,0,0,743.92,168.59Z"/><path id="Rectangle-Copy-5" class="cls-3" d="M739.9,192.79l-51.68-17.13a1.88,1.88,0,0,0-2.46,1.29h0a2.22,2.22,0,0,0,1.46,2.61l51.69,17.13a1.87,1.87,0,0,0,2.45-1.29v0A2.21,2.21,0,0,0,739.9,192.79Z"/><path id="Rectangle-Copy-4" class="cls-3" d="M741.91,180.69l-51.69-17.13a1.87,1.87,0,0,0-2.45,1.29v0a2.21,2.21,0,0,0,1.45,2.6l51.69,17.13a1.87,1.87,0,0,0,2.45-1.29h0A2.23,2.23,0,0,0,741.91,180.69Z"/><path id="Rectangle-Copy-7" class="cls-3" d="M722.53,201.56l-35.18-11.71a1.9,1.9,0,0,0-2.47,1.31h0a2.25,2.25,0,0,0,1.47,2.63l35.17,11.7a1.89,1.89,0,0,0,2.47-1.3v0A2.23,2.23,0,0,0,722.53,201.56Z"/></g></g></g><path id="Path-Copy-9" class="cls-3" d="M717.15,203.36a10.48,10.48,0,0,1,.23-2.9,1.71,1.71,0,0,0,.07-1.64,5.32,5.32,0,0,1-.63-1.63c.78.38.72.64,1.59.68.3,0,.87,1.54,1.05,1.8a10,10,0,0,1,1.18,3.07c.28.81,3.26,2.89,4.2,3.39-1.15-1.44-4.39-5.28-4.33-7.1a.44.44,0,0,0-.14-.34c-.53-.33-.47-1.93-1-2.25-1.89-1.14-2.5-1.37-3.21-3.57-.35-1.09-1.07-1.32-1.13-2.48,0-.19-.73-1.15-.53-1.38.4-.48-.4-.83-.77-1.25-.81-.92-.19-2.13-.4-3.32a83.09,83.09,0,0,0-3.92-8.93c.28,1.17.34,3.2.62,4.37s2.48,7.56,3,8.62a20.58,20.58,0,0,0-3.33-3l-3.08-6q-2.13-5-2.37-5.52c0,.16.36,2.3,1.06,6.41l3.48,6.37,3.23,1.94.76,1.26c.62,1,.14.74.12,1.95,0,1.94,1.36,1.58,1.83,3.41.06.22.12,1.83.33,2a5.07,5.07,0,0,1,2.07,3.07A3.1,3.1,0,0,0,717.15,203.36Z"/><path id="Path-Copy-10" class="cls-3" d="M756.12,163.82a5.66,5.66,0,0,1,1.5-1.42c.59-.18.8-.45.79-.82s-.21-.7,0-1c.69.44.51.56,1.44.85.32.11.28,1.08.37,1.27.35.76,0,1.25,0,2-.05.51,2.3,2.52,3.11,3.08-.64-1.11-2.51-4.12-1.66-5a.14.14,0,0,0,0-.21c-.44-.34.31-1.15-.14-1.49-1.56-1.19-2.14-1.5-2-2.86.09-.68-.6-1-.16-1.64.07-.1-.3-.83,0-.88.64-.12-.07-.56-.3-.9-.49-.73.71-1.16,1-1.84s-.22-5.2-.42-5.85c-.2.7-1,1.76-1.2,2.46a27.78,27.78,0,0,0-.41,5.4,13.69,13.69,0,0,0-2.32-2.6l-.79-4.05c-.11-2.19-.18-3.39-.21-3.61-.07.09-.6,1.3-1.6,3.65l1,4.39,2.68,2,.29.89c.26.7-.17.43-.71,1-.87,1,.81,1.25.53,2.35,0,.13-.66,1-.48,1.11a2.14,2.14,0,0,1,.93,2.24C756.55,162.65,755.93,163.08,756.12,163.82Z"/></g><g id="Group-20"><g id="Group-11"><g id="Group-7"><path class="cls-3" d="M669,137.17a13,13,0,0,1,3.75,1.5c.86.62,2.25,1,2.45,1.91s-.66,1.88-1.06,2.83c-.49,1.19-1,2.39-1.52,3.56-.26.56-.2.83.41,1.05s1.11.57,1.68.83a4.56,4.56,0,0,1,2,1.82c1.86,2.88,4.35,5.27,6.61,7.83,4.16,4.72,11.53,11.87,15.16,17,1.81,2.51,3.77,4.91,5.39,7.53,2.09,3.39-.66,13.61-.76,13.93-.21.65-12.7.8-14.38.59-2-.25-29.68-28-32.07-29.58-1.09-.73-2.07-1.61-3.08-2.4.43-1.17.49-1.21-.49-1a14.18,14.18,0,0,0-2.47.7,5.17,5.17,0,0,1-5.85-1.42c-1-1-3.31-4.11-4.11-3.78a14.89,14.89,0,0,1,2.2-7.71c1.52-2.78,2.63-5.92,4.35-8.57.48-.74,2.16-3.57,4.12-4.37S664.9,137.16,669,137.17Z"/><path id="Fill-15-Copy" class="cls-4" d="M668,139.51a28.63,28.63,0,0,1-4.5,9.59,20.38,20.38,0,0,1-8.77,6c-3.08,1.23-6.38,1.55-9.65,2,.16-1.49,1.06-2.67,1.62-4,1.1-2.59,2.31-5.15,3.63-7.63a7,7,0,0,1,5-3.87C659.45,140.73,663.67,140,668,139.51Z"/><path id="Fill-77-Copy" class="cls-4" d="M644,160.43a39.57,39.57,0,0,0,15.28-4.82,1.36,1.36,0,0,1,2.1.49c1.35,1.82,1.38,1.74-.83,2.8-4.07,2-8.5,2.74-12.71,4.24-.47.16-.73-.08-1-.33-.86-.75-1.74-1.48-2.81-2.38"/><path id="Fill-79-Copy" class="cls-4" d="M669.27,140.19c.72.89,1.38,1.72,2.07,2.52a.66.66,0,0,1,.11.8c-1.39,2.87-2.21,6.06-4,8.7-.25.36-.52.71-.8,1-1.36,1.6-1.95,1.59-3.52.09-.27-.26-.23-.43-.07-.62,2.91-3.64,4.16-8.28,6.22-12.54"/><path id="Fill-73-Copy" class="cls-5" d="M672.71,152.57c1.84,3.62,4.64,6.31,7.14,9.23,2,2.3,4,4.57,6,6.86,3.45,4,6.93,7.9,10.33,11.9a35.15,35.15,0,0,1,2.38,3.49.86.86,0,0,1,.13.49,50.68,50.68,0,0,1-.43,6.39c-.06.33,0,.86-.35.92s-.71-.24-1-.56c-1.36-1.52-2.75-3-4.14-4.5-7.92-8.46-16.89-15.71-25.68-23.17a6.66,6.66,0,0,0-.83-.68c-.72-.43-.81-.83-.25-1.54,2.22-2.86,4.38-5.77,6.69-8.83"/><path id="Fill-75-Copy" class="cls-6" d="M698.05,192c-3.84-.35-6.27,0-9.91-.35a85.22,85.22,0,0,1-6.76-5.84c-4.39-6.11-10.35-10.53-16.2-15.07-2.53-2-5-4-7.64-6.1,2.38-.74,4.68-1.31,6.88-2.16,1.57-.61,2.53-.13,3.68.92,6.07,5.6,12.46,10.83,18.23,16.75l7,7.19Z"/></g></g><g id="Group-10"><path class="cls-3" d="M583,120.73c-3.81-1.7-8-2.36-12-3.3a4,4,0,0,0-2.41.54c-.66.27-1.39,1-2,.25s-1.73-1.56-1.3-2.85a1.19,1.19,0,0,0,0-1c-2.91-6.71-1.74-13.46,0-20.12a120.43,120.43,0,0,1,9.4-24.21,24.42,24.42,0,0,1,9.65-9.73c1.84-1.11,3.22-2.93,5.36-3.66.13,0,.26-.23.35-.21,1.58.37,2.73-.51,4-1.16,1.68-.84,2.8,0,3.95,1.45a38.41,38.41,0,0,0,14.67,11.61,2.06,2.06,0,0,0,2.61-1.76c.24-2.34.41-4.7.63-7.24,1.35.9,2.43.41,3.63-.36a6.67,6.67,0,0,1,6.17-.87c3.2,1.17,6.46,2.14,9.14,4.38,1.3,1.08,1.55,5.2.3,6.27-3.23,2.77-3.37,3-5.42,7.09-.55,1.09-.32,1.46.73,2,8.42,4.38,17.43,7,26.65,8.93a2.3,2.3,0,0,1,2,1.72c.58,1.64.71,4.17.31,8.29A89.44,89.44,0,0,1,657.3,110c-1.91,5-4,9.92-7.38,14.16-5,6.22-14.61,15.78-21.65,19.9-1,.57-4-.68-8.1-2.85a6.47,6.47,0,0,1,.12.78,11.4,11.4,0,0,0-1.54-1.56c-.82-.47-1.68-1-2.56-1.48-2.81-1-5.55-.69-8.44-4.25-.92,4.71-4.9,7.22-5.79,11.59-.37,1.81.3,3.21-.07,5-.75,3.66-2.59,7.72-3.68,11.3a6.34,6.34,0,0,1-1.54,3.12c-.78.72.09,1.7-.26,2.63-1.83,4.92-3.52,9.89-5.25,14.84-1.33,3.81-2.67,7.61-5.2,10.87-.64.82-.79-.42-1.69.19-2.28,1.55-10,6.86-10.29,1.68-5.38.81-8.2-.1-13.66-.13-2.28,0-2.78-.46-4.46-2.15-1.32-1.33-1.68-2.06-3.32-2.11,0-1.39.76-2.47,1.22-3.64,4.79-12.23,12.38-22.78,20-33.3,1.87-2.55,9-25.65,12.88-33.43A6.65,6.65,0,0,1,583,120.73Z"/><path id="Fill-107" class="cls-5" d="M581.19,190a62.63,62.63,0,0,0-9.71,1.29c-3.64.72-6.48-1.17-9.71-2.7,3.15-2.57,15.47-1.67,19.42,1.41"/><path id="Fill-13" class="cls-4" d="M592.18,128.73v.05c.77.19.46-.32.43-.65a21.62,21.62,0,0,0,2.2-6.13,26.29,26.29,0,0,1,6.56,1.34,3.29,3.29,0,0,1,2.55,3.41c-.21,6.09-.92,12.1-5.06,17-7,8.3-11.48,18.11-17.2,27.17-1.16,1.84-2.79,9.19-6.35,12-3.27,2.58-8.5.69-9.25.76-1.65.16-3.3.43-5.25.68,2.48-3.63,4.81-7.07,7.18-10.49a163.41,163.41,0,0,0,11.86-20.13c.49-1,1.75-1.41,1.74-2.66l.33-.45-.06.06a1.76,1.76,0,0,0,.8-1.75l0,0c.62,0,.77-.45.8-1l-.05.08c.71-.89,1.37-1.81,2-2.74.74-1.12,1.42-2.27,2-3.44a49.17,49.17,0,0,0,3.68-9.18C591.55,131.41,593,130.37,592.18,128.73Z"/><path id="Fill-81" class="cls-4" d="M650.37,103.14c2.56,1.29,2.61,1.3,1.43,3.79-3,6.42-3.07,10.92-7.89,16.22-.92,1-1.43,1.38-2.67.12-7.62-7.76-16.71-13.51-26.19-18.74-7.36-4.06-14.68-8.2-22-12.25a1.78,1.78,0,0,1-1-2.59A89.72,89.72,0,0,0,595.87,70c.16-1.56.07-3.14.25-4.74.22-2,.88-1.32,1.88-.73,3.1,1.85,6.32,3.54,9.34,5.52,11.57,7.62,20.45,12,33.61,16,3.93,1.17,8.22,5.28,12.29,3.93,1.46-.48,2.56.16,2.6,1.9.09,3.85-.77,6-1.87,9.64-.4,1.32-1.11.4-1.59.19-6.33-2.69-12.65-5.42-19-8.13-.64-.27-1.3-.46-2-.69-.65-.46-1.29-1-2.35-.38l1.93.83Z"/><path id="Fill-81-Copy-2" class="cls-4" d="M638.91,123.42c0,1.51.3,3,.32,4.57,0,1.91-.68,1.37-1.69.92-3.17-1.42-6.43-2.66-9.52-4.22-11.9-6-20.84-9.18-33.81-11.44-3.86-.67-8.42-4.12-12.13-2.35-1.33.63-2.44.14-2.69-1.52-.54-3.68,6.31-11.16,12.63-9.3.63.19-.17-5.57.47-5.43.68.37,11.27,11.77,12.21,11l-1.93-.57C596.26,102.73,638.77,116.94,638.91,123.42Z"/><path id="Fill-81-Copy" class="cls-5" d="M595.21,70c.16-1.58.07-3.19.24-4.81.23-2,.89-1.35,1.88-.75,3.11,1.89,6.32,3.61,9.34,5.63,11.58,7.75,20.45,12.26,33.61,16.28,3.92,1.2,8.21,5.38,12.28,4,1.46-.49,2.55.16,2.6,1.92C655.25,96.19,594.52,76.76,595.21,70Z"/><path id="Fill-85" class="cls-4" d="M625.34,65.63a1.45,1.45,0,0,0,.18-.1c3.42-3.64,3.86-3.64,7.84.17-1.83.07-2.13,1.46-2.68,2.64-.47,1-.95,2.06-1.43,3.09-1.58,3.34-1.58,3.34-5,1.9-7-3-7.16-3.27-5.71-10.7.12-.65.29-1,1-1.13a17.1,17.1,0,0,1,2.33-.37c4.14,0,4.54.59,3,4.2-.13.24-.29.5.05.67,0,0,.25-.24.38-.37"/><path class="cls-5" d="M569.29,109.45A158.44,158.44,0,0,0,575.2,87c1.75-8.6,8.06-13.26,14-19.11,2.39,9-10.22,35.39-19.88,41.54"/><path id="Fill-119" class="cls-6" d="M599.83,145.32c0-.22.11-.44.16-.66,0,0,.1.07.11.12,0,.27,0,.51-.19.63l-.08-.09"/></g></g></g></g></svg>