<svg xmlns="http://www.w3.org/2000/svg" viewBox="0 0 882 300"><defs><style>.cls-1{fill:#c4c3c6;}.cls-2{fill:#fff;}.cls-3,.cls-5{fill:#d8d8d8;}.cls-4{fill:#f9f9f9;}.cls-4,.cls-5{fill-rule:evenodd;}</style></defs><title>communications</title><g id="Layer_4" data-name="Layer 4"><rect width="882" height="209" rx="6"/><path class="cls-1" d="M68.39,145H61.53V132.52h1.39v11.21h5.47Z"/><path class="cls-1" d="M76,143.86l.52-.06,0,1.06a24.69,24.69,0,0,1-3.51.29A3.17,3.17,0,0,1,70.24,144a6,6,0,0,1-.81-3.5c0-3.16,1.26-4.74,3.76-4.74a3.43,3.43,0,0,1,2.72,1,4.73,4.73,0,0,1,.9,3.19l-.07,1H70.8a3.67,3.67,0,0,0,.54,2.21,2.21,2.21,0,0,0,1.88.72C74.12,144,75,143.93,76,143.86ZM75.46,140a3.88,3.88,0,0,0-.53-2.34,2,2,0,0,0-1.73-.68,2.22,2.22,0,0,0-1.8.72,3.61,3.61,0,0,0-.62,2.3Z"/><path class="cls-1" d="M85.27,138.69v4.61c0,.44.39.71,1,.79l-.06,1.06a2.9,2.9,0,0,1-2.14-.72,7.92,7.92,0,0,1-3.24.72,2.43,2.43,0,0,1-1.89-.7,2.88,2.88,0,0,1-.65-2A2.5,2.5,0,0,1,79,140.5a3.51,3.51,0,0,1,2.09-.77l2.82-.27v-.77a1.82,1.82,0,0,0-.39-1.31,1.46,1.46,0,0,0-1.08-.4,25.89,25.89,0,0,0-3,.18l-.56.05-.05-1a17.71,17.71,0,0,1,3.51-.4,2.51,2.51,0,0,1,2.91,2.9Zm-5.54,3.67c0,1.11.45,1.66,1.37,1.66a7.19,7.19,0,0,0,2.41-.42l.41-.14v-3l-2.66.25a1.76,1.76,0,0,0-1.17.47A1.65,1.65,0,0,0,79.73,142.36Z"/><path class="cls-1" d="M87.94,145v-9h1.33v1.23a8.79,8.79,0,0,1,3.29-1.43v1.37a10.45,10.45,0,0,0-1.57.45,11.63,11.63,0,0,0-1.25.54l-.45.24V145Z"/><path class="cls-1" d="M95.51,145H94.16v-9H95.5v.63a5.74,5.74,0,0,1,2.79-.81,2.68,2.68,0,0,1,2.42,1,6.92,6.92,0,0,1,.62,3.46V145H100v-4.71a6.19,6.19,0,0,0-.37-2.57,1.63,1.63,0,0,0-1.58-.69,4.83,4.83,0,0,0-1.21.17,5.22,5.22,0,0,0-1,.33l-.35.16Z"/><path class="cls-1" d="M109.14,145h-1.35V132.05h1.35v4.43a6.39,6.39,0,0,1,2.77-.69,2.67,2.67,0,0,1,2.42,1,6.81,6.81,0,0,1,.62,3.46V145H113.6v-4.71a6.23,6.23,0,0,0-.36-2.57,1.61,1.61,0,0,0-1.56-.69,6.13,6.13,0,0,0-2.2.41l-.34.13Z"/><path class="cls-1" d="M117.06,140.45a5.69,5.69,0,0,1,.88-3.56,4.57,4.57,0,0,1,6,0,5.76,5.76,0,0,1,.87,3.56,6.14,6.14,0,0,1-.82,3.59,4.68,4.68,0,0,1-6,0A6.13,6.13,0,0,1,117.06,140.45Zm1.39,0a5.73,5.73,0,0,0,.47,2.76,2.93,2.93,0,0,0,4,0,5.8,5.8,0,0,0,.47-2.76,5.17,5.17,0,0,0-.52-2.73,2.88,2.88,0,0,0-3.88,0A4.92,4.92,0,0,0,118.45,140.43Z"/><path class="cls-1" d="M126.13,136h1.35l1.82,7.83h.29l2.14-7.65h1.4l2.15,7.65h.3l1.8-7.83h1.35l-2.14,9h-2.25l-1.91-7-1.91,7h-2.25Z"/><path class="cls-1" d="M149.21,137.14h-2.86v4.3a5.88,5.88,0,0,0,.22,2c.15.32.51.48,1.07.48l1.6-.1.09,1.11a12.53,12.53,0,0,1-1.83.2,2.38,2.38,0,0,1-1.95-.68,4.48,4.48,0,0,1-.54-2.61v-4.74h-1.27V136H145v-2.75h1.34V136h2.86Z"/><path class="cls-1" d="M150.47,140.45a5.69,5.69,0,0,1,.88-3.56,4.57,4.57,0,0,1,6,0,5.76,5.76,0,0,1,.87,3.56,6.05,6.05,0,0,1-.83,3.59,4.66,4.66,0,0,1-6,0A6.05,6.05,0,0,1,150.47,140.45Zm1.38,0a5.71,5.71,0,0,0,.48,2.76,2.93,2.93,0,0,0,4,0,5.8,5.8,0,0,0,.47-2.76,5.05,5.05,0,0,0-.53-2.73,2.2,2.2,0,0,0-1.93-.75,2.25,2.25,0,0,0-2,.75A5,5,0,0,0,151.85,140.43Z"/><path class="cls-1" d="M164.33,133.94v-1.57h1.35v1.57Zm0,11v-9h1.35v9Z"/><path class="cls-1" d="M169.62,145h-1.35v-9h1.33v.63a5.74,5.74,0,0,1,2.79-.81,2.67,2.67,0,0,1,2.42,1,6.81,6.81,0,0,1,.62,3.46V145H174.1v-4.71a6,6,0,0,0-.37-2.57,1.61,1.61,0,0,0-1.57-.69,4.9,4.9,0,0,0-1.22.17,5.79,5.79,0,0,0-1,.33l-.34.16Z"/><path class="cls-1" d="M182.54,137.14h-2.86v4.3a5.8,5.8,0,0,0,.23,2c.15.32.5.48,1.07.48l1.6-.1.09,1.11a12.64,12.64,0,0,1-1.84.2,2.37,2.37,0,0,1-1.94-.68,4.48,4.48,0,0,1-.54-2.61v-4.74h-1.28V136h1.28v-2.75h1.33V136h2.86Z"/><path class="cls-1" d="M190.32,143.86l.52-.06,0,1.06a24.69,24.69,0,0,1-3.51.29,3.17,3.17,0,0,1-2.76-1.12,6,6,0,0,1-.81-3.5q0-4.74,3.77-4.74a3.42,3.42,0,0,1,2.71,1,4.73,4.73,0,0,1,.9,3.19l-.07,1h-5.94a3.67,3.67,0,0,0,.54,2.21,2.21,2.21,0,0,0,1.88.72C188.49,144,189.4,143.93,190.32,143.86Zm-.49-3.91a3.88,3.88,0,0,0-.53-2.34,2,2,0,0,0-1.73-.68,2.24,2.24,0,0,0-1.8.72,3.61,3.61,0,0,0-.62,2.3Z"/><path class="cls-1" d="M193.29,145v-9h1.33v1.23a8.79,8.79,0,0,1,3.29-1.43v1.37a10.8,10.8,0,0,0-1.57.45,12.61,12.61,0,0,0-1.25.54l-.45.24V145Z"/><path class="cls-1" d="M205.87,138.69v4.61c0,.44.38.71,1,.79l0,1.06a2.9,2.9,0,0,1-2.14-.72,7.92,7.92,0,0,1-3.24.72,2.43,2.43,0,0,1-1.89-.7,2.88,2.88,0,0,1-.65-2,2.5,2.5,0,0,1,.67-1.93,3.51,3.51,0,0,1,2.09-.77l2.82-.27v-.77a1.77,1.77,0,0,0-.4-1.31,1.42,1.42,0,0,0-1.07-.4,25.76,25.76,0,0,0-3,.18l-.56.05-.05-1a17.7,17.7,0,0,1,3.5-.4,2.51,2.51,0,0,1,2.92,2.9Zm-5.54,3.67c0,1.11.45,1.66,1.37,1.66a7.19,7.19,0,0,0,2.41-.42l.41-.14v-3l-2.66.25a1.76,1.76,0,0,0-1.17.47A1.65,1.65,0,0,0,200.33,142.36Z"/><path class="cls-1" d="M211.9,135.79a14.72,14.72,0,0,1,2,.22l.43.05,0,1.1a20.59,20.59,0,0,0-2.13-.16,2.47,2.47,0,0,0-2.08.73,4.77,4.77,0,0,0-.55,2.7,5.16,5.16,0,0,0,.52,2.74,2.39,2.39,0,0,0,2.13.78l2.12-.17.06,1.12a18.17,18.17,0,0,1-2.5.25,3.4,3.4,0,0,1-2.91-1.08,6.22,6.22,0,0,1-.8-3.64,5.75,5.75,0,0,1,.86-3.6A3.57,3.57,0,0,1,211.9,135.79Z"/><path class="cls-1" d="M221,137.14h-2.86v4.3a5.8,5.8,0,0,0,.23,2c.15.32.5.48,1.07.48l1.6-.1.09,1.11a12.64,12.64,0,0,1-1.84.2,2.37,2.37,0,0,1-1.94-.68,4.48,4.48,0,0,1-.54-2.61v-4.74h-1.28V136h1.28v-2.75h1.33V136H221Z"/><path class="cls-1" d="M225.92,136h1.35l1.82,7.83h.29l2.14-7.65h1.4l2.15,7.65h.3l1.8-7.83h1.35l-2.14,9h-2.25l-1.91-7-1.9,7h-2.25Z"/><path class="cls-1" d="M240.38,133.94v-1.57h1.35v1.57Zm0,11v-9h1.35v9Z"/><path class="cls-1" d="M249,137.14h-2.86v4.3a5.88,5.88,0,0,0,.22,2c.15.32.51.48,1.07.48l1.61-.1.09,1.11a12.78,12.78,0,0,1-1.84.2,2.36,2.36,0,0,1-1.94-.68,4.48,4.48,0,0,1-.54-2.61v-4.74h-1.28V136h1.28v-2.75h1.33V136H249Z"/><path class="cls-1" d="M252,145h-1.35V132.05H252v4.43a6.39,6.39,0,0,1,2.77-.69,2.67,2.67,0,0,1,2.42,1,6.92,6.92,0,0,1,.62,3.46V145h-1.35v-4.71a6,6,0,0,0-.37-2.57,1.59,1.59,0,0,0-1.56-.69,6.12,6.12,0,0,0-2.19.41l-.34.13Z"/><path class="cls-1" d="M263.42,136h1.44l2.1,7.83h.67l2.18-7.83h1.38l-2.54,9H266Z"/><path class="cls-1" d="M279.13,138.69v4.61c0,.44.38.71,1,.79l-.05,1.06a2.9,2.9,0,0,1-2.14-.72,7.92,7.92,0,0,1-3.24.72,2.43,2.43,0,0,1-1.89-.7,2.88,2.88,0,0,1-.65-2,2.5,2.5,0,0,1,.67-1.93,3.5,3.5,0,0,1,2.08-.77l2.83-.27v-.77a1.77,1.77,0,0,0-.4-1.31,1.43,1.43,0,0,0-1.08-.4,25.72,25.72,0,0,0-3,.18l-.56.05-.06-1a17.71,17.71,0,0,1,3.51-.4,3.07,3.07,0,0,1,2.23.7A3,3,0,0,1,279.13,138.69Zm-5.54,3.67c0,1.11.45,1.66,1.36,1.66a7.25,7.25,0,0,0,2.42-.42l.41-.14v-3l-2.66.25a1.76,1.76,0,0,0-1.17.47A1.65,1.65,0,0,0,273.59,142.36Z"/><path class="cls-1" d="M281.79,145v-9h1.34v1.23a8.79,8.79,0,0,1,3.29-1.43v1.37a10.45,10.45,0,0,0-1.57.45,13,13,0,0,0-1.26.54l-.45.24V145Z"/><path class="cls-1" d="M288,133.94v-1.57h1.35v1.57Zm0,11v-9h1.35v9Z"/><path class="cls-1" d="M291.57,140.45a5.69,5.69,0,0,1,.88-3.56,4.57,4.57,0,0,1,5.95,0,5.76,5.76,0,0,1,.87,3.56,6.05,6.05,0,0,1-.83,3.59,4.66,4.66,0,0,1-6,0A6.05,6.05,0,0,1,291.57,140.45Zm1.38,0a5.71,5.71,0,0,0,.48,2.76,2.93,2.93,0,0,0,4,0,5.8,5.8,0,0,0,.47-2.76,5.05,5.05,0,0,0-.53-2.73,2.18,2.18,0,0,0-1.93-.75,2.22,2.22,0,0,0-1.94.75A4.91,4.91,0,0,0,293,140.43Z"/><path class="cls-1" d="M307.08,136h1.35v9h-1.35v-.63a5.13,5.13,0,0,1-2.66.81,2.7,2.7,0,0,1-2.44-1,7.22,7.22,0,0,1-.6-3.53V136h1.35v4.68a6.59,6.59,0,0,0,.34,2.63c.23.44.74.67,1.55.67a4.57,4.57,0,0,0,1.2-.17,5.93,5.93,0,0,0,.94-.34l.32-.16Z"/><path class="cls-1" d="M313.85,137c-1.31,0-2,.46-2,1.37a1,1,0,0,0,.45.89,7.92,7.92,0,0,0,2.05.54,5.31,5.31,0,0,1,2.27.78,2.27,2.27,0,0,1,.67,1.89,2.33,2.33,0,0,1-.9,2,4.32,4.32,0,0,1-2.6.65,15.9,15.9,0,0,1-2.62-.25l-.54-.09.07-1.17a23.85,23.85,0,0,0,3.09.31,3,3,0,0,0,1.6-.34,1.2,1.2,0,0,0,.55-1.11,1.13,1.13,0,0,0-.47-1.06,6.8,6.8,0,0,0-2.05-.54,5.34,5.34,0,0,1-2.25-.73,2.1,2.1,0,0,1-.67-1.8,2.19,2.19,0,0,1,.93-2,4,4,0,0,1,2.31-.63,20,20,0,0,1,2.75.25l.51.09,0,1.16A22.17,22.17,0,0,0,313.85,137Z"/><path class="cls-1" d="M323.36,145v-9h1.33v1.23a8.79,8.79,0,0,1,3.29-1.43v1.37a10.45,10.45,0,0,0-1.57.45,11.63,11.63,0,0,0-1.25.54l-.45.24V145Z"/><path class="cls-1" d="M329,140.45a5.69,5.69,0,0,1,.88-3.56,4.57,4.57,0,0,1,5.95,0,5.76,5.76,0,0,1,.87,3.56,6.05,6.05,0,0,1-.83,3.59,4.66,4.66,0,0,1-6,0A6.05,6.05,0,0,1,329,140.45Zm1.38,0a5.71,5.71,0,0,0,.48,2.76,2.93,2.93,0,0,0,4,0,5.8,5.8,0,0,0,.47-2.76,5.05,5.05,0,0,0-.53-2.73,2.18,2.18,0,0,0-1.93-.75,2.25,2.25,0,0,0-1.95.75A5,5,0,0,0,330.39,140.43Z"/><path class="cls-1" d="M339,145V132.05h1.35V145Z"/><path class="cls-1" d="M349.19,143.86l.52-.06,0,1.06a24.46,24.46,0,0,1-3.51.29,3.16,3.16,0,0,1-2.75-1.12,6,6,0,0,1-.81-3.5q0-4.74,3.76-4.74a3.44,3.44,0,0,1,2.72,1,4.73,4.73,0,0,1,.9,3.19l-.07,1H344a3.67,3.67,0,0,0,.54,2.21,2.2,2.2,0,0,0,1.88.72C347.35,144,348.26,143.93,349.19,143.86ZM348.7,140a4,4,0,0,0-.53-2.34,2,2,0,0,0-1.73-.68,2.21,2.21,0,0,0-1.8.72A3.61,3.61,0,0,0,344,140Z"/><path class="cls-1" d="M355,137c-1.31,0-2,.46-2,1.37a1,1,0,0,0,.45.89,7.92,7.92,0,0,0,2,.54,5.31,5.31,0,0,1,2.27.78,2.27,2.27,0,0,1,.67,1.89,2.33,2.33,0,0,1-.9,2,4.32,4.32,0,0,1-2.6.65,15.9,15.9,0,0,1-2.62-.25l-.54-.09.07-1.17A23.85,23.85,0,0,0,355,144a3,3,0,0,0,1.6-.34,1.2,1.2,0,0,0,.55-1.11,1.13,1.13,0,0,0-.47-1.06,6.8,6.8,0,0,0-2.05-.54,5.34,5.34,0,0,1-2.25-.73,2.1,2.1,0,0,1-.67-1.8,2.19,2.19,0,0,1,.93-2,4,4,0,0,1,2.31-.63,20,20,0,0,1,2.75.25l.51.09,0,1.16A22.17,22.17,0,0,0,355,137Z"/><path class="cls-1" d="M364.09,140.45a5.69,5.69,0,0,1,.88-3.56,4.57,4.57,0,0,1,5.95,0,5.76,5.76,0,0,1,.87,3.56A6.14,6.14,0,0,1,371,144a4.68,4.68,0,0,1-6.05,0A6.13,6.13,0,0,1,364.09,140.45Zm1.39,0a5.73,5.73,0,0,0,.47,2.76,2.93,2.93,0,0,0,4,0,5.8,5.8,0,0,0,.47-2.76,5.17,5.17,0,0,0-.52-2.73,2.88,2.88,0,0,0-3.88,0A4.92,4.92,0,0,0,365.48,140.43Z"/><path class="cls-1" d="M375.34,145H374v-9h1.33v.63a5.74,5.74,0,0,1,2.79-.81,2.67,2.67,0,0,1,2.42,1,6.81,6.81,0,0,1,.62,3.46V145h-1.33v-4.71a6,6,0,0,0-.37-2.57,1.61,1.61,0,0,0-1.57-.69,4.9,4.9,0,0,0-1.22.17,5.79,5.79,0,0,0-1,.33l-.34.16Z"/><path class="cls-1" d="M392.28,137.14h-2.86v4.3a5.88,5.88,0,0,0,.22,2c.15.32.51.48,1.07.48l1.6-.1.09,1.11a12.53,12.53,0,0,1-1.83.2,2.38,2.38,0,0,1-1.95-.68,4.48,4.48,0,0,1-.54-2.61v-4.74h-1.27V136h1.27v-2.75h1.34V136h2.86Z"/><path class="cls-1" d="M395.28,145h-1.35V132.05h1.35v4.43a6.43,6.43,0,0,1,2.78-.69,2.7,2.7,0,0,1,2.42,1,6.92,6.92,0,0,1,.62,3.46V145h-1.35v-4.71a6.19,6.19,0,0,0-.37-2.57,1.61,1.61,0,0,0-1.56-.69,6.17,6.17,0,0,0-2.2.41l-.34.13Z"/><path class="cls-1" d="M409.72,143.86l.52-.06,0,1.06a24.69,24.69,0,0,1-3.51.29A3.17,3.17,0,0,1,404,144a6,6,0,0,1-.81-3.5c0-3.16,1.26-4.74,3.76-4.74a3.43,3.43,0,0,1,2.72,1,4.73,4.73,0,0,1,.9,3.19l-.07,1h-5.94a3.67,3.67,0,0,0,.54,2.21A2.21,2.21,0,0,0,407,144C407.89,144,408.79,143.93,409.72,143.86Zm-.49-3.91a3.88,3.88,0,0,0-.53-2.34,2,2,0,0,0-1.73-.68,2.24,2.24,0,0,0-1.8.72,3.61,3.61,0,0,0-.62,2.3Z"/><path class="cls-1" d="M421.31,137.14h-2.86v4.3a5.88,5.88,0,0,0,.22,2c.15.32.51.48,1.07.48l1.61-.1.09,1.11a12.78,12.78,0,0,1-1.84.2,2.36,2.36,0,0,1-1.94-.68,4.48,4.48,0,0,1-.54-2.61v-4.74h-1.28V136h1.28v-2.75h1.33V136h2.86Z"/><path class="cls-1" d="M429.09,143.86l.52-.06,0,1.06a24.46,24.46,0,0,1-3.51.29,3.16,3.16,0,0,1-2.75-1.12,6,6,0,0,1-.81-3.5q0-4.74,3.76-4.74a3.44,3.44,0,0,1,2.72,1A4.73,4.73,0,0,1,430,140l-.07,1h-5.94a3.67,3.67,0,0,0,.54,2.21,2.21,2.21,0,0,0,1.88.72C427.25,144,428.16,143.93,429.09,143.86ZM428.6,140a4,4,0,0,0-.53-2.34,2,2,0,0,0-1.73-.68,2.21,2.21,0,0,0-1.8.72,3.61,3.61,0,0,0-.62,2.3Z"/><path class="cls-1" d="M434.88,137c-1.31,0-2,.46-2,1.37a1,1,0,0,0,.45.89,7.92,7.92,0,0,0,2.05.54,5.31,5.31,0,0,1,2.27.78,2.27,2.27,0,0,1,.67,1.89,2.35,2.35,0,0,1-.89,2,4.37,4.37,0,0,1-2.61.65,15.9,15.9,0,0,1-2.62-.25l-.54-.09.07-1.17a23.85,23.85,0,0,0,3.09.31,3,3,0,0,0,1.6-.34,1.2,1.2,0,0,0,.55-1.11,1.13,1.13,0,0,0-.47-1.06,6.8,6.8,0,0,0-2.05-.54,5.34,5.34,0,0,1-2.25-.73,2.1,2.1,0,0,1-.67-1.8,2.19,2.19,0,0,1,.93-2,4,4,0,0,1,2.31-.63,20,20,0,0,1,2.75.25l.51.09,0,1.16A22.17,22.17,0,0,0,434.88,137Z"/><path class="cls-1" d="M445.09,137.14h-2.86v4.3a5.88,5.88,0,0,0,.22,2c.15.32.51.48,1.07.48l1.6-.1.09,1.11a12.53,12.53,0,0,1-1.83.2,2.38,2.38,0,0,1-1.95-.68,4.48,4.48,0,0,1-.54-2.61v-4.74h-1.27V136h1.27v-2.75h1.34V136h2.86Z"/><path class="cls-1" d="M448.09,145h-1.35v-9h1.34v.63a5.74,5.74,0,0,1,2.79-.81,2.68,2.68,0,0,1,2.42,1,6.92,6.92,0,0,1,.62,3.46V145h-1.33v-4.71a6.19,6.19,0,0,0-.37-2.57,1.63,1.63,0,0,0-1.58-.69,4.83,4.83,0,0,0-1.21.17,5.22,5.22,0,0,0-1,.33l-.35.16Z"/><path class="cls-1" d="M462.53,143.86l.52-.06,0,1.06a24.69,24.69,0,0,1-3.51.29,3.17,3.17,0,0,1-2.76-1.12,6,6,0,0,1-.81-3.5q0-4.74,3.77-4.74a3.42,3.42,0,0,1,2.71,1,4.73,4.73,0,0,1,.9,3.19l-.07,1h-5.94a3.67,3.67,0,0,0,.54,2.21,2.21,2.21,0,0,0,1.88.72C460.7,144,461.61,143.93,462.53,143.86ZM462,140a3.88,3.88,0,0,0-.53-2.34,2,2,0,0,0-1.72-.68,2.21,2.21,0,0,0-1.8.72,3.61,3.61,0,0,0-.63,2.3Z"/><path class="cls-1" d="M470.11,137.14h-2.86v4.3a5.88,5.88,0,0,0,.22,2c.15.32.51.48,1.07.48l1.6-.1.09,1.11a12.53,12.53,0,0,1-1.83.2,2.38,2.38,0,0,1-1.95-.68,4.48,4.48,0,0,1-.54-2.61v-4.74h-1.27V136h1.27v-2.75h1.34V136h2.86Z"/><path class="cls-2" d="M84.14,100.08a45,45,0,0,1-8.88,1A15.82,15.82,0,0,1,68.9,100a8,8,0,0,1-3.74-3.36,15.73,15.73,0,0,1-1.83-5.23,45.71,45.71,0,0,1-.5-7.37,46.56,46.56,0,0,1,.5-7.42,15.89,15.89,0,0,1,1.83-5.3A7.78,7.78,0,0,1,68.88,68a15.53,15.53,0,0,1,6.24-1.06,45.55,45.55,0,0,1,9,1.06L84,71.09a49.47,49.47,0,0,0-8.64-.87q-5.28,0-7,3.15T66.67,84.1A47,47,0,0,0,67,90.19a13.32,13.32,0,0,0,1.23,4.15A5.3,5.3,0,0,0,70.87,97a12.91,12.91,0,0,0,5.14.8,43.94,43.94,0,0,0,8-.87Z"/><path class="cls-2" d="M88,88.56q0-6.57,2.35-9.5c1.57-2,4.22-2.93,8-2.93s6.36,1,7.92,2.93,2.33,5.12,2.33,9.5-.74,7.57-2.21,9.55-4.16,3-8.07,3-6.59-1-8.06-3S88,92.94,88,88.56Zm3.7-.07q0,5.25,1.27,7.37c.85,1.4,2.62,2.11,5.33,2.11s4.47-.7,5.3-2.09,1.25-3.85,1.25-7.37-.47-5.94-1.39-7.27-2.65-2-5.16-2-4.24.66-5.19,2S91.73,85,91.73,88.49Z"/><path class="cls-2" d="M118,100.61h-3.6v-24H118v1.68a13.62,13.62,0,0,1,7-2.16c3,0,5.06.81,6.24,2.45a18,18,0,0,1,4.1-1.71,16.15,16.15,0,0,1,4.44-.74c3.2,0,5.36.85,6.46,2.57s1.66,4.79,1.66,9.24v12.67h-3.6V88q0-5-1-6.84c-.64-1.23-2-1.85-4.08-1.85a12.64,12.64,0,0,0-3.27.46,15.74,15.74,0,0,0-2.59.89l-.91.43c.41,1.06.62,3.39.62,7v12.48h-3.6V88.22c0-3.45-.31-5.8-.93-7s-2-1.85-4.11-1.85a11.64,11.64,0,0,0-3.14.46,14.12,14.12,0,0,0-2.47.89l-.82.43Z"/><path class="cls-2" d="M158.16,100.61h-3.6v-24h3.55v1.68a13.62,13.62,0,0,1,7-2.16c3,0,5,.81,6.24,2.45a17.63,17.63,0,0,1,4.1-1.71,16.15,16.15,0,0,1,4.44-.74c3.2,0,5.35.85,6.46,2.57S188,83.49,188,87.94v12.67h-3.6V88q0-5-1-6.84c-.64-1.23-2-1.85-4.08-1.85a12.62,12.62,0,0,0-3.26.46,15.74,15.74,0,0,0-2.59.89l-.91.43c.41,1.06.62,3.39.62,7v12.48h-3.6V88.22c0-3.45-.31-5.8-.94-7s-2-1.85-4.1-1.85a11.64,11.64,0,0,0-3.14.46,14.28,14.28,0,0,0-2.48.89l-.81.43Z"/><path class="cls-2" d="M209.66,76.61h3.6v24h-3.6V98.93a13.75,13.75,0,0,1-7.1,2.16c-3.27,0-5.43-.85-6.51-2.55s-1.6-4.83-1.6-9.4V76.61h3.6V89.09c0,3.49.3,5.82.91,7s2,1.77,4.13,1.77a12.06,12.06,0,0,0,3.21-.45,15.16,15.16,0,0,0,2.5-.89l.86-.43Z"/><path class="cls-2" d="M223.77,100.61h-3.6v-24h3.56v1.68a15.33,15.33,0,0,1,7.44-2.16q4.8,0,6.45,2.59t1.66,9.22v12.67h-3.55V88q0-5-1-6.84t-4.2-1.85a12.78,12.78,0,0,0-3.24.46,15.42,15.42,0,0,0-2.61.89l-.92.43Z"/><path class="cls-2" d="M246,71.18V67h3.6v4.17Zm0,29.43v-24h3.6v24Z"/><path class="cls-2" d="M265.44,76.13a41.79,41.79,0,0,1,5.37.57l1.16.15-.15,2.93a56.36,56.36,0,0,0-5.66-.44q-4.08,0-5.55,2t-1.46,7.2q0,5.25,1.37,7.32t5.69,2.06l5.66-.43.14,3a50.55,50.55,0,0,1-6.67.67c-3.74,0-6.33-1-7.75-2.88s-2.14-5.16-2.14-9.72.77-7.76,2.31-9.6S261.85,76.13,265.44,76.13Z"/><path class="cls-2" d="M294.33,83.86V96.14c.1,1.19,1,1.89,2.79,2.12l-.15,2.83q-3.8,0-5.71-1.92a21.12,21.12,0,0,1-8.64,1.92,6.54,6.54,0,0,1-5-1.87,7.66,7.66,0,0,1-1.73-5.38q0-3.51,1.78-5.16a9.46,9.46,0,0,1,5.57-2l7.53-.72V83.86a4.86,4.86,0,0,0-1.05-3.51,3.92,3.92,0,0,0-2.88-1,69,69,0,0,0-8,.48l-1.49.14-.14-2.74a48.64,48.64,0,0,1,9.36-1.05q4.08,0,5.92,1.87C293.72,79.25,294.33,81.2,294.33,83.86Zm-14.78,9.79c0,2.94,1.21,4.41,3.65,4.41a19.32,19.32,0,0,0,6.43-1.1l1.1-.38V88.66l-7.1.67a4.6,4.6,0,0,0-3.12,1.25A4.4,4.4,0,0,0,279.55,93.65Z"/><path class="cls-2" d="M313.87,79.73h-7.63V91.2q0,4.13.6,5.42c.4.87,1.35,1.3,2.85,1.3l4.27-.29.24,3a33.05,33.05,0,0,1-4.89.53q-3.75,0-5.19-1.83t-1.44-7V79.73h-3.4V76.61h3.4V69.26h3.56v7.35h7.63Z"/><path class="cls-2" d="M318.28,71.18V67h3.6v4.17Zm0,29.43v-24h3.6v24Z"/><path class="cls-2" d="M327.74,88.56q0-6.57,2.35-9.5c1.57-2,4.22-2.93,8-2.93s6.36,1,7.92,2.93,2.32,5.12,2.32,9.5-.73,7.57-2.2,9.55-4.16,3-8.07,3-6.59-1-8.06-3S327.74,92.94,327.74,88.56Zm3.7-.07q0,5.25,1.27,7.37c.85,1.4,2.62,2.11,5.33,2.11s4.47-.7,5.3-2.09,1.25-3.85,1.25-7.37-.47-5.94-1.39-7.27-2.65-2-5.16-2-4.24.66-5.19,2S331.44,85,331.44,88.49Z"/><path class="cls-2" d="M357.74,100.61h-3.6v-24h3.55v1.68a15.33,15.33,0,0,1,7.44-2.16q4.8,0,6.46,2.59t1.65,9.22v12.67h-3.55V88q0-5-1-6.84t-4.2-1.85a12.66,12.66,0,0,0-3.24.46,15.59,15.59,0,0,0-2.62.89l-.91.43Z"/><path class="cls-2" d="M387.45,79.34q-5.24,0-5.23,3.65a2.53,2.53,0,0,0,1.2,2.38,20.63,20.63,0,0,0,5.47,1.44,14.41,14.41,0,0,1,6.05,2.09c1.18.89,1.78,2.57,1.78,5a6.26,6.26,0,0,1-2.38,5.42c-1.58,1.15-3.9,1.73-6.94,1.73a44.19,44.19,0,0,1-7-.67l-1.44-.24.19-3.12a61.67,61.67,0,0,0,8.25.81,8.2,8.2,0,0,0,4.25-.89,3.19,3.19,0,0,0,1.47-3,3,3,0,0,0-1.25-2.83,18.37,18.37,0,0,0-5.47-1.42,14.36,14.36,0,0,1-6-2q-1.78-1.29-1.78-4.8a5.83,5.83,0,0,1,2.47-5.18,10.73,10.73,0,0,1,6.17-1.68,50.08,50.08,0,0,1,7.34.67L396,77l-.1,3.07A62.81,62.81,0,0,0,387.45,79.34Z"/></g><g id="Layer_5" data-name="Layer 5"><g id="Illustrations"><g id="Artboard"><g id="Group-72"><g id="Group-24-Copy"><path id="Path" d="M631.36,244.51c.18-8,3.36-15.5,5.36-23.2a81.87,81.87,0,0,0,2.27-29c-.82-8.12-5-17.19,1.41-24.19,8.16-8.89,15.12-20.41,29.15-22.22,5.36-.7,10.5-2.23,15.75-3.38l2.62-1.48c3.15-3,8.11,0,11.14-3.37,1.79-3.4,1.92-6.14-1-9.59-2.57-3-6.08-6.52-4.48-11.51,0-5.91-3.85-11.24-2.53-17.34a14.06,14.06,0,0,1,2-18.13c7.24-11.06,28.56-14.72,36.9-5.33a35,35,0,0,1,8.71,31c-.91,4.73-6.41,7.11-5,12.44-1,2.58-1,6-5,6l-.36.38c-1.21,4.51-.18,9-.18,13.56A200.2,200.2,0,0,0,755.79,155c9.83,4.69,20.05,9.94,21.65,21.72,2.23,16.38,1.23,34.38,2.09,51l.52,10C780.67,250.24,631.17,252.92,631.36,244.51Z"/><path id="Shape" class="cls-3" d="M669.65,182.58q-1.15-10.52-1.84-21.1c-.19-3.22.51-7.5,3.78-7.87a458,458,0,0,0,14.17,80.81h-6.91A423.37,423.37,0,0,1,669.65,182.58Zm10.05-14.45a125.91,125.91,0,0,1-.43-18.32c5.93-2.94,15-7.44,19.19-4.36.61,15.17,4.71,30.27,5.26,45.6a39.48,39.48,0,0,0,1,9.31,29,29,0,0,0,1.42,3.84c.29,10.1,1.18,20.16,1.5,30.22q-6.43,2-8.88,2a22.3,22.3,0,0,1-8.07-2C686,212.49,682.83,190.39,679.7,168.13Z"/><path class="cls-3" d="M713.42,234.42c-.15-3-.46-6-.9-9a36.3,36.3,0,0,1-.73-8.25,2.2,2.2,0,0,1,.45-1.36c.85-.93,2.45-.19,3.51.57a135,135,0,0,0,28.07,15.75,11.89,11.89,0,0,1,3.84,2.25,247.29,247.29,0,0,1-25.88,2Q719,236.42,713.42,234.42Z"/><path class="cls-2" d="M663.77,240.42h-3.29c-3.52-22.68-4.61-45.69-4.69-68.65a21.78,21.78,0,0,1,1.8-9.35V163c0,25.77,1.45,51.64,6.11,77,0,.13,0,.27.07.41Zm22.13,0h-4.19a451.33,451.33,0,0,1-11.05-60q-1.15-10.44-1.83-20.95c-.22-2.49.19-5.63,1.83-7.05.42,6.37,1,12.74,1.66,19.07a437.46,437.46,0,0,0,13.58,68.93Zm-37.52,0H646c-.06-1-.11-2.07-.17-3.11-1.3-21.74-2.2-43.78,2-65.15a1.3,1.3,0,0,1,.15-.74v2.94c-2.16,17.9-1.46,36.08-.36,54.08.23,4,.46,8,.72,12Z"/><path class="cls-2" d="M691.8,161.26c4.18,26.7,7.08,42.19,6,69.16-.84,18.15-1.4,5.27-3,1.88a17.79,17.79,0,0,1-1-2,.63.63,0,0,0-.13-.46c-5.72-23.85-10.68-36.37-14.2-60.63a120.38,120.38,0,0,1-.43-17.91l1.74-.84C680.65,153.68,691.34,158,691.8,161.26Z"/><path class="cls-2" d="M734,105c.29-1.51.53-2.74.57-3.06a48.68,48.68,0,0,0-.2-10.45c-.74-5.42-2.82-11-8-13.48a2.51,2.51,0,0,0-2.14,0c-5-7.22-20.39-4.13-26.55,1.7a8.81,8.81,0,0,0-3.25,6.89,2.32,2.32,0,0,0-.7,1.23,3.55,3.55,0,0,0-.09.92c0,.18-.11.38,0,.29a2.85,2.85,0,0,1-.33.52,2.34,2.34,0,0,0,.18,3.21,2.18,2.18,0,0,0,2.41.33c2.34-1.12,6.88,1.53,9,2.34,4.39,1.62,11-.46,15.7-.29a6.9,6.9,0,0,1,2.59.45c2.23,1.08,2.38,4.19,2.82,6.7a15.89,15.89,0,0,0,6.54,10.16S733.39,108.07,734,105Z"/><path class="cls-1" d="M700,111.42c-.67-.84.72-2.58,1.22-3.52.22-.42.74-2.25,2-2.48.72-.13.61,2.23.59,2.39a2,2,0,0,1-.45,1.77,9,9,0,0,1-3.32,1.84Z"/><path class="cls-2" d="M770.18,234.42h-4.92c0-18.65,1.27-44.31-13.64-58.43a51,51,0,0,1,1.52,13.86c-.12,6.48-.72,13.06-1.47,19.58a4.53,4.53,0,0,1-.94,2.5,3.68,3.68,0,0,1-3,1.13,12.43,12.43,0,0,1-6.22-1.9c-1.81-1.17-3-3.71-4.41-5.46a137.74,137.74,0,0,1-8.54-11.88c-4.58-7.26-18.55-27.26-7.87-34.45a8,8,0,0,0,3.22-3.33c1.67-4.15-4.87-7.79-6.13-13.07a3.44,3.44,0,0,1,0-2,3.91,3.91,0,0,1,1.31-1.57l4.78-4c-1.23,8.82,3.89,15.13,12.21,17.65,8.61,2.63,17.59,5.6,23.62,11.92,5,5.21,7.47,12.18,8.65,19.1,1.65,9.71,1,19.56.76,29.33a171.73,171.73,0,0,0,1,21Z"/></g><g id="Discovery-provider-Copy"><g id="Group-51"><path id="Oval-Copy-29" class="cls-4" d="M603.56,235.43c13.74-15.13,64.2-.53,49.47-13.52s-44.16-5.31-62.38-.34-27.19,18.54-24.71,24.15S589.83,250.57,603.56,235.43Z"/><g id="Group-33"><path d="M666.84,174.46c8.5,3.19,13.09,5.28,17.56,8.45,6.07,4.29,10,9.73,11.62,16.81,2.05,9,1.76,34.7,1.76,49.7,0,1.36-65.15,11.67-77.16,12.08C583,262.8,559.71,256.63,545,240l-.67-.76-.16-1c-.15-.93-.31-1.86-.49-2.78,0-.21-.43-2.21-.57-3-.28-1.46-.53-2.84-.77-4.27a125.4,125.4,0,0,1-2-22.3,58.53,58.53,0,0,1,2.24-16.38c2.64-8.63,11.81-16.42,19.54-18.12a113.66,113.66,0,0,0,15.14-4,115.25,115.25,0,0,0,15.51-6.79c1.1-2.84.75-4.36-1.54-6.64-.21-.22-1.32-1.29-1.63-1.6-4.66-4.62-9.56-8.27-8.55-13.61A27.58,27.58,0,0,0,579,132c-2-5.26-2.84-8.14-2.64-11.59-5.08-7.3-4.91-20.9.92-27.73,8.55-15.31,40.63-22.08,52.67-10.73,10.54,9.51,16.1,27.24,14.47,41.27-.26,2.53-1.05,4.25-2.93,7.31l-.39.65c-1.59,2.62-1.9,3.73-1.33,5.3l.37,1-.29,1.05c-.1.37-.18.72-.34,1.55-.46,2.4-3.58,3.68-4.45,5a7.4,7.4,0,0,1-3.68,3,36.76,36.76,0,0,0,.72,7.72c.06.38.09.54.13.75.15,1,.27,1.8.37,2.53A272.94,272.94,0,0,0,666.84,174.46Z"/><path class="cls-3" d="M634.25,118.42c-1.6-2.15-3.74-3.41-6-3.25-4.36.3-7.52,5.77-7.07,12.22.29,4.06,2,7.55,4.22,9.49-.52,2.79-2.16-.34-3.91,2.21-1.44,2.12-1.89,5.48-3.18,7.7-2.6,4.48-8.76,1.63-13.58.94-6.59-.94-10.42.58-14.66-4.39-1-1-3.24-5.45-5.05-11.37-1.58-5.19-1.69-7.11-2.64-10.81-.48-1.89-.07-6-.26-6.13a6.71,6.71,0,0,1-2.9-5.94,23.73,23.73,0,0,1,1.84-6.4,50.25,50.25,0,0,1,7.87-11.79,7.06,7.06,0,0,1,2.25-1.73c.78-.32,1.63-.4,2.41-.74a18.26,18.26,0,0,0,3.09-2.53,3,3,0,0,1,3.65-.43c.5-1.32,2.74-.43,4-1.08a16.14,16.14,0,0,1,4.28-.08c1.52-.11,2.9-2,4.42.09a4.24,4.24,0,0,0,1,1.28,3.4,3.4,0,0,0,1.57.32c3.16.32,5.4,3.74,8.56,3.87a6,6,0,0,1,2.11.14c3.12,1.13,4.91,5.91,6,8.64C634,103,635,111.83,634.25,118.42Z"/><path class="cls-2" d="M582.54,118c-.29-1.51-.53-2.74-.57-3.06a48.68,48.68,0,0,1,.2-10.45c.74-5.42,2.82-11,8-13.48a2.48,2.48,0,0,1,2.13,0c5.06-7.22,18.39-7.13,24.55-1.3a8.79,8.79,0,0,1,3.26,6.89,2.38,2.38,0,0,1,.7,1.23,4,4,0,0,1,.09.92c0,.18.11.38,0,.29a2.85,2.85,0,0,0,.33.52,2.34,2.34,0,0,1-.18,3.21,2.18,2.18,0,0,1-2.41.33c-2.34-1.12-6.88,1.53-9,2.34a44.24,44.24,0,0,1-13.7,2.71,7,7,0,0,0-2.6.45c-2.22,1.08-2.37,4.19-2.81,6.7A15.86,15.86,0,0,1,584,125.42S583.16,121.07,582.54,118Z"/><path id="Path-Copy-46" class="cls-3" d="M716.4,95.19c.53.15,4.16-2.28,4.4-1.78,6,2,13.18-.21,14,6,.4,2,.59,9-.66,10.48a1.79,1.79,0,0,1-.18,1,2.57,2.57,0,0,1-.38.55c-.08.1-.11.27-.13.16a2.32,2.32,0,0,0-.06.45,1.64,1.64,0,0,1-3.14.73c-.81-1.75-4.11-7.84-5.71-8.41C721.25,103.19,712.29,94.06,716.4,95.19Z"/><path id="Path-Copy-6" class="cls-2" d="M597,169.59c-1.5,4-28.43,17.15-28.31,19.31.11,1.76,21.57-3.36,27.74-3.1,1.42.06,7.88,1.23-3.17,10.63s-24.09,9.68-28,14.67-8,6.15-12.25,14.83c-.21-9.65-4.4-22.37-.69-32.45,1.53-4.16,5-11.07,26.14-16.18C587.76,175.06,597,169.59,597,169.59Z"/><path class="cls-5" d="M661.77,246.76a151.36,151.36,0,0,1-31.51,5.94l.19-.12c12.86-8.13,24.44-16.56,32.92-26.37,7.67-8.77,14.7-18.57,16.81-29C680.2,197.26,671.4,231.21,661.77,246.76Z"/><path class="cls-5" d="M618.93,253.16a141.68,141.68,0,0,1-26.79-1.39c8.05-4.84,15.86-9.78,23.8-14.64,24.32-14.75,51-29.9,50.8-52,5.69,1.7,6.21,5.24,5.43,7.66-3.63,11.34-8.63,22.37-17,32.37q-2.4,2.87-5.15,5.63c-2,1.91-4,3.79-6.14,5.64a159.57,159.57,0,0,1-24.49,16.7Z"/><path class="cls-5" d="M573.18,241.11c.8-3.06,6.83-15,18.7-26.93,11.63-11.65,29.11-23.23,29.3-23.93,2.65-6.68,8.78-12.45,11.45-19,4.06-.3,8.16,1.12,13.51,3.79.71.35,4.29,2.53,4.93,2.86a27,27,0,0,1-2.9,8.06c-7.78,11.55-44.26,36.13-55,46.61-.8.78,14.43-7.6,16.43-8a2.66,2.66,0,0,0,1.31-.68c14.18-11.75,40-28.34,47.27-42.42,3.2,1,3.32,3.05,2.68,4.43a87.21,87.21,0,0,1-4.69,9c-9.23,15.61-40.55,39.73-67.29,55.54C584.25,241.93,571.21,248.71,573.18,241.11Z"/></g></g></g></g></g></g></g></svg>